<?xml version="1.0" encoding="UTF-8" standalone="no"?>
<!-- Created with Inkscape (http://www.inkscape.org/) -->

<svg
   xmlns:dc="http://purl.org/dc/elements/1.1/"
   xmlns:cc="http://creativecommons.org/ns#"
   xmlns:rdf="http://www.w3.org/1999/02/22-rdf-syntax-ns#"
   xmlns:svg="http://www.w3.org/2000/svg"
   xmlns="http://www.w3.org/2000/svg"
   xmlns:sodipodi="http://sodipodi.sourceforge.net/DTD/sodipodi-0.dtd"
   xmlns:inkscape="http://www.inkscape.org/namespaces/inkscape"
   width="300mm"
   height="300mm"
   viewBox="0 0 300 300.00001"
   version="1.1"
   id="svg8"
   inkscape:version="0.92.5 (2060ec1f9f, 2020-04-08)"
   sodipodi:docname="demo-tree.svg"
   xml:space="preserve"><defs
     id="defs2"><clipPath
       clipPathUnits="userSpaceOnUse"
       id="clipPath4344"><rect
         style="fill:#00ff00;fill-opacity:0.41544201;stroke:none;stroke-width:0.264999;stroke-dasharray:none"
         id="rect4346"
         width="448.2951"
         height="200.26271"
         x="30.505629"
         y="54.441097" /></clipPath></defs><sodipodi:namedview
     id="base"
     pagecolor="#ffffff"
     bordercolor="#666666"
     borderopacity="1.0"
     inkscape:pageopacity="0.0"
     inkscape:pageshadow="2"
     inkscape:zoom="0.84313889"
     inkscape:cx="566.92913"
     inkscape:cy="566.92913"
     inkscape:document-units="mm"
     inkscape:current-layer="layer4"
     showgrid="false"
     units="mm"
     inkscape:pagecheckerboard="false"
     inkscape:window-width="1920"
     inkscape:window-height="1136"
     inkscape:window-x="0"
     inkscape:window-y="27"
     inkscape:window-maximized="1"
     inkscape:showpageshadow="0"
     inkscape:deskcolor="#d1d1d1"
     inkscape:snap-object-midpoints="true"
     inkscape:snap-center="false"
     inkscape:snap-grids="true"
     inkscape:snap-bbox="false"
     inkscape:snap-bbox-edge-midpoints="true"
     inkscape:bbox-paths="true"
     inkscape:bbox-nodes="true"
     inkscape:snap-bbox-midpoints="true"
     inkscape:snap-global="true"
     inkscape:object-nodes="true"
     inkscape:snap-others="true"
     inkscape:object-paths="true" /><metadata
     id="metadata5"><rdf:RDF><cc:Work
         rdf:about=""><dc:format>image/svg+xml</dc:format><dc:type
           rdf:resource="http://purl.org/dc/dcmitype/StillImage" /><dc:title></dc:title></cc:Work></rdf:RDF></metadata><g
     inkscape:label="Branches"
     inkscape:groupmode="layer"
     id="layer1"
     transform="translate(0,3.000061)"><flowRoot
   xml:space="preserve"
   id="flowRoot18"
   style="font-style:normal;font-variant:normal;font-weight:500;font-stretch:normal;font-size:40px;line-height:1.25;font-family:'CMU Sans Serif';-inkscape-font-specification:'CMU Sans Serif, Medium';font-variant-ligatures:normal;font-variant-caps:normal;font-variant-numeric:normal;font-feature-settings:normal;text-align:start;letter-spacing:0px;word-spacing:0px;writing-mode:lr-tb;text-anchor:start;fill:#000000;fill-opacity:1;stroke:none"><flowRegion
     id="flowRegion20"
     style="font-style:normal;font-variant:normal;font-weight:500;font-stretch:normal;font-size:40px;font-family:'CMU Sans Serif';-inkscape-font-specification:'CMU Sans Serif, Medium';font-variant-ligatures:normal;font-variant-caps:normal;font-variant-numeric:normal;font-feature-settings:normal;text-align:start;writing-mode:lr-tb;text-anchor:start"><rect
       id="rect22"
       width="1310"
       height="318"
       x="354"
       y="142"
       style="font-style:normal;font-variant:normal;font-weight:500;font-stretch:normal;font-size:40px;font-family:'CMU Sans Serif';-inkscape-font-specification:'CMU Sans Serif, Medium';font-variant-ligatures:normal;font-variant-caps:normal;font-variant-numeric:normal;font-feature-settings:normal;text-align:start;writing-mode:lr-tb;text-anchor:start" /></flowRegion><flowPara
     id="flowPara24" /></flowRoot>

<flowRoot
   xml:space="preserve"
   id="flowRoot4050"
   style="font-style:normal;font-variant:normal;font-weight:500;font-stretch:normal;font-size:48px;line-height:1.25;font-family:'CMU Sans Serif';-inkscape-font-specification:'CMU Sans Serif, Medium';font-variant-ligatures:normal;font-variant-caps:normal;font-variant-numeric:normal;font-feature-settings:normal;text-align:start;letter-spacing:0px;word-spacing:0px;writing-mode:lr-tb;text-anchor:start;fill:#000000;fill-opacity:1;stroke:none"><flowRegion
     id="flowRegion4052"><rect
       id="rect4054"
       width="528"
       height="114"
       x="716"
       y="168" /></flowRegion><flowPara
     id="flowPara4056" /></flowRoot><path
   style="fill:none;stroke:#000000;stroke-width:2;stroke-linecap:butt;stroke-linejoin:round;stroke-miterlimit:4;stroke-dasharray:none;stroke-opacity:1"
   d="m 260.94272,169.67751 h -40.21667 v 0.52917 z"
   id="path5059"
   inkscape:connector-curvature="0" /><path
   style="fill:none;stroke:#000000;stroke-width:2.30089498;stroke-linecap:butt;stroke-linejoin:round;stroke-miterlimit:4;stroke-dasharray:none;stroke-opacity:1"
   d="m 265.54675,215.04484 h -71.4375 z"
   id="path5061"
   inkscape:connector-curvature="0" /><path
   style="fill:none;stroke:#000000;stroke-width:2;stroke-linecap:butt;stroke-linejoin:round;stroke-miterlimit:4;stroke-dasharray:none;stroke-opacity:1"
   d="m 260.94272,124.43269 h -40.21667 v 0.52917 z"
   id="path5059-5"
   inkscape:connector-curvature="0" /><path
   style="fill:none;stroke:#000000;stroke-width:2.30089498;stroke-linecap:butt;stroke-linejoin:round;stroke-miterlimit:4;stroke-dasharray:none;stroke-opacity:1"
   d="m 265.54675,260.28966 h -71.4375 z"
   id="path5061-1"
   inkscape:connector-curvature="0" /><path
   style="fill:none;stroke:#000000;stroke-width:2;stroke-linecap:butt;stroke-linejoin:round;stroke-miterlimit:4;stroke-dasharray:none;stroke-opacity:1"
   d="M 220.72605,147.58427 H 143.03347 V 78.923342 h 126.64051"
   id="path5142-1"
   inkscape:connector-curvature="0"
   sodipodi:nodetypes="cccc" /><path
   style="fill:none;stroke:#000000;stroke-width:2;stroke-linecap:butt;stroke-linejoin:round;stroke-miterlimit:4;stroke-dasharray:none;stroke-opacity:1"
   d="M 142.87499,114.9666 84.137499,114.43744 V 33.678524 H 269.67397"
   id="path5180"
   inkscape:connector-curvature="0"
   sodipodi:nodetypes="cccc" /><path
   transform="translate(0,-3.000061)"
   style="fill:none;stroke:#000000;stroke-width:2;stroke-linecap:butt;stroke-linejoin:round;stroke-miterlimit:4;stroke-dasharray:none;stroke-opacity:1"
   d="m 220.72605,127.96192 v 45.24482 z"
   id="path5100"
   inkscape:connector-curvature="0" /><path
   transform="translate(0,-3.000061)"
   style="fill:none;stroke:#000000;stroke-width:2;stroke-linecap:butt;stroke-linejoin:round;stroke-opacity:1;stroke-miterlimit:4;stroke-dasharray:none"
   d="m 194.10925,218.0449 v 45.24482"
   id="path5102"
   inkscape:connector-curvature="0" /><path
   transform="translate(0,-3.000061)"
   style="fill:none;stroke:#000000;stroke-width:2;stroke-linecap:butt;stroke-linejoin:round;stroke-miterlimit:4;stroke-dasharray:none;stroke-opacity:1"
   d="M 84.387197,76.559168 H 30.691666 V 240.66731 H 194.10925"
   id="path5221"
   inkscape:connector-curvature="0"
   sodipodi:nodetypes="cccc" /><path
   transform="translate(0,-3.000061)"
   style="fill:none;stroke:#000000;stroke-width:2;stroke-linecap:butt;stroke-linejoin:round;stroke-opacity:1;stroke-miterlimit:4;stroke-dasharray:none"
   d="M 30.691666,158.61324 H 10.583333"
   id="path5238"
   inkscape:connector-curvature="0" /></g><g
     inkscape:groupmode="layer"
     id="layer4"
     inkscape:label="Overlay"><path
       style="fill:#639fab;fill-opacity:1;stroke:#639fab;stroke-width:1;stroke-linecap:butt;stroke-linejoin:miter;stroke-miterlimit:4;stroke-dasharray:none;stroke-dashoffset:0;stroke-opacity:1;paint-order:normal"
       d="m 193.33238,263.96771 c -0.10912,-0.17655 -0.18311,-5.26023 -0.16444,-11.29707 l 0.034,-10.97608 h -81.38129 c -62.878139,0 -81.466899,-0.0856 -81.757848,-0.37657 -0.28902,-0.28902 -0.376571,-9.84658 -0.376571,-41.10878 v -40.73222 h -9.571129 -9.571129 v -0.94142 -0.94143 h 9.569959 9.569958 l 0.07962,-40.87343 0.07962,-40.873429 26.595188,-0.08023 26.595189,-0.08022 V 56.258203 c 0,-10.685745 0.08571,-19.651998 0.190479,-19.925006 0.173003,-0.450845 7.570793,-0.496377 80.648524,-0.496377 h 80.45806 v 0.941422 0.941422 H 164.78033 85.230125 v 39.34511 39.345106 l 20.632845,0.19615 c 11.34806,0.10788 24.12673,0.23628 28.39704,0.28533 l 7.76419,0.0892 0.081,-17.89927 0.081,-17.899272 51.07218,-0.07939 51.07217,-0.0794 v 0.942366 0.942364 h -50.21063 -50.21063 l 0.0799,33.342052 0.0799,33.34205 h 37.8138 37.81381 l 0.0645,-10.98326 c 0.0355,-6.0408 0.12819,-11.23039 0.20598,-11.53243 0.13163,-0.5111 0.98218,-0.54916 12.27228,-0.54916 h 12.13086 l -0.0983,1.01987 -0.0983,1.01988 -10.66946,0.19093 c -5.8682,0.10502 -10.91658,0.21093 -11.21862,0.23536 -0.51719,0.0418 -0.54916,1.28668 -0.54916,21.38333 v 21.33891 h 11.29707 11.29707 v 1.04859 1.04859 l -11.97369,0.22041 c -7.3631,0.13553 -12.08718,0.10689 -12.26845,-0.0744 -0.17431,-0.17431 -0.2769,-4.79622 -0.25106,-11.31083 l 0.0437,-11.01607 h -38.5493 c -29.56438,0 -38.63707,-0.0878 -38.92588,-0.37657 -0.283,-0.283 -0.37656,-4.33751 -0.37656,-16.31799 0,-8.76778 -0.10591,-15.9443 -0.23536,-15.94782 -0.12945,-0.004 -13.21093,-0.14341 -29.06996,-0.31087 -20.59357,-0.21746 -28.956919,-0.40599 -29.262556,-0.65965 -0.353213,-0.29314 -0.427942,-3.85559 -0.427942,-20.400421 V 77.573221 H 57.300656 31.567839 l 0.07905,81.040799 0.07905,81.04079 h 80.648531 80.64854 l 0.0591,-10.94176 c 0.0325,-6.01796 0.13395,-11.13695 0.2255,-11.37552 0.13976,-0.36421 4.24392,-0.43376 25.59471,-0.43376 h 25.42826 v 1.09832 1.09833 H 219.69669 195.0628 v 21.49582 21.49581 h 24.63389 24.63389 v 1.09833 1.09832 h -25.39989 c -16.97395,0 -25.4657,-0.10648 -25.59827,-0.32099 z"
       id="path5653"
       inkscape:connector-curvature="0" /><path
       style="fill:#639fab;fill-opacity:1;stroke:#639fab;stroke-width:3.77952761;stroke-linecap:butt;stroke-linejoin:miter;stroke-miterlimit:4;stroke-dasharray:none;stroke-dashoffset:0;stroke-opacity:1;paint-order:normal"
       d="m 929.38425,138.41136 v -4.15116 h 28.46506 28.46506 v 4.15116 4.15115 h -28.46506 -28.46506 z"
       id="path5655"
       inkscape:connector-curvature="0"
       transform="scale(0.26458333)" /><path
       style="fill:#1c5d99;fill-opacity:1;stroke:#1c5d99;stroke-width:3.77952761;stroke-linecap:butt;stroke-linejoin:miter;stroke-miterlimit:4;stroke-dasharray:none;stroke-dashoffset:0;stroke-opacity:1;paint-order:normal"
       d="m 1010.9064,342.93409 c -13.87886,-3.37713 -21.82548,-11.51272 -23.97056,-24.54052 l -0.82997,-5.04069 h -28.36081 -28.36081 v -3.55813 -3.55813 h 28.46506 28.46506 l 0.007,-2.6686 c 0.0231,-9.34549 6.78463,-18.97517 17.11573,-24.37616 4.9457,-2.58556 7.5753,-3.13838 14.9009,-3.13265 11.091,0.009 19.2831,3.35728 25.9757,10.61784 5.6689,6.15009 7.2218,11.25315 7.2153,23.71072 -0.01,15.61835 -5.4216,24.18115 -19.0238,30.09163 -6.5449,2.8439 -15.7156,3.88616 -21.5984,2.45469 z"
       id="path5657"
       inkscape:connector-curvature="0"
       transform="scale(0.26458333)" /><path
       style="fill:#639fab;fill-opacity:1;stroke:#639fab;stroke-width:3.77952761;stroke-linecap:butt;stroke-linejoin:miter;stroke-miterlimit:4;stroke-dasharray:none;stroke-dashoffset:0;stroke-opacity:1;paint-order:normal"
       d="m 930.27378,485.85338 c -0.48924,-0.50569 -0.88953,-2.43164 -0.88953,-4.27989 v -3.36046 h 28.46506 28.46506 v 3.55813 3.55813 l -19.86624,0.008 c -10.92644,0.005 -23.33542,0.32943 -27.57553,0.72176 -4.24011,0.39233 -8.10958,0.29959 -8.59882,-0.2061 z"
       id="path5659"
       inkscape:connector-curvature="0"
       transform="scale(0.26458333)" /><path
       style="fill:#639fab;fill-opacity:1;stroke:#639fab;stroke-width:3.77952761;stroke-linecap:butt;stroke-linejoin:miter;stroke-miterlimit:4;stroke-dasharray:none;stroke-dashoffset:0;stroke-opacity:1;paint-order:normal"
       d="m 929.38425,653.15455 v -4.15116 h 28.46506 28.46506 v 3.37097 3.37097 l -21.53893,0.78018 c -11.84641,0.42911 -24.65569,0.78019 -28.46506,0.78019 h -6.92613 z"
       id="path5661"
       inkscape:connector-curvature="0"
       transform="scale(0.26458333)" /><path
       style="fill:#1c5d99;fill-opacity:1;stroke:#1c5d99;stroke-width:3.77952761;stroke-linecap:butt;stroke-linejoin:miter;stroke-miterlimit:4;stroke-dasharray:none;stroke-dashoffset:0;stroke-opacity:1;paint-order:normal"
       d="M 1007.3105,854.85047 C 996.07288,850.84191 989.98951,844.402 987.45316,833.82933 l -1.37539,-5.73326 h -28.34676 -28.34676 v -4.15116 -4.15115 h 28.46506 28.46506 v -2.74984 c 0,-1.51241 0.80634,-5.46508 1.79186,-8.78371 2.10981,-7.10448 7.36587,-12.26727 16.96107,-16.66012 12.7893,-5.85511 31.7592,-1.66495 40.5067,8.94731 4.47,5.42285 5.9774,11.23834 5.9468,22.9421 -0.032,12.20857 -2.2203,17.62487 -9.8256,24.31932 -9.027,7.94585 -23.5259,10.91508 -34.3847,7.04165 z"
       id="path5663"
       inkscape:connector-curvature="0"
       transform="scale(0.26458333)" /><path
       style="fill:#1c5d99;fill-opacity:1;stroke:#1c5d99;stroke-width:3.77952761;stroke-linecap:butt;stroke-linejoin:miter;stroke-miterlimit:4;stroke-dasharray:none;stroke-dashoffset:0;stroke-opacity:1;paint-order:normal"
       d="m 1005.84,1025.4641 c -9.77047,-3.4691 -16.97685,-11.9402 -18.826,-22.13 l -0.80712,-4.44766 h -28.41132 -28.41131 v -4.15116 -4.15115 h 28.19369 28.19369 l 1.36426,-7.1787 c 1.68014,-8.84084 5.14881,-13.52998 13.89051,-18.77794 15.7469,-9.45342 37.9622,-4.50755 46.6963,10.39617 2.6418,4.50777 3.2194,7.12594 3.6267,16.43755 0.5894,13.47609 -1.2323,19.18079 -8.3871,26.26479 -8.8449,8.7573 -24.8534,12.0943 -37.1223,7.7381 z"
       id="path5665"
       inkscape:connector-curvature="0"
       transform="scale(0.26458333)" /></g><g
     inkscape:groupmode="layer"
     id="layer2"
     inkscape:label="Leaf Nodes"
     style="opacity:1"><rect
       transform="translate(0,3.0000609)"
       id="rect4170"
       width="17.4625"
       height="17.4625"
       x="260.94272"
       y="24.947273"
       style="fill:#639fab;fill-opacity:1;stroke-width:0.26458332" /><path
       transform="translate(0,3.0000609)"
       style="fill:#1c5d99;fill-opacity:1;stroke:none;stroke-width:0.52916664;stroke-opacity:1"
       d="m 265.54675,222.98239 c -3.46015,-1.61865 -4.71015,-3.8413 -4.71015,-8.37523 0,-4.38822 0.87719,-6.02001 4.28308,-7.96759 3.90903,-2.23529 9.30327,-1.05669 12.03705,2.63001 1.51964,2.04934 1.82436,7.03733 0.58896,9.64073 -1.98612,4.18546 -7.80465,6.12772 -12.19894,4.07208 z"
       id="path4176"
       inkscape:connector-curvature="0" /><rect
       transform="translate(0,3.0000609)"
       id="rect4170-8"
       width="17.4625"
       height="17.4625"
       x="260.94272"
       y="115.43691"
       style="fill:#639fab;fill-opacity:1;stroke-width:0.26458332" /><rect
       transform="translate(0,3.0000609)"
       id="rect4170-0"
       width="17.4625"
       height="17.4625"
       x="260.94272"
       y="160.68173"
       style="fill:#639fab;fill-opacity:1;stroke-width:0.26458332" /><path
       transform="translate(0,3.0000609)"
       style="fill:#1c5d99;fill-opacity:1;stroke:none;stroke-width:0.52916664;stroke-opacity:1"
       d="m 265.54675,87.247928 c -3.46015,-1.61866 -4.71015,-3.84131 -4.71015,-8.37523 0,-4.38822 0.87719,-6.02001 4.28308,-7.9676 3.90903,-2.23529 9.30327,-1.05668 12.03705,2.63002 1.51964,2.04933 1.82436,7.03732 0.58896,9.64072 -1.98612,4.18546 -7.80465,6.12773 -12.19894,4.07209 z"
       id="path4176-1"
       inkscape:connector-curvature="0" /><path
       transform="translate(0,3.0000609)"
       style="fill:#1c5d99;fill-opacity:1;stroke:none;stroke-width:0.52916664;stroke-opacity:1"
       d="m 265.54675,268.22721 c -3.46015,-1.61865 -4.71015,-3.84131 -4.71015,-8.37523 0,-4.38822 0.87719,-6.02001 4.28308,-7.9676 3.90903,-2.23529 9.30327,-1.05668 12.03705,2.63002 1.51964,2.04933 1.82436,7.03733 0.58896,9.64072 -1.98612,4.18546 -7.80465,6.12773 -12.19894,4.07209 z"
       id="path4176-0"
       inkscape:connector-curvature="0" /><path
       style="fill:#e8950f;fill-opacity:1;stroke:#e8950f;stroke-width:1;stroke-linecap:butt;stroke-linejoin:miter;stroke-miterlimit:4;stroke-dasharray:none;stroke-dashoffset:0;stroke-opacity:1"
       d="M 168.52728,14.323913 V 286.31558"
       id="path5259"
       inkscape:connector-curvature="0"
       sodipodi:nodetypes="cc" /></g></svg>