<?xml version="1.0" encoding="UTF-8" standalone="no"?>
<!-- Created with Inkscape (http://www.inkscape.org/) -->

<svg
   version="1.1"
   id="svg492"
   width="1586.5032"
   height="987.5578"
   viewBox="0 0 1586.5032 987.5578"
   sodipodi:docname="several-b.svg"
   inkscape:version="1.2.1 (9c6d41e410, 2022-07-14)"
   xml:space="preserve"
   xmlns:inkscape="http://www.inkscape.org/namespaces/inkscape"
   xmlns:sodipodi="http://sodipodi.sourceforge.net/DTD/sodipodi-0.dtd"
   xmlns="http://www.w3.org/2000/svg"
   xmlns:svg="http://www.w3.org/2000/svg"><defs
     id="defs496"><clipPath
       clipPathUnits="userSpaceOnUse"
       id="clipPath628"><path
         d="M 172.44,87.12 H 658.40727 V 696.96 H 172.44 Z"
         id="path626" /></clipPath><clipPath
       clipPathUnits="userSpaceOnUse"
       id="clipPath638"><path
         d="M 172.44,87.12 H 658.40727 V 696.96 H 172.44 Z"
         id="path636" /></clipPath><clipPath
       clipPathUnits="userSpaceOnUse"
       id="clipPath648"><path
         d="M 172.44,87.12 H 658.40727 V 696.96 H 172.44 Z"
         id="path646" /></clipPath><clipPath
       clipPathUnits="userSpaceOnUse"
       id="clipPath658"><path
         d="M 172.44,87.12 H 658.40727 V 696.96 H 172.44 Z"
         id="path656" /></clipPath><clipPath
       clipPathUnits="userSpaceOnUse"
       id="clipPath844"><path
         d="M 755.60073,87.12 H 1241.568 V 696.96 H 755.60073 Z"
         id="path842" /></clipPath><clipPath
       clipPathUnits="userSpaceOnUse"
       id="clipPath854"><path
         d="M 755.60073,87.12 H 1241.568 V 696.96 H 755.60073 Z"
         id="path852" /></clipPath><clipPath
       clipPathUnits="userSpaceOnUse"
       id="clipPath864"><path
         d="M 755.60073,87.12 H 1241.568 V 696.96 H 755.60073 Z"
         id="path862" /></clipPath><clipPath
       clipPathUnits="userSpaceOnUse"
       id="clipPath874"><path
         d="M 755.60073,87.12 H 1241.568 V 696.96 H 755.60073 Z"
         id="path872" /></clipPath><clipPath
       clipPathUnits="userSpaceOnUse"
       id="clipPath1703"><path
         d="M 172.44,87.12 H 658.40727 V 696.96 H 172.44 Z"
         id="path1701" /></clipPath><clipPath
       clipPathUnits="userSpaceOnUse"
       id="clipPath1713"><path
         d="M 172.44,87.12 H 658.40727 V 696.96 H 172.44 Z"
         id="path1711" /></clipPath><clipPath
       clipPathUnits="userSpaceOnUse"
       id="clipPath1723"><path
         d="M 172.44,87.12 H 658.40727 V 696.96 H 172.44 Z"
         id="path1721" /></clipPath><clipPath
       clipPathUnits="userSpaceOnUse"
       id="clipPath1733"><path
         d="M 172.44,87.12 H 658.40727 V 696.96 H 172.44 Z"
         id="path1731" /></clipPath><clipPath
       clipPathUnits="userSpaceOnUse"
       id="clipPath1925"><path
         d="M 755.60073,87.12 H 1241.568 V 696.96 H 755.60073 Z"
         id="path1923" /></clipPath><clipPath
       clipPathUnits="userSpaceOnUse"
       id="clipPath1935"><path
         d="M 755.60073,87.12 H 1241.568 V 696.96 H 755.60073 Z"
         id="path1933" /></clipPath><clipPath
       clipPathUnits="userSpaceOnUse"
       id="clipPath1945"><path
         d="M 755.60073,87.12 H 1241.568 V 696.96 H 755.60073 Z"
         id="path1943" /></clipPath><clipPath
       clipPathUnits="userSpaceOnUse"
       id="clipPath1955"><path
         d="M 755.60073,87.12 H 1241.568 V 696.96 H 755.60073 Z"
         id="path1953" /></clipPath></defs><sodipodi:namedview
     id="namedview494"
     pagecolor="#505050"
     bordercolor="#eeeeee"
     borderopacity="1"
     inkscape:showpageshadow="0"
     inkscape:pageopacity="0"
     inkscape:pagecheckerboard="0"
     inkscape:deskcolor="#505050"
     showgrid="false"
     inkscape:zoom="0.48607921"
     inkscape:cx="918.57457"
     inkscape:cy="260.24565"
     inkscape:window-width="1916"
     inkscape:window-height="1139"
     inkscape:window-x="0"
     inkscape:window-y="0"
     inkscape:window-maximized="1"
     inkscape:current-layer="svg492"><inkscape:page
       x="0"
       y="0"
       id="page498"
       width="1586.5032"
       height="987.5578" /><inkscape:page
       x="1734.4211"
       y="-68.442215"
       width="1839.36"
       height="1056"
       id="page2031" /></sodipodi:namedview><g
     id="g500"
     inkscape:groupmode="layer"
     inkscape:label="Page 1"
     transform="matrix(1.3333333,0,0,-1.3333333,-114.93881,987.55779)" /><path
     d="M 0,987.55779 H 1586.5032 V 0 L 0,3.985005 Z"
     style="fill:#ffffff;fill-opacity:1;fill-rule:nonzero;stroke:none;stroke-width:1.2383"
     id="path1577"
     sodipodi:nodetypes="ccccc" /><path
     d="m 114.98119,871.39779 h 647.9563 V 58.277808 h -647.9563 z"
     style="fill:#ffffff;fill-opacity:1;fill-rule:nonzero;stroke:none;stroke-width:1.33333"
     id="path1579" /><path
     d="m 144.43369,871.39779 v 4.66667"
     style="fill:#000000;fill-opacity:1;fill-rule:nonzero;stroke:#000000;stroke-width:1.06667;stroke-linecap:butt;stroke-linejoin:round;stroke-miterlimit:10;stroke-dasharray:none;stroke-opacity:1"
     id="path1581" /><g
     id="g1583"
     transform="matrix(1.3333333,0,0,-1.3333333,138.49619,894.91863)"><text
       xml:space="preserve"
       transform="scale(1,-1)"
       style="font-variant:normal;font-weight:normal;font-size:14px;font-family:'DejaVu Sans';-inkscape-font-specification:DejaVuSans;writing-mode:lr-tb;fill:#000000;fill-opacity:1;fill-rule:nonzero;stroke:none"
       id="text1587"><tspan
         x="0"
         y="0"
         id="tspan1585">0</tspan></text></g><path
     d="m 262.24399,871.39779 v 4.66667"
     style="fill:#000000;fill-opacity:1;fill-rule:nonzero;stroke:#000000;stroke-width:1.06667;stroke-linecap:butt;stroke-linejoin:round;stroke-miterlimit:10;stroke-dasharray:none;stroke-opacity:1"
     id="path1589" /><g
     id="g1591"
     transform="matrix(1.3333333,0,0,-1.3333333,250.36899,894.91863)"><text
       xml:space="preserve"
       transform="scale(1,-1)"
       style="font-variant:normal;font-weight:normal;font-size:14px;font-family:'DejaVu Sans';-inkscape-font-specification:DejaVuSans;writing-mode:lr-tb;fill:#000000;fill-opacity:1;fill-rule:nonzero;stroke:none"
       id="text1595"><tspan
         x="0 8.9040003"
         y="0"
         sodipodi:role="line"
         id="tspan1593">20</tspan></text></g><path
     d="m 380.05419,871.39779 v 4.66667"
     style="fill:#000000;fill-opacity:1;fill-rule:nonzero;stroke:#000000;stroke-width:1.06667;stroke-linecap:butt;stroke-linejoin:round;stroke-miterlimit:10;stroke-dasharray:none;stroke-opacity:1"
     id="path1597" /><g
     id="g1599"
     transform="matrix(1.3333333,0,0,-1.3333333,368.17919,894.91863)"><text
       xml:space="preserve"
       transform="scale(1,-1)"
       style="font-variant:normal;font-weight:normal;font-size:14px;font-family:'DejaVu Sans';-inkscape-font-specification:DejaVuSans;writing-mode:lr-tb;fill:#000000;fill-opacity:1;fill-rule:nonzero;stroke:none"
       id="text1603"><tspan
         x="0 8.9040003"
         y="0"
         sodipodi:role="line"
         id="tspan1601">40</tspan></text></g><path
     d="m 497.86449,871.39779 v 4.66667"
     style="fill:#000000;fill-opacity:1;fill-rule:nonzero;stroke:#000000;stroke-width:1.06667;stroke-linecap:butt;stroke-linejoin:round;stroke-miterlimit:10;stroke-dasharray:none;stroke-opacity:1"
     id="path1605" /><g
     id="g1607"
     transform="matrix(1.3333333,0,0,-1.3333333,485.98949,894.91863)"><text
       xml:space="preserve"
       transform="scale(1,-1)"
       style="font-variant:normal;font-weight:normal;font-size:14px;font-family:'DejaVu Sans';-inkscape-font-specification:DejaVuSans;writing-mode:lr-tb;fill:#000000;fill-opacity:1;fill-rule:nonzero;stroke:none"
       id="text1611"><tspan
         x="0 8.9040003"
         y="0"
         sodipodi:role="line"
         id="tspan1609">60</tspan></text></g><path
     d="m 615.67469,871.39779 v 4.66667"
     style="fill:#000000;fill-opacity:1;fill-rule:nonzero;stroke:#000000;stroke-width:1.06667;stroke-linecap:butt;stroke-linejoin:round;stroke-miterlimit:10;stroke-dasharray:none;stroke-opacity:1"
     id="path1613" /><g
     id="g1615"
     transform="matrix(1.3333333,0,0,-1.3333333,603.79969,894.91863)"><text
       xml:space="preserve"
       transform="scale(1,-1)"
       style="font-variant:normal;font-weight:normal;font-size:14px;font-family:'DejaVu Sans';-inkscape-font-specification:DejaVuSans;writing-mode:lr-tb;fill:#000000;fill-opacity:1;fill-rule:nonzero;stroke:none"
       id="text1619"><tspan
         x="0 8.9040003"
         y="0"
         sodipodi:role="line"
         id="tspan1617">80</tspan></text></g><path
     d="m 733.48499,871.39779 v 4.66667"
     style="fill:#000000;fill-opacity:1;fill-rule:nonzero;stroke:#000000;stroke-width:1.06667;stroke-linecap:butt;stroke-linejoin:round;stroke-miterlimit:10;stroke-dasharray:none;stroke-opacity:1"
     id="path1621" /><g
     id="g1623"
     transform="matrix(1.3333333,0,0,-1.3333333,715.67249,894.91863)"><text
       xml:space="preserve"
       transform="scale(1,-1)"
       style="font-variant:normal;font-weight:normal;font-size:14px;font-family:'DejaVu Sans';-inkscape-font-specification:DejaVuSans;writing-mode:lr-tb;fill:#000000;fill-opacity:1;fill-rule:nonzero;stroke:none"
       id="text1627"><tspan
         x="0 8.9040003 17.808001"
         y="0"
         sodipodi:role="line"
         id="tspan1625">100</tspan></text></g><g
     id="g1629"
     transform="matrix(1.3333333,0,0,-1.3333333,407.31349,925.31446)"><text
       xml:space="preserve"
       transform="scale(1,-1)"
       style="font-variant:normal;font-weight:normal;font-size:22px;font-family:'CMU Sans Serif';-inkscape-font-specification:CMUSansSerif;writing-mode:lr-tb;fill:#000000;fill-opacity:1;fill-rule:nonzero;stroke:none"
       id="text1633"><tspan
         x="0 14.96 20.218 37.686001"
         y="0"
         sodipodi:role="line"
         id="tspan1631">Time</tspan></text></g><path
     d="m 114.98119,835.66979 h -4.6667"
     style="fill:#000000;fill-opacity:1;fill-rule:nonzero;stroke:#000000;stroke-width:1.06667;stroke-linecap:butt;stroke-linejoin:round;stroke-miterlimit:10;stroke-dasharray:none;stroke-opacity:1"
     id="path1635" /><g
     id="g1637"
     transform="matrix(1.3333333,0,0,-1.3333333,93.77279,842.76354)"><text
       xml:space="preserve"
       transform="scale(1,-1)"
       style="font-variant:normal;font-weight:normal;font-size:14px;font-family:'DejaVu Sans';-inkscape-font-specification:DejaVuSans;writing-mode:lr-tb;fill:#000000;fill-opacity:1;fill-rule:nonzero;stroke:none"
       id="text1641"><tspan
         x="0"
         y="0"
         id="tspan1639">0</tspan></text></g><path
     d="m 114.98119,712.4698 h -4.6667"
     style="fill:#000000;fill-opacity:1;fill-rule:nonzero;stroke:#000000;stroke-width:1.06667;stroke-linecap:butt;stroke-linejoin:round;stroke-miterlimit:10;stroke-dasharray:none;stroke-opacity:1"
     id="path1643" /><g
     id="g1645"
     transform="matrix(1.3333333,0,0,-1.3333333,70.02279,719.56354)"><text
       xml:space="preserve"
       transform="scale(1,-1)"
       style="font-variant:normal;font-weight:normal;font-size:14px;font-family:'DejaVu Sans';-inkscape-font-specification:DejaVuSans;writing-mode:lr-tb;fill:#000000;fill-opacity:1;fill-rule:nonzero;stroke:none"
       id="text1649"><tspan
         x="0 8.9040003 17.808001"
         y="0"
         sodipodi:role="line"
         id="tspan1647">500</tspan></text></g><path
     d="m 114.98119,589.2698 h -4.6667"
     style="fill:#000000;fill-opacity:1;fill-rule:nonzero;stroke:#000000;stroke-width:1.06667;stroke-linecap:butt;stroke-linejoin:round;stroke-miterlimit:10;stroke-dasharray:none;stroke-opacity:1"
     id="path1651" /><g
     id="g1653"
     transform="matrix(1.3333333,0,0,-1.3333333,58.14779,596.36355)"><text
       xml:space="preserve"
       transform="scale(1,-1)"
       style="font-variant:normal;font-weight:normal;font-size:14px;font-family:'DejaVu Sans';-inkscape-font-specification:DejaVuSans;writing-mode:lr-tb;fill:#000000;fill-opacity:1;fill-rule:nonzero;stroke:none"
       id="text1657"><tspan
         x="0 8.9040003 17.808001 26.712"
         y="0"
         sodipodi:role="line"
         id="tspan1655">1000</tspan></text></g><path
     d="m 114.98119,466.0698 h -4.6667"
     style="fill:#000000;fill-opacity:1;fill-rule:nonzero;stroke:#000000;stroke-width:1.06667;stroke-linecap:butt;stroke-linejoin:round;stroke-miterlimit:10;stroke-dasharray:none;stroke-opacity:1"
     id="path1659" /><g
     id="g1661"
     transform="matrix(1.3333333,0,0,-1.3333333,58.14779,473.16355)"><text
       xml:space="preserve"
       transform="scale(1,-1)"
       style="font-variant:normal;font-weight:normal;font-size:14px;font-family:'DejaVu Sans';-inkscape-font-specification:DejaVuSans;writing-mode:lr-tb;fill:#000000;fill-opacity:1;fill-rule:nonzero;stroke:none"
       id="text1665"><tspan
         x="0 8.9040003 17.808001 26.712"
         y="0"
         sodipodi:role="line"
         id="tspan1663">1500</tspan></text></g><path
     d="m 114.98119,342.86981 h -4.6667"
     style="fill:#000000;fill-opacity:1;fill-rule:nonzero;stroke:#000000;stroke-width:1.06667;stroke-linecap:butt;stroke-linejoin:round;stroke-miterlimit:10;stroke-dasharray:none;stroke-opacity:1"
     id="path1667" /><g
     id="g1669"
     transform="matrix(1.3333333,0,0,-1.3333333,58.14779,349.96355)"><text
       xml:space="preserve"
       transform="scale(1,-1)"
       style="font-variant:normal;font-weight:normal;font-size:14px;font-family:'DejaVu Sans';-inkscape-font-specification:DejaVuSans;writing-mode:lr-tb;fill:#000000;fill-opacity:1;fill-rule:nonzero;stroke:none"
       id="text1673"><tspan
         x="0 8.9040003 17.808001 26.712"
         y="0"
         sodipodi:role="line"
         id="tspan1671">2000</tspan></text></g><path
     d="m 114.98119,219.66981 h -4.6667"
     style="fill:#000000;fill-opacity:1;fill-rule:nonzero;stroke:#000000;stroke-width:1.06667;stroke-linecap:butt;stroke-linejoin:round;stroke-miterlimit:10;stroke-dasharray:none;stroke-opacity:1"
     id="path1675" /><g
     id="g1677"
     transform="matrix(1.3333333,0,0,-1.3333333,58.14779,226.76356)"><text
       xml:space="preserve"
       transform="scale(1,-1)"
       style="font-variant:normal;font-weight:normal;font-size:14px;font-family:'DejaVu Sans';-inkscape-font-specification:DejaVuSans;writing-mode:lr-tb;fill:#000000;fill-opacity:1;fill-rule:nonzero;stroke:none"
       id="text1681"><tspan
         x="0 8.9040003 17.808001 26.712"
         y="0"
         sodipodi:role="line"
         id="tspan1679">2500</tspan></text></g><path
     d="m 114.98119,96.469808 h -4.6667"
     style="fill:#000000;fill-opacity:1;fill-rule:nonzero;stroke:#000000;stroke-width:1.06667;stroke-linecap:butt;stroke-linejoin:round;stroke-miterlimit:10;stroke-dasharray:none;stroke-opacity:1"
     id="path1683" /><g
     id="g1685"
     transform="matrix(1.3333333,0,0,-1.3333333,58.14779,103.56356)"><text
       xml:space="preserve"
       transform="scale(1,-1)"
       style="font-variant:normal;font-weight:normal;font-size:14px;font-family:'DejaVu Sans';-inkscape-font-specification:DejaVuSans;writing-mode:lr-tb;fill:#000000;fill-opacity:1;fill-rule:nonzero;stroke:none"
       id="text1689"><tspan
         x="0 8.9040003 17.808001 26.712"
         y="0"
         sodipodi:role="line"
         id="tspan1687">3000</tspan></text></g><g
     id="g1691"
     transform="matrix(0,-1.3333333,-1.3333333,0,47.08529,557.88988)"><text
       xml:space="preserve"
       transform="scale(1,-1)"
       style="font-variant:normal;font-weight:normal;font-size:22px;font-family:'CMU Sans Serif';-inkscape-font-specification:CMUSansSerif;writing-mode:lr-tb;fill:#000000;fill-opacity:1;fill-rule:nonzero;stroke:none"
       id="text1695"><tspan
         x="0 14.058 25.058001 36.431999 47.806 53.063999 63.624001 71.566002 76.823997 87.823997 99.197998 106.524 114.95 120.208 129.778"
         y="0"
         sodipodi:role="line"
         id="tspan1693">Population size</tspan></text></g><g
     id="g1697"
     transform="matrix(1.3333333,0,0,-1.3333333,-114.93881,987.55779)"><g
       id="g1699"
       clip-path="url(#clipPath1703)"><path
         d="m 636.31785,207.24 -441.78843,-92.4 v 0"
         style="fill:none;stroke:#e69f00;stroke-width:1.5;stroke-linecap:square;stroke-linejoin:round;stroke-miterlimit:10;stroke-dasharray:none;stroke-opacity:1"
         id="path1705" /></g></g><g
     id="g1707"
     transform="matrix(1.3333333,0,0,-1.3333333,-114.93881,987.55779)"><g
       id="g1709"
       clip-path="url(#clipPath1713)"><path
         d="M 636.31785,299.64 194.52942,114.84 v 0"
         style="fill:none;stroke:#56b4e9;stroke-width:1.5;stroke-linecap:square;stroke-linejoin:round;stroke-miterlimit:10;stroke-dasharray:none;stroke-opacity:1"
         id="path1715" /></g></g><g
     id="g1717"
     transform="matrix(1.3333333,0,0,-1.3333333,-114.93881,987.55779)"><g
       id="g1719"
       clip-path="url(#clipPath1723)"><path
         d="M 636.31785,484.44 194.52942,114.84 v 0"
         style="fill:none;stroke:#0072b2;stroke-width:1.5;stroke-linecap:square;stroke-linejoin:round;stroke-miterlimit:10;stroke-dasharray:none;stroke-opacity:1"
         id="path1725" /></g></g><g
     id="g1727"
     transform="matrix(1.3333333,0,0,-1.3333333,-114.93881,987.55779)"><g
       id="g1729"
       clip-path="url(#clipPath1733)"><path
         d="M 636.31785,669.24 194.52942,114.84 v 0"
         style="fill:none;stroke:#d55e00;stroke-width:1.5;stroke-linecap:square;stroke-linejoin:round;stroke-miterlimit:10;stroke-dasharray:none;stroke-opacity:1"
         id="path1735" /></g></g><g
     id="g1737"
     transform="matrix(1.3333333,0,0,-1.3333333,-114.93881,987.55779)"><path
       d="M 172.44,87.12 V 696.96"
       style="fill:none;stroke:#000000;stroke-width:0.8;stroke-linecap:square;stroke-linejoin:miter;stroke-miterlimit:10;stroke-dasharray:none;stroke-opacity:1"
       id="path1739" /><path
       d="M 658.40727,87.12 V 696.96"
       style="fill:none;stroke:#000000;stroke-width:0.8;stroke-linecap:square;stroke-linejoin:miter;stroke-miterlimit:10;stroke-dasharray:none;stroke-opacity:1"
       id="path1741" /><path
       d="M 172.44,87.12 H 658.40727"
       style="fill:none;stroke:#000000;stroke-width:0.8;stroke-linecap:square;stroke-linejoin:miter;stroke-miterlimit:10;stroke-dasharray:none;stroke-opacity:1"
       id="path1743" /><path
       d="M 172.44,696.96 H 658.40727"
       style="fill:none;stroke:#000000;stroke-width:0.8;stroke-linecap:square;stroke-linejoin:miter;stroke-miterlimit:10;stroke-dasharray:none;stroke-opacity:1"
       id="path1745" /><g
       id="g1747"
       transform="translate(245.91582,703.19438)"><text
         xml:space="preserve"
         transform="scale(1,-1)"
         style="font-variant:normal;font-weight:normal;font-size:32px;font-family:'CMU Sans Serif';-inkscape-font-specification:CMUSansSerif;writing-mode:lr-tb;fill:#000000;fill-opacity:1;fill-rule:nonzero;stroke:none"
         id="text1751"><tspan
           x="0 20.448 36.448002 52.992001 69.536003 77.183998 92.543999 104.096 111.744 127.744 144.28799 154.944 167.2 174.84801 188.76801 202.976 213.632 229.632 244.384 258.59201 269.53601 280.19199 291.74399 299.392 324.79999"
           y="0"
           sodipodi:role="line"
           id="tspan1749">Population size over time</tspan></text></g><path
       d="m 182.24,583.02562 h 76.02187 c 1.86667,0 2.8,0.93334 2.8,2.8 V 687.16 c 0,1.86667 -0.93333,2.8 -2.8,2.8 H 182.24 c -1.86667,0 -2.8,-0.93333 -2.8,-2.8 V 585.82562 c 0,-1.86666 0.93333,-2.8 2.8,-2.8 z"
       style="fill:#ffffff;fill-opacity:0.8;fill-rule:nonzero;stroke:#cccccc;stroke-width:1;stroke-linecap:butt;stroke-linejoin:miter;stroke-miterlimit:10;stroke-dasharray:none;stroke-opacity:0.8"
       id="path1753" /><g
       id="g1755"
       transform="translate(185.04,673.71938)"><text
         xml:space="preserve"
         transform="scale(1,-1)"
         style="font-variant:normal;font-weight:normal;font-size:14px;font-family:'DejaVu Sans';-inkscape-font-specification:DejaVuSans;writing-mode:lr-tb;fill:#000000;fill-opacity:1;fill-rule:nonzero;stroke:none"
         id="text1759"><tspan
           x="0 8.4978752 17.079876 20.971874 29.847876 38.457874 42.909874 51.477875 56.405876 60.857876"
           y="0"
           sodipodi:role="line"
           id="tspan1757">Value of B</tspan></text></g><path
       d="m 191.74469,658.0725 h 14 14"
       style="fill:none;stroke:#e69f00;stroke-width:1.5;stroke-linecap:square;stroke-linejoin:round;stroke-miterlimit:10;stroke-dasharray:none;stroke-opacity:1"
       id="path1761" /><g
       id="g1763"
       transform="translate(230.94469,653.1725)"><text
         xml:space="preserve"
         transform="scale(1,-1)"
         style="font-variant:normal;font-weight:normal;font-size:14px;font-family:'DejaVu Sans';-inkscape-font-specification:DejaVuSans;writing-mode:lr-tb;fill:#000000;fill-opacity:1;fill-rule:nonzero;stroke:none"
         id="text1767"><tspan
           x="0"
           y="0"
           id="tspan1765">5</tspan></text></g><path
       d="m 191.74469,637.52562 h 14 14"
       style="fill:none;stroke:#56b4e9;stroke-width:1.5;stroke-linecap:square;stroke-linejoin:round;stroke-miterlimit:10;stroke-dasharray:none;stroke-opacity:1"
       id="path1769" /><g
       id="g1771"
       transform="translate(230.94469,632.62562)"><text
         xml:space="preserve"
         transform="scale(1,-1)"
         style="font-variant:normal;font-weight:normal;font-size:14px;font-family:'DejaVu Sans';-inkscape-font-specification:DejaVuSans;writing-mode:lr-tb;fill:#000000;fill-opacity:1;fill-rule:nonzero;stroke:none"
         id="text1775"><tspan
           x="0 8.9040003"
           y="0"
           sodipodi:role="line"
           id="tspan1773">10</tspan></text></g><path
       d="m 191.74469,616.97875 h 14 14"
       style="fill:none;stroke:#0072b2;stroke-width:1.5;stroke-linecap:square;stroke-linejoin:round;stroke-miterlimit:10;stroke-dasharray:none;stroke-opacity:1"
       id="path1777" /><g
       id="g1779"
       transform="translate(230.94469,612.07875)"><text
         xml:space="preserve"
         transform="scale(1,-1)"
         style="font-variant:normal;font-weight:normal;font-size:14px;font-family:'DejaVu Sans';-inkscape-font-specification:DejaVuSans;writing-mode:lr-tb;fill:#000000;fill-opacity:1;fill-rule:nonzero;stroke:none"
         id="text1783"><tspan
           x="0 8.9040003"
           y="0"
           sodipodi:role="line"
           id="tspan1781">20</tspan></text></g><path
       d="m 191.74469,596.43187 h 14 14"
       style="fill:none;stroke:#d55e00;stroke-width:1.5;stroke-linecap:square;stroke-linejoin:round;stroke-miterlimit:10;stroke-dasharray:none;stroke-opacity:1"
       id="path1785" /><g
       id="g1787"
       transform="translate(230.94469,591.53188)"><text
         xml:space="preserve"
         transform="scale(1,-1)"
         style="font-variant:normal;font-weight:normal;font-size:14px;font-family:'DejaVu Sans';-inkscape-font-specification:DejaVuSans;writing-mode:lr-tb;fill:#000000;fill-opacity:1;fill-rule:nonzero;stroke:none"
         id="text1791"><tspan
           x="0 8.9040003"
           y="0"
           sodipodi:role="line"
           id="tspan1789">30</tspan></text></g><path
       d="M 755.60073,87.12 H 1241.568 V 696.96 H 755.60073 Z"
       style="fill:#ffffff;fill-opacity:1;fill-rule:nonzero;stroke:none"
       id="path1793" /><path
       d="m 777.69015,87.12 v -3.5"
       style="fill:#000000;fill-opacity:1;fill-rule:nonzero;stroke:#000000;stroke-width:0.8;stroke-linecap:butt;stroke-linejoin:round;stroke-miterlimit:10;stroke-dasharray:none;stroke-opacity:1"
       id="path1795" /><g
       id="g1797"
       transform="translate(773.23702,69.479375)"><text
         xml:space="preserve"
         transform="scale(1,-1)"
         style="font-variant:normal;font-weight:normal;font-size:14px;font-family:'DejaVu Sans';-inkscape-font-specification:DejaVuSans;writing-mode:lr-tb;fill:#000000;fill-opacity:1;fill-rule:nonzero;stroke:none"
         id="text1801"><tspan
           x="0"
           y="0"
           id="tspan1799">0</tspan></text></g><path
       d="m 866.04783,87.12 v -3.5"
       style="fill:#000000;fill-opacity:1;fill-rule:nonzero;stroke:#000000;stroke-width:0.8;stroke-linecap:butt;stroke-linejoin:round;stroke-miterlimit:10;stroke-dasharray:none;stroke-opacity:1"
       id="path1803" /><g
       id="g1805"
       transform="translate(857.14158,69.479375)"><text
         xml:space="preserve"
         transform="scale(1,-1)"
         style="font-variant:normal;font-weight:normal;font-size:14px;font-family:'DejaVu Sans';-inkscape-font-specification:DejaVuSans;writing-mode:lr-tb;fill:#000000;fill-opacity:1;fill-rule:nonzero;stroke:none"
         id="text1809"><tspan
           x="0 8.9040003"
           y="0"
           sodipodi:role="line"
           id="tspan1807">20</tspan></text></g><path
       d="m 954.40552,87.12 v -3.5"
       style="fill:#000000;fill-opacity:1;fill-rule:nonzero;stroke:#000000;stroke-width:0.8;stroke-linecap:butt;stroke-linejoin:round;stroke-miterlimit:10;stroke-dasharray:none;stroke-opacity:1"
       id="path1811" /><g
       id="g1813"
       transform="translate(945.49927,69.479375)"><text
         xml:space="preserve"
         transform="scale(1,-1)"
         style="font-variant:normal;font-weight:normal;font-size:14px;font-family:'DejaVu Sans';-inkscape-font-specification:DejaVuSans;writing-mode:lr-tb;fill:#000000;fill-opacity:1;fill-rule:nonzero;stroke:none"
         id="text1817"><tspan
           x="0 8.9040003"
           y="0"
           sodipodi:role="line"
           id="tspan1815">40</tspan></text></g><path
       d="m 1042.7632,87.12 v -3.5"
       style="fill:#000000;fill-opacity:1;fill-rule:nonzero;stroke:#000000;stroke-width:0.8;stroke-linecap:butt;stroke-linejoin:round;stroke-miterlimit:10;stroke-dasharray:none;stroke-opacity:1"
       id="path1819" /><g
       id="g1821"
       transform="translate(1033.857,69.479375)"><text
         xml:space="preserve"
         transform="scale(1,-1)"
         style="font-variant:normal;font-weight:normal;font-size:14px;font-family:'DejaVu Sans';-inkscape-font-specification:DejaVuSans;writing-mode:lr-tb;fill:#000000;fill-opacity:1;fill-rule:nonzero;stroke:none"
         id="text1825"><tspan
           x="0 8.9040003"
           y="0"
           sodipodi:role="line"
           id="tspan1823">60</tspan></text></g><path
       d="m 1131.1209,87.12 v -3.5"
       style="fill:#000000;fill-opacity:1;fill-rule:nonzero;stroke:#000000;stroke-width:0.8;stroke-linecap:butt;stroke-linejoin:round;stroke-miterlimit:10;stroke-dasharray:none;stroke-opacity:1"
       id="path1827" /><g
       id="g1829"
       transform="translate(1122.2146,69.479375)"><text
         xml:space="preserve"
         transform="scale(1,-1)"
         style="font-variant:normal;font-weight:normal;font-size:14px;font-family:'DejaVu Sans';-inkscape-font-specification:DejaVuSans;writing-mode:lr-tb;fill:#000000;fill-opacity:1;fill-rule:nonzero;stroke:none"
         id="text1833"><tspan
           x="0 8.9040003"
           y="0"
           sodipodi:role="line"
           id="tspan1831">80</tspan></text></g><path
       d="m 1219.4786,87.12 v -3.5"
       style="fill:#000000;fill-opacity:1;fill-rule:nonzero;stroke:#000000;stroke-width:0.8;stroke-linecap:butt;stroke-linejoin:round;stroke-miterlimit:10;stroke-dasharray:none;stroke-opacity:1"
       id="path1835" /><g
       id="g1837"
       transform="translate(1206.1192,69.479375)"><text
         xml:space="preserve"
         transform="scale(1,-1)"
         style="font-variant:normal;font-weight:normal;font-size:14px;font-family:'DejaVu Sans';-inkscape-font-specification:DejaVuSans;writing-mode:lr-tb;fill:#000000;fill-opacity:1;fill-rule:nonzero;stroke:none"
         id="text1841"><tspan
           x="0 8.9040003 17.808001"
           y="0"
           sodipodi:role="line"
           id="tspan1839">100</tspan></text></g><g
       id="g1843"
       transform="translate(858.94374,46.6825)"><text
         xml:space="preserve"
         transform="scale(1,-1)"
         style="font-variant:normal;font-weight:normal;font-size:22px;font-family:'CMU Sans Serif';-inkscape-font-specification:CMUSansSerif;writing-mode:lr-tb;fill:#000000;fill-opacity:1;fill-rule:nonzero;stroke:none"
         id="text1847"><tspan
           x="0 14.96 20.218 37.686001 47.453999 54.779999 66.153999 76.713997 86.482002 97.239998 104.566 112.508 123.508 130.834 137.54401 142.802 150.326 158.752 166.694 174.02 183.78799 194.78799 205.34801 210.606 220.37399 228.8 238.56799 248.336 259.70999 269.478"
           y="0"
           sodipodi:role="line"
           id="tspan1845">Time back to first coalescence</tspan></text></g><path
       d="m 755.60073,114.84 h -3.5"
       style="fill:#000000;fill-opacity:1;fill-rule:nonzero;stroke:#000000;stroke-width:0.8;stroke-linecap:butt;stroke-linejoin:round;stroke-miterlimit:10;stroke-dasharray:none;stroke-opacity:1"
       id="path1849" /><g
       id="g1851"
       transform="translate(717.42885,109.51969)"><text
         xml:space="preserve"
         transform="scale(1,-1)"
         style="font-variant:normal;font-weight:normal;font-size:14px;font-family:'DejaVu Sans';-inkscape-font-specification:DejaVuSans;writing-mode:lr-tb;fill:#000000;fill-opacity:1;fill-rule:nonzero;stroke:none"
         id="text1855"><tspan
           x="0 8.9040003 13.356 22.26"
           y="0"
           sodipodi:role="line"
           id="tspan1853">0.00</tspan></text></g><path
       d="m 755.60073,188.51684 h -3.5"
       style="fill:#000000;fill-opacity:1;fill-rule:nonzero;stroke:#000000;stroke-width:0.8;stroke-linecap:butt;stroke-linejoin:round;stroke-miterlimit:10;stroke-dasharray:none;stroke-opacity:1"
       id="path1857" /><g
       id="g1859"
       transform="translate(717.42885,183.19653)"><text
         xml:space="preserve"
         transform="scale(1,-1)"
         style="font-variant:normal;font-weight:normal;font-size:14px;font-family:'DejaVu Sans';-inkscape-font-specification:DejaVuSans;writing-mode:lr-tb;fill:#000000;fill-opacity:1;fill-rule:nonzero;stroke:none"
         id="text1863"><tspan
           x="0 8.9040003 13.356 22.26"
           y="0"
           sodipodi:role="line"
           id="tspan1861">0.05</tspan></text></g><path
       d="m 755.60073,262.19368 h -3.5"
       style="fill:#000000;fill-opacity:1;fill-rule:nonzero;stroke:#000000;stroke-width:0.8;stroke-linecap:butt;stroke-linejoin:round;stroke-miterlimit:10;stroke-dasharray:none;stroke-opacity:1"
       id="path1865" /><g
       id="g1867"
       transform="translate(717.42885,256.87337)"><text
         xml:space="preserve"
         transform="scale(1,-1)"
         style="font-variant:normal;font-weight:normal;font-size:14px;font-family:'DejaVu Sans';-inkscape-font-specification:DejaVuSans;writing-mode:lr-tb;fill:#000000;fill-opacity:1;fill-rule:nonzero;stroke:none"
         id="text1871"><tspan
           x="0 8.9040003 13.356 22.26"
           y="0"
           sodipodi:role="line"
           id="tspan1869">0.10</tspan></text></g><path
       d="m 755.60073,335.87053 h -3.5"
       style="fill:#000000;fill-opacity:1;fill-rule:nonzero;stroke:#000000;stroke-width:0.8;stroke-linecap:butt;stroke-linejoin:round;stroke-miterlimit:10;stroke-dasharray:none;stroke-opacity:1"
       id="path1873" /><g
       id="g1875"
       transform="translate(717.42885,330.55021)"><text
         xml:space="preserve"
         transform="scale(1,-1)"
         style="font-variant:normal;font-weight:normal;font-size:14px;font-family:'DejaVu Sans';-inkscape-font-specification:DejaVuSans;writing-mode:lr-tb;fill:#000000;fill-opacity:1;fill-rule:nonzero;stroke:none"
         id="text1879"><tspan
           x="0 8.9040003 13.356 22.26"
           y="0"
           sodipodi:role="line"
           id="tspan1877">0.15</tspan></text></g><path
       d="m 755.60073,409.54737 h -3.5"
       style="fill:#000000;fill-opacity:1;fill-rule:nonzero;stroke:#000000;stroke-width:0.8;stroke-linecap:butt;stroke-linejoin:round;stroke-miterlimit:10;stroke-dasharray:none;stroke-opacity:1"
       id="path1881" /><g
       id="g1883"
       transform="translate(717.42885,404.22706)"><text
         xml:space="preserve"
         transform="scale(1,-1)"
         style="font-variant:normal;font-weight:normal;font-size:14px;font-family:'DejaVu Sans';-inkscape-font-specification:DejaVuSans;writing-mode:lr-tb;fill:#000000;fill-opacity:1;fill-rule:nonzero;stroke:none"
         id="text1887"><tspan
           x="0 8.9040003 13.356 22.26"
           y="0"
           sodipodi:role="line"
           id="tspan1885">0.20</tspan></text></g><path
       d="m 755.60073,483.22421 h -3.5"
       style="fill:#000000;fill-opacity:1;fill-rule:nonzero;stroke:#000000;stroke-width:0.8;stroke-linecap:butt;stroke-linejoin:round;stroke-miterlimit:10;stroke-dasharray:none;stroke-opacity:1"
       id="path1889" /><g
       id="g1891"
       transform="translate(717.42885,477.9039)"><text
         xml:space="preserve"
         transform="scale(1,-1)"
         style="font-variant:normal;font-weight:normal;font-size:14px;font-family:'DejaVu Sans';-inkscape-font-specification:DejaVuSans;writing-mode:lr-tb;fill:#000000;fill-opacity:1;fill-rule:nonzero;stroke:none"
         id="text1895"><tspan
           x="0 8.9040003 13.356 22.26"
           y="0"
           sodipodi:role="line"
           id="tspan1893">0.25</tspan></text></g><path
       d="m 755.60073,556.90105 h -3.5"
       style="fill:#000000;fill-opacity:1;fill-rule:nonzero;stroke:#000000;stroke-width:0.8;stroke-linecap:butt;stroke-linejoin:round;stroke-miterlimit:10;stroke-dasharray:none;stroke-opacity:1"
       id="path1897" /><g
       id="g1899"
       transform="translate(717.42885,551.58074)"><text
         xml:space="preserve"
         transform="scale(1,-1)"
         style="font-variant:normal;font-weight:normal;font-size:14px;font-family:'DejaVu Sans';-inkscape-font-specification:DejaVuSans;writing-mode:lr-tb;fill:#000000;fill-opacity:1;fill-rule:nonzero;stroke:none"
         id="text1903"><tspan
           x="0 8.9040003 13.356 22.26"
           y="0"
           sodipodi:role="line"
           id="tspan1901">0.30</tspan></text></g><path
       d="m 755.60073,630.57789 h -3.5"
       style="fill:#000000;fill-opacity:1;fill-rule:nonzero;stroke:#000000;stroke-width:0.8;stroke-linecap:butt;stroke-linejoin:round;stroke-miterlimit:10;stroke-dasharray:none;stroke-opacity:1"
       id="path1905" /><g
       id="g1907"
       transform="translate(717.42885,625.25758)"><text
         xml:space="preserve"
         transform="scale(1,-1)"
         style="font-variant:normal;font-weight:normal;font-size:14px;font-family:'DejaVu Sans';-inkscape-font-specification:DejaVuSans;writing-mode:lr-tb;fill:#000000;fill-opacity:1;fill-rule:nonzero;stroke:none"
         id="text1911"><tspan
           x="0 8.9040003 13.356 22.26"
           y="0"
           sodipodi:role="line"
           id="tspan1909">0.35</tspan></text></g><g
       id="g1913"
       transform="rotate(90,175.63583,533.27739)"><text
         xml:space="preserve"
         transform="scale(1,-1)"
         style="font-variant:normal;font-weight:normal;font-size:22px;font-family:'CMU Sans Serif';-inkscape-font-specification:CMUSansSerif;writing-mode:lr-tb;fill:#000000;fill-opacity:1;fill-rule:nonzero;stroke:none"
         id="text1917"><tspan
           x="0 15.884 25.652 37.026001 45.452 50.709999 58.652"
           y="0"
           sodipodi:role="line"
           id="tspan1915">Density</tspan></text></g></g><g
     id="g1919"
     transform="matrix(1.3333333,0,0,-1.3333333,-114.93881,987.55779)"><g
       id="g1921"
       clip-path="url(#clipPath1925)"><path
         d="m 777.69015,669.24 1.76892,-75.77683 1.76892,-65.66158 1.76893,-56.86402 1.76892,-49.21678 1.76892,-42.5732 1.76892,-36.8048 1.76893,-31.7992 1.76892,-27.45799 1.76892,-23.69521 1.76893,-20.43568 1.76892,-17.61378 1.76892,-15.17219 1.76892,-13.06094 1.76893,-11.23644 1.76892,-9.6607 1.76892,-8.30064 1.76892,-7.12749 1.76893,-6.11617 1.76892,-5.24492 1.76892,-4.49482 1.76892,-3.84944 1.76893,-3.29451 1.76892,-2.81768 1.76892,-2.40821 1.76892,-2.05684 1.76893,-1.75552 2.21115,-1.83572 2.21115,-1.50298 2.21116,-1.22919 2.65338,-1.18162 2.65338,-0.9255 3.09562,-0.82783 3.53784,-0.69462 3.98008,-0.54882 4.86454,-0.44127 6.19123,-0.3311 8.84461,-0.22949 14.59361,-0.12281 40.68522,-0.0332 298.06349,-3.1e-4 v 0"
         style="fill:none;stroke:#e69f00;stroke-width:1.5;stroke-linecap:square;stroke-linejoin:round;stroke-miterlimit:10;stroke-dasharray:none;stroke-opacity:1"
         id="path1927" /></g></g><g
     id="g1929"
     transform="matrix(1.3333333,0,0,-1.3333333,-114.93881,987.55779)"><g
       id="g1931"
       clip-path="url(#clipPath1935)"><path
         d="m 777.69015,393.4191 2.65338,-28.49204 2.65339,-25.72401 2.65338,-23.21054 2.65338,-20.92955 2.65339,-18.86079 2.21115,-14.2772 2.21116,-13.07821 2.21115,-11.97446 2.21115,-10.95881 2.21115,-10.02466 2.21116,-9.16584 2.21115,-8.37661 2.21115,-7.65167 2.21116,-6.98608 2.21115,-6.37528 2.65339,-6.91491 2.65338,-6.18778 2.65338,-5.53304 2.65339,-4.94393 2.65338,-4.41423 2.65339,-3.93829 2.65338,-3.51095 2.65338,-3.12754 2.65339,-2.78379 2.65338,-2.47583 2.65338,-2.20016 3.09562,-2.25706 3.09561,-1.96254 3.09562,-1.70448 3.53784,-1.67308 3.53785,-1.41997 3.98008,-1.33999 3.98007,-1.1099 4.42231,-1.00886 4.86453,-0.88637 5.749,-0.80765 6.63346,-0.68453 7.51793,-0.54152 9.28684,-0.43285 11.94023,-0.31665 16.80476,-0.20311 29.62946,-0.0982 114.09547,-0.0162 h 141.9561 v 0"
         style="fill:none;stroke:#56b4e9;stroke-width:1.5;stroke-linecap:square;stroke-linejoin:round;stroke-miterlimit:10;stroke-dasharray:none;stroke-opacity:1"
         id="path1937" /></g></g><g
     id="g1939"
     transform="matrix(1.3333333,0,0,-1.3333333,-114.93881,987.55779)"><g
       id="g1941"
       clip-path="url(#clipPath1945)"><path
         d="m 777.69015,254.47691 3.98007,-10.31372 3.98008,-9.63562 3.98008,-8.99651 3.98007,-8.39448 3.98008,-7.82766 3.98007,-7.29432 3.98008,-6.79278 3.98008,-6.32139 3.98007,-5.87862 3.98008,-5.46298 3.98007,-5.07307 3.98008,-4.70749 3.98008,-4.36498 3.98007,-4.04428 3.98008,-3.7442 3.98007,-3.4636 4.42231,-3.54173 4.42231,-3.24179 4.4223,-2.96411 4.42231,-2.70729 4.86454,-2.70464 4.86454,-2.44168 4.86453,-2.20116 5.30677,-2.15137 5.30677,-1.9148 5.749,-1.8339 6.19123,-1.7249 6.19122,-1.49488 6.63346,-1.37711 7.0757,-1.24559 7.96015,-1.16465 8.40238,-0.99972 9.28684,-0.87797 10.61354,-0.76819 11.94023,-0.63094 13.70915,-0.4983 16.80476,-0.38211 22.1115,-0.26519 32.7251,-0.14651 72.9681,-0.0423 96.8485,-3.8e-4 v 0"
         style="fill:none;stroke:#0072b2;stroke-width:1.5;stroke-linecap:square;stroke-linejoin:round;stroke-miterlimit:10;stroke-dasharray:none;stroke-opacity:1"
         id="path1947" /></g></g><g
     id="g1949"
     transform="matrix(1.3333333,0,0,-1.3333333,-114.93881,987.55779)"><g
       id="g1951"
       clip-path="url(#clipPath1955)"><path
         d="m 777.69015,208.00872 5.749,-6.2763 5.749,-5.92835 5.74899,-5.59543 5.749,-5.27709 5.749,-4.97285 5.749,-4.6823 5.749,-4.40498 5.749,-4.14048 6.19123,-4.17738 6.19123,-3.89991 6.19122,-3.63686 6.19123,-3.38766 6.63346,-3.36827 6.63346,-3.11328 6.63346,-2.87342 7.07569,-2.81689 7.0757,-2.57723 7.51792,-2.49359 7.51792,-2.25934 7.96015,-2.15614 8.40238,-2.03349 8.40239,-1.80563 8.84461,-1.67665 9.28684,-1.53683 9.72908,-1.3896 10.61353,-1.28772 11.05577,-1.11942 11.94023,-0.98933 13.26692,-0.87268 14.59364,-0.73264 16.3625,-0.59582 19.0159,-0.46511 22.996,-0.33319 30.5139,-0.20562 49.9721,-0.0823 68.988,-0.005 v 0"
         style="fill:none;stroke:#d55e00;stroke-width:1.5;stroke-linecap:square;stroke-linejoin:round;stroke-miterlimit:10;stroke-dasharray:none;stroke-opacity:1"
         id="path1957" /></g></g><g
     id="g1959"
     transform="matrix(1.3333333,0,0,-1.3333333,-114.93881,987.55779)"><path
       d="M 755.60073,87.12 V 696.96"
       style="fill:none;stroke:#000000;stroke-width:0.8;stroke-linecap:square;stroke-linejoin:miter;stroke-miterlimit:10;stroke-dasharray:none;stroke-opacity:1"
       id="path1961" /><path
       d="M 1241.568,87.12 V 696.96"
       style="fill:none;stroke:#000000;stroke-width:0.8;stroke-linecap:square;stroke-linejoin:miter;stroke-miterlimit:10;stroke-dasharray:none;stroke-opacity:1"
       id="path1963" /><path
       d="M 755.60073,87.12 H 1241.568"
       style="fill:none;stroke:#000000;stroke-width:0.8;stroke-linecap:square;stroke-linejoin:miter;stroke-miterlimit:10;stroke-dasharray:none;stroke-opacity:1"
       id="path1965" /><path
       d="M 755.60073,696.96 H 1241.568"
       style="fill:none;stroke:#000000;stroke-width:0.8;stroke-linecap:square;stroke-linejoin:miter;stroke-miterlimit:10;stroke-dasharray:none;stroke-opacity:1"
       id="path1967" /><g
       id="g1969"
       transform="translate(754.74061,703.19438)"><text
         xml:space="preserve"
         transform="scale(1,-1)"
         style="font-variant:normal;font-weight:normal;font-size:32px;font-family:'CMU Sans Serif';-inkscape-font-specification:CMUSansSerif;writing-mode:lr-tb;fill:#000000;fill-opacity:1;fill-rule:nonzero;stroke:none"
         id="text1973"><tspan
           x="0 19.104 33.855999 50.400002 64.608002 78.816002 90.367996 104.576 121.12 131.776 143.328 150.976 176.384 190.592 201.248 217.79201 234.336 245.888 253.536 261.18399 271.84 281.60001 289.24799 300.19199 312.448 324 334.65601 348.86401 364.86401 380.224 387.87201 402.07999 414.336 428.54401 442.75201 459.29599 473.504"
           y="0"
           sodipodi:role="line"
           id="tspan1971">Expected time until first coalescence</tspan></text></g><path
       d="m 1155.7461,583.02562 h 76.0219 c 1.8667,0 2.8,0.93334 2.8,2.8 V 687.16 c 0,1.86667 -0.9333,2.8 -2.8,2.8 h -76.0219 c -1.8666,0 -2.8,-0.93333 -2.8,-2.8 V 585.82562 c 0,-1.86666 0.9334,-2.8 2.8,-2.8 z"
       style="fill:#ffffff;fill-opacity:0.8;fill-rule:nonzero;stroke:#cccccc;stroke-width:1;stroke-linecap:butt;stroke-linejoin:miter;stroke-miterlimit:10;stroke-dasharray:none;stroke-opacity:0.8"
       id="path1975" /><g
       id="g1977"
       transform="translate(1158.5461,673.71938)"><text
         xml:space="preserve"
         transform="scale(1,-1)"
         style="font-variant:normal;font-weight:normal;font-size:14px;font-family:'DejaVu Sans';-inkscape-font-specification:DejaVuSans;writing-mode:lr-tb;fill:#000000;fill-opacity:1;fill-rule:nonzero;stroke:none"
         id="text1981"><tspan
           x="0 8.4978752 17.079876 20.971874 29.847876 38.457874 42.909874 51.477875 56.405876 60.857876"
           y="0"
           sodipodi:role="line"
           id="tspan1979">Value of B</tspan></text></g><path
       d="m 1165.2508,658.0725 h 14 14"
       style="fill:none;stroke:#e69f00;stroke-width:1.5;stroke-linecap:square;stroke-linejoin:round;stroke-miterlimit:10;stroke-dasharray:none;stroke-opacity:1"
       id="path1983" /><g
       id="g1985"
       transform="translate(1204.4508,653.1725)"><text
         xml:space="preserve"
         transform="scale(1,-1)"
         style="font-variant:normal;font-weight:normal;font-size:14px;font-family:'DejaVu Sans';-inkscape-font-specification:DejaVuSans;writing-mode:lr-tb;fill:#000000;fill-opacity:1;fill-rule:nonzero;stroke:none"
         id="text1989"><tspan
           x="0"
           y="0"
           id="tspan1987">5</tspan></text></g><path
       d="m 1165.2508,637.52562 h 14 14"
       style="fill:none;stroke:#56b4e9;stroke-width:1.5;stroke-linecap:square;stroke-linejoin:round;stroke-miterlimit:10;stroke-dasharray:none;stroke-opacity:1"
       id="path1991" /><g
       id="g1993"
       transform="translate(1204.4508,632.62562)"><text
         xml:space="preserve"
         transform="scale(1,-1)"
         style="font-variant:normal;font-weight:normal;font-size:14px;font-family:'DejaVu Sans';-inkscape-font-specification:DejaVuSans;writing-mode:lr-tb;fill:#000000;fill-opacity:1;fill-rule:nonzero;stroke:none"
         id="text1997"><tspan
           x="0 8.9040003"
           y="0"
           sodipodi:role="line"
           id="tspan1995">10</tspan></text></g><path
       d="m 1165.2508,616.97875 h 14 14"
       style="fill:none;stroke:#0072b2;stroke-width:1.5;stroke-linecap:square;stroke-linejoin:round;stroke-miterlimit:10;stroke-dasharray:none;stroke-opacity:1"
       id="path1999" /><g
       id="g2001"
       transform="translate(1204.4508,612.07875)"><text
         xml:space="preserve"
         transform="scale(1,-1)"
         style="font-variant:normal;font-weight:normal;font-size:14px;font-family:'DejaVu Sans';-inkscape-font-specification:DejaVuSans;writing-mode:lr-tb;fill:#000000;fill-opacity:1;fill-rule:nonzero;stroke:none"
         id="text2005"><tspan
           x="0 8.9040003"
           y="0"
           sodipodi:role="line"
           id="tspan2003">20</tspan></text></g><path
       d="m 1165.2508,596.43187 h 14 14"
       style="fill:none;stroke:#d55e00;stroke-width:1.5;stroke-linecap:square;stroke-linejoin:round;stroke-miterlimit:10;stroke-dasharray:none;stroke-opacity:1"
       id="path2007" /><g
       id="g2009"
       transform="translate(1204.4508,591.53188)"><text
         xml:space="preserve"
         transform="scale(1,-1)"
         style="font-variant:normal;font-weight:normal;font-size:14px;font-family:'DejaVu Sans';-inkscape-font-specification:DejaVuSans;writing-mode:lr-tb;fill:#000000;fill-opacity:1;fill-rule:nonzero;stroke:none"
         id="text2013"><tspan
           x="0 8.9040003"
           y="0"
           sodipodi:role="line"
           id="tspan2011">30</tspan></text></g></g></svg>
