<?xml version="1.0" encoding="UTF-8" standalone="no"?>
<!-- Created with Inkscape (http://www.inkscape.org/) -->

<svg
   xmlns:dc="http://purl.org/dc/elements/1.1/"
   xmlns:cc="http://creativecommons.org/ns#"
   xmlns:rdf="http://www.w3.org/1999/02/22-rdf-syntax-ns#"
   xmlns:svg="http://www.w3.org/2000/svg"
   xmlns="http://www.w3.org/2000/svg"
   xmlns:sodipodi="http://sodipodi.sourceforge.net/DTD/sodipodi-0.dtd"
   xmlns:inkscape="http://www.inkscape.org/namespaces/inkscape"
   width="700.5083mm"
   height="360.11652mm"
   viewBox="0 0 700.5083 360.11653"
   version="1.1"
   id="svg8"
   inkscape:version="0.92.5 (2060ec1f9f, 2020-04-08)"
   sodipodi:docname="tree-likelihood.svg"
   xml:space="preserve"><defs
     id="defs2"><inkscape:perspective
       sodipodi:type="inkscape:persp3d"
       inkscape:vp_x="0 : 180.05827 : 1"
       inkscape:vp_y="0 : 1000 : 0"
       inkscape:vp_z="700.5083 : 180.05827 : 1"
       inkscape:persp3d-origin="350.25415 : 120.03884 : 1"
       id="perspective1045" /><marker
       inkscape:stockid="Arrow1Mstart"
       orient="auto"
       refY="0"
       refX="0"
       id="Arrow1Mstart"
       style="overflow:visible"
       inkscape:isstock="true"><path
         id="path1218"
         d="M 0,0 5,-5 -12.5,0 5,5 Z"
         style="fill:#000000;fill-opacity:1;fill-rule:evenodd;stroke:#000000;stroke-width:1.00000003pt;stroke-opacity:1"
         transform="matrix(0.4,0,0,0.4,4,0)"
         inkscape:connector-curvature="0" /></marker><marker
       inkscape:stockid="Arrow1Lstart"
       orient="auto"
       refY="0"
       refX="0"
       id="marker1765"
       style="overflow:visible"
       inkscape:isstock="true"><path
         id="path1763"
         d="M 0,0 5,-5 -12.5,0 5,5 Z"
         style="fill:#000000;fill-opacity:1;fill-rule:evenodd;stroke:#000000;stroke-width:1.00000003pt;stroke-opacity:1"
         transform="matrix(0.8,0,0,0.8,10,0)"
         inkscape:connector-curvature="0" /></marker><marker
       inkscape:stockid="StopS"
       orient="auto"
       refY="0"
       refX="0"
       id="StopS"
       style="overflow:visible"
       inkscape:isstock="true"><path
         id="path1042"
         d="M 0,5.65 V -5.65"
         style="fill:none;fill-opacity:0.75;fill-rule:evenodd;stroke:#000000;stroke-width:1.00000003pt;stroke-opacity:1"
         transform="scale(0.2)"
         inkscape:connector-curvature="0" /></marker><marker
       inkscape:stockid="StopM"
       orient="auto"
       refY="0"
       refX="0"
       id="StopM"
       style="overflow:visible"
       inkscape:isstock="true"><path
         id="path1039"
         d="M 0,5.65 V -5.65"
         style="fill:none;fill-opacity:0.75;fill-rule:evenodd;stroke:#000000;stroke-width:1.00000003pt;stroke-opacity:1"
         transform="scale(0.4)"
         inkscape:connector-curvature="0" /></marker><marker
       inkscape:stockid="Tail"
       orient="auto"
       refY="0"
       refX="0"
       id="Tail"
       style="overflow:visible"
       inkscape:isstock="true"><g
         id="g915"
         transform="scale(-1.2)"
         style="fill:#000000;fill-opacity:1;stroke:#000000;stroke-opacity:1"><path
           id="path903"
           d="M -3.8048674,-3.9585227 0.54352094,0"
           style="fill:#000000;fill-opacity:1;fill-rule:evenodd;stroke:#000000;stroke-width:0.80000001;stroke-linecap:round;stroke-opacity:1"
           inkscape:connector-curvature="0" /><path
           id="path905"
           d="M -1.2866832,-3.9585227 3.0617053,0"
           style="fill:#000000;fill-opacity:1;fill-rule:evenodd;stroke:#000000;stroke-width:0.80000001;stroke-linecap:round;stroke-opacity:1"
           inkscape:connector-curvature="0" /><path
           id="path907"
           d="M 1.3053582,-3.9585227 5.6537466,0"
           style="fill:#000000;fill-opacity:1;fill-rule:evenodd;stroke:#000000;stroke-width:0.80000001;stroke-linecap:round;stroke-opacity:1"
           inkscape:connector-curvature="0" /><path
           id="path909"
           d="M -3.8048674,4.1775838 0.54352094,0.21974226"
           style="fill:#000000;fill-opacity:1;fill-rule:evenodd;stroke:#000000;stroke-width:0.80000001;stroke-linecap:round;stroke-opacity:1"
           inkscape:connector-curvature="0" /><path
           id="path911"
           d="M -1.2866832,4.1775838 3.0617053,0.21974226"
           style="fill:#000000;fill-opacity:1;fill-rule:evenodd;stroke:#000000;stroke-width:0.80000001;stroke-linecap:round;stroke-opacity:1"
           inkscape:connector-curvature="0" /><path
           id="path913"
           d="M 1.3053582,4.1775838 5.6537466,0.21974226"
           style="fill:#000000;fill-opacity:1;fill-rule:evenodd;stroke:#000000;stroke-width:0.80000001;stroke-linecap:round;stroke-opacity:1"
           inkscape:connector-curvature="0" /></g></marker><marker
       inkscape:stockid="Arrow1Lstart"
       orient="auto"
       refY="0"
       refX="0"
       id="Arrow1Lstart"
       style="overflow:visible"
       inkscape:isstock="true"><path
         id="path867"
         d="M 0,0 5,-5 -12.5,0 5,5 Z"
         style="fill:#000000;fill-opacity:1;fill-rule:evenodd;stroke:#000000;stroke-width:1.00000003pt;stroke-opacity:1"
         transform="matrix(0.8,0,0,0.8,10,0)"
         inkscape:connector-curvature="0" /></marker><marker
       inkscape:stockid="StopL"
       orient="auto"
       refY="0"
       refX="0"
       id="StopL"
       style="overflow:visible"
       inkscape:isstock="true"><path
         id="path1036"
         d="M 0,5.65 V -5.65"
         style="fill:none;fill-opacity:0.75;fill-rule:evenodd;stroke:#000000;stroke-width:1.00000003pt;stroke-opacity:1"
         transform="scale(0.8)"
         inkscape:connector-curvature="0" /></marker><clipPath
       clipPathUnits="userSpaceOnUse"
       id="clipPath4344"><rect
         style="fill:#00ff00;fill-opacity:0.41544201;stroke:none;stroke-width:0.264999;stroke-dasharray:none"
         id="rect4346"
         width="448.2951"
         height="200.26271"
         x="30.505629"
         y="54.441097" /></clipPath><clipPath
       clipPathUnits="userSpaceOnUse"
       id="clipPath138"><path
         d="M 144,63.36 H 549.81818 V 506.88 H 144 Z"
         id="path136"
         inkscape:connector-curvature="0" /></clipPath><clipPath
       clipPathUnits="userSpaceOnUse"
       id="clipPath148"><path
         d="M 144,63.36 H 549.81818 V 506.88 H 144 Z"
         id="path146"
         inkscape:connector-curvature="0" /></clipPath><clipPath
       clipPathUnits="userSpaceOnUse"
       id="clipPath158"><path
         d="M 144,63.36 H 549.81818 V 506.88 H 144 Z"
         id="path156"
         inkscape:connector-curvature="0" /></clipPath><clipPath
       clipPathUnits="userSpaceOnUse"
       id="clipPath168"><path
         d="M 144,63.36 H 549.81818 V 506.88 H 144 Z"
         id="path166"
         inkscape:connector-curvature="0" /></clipPath><clipPath
       clipPathUnits="userSpaceOnUse"
       id="clipPath360"><path
         d="M 630.98182,63.36 H 1036.8 V 506.88 H 630.98182 Z"
         id="path358"
         inkscape:connector-curvature="0" /></clipPath><clipPath
       clipPathUnits="userSpaceOnUse"
       id="clipPath370"><path
         d="M 630.98182,63.36 H 1036.8 V 506.88 H 630.98182 Z"
         id="path368"
         inkscape:connector-curvature="0" /></clipPath><clipPath
       clipPathUnits="userSpaceOnUse"
       id="clipPath380"><path
         d="M 630.98182,63.36 H 1036.8 V 506.88 H 630.98182 Z"
         id="path378"
         inkscape:connector-curvature="0" /></clipPath><clipPath
       clipPathUnits="userSpaceOnUse"
       id="clipPath390"><path
         d="M 630.98182,63.36 H 1036.8 V 506.88 H 630.98182 Z"
         id="path388"
         inkscape:connector-curvature="0" /></clipPath><clipPath
       id="clipPath1298"
       clipPathUnits="userSpaceOnUse"><path
         inkscape:connector-curvature="0"
         id="path1296"
         d="M 172.8,86.8824 H 1244.16 V 695.0592 H 172.8 Z" /></clipPath><clipPath
       id="clipPath1308"
       clipPathUnits="userSpaceOnUse"><path
         inkscape:connector-curvature="0"
         id="path1306"
         d="M 172.8,86.8824 H 1244.16 V 695.0592 H 172.8 Z" /></clipPath><clipPath
       id="clipPath1318"
       clipPathUnits="userSpaceOnUse"><path
         inkscape:connector-curvature="0"
         id="path1316"
         d="M 172.8,86.8824 H 1244.16 V 695.0592 H 172.8 Z" /></clipPath><clipPath
       id="clipPath1590"
       clipPathUnits="userSpaceOnUse"><path
         inkscape:connector-curvature="0"
         id="path1588"
         d="M 110.43,86.8032 H 795.096 V 694.4256 H 110.43 Z" /></clipPath><clipPath
       id="clipPath1600"
       clipPathUnits="userSpaceOnUse"><path
         inkscape:connector-curvature="0"
         id="path1598"
         d="M 110.43,86.8032 H 795.096 V 694.4256 H 110.43 Z" /></clipPath><clipPath
       id="clipPath1610"
       clipPathUnits="userSpaceOnUse"><path
         inkscape:connector-curvature="0"
         id="path1608"
         d="M 110.43,86.8032 H 795.096 V 694.4256 H 110.43 Z" /></clipPath></defs><sodipodi:namedview
     id="base"
     pagecolor="#ffffff"
     bordercolor="#666666"
     borderopacity="1.0"
     inkscape:pageopacity="0.0"
     inkscape:pageshadow="2"
     inkscape:zoom="0.45254834"
     inkscape:cx="1368.8792"
     inkscape:cy="794.5681"
     inkscape:document-units="mm"
     inkscape:current-layer="svg8"
     showgrid="false"
     units="mm"
     inkscape:pagecheckerboard="false"
     inkscape:window-width="1920"
     inkscape:window-height="1136"
     inkscape:window-x="0"
     inkscape:window-y="27"
     inkscape:window-maximized="1"
     inkscape:showpageshadow="0"
     inkscape:deskcolor="#d1d1d1"
     inkscape:snap-object-midpoints="true"
     inkscape:snap-center="false"
     inkscape:snap-grids="true"
     inkscape:snap-bbox="false"
     inkscape:snap-bbox-edge-midpoints="true"
     inkscape:bbox-paths="true"
     inkscape:bbox-nodes="true"
     inkscape:snap-bbox-midpoints="true"
     inkscape:snap-global="true"
     inkscape:object-nodes="true"
     inkscape:snap-others="true"
     inkscape:object-paths="true" /><metadata
     id="metadata5"><rdf:RDF><cc:Work
         rdf:about=""><dc:format>image/svg+xml</dc:format><dc:type
           rdf:resource="http://purl.org/dc/dcmitype/StillImage" /><dc:title></dc:title></cc:Work></rdf:RDF></metadata><g
     inkscape:label="Branches"
     inkscape:groupmode="layer"
     id="layer1"
     transform="translate(-9.1977697,-0.66696338)"><flowRoot
   xml:space="preserve"
   id="flowRoot18"
   style="font-style:normal;font-variant:normal;font-weight:500;font-stretch:normal;font-size:40px;line-height:1.25;font-family:'CMU Sans Serif';-inkscape-font-specification:'CMU Sans Serif, Medium';font-variant-ligatures:normal;font-variant-caps:normal;font-variant-numeric:normal;font-feature-settings:normal;text-align:start;letter-spacing:0px;word-spacing:0px;writing-mode:lr-tb;text-anchor:start;fill:#000000;fill-opacity:1;stroke:none"><flowRegion
     id="flowRegion20"
     style="font-style:normal;font-variant:normal;font-weight:500;font-stretch:normal;font-size:40px;font-family:'CMU Sans Serif';-inkscape-font-specification:'CMU Sans Serif, Medium';font-variant-ligatures:normal;font-variant-caps:normal;font-variant-numeric:normal;font-feature-settings:normal;text-align:start;writing-mode:lr-tb;text-anchor:start"><rect
       id="rect22"
       width="1310"
       height="318"
       x="354"
       y="142"
       style="font-style:normal;font-variant:normal;font-weight:500;font-stretch:normal;font-size:40px;font-family:'CMU Sans Serif';-inkscape-font-specification:'CMU Sans Serif, Medium';font-variant-ligatures:normal;font-variant-caps:normal;font-variant-numeric:normal;font-feature-settings:normal;text-align:start;writing-mode:lr-tb;text-anchor:start" /></flowRegion><flowPara
     id="flowPara24" /></flowRoot>

<flowRoot
   xml:space="preserve"
   id="flowRoot4050"
   style="font-style:normal;font-variant:normal;font-weight:500;font-stretch:normal;font-size:48px;line-height:1.25;font-family:'CMU Sans Serif';-inkscape-font-specification:'CMU Sans Serif, Medium';font-variant-ligatures:normal;font-variant-caps:normal;font-variant-numeric:normal;font-feature-settings:normal;text-align:start;letter-spacing:0px;word-spacing:0px;writing-mode:lr-tb;text-anchor:start;fill:#000000;fill-opacity:1;stroke:none"><flowRegion
     id="flowRegion4052"><rect
       id="rect4054"
       width="528"
       height="114"
       x="716"
       y="168" /></flowRegion><flowPara
     id="flowPara4056" /></flowRoot></g><g
     inkscape:groupmode="layer"
     id="layer2"
     inkscape:label="Leaf Nodes"
     style="opacity:1"
     transform="translate(-9.1977697,-3.6670243)">





<text
   xml:space="preserve"
   style="font-size:7.76109982px;font-family:sans-serif;-inkscape-font-specification:'sans-serif, Normal';fill:none;stroke:#000000;stroke-width:2;stroke-dasharray:none;stroke-opacity:1"
   x="87.039978"
   y="20.625372"
   id="text5623"><tspan
     sodipodi:role="line"
     id="tspan5621"
     style="font-style:normal;font-variant:normal;font-weight:normal;font-stretch:normal;font-size:12.69999981px;font-family:sans-serif;-inkscape-font-specification:'sans-serif, Normal';font-variant-ligatures:normal;font-variant-caps:normal;font-variant-numeric:normal;fill:#000000;fill-opacity:1;stroke:none;stroke-width:2"
     x="87.039978"
     y="20.625372">Divide tree into segments</tspan><tspan
     sodipodi:role="line"
     style="font-style:normal;font-variant:normal;font-weight:normal;font-stretch:normal;font-size:12.69999981px;font-family:sans-serif;-inkscape-font-specification:'sans-serif, Normal';font-variant-ligatures:normal;font-variant-caps:normal;font-variant-numeric:normal;fill:#000000;fill-opacity:1;stroke:none;stroke-width:2"
     x="87.039978"
     y="36.50037"
     id="tspan1142">where coalescences occur</tspan></text>

<text
   xml:space="preserve"
   style="font-style:normal;font-variant:normal;font-weight:normal;font-stretch:normal;font-size:12.69999981px;font-family:sans-serif;-inkscape-font-specification:'sans-serif, Normal';font-variant-ligatures:normal;font-variant-caps:normal;font-variant-numeric:normal;fill:#000000;fill-opacity:1;stroke:none;stroke-width:1;stroke-dasharray:4, 4;stroke-dashoffset:0;stroke-opacity:1"
   x="437.3349"
   y="22.870428"
   id="text10555"><tspan
     sodipodi:role="line"
     id="tspan10553"
     style="fill:#000000;fill-opacity:1;stroke:none;stroke-width:1"
     x="437.3349"
     y="22.870428">Each segment contributes</tspan><tspan
     sodipodi:role="line"
     style="fill:#000000;fill-opacity:1;stroke:none;stroke-width:1"
     x="437.3349"
     y="38.745426"
     id="tspan1144">to the likelihood of the tree</tspan></text>

<text
   xml:space="preserve"
   style="font-style:normal;font-variant:normal;font-weight:500;font-stretch:normal;font-size:12.69999981px;line-height:1.25;font-family:'CMU Sans Serif';-inkscape-font-specification:'CMU Sans Serif, Medium';font-variant-ligatures:normal;font-variant-caps:normal;font-variant-numeric:normal;font-feature-settings:normal;text-align:start;letter-spacing:0px;word-spacing:0px;writing-mode:lr-tb;text-anchor:start;fill:#000000;fill-opacity:1;stroke:none;stroke-width:0.26458332"
   x="671.49164"
   y="283.70959"
   id="text1137"><tspan
     sodipodi:role="line"
     id="tspan1135"
     x="671.49164"
     y="295.45462"
     style="stroke-width:0.26458332" /></text>

</g><rect
     style="opacity:1;vector-effect:none;fill:#009d72;fill-opacity:0.50196078;stroke:none;stroke-width:2.41176295;stroke-linecap:butt;stroke-linejoin:miter;stroke-miterlimit:4;stroke-dasharray:none;stroke-dashoffset:0;stroke-opacity:1;paint-order:normal"
     id="rect1067"
     width="32.238499"
     height="11.707886"
     x="286.07498"
     y="322.18015" /><rect
     style="opacity:1;vector-effect:none;fill:#e59f00;fill-opacity:0.50196078;stroke:none;stroke-width:3.28800106;stroke-linecap:butt;stroke-linejoin:miter;stroke-miterlimit:4;stroke-dasharray:none;stroke-dashoffset:0;stroke-opacity:1;paint-order:normal"
     id="rect1067-5"
     width="178.10501"
     height="11.699655"
     x="108.03146"
     y="322.18015"
     inkscape:transform-center-x="-175.35652"
     inkscape:transform-center-y="-0.39310141" /><rect
     style="opacity:1;vector-effect:none;fill:#efe342;fill-opacity:0.50196078;stroke:none;stroke-width:3.71313095;stroke-linecap:butt;stroke-linejoin:miter;stroke-miterlimit:4;stroke-dasharray:none;stroke-dashoffset:0;stroke-opacity:1;paint-order:normal"
     id="rect1067-5-3"
     width="89.57531"
     height="11.667746"
     x="18.456142"
     y="322.21204"
     inkscape:transform-center-x="-87.485403"
     inkscape:transform-center-y="-0.39097577" /><path
     style="fill:none;stroke:#000000;stroke-width:2;stroke-linecap:butt;stroke-linejoin:miter;stroke-miterlimit:4;stroke-dasharray:none;stroke-opacity:1"
     d="m 302.61171,161.55613 h -15.55973 v 72.28406 h 15.55973"
     id="path1057"
     inkscape:connector-curvature="0"
     sodipodi:nodetypes="cccc" /><path
     style="fill:none;stroke:#000000;stroke-width:1.99999988;stroke-linecap:butt;stroke-linejoin:miter;stroke-miterlimit:4;stroke-dasharray:none;stroke-opacity:1"
     d="M 286.90018,199.59998 108.4085,200.26123 V 306.12417 H 303.02244"
     id="path1059"
     inkscape:connector-curvature="0"
     sodipodi:nodetypes="cccc" /><path
     style="fill:none;stroke:#000000;stroke-width:2;stroke-linecap:butt;stroke-linejoin:miter;stroke-miterlimit:4;stroke-dasharray:none;stroke-opacity:1"
     d="M 108.43329,253.51088 H 19.039981 V 90.419006 L 303.08229,89.272153"
     id="path1061"
     inkscape:connector-curvature="0"
     sodipodi:nodetypes="cccc" /><path
     style="fill:none;stroke:#000000;stroke-width:2;stroke-linecap:butt;stroke-linejoin:miter;stroke-miterlimit:4;stroke-dasharray:none;stroke-opacity:1"
     d="M 18.394541,173.63912 H 4.7405713"
     id="path1063"
     inkscape:connector-curvature="0"
     sodipodi:nodetypes="cc" /><path
     d="m 372.80282,332.27609 h 314.2691 V 59.648466 h -314.2691 z"
     style="fill:#ffffff;fill-opacity:1;fill-rule:nonzero;stroke:none;stroke-width:0.35277775"
     id="path1582"
     inkscape:connector-curvature="0" /><g
     transform="matrix(0.45901081,0,0,-0.44867938,322.11426,371.22289)"
     style="stroke-width:0.77735907;fill:#009d72;fill-opacity:0.50196081"
     id="g1584"><g
       style="stroke-width:0.77735907;fill:#009d72;fill-opacity:0.50196081"
       id="g1586"
       clip-path="url(#clipPath1590)"><path
         d="m 141.55118,112.48731 v 11.927 l 0.62305,-0.006 0.62304,-0.006 0.62305,-0.006 0.62305,-0.006 0.62304,-0.006 0.62305,-0.006 0.62305,-0.006 0.62304,-0.006 0.62305,-0.006 0.62305,-0.006 0.62304,-0.006 0.62305,-0.006 0.62305,-0.006 0.62304,-0.006 0.62305,-0.006 0.62305,-0.006 0.62304,-0.006 0.62305,-0.006 0.62305,-0.006 0.62304,-0.006 0.62305,-0.006 0.62305,-0.006 0.62305,-0.006 0.62304,-0.006 0.62305,-0.006 0.62305,-0.006 0.62304,-0.006 0.62305,-0.006 0.62305,-0.006 0.62304,-0.006 0.62305,-0.006 0.62305,-0.006 0.62304,-0.006 0.62305,-0.006 0.62305,-0.006 0.62304,-0.006 0.62305,-0.006 0.62305,-0.006 0.62304,-0.006 0.62305,-0.006 0.62305,-0.006 0.62304,-0.006 0.62305,-0.006 0.62305,-0.006 0.62304,-0.006 0.62305,-0.006 0.62305,-0.006 0.62304,-0.006 0.62305,-0.006 0.62305,-0.006 0.62304,-0.006 0.62305,-0.006 0.62305,-0.006 0.62304,-0.006 0.62305,-0.006 0.62305,-0.006 0.62304,-0.006 0.62305,-0.006 0.62305,-0.006 0.62304,-0.006 0.62305,-0.006 0.62305,-0.006 0.62304,-0.006 0.62305,-0.006 0.62305,-0.006 0.62304,-0.006 0.62305,-0.006 0.62305,-0.006 0.62304,-0.006 0.62305,-0.006 0.62305,-0.006 0.62304,-0.006 0.62305,-0.006 0.62305,-0.006 0.62304,-0.006 0.62305,-0.006 0.62305,-0.006 0.62304,-0.006 0.62305,-0.006 0.62305,-0.006 0.62304,-0.006 0.62305,-0.006 0.62305,-0.006 0.62304,-0.006 0.62305,-0.006 0.62305,-0.006 0.62304,-0.006 0.62305,-0.006 0.62305,-0.006 0.62304,-0.006 0.62305,-0.006 0.62305,-0.006 0.62304,-0.006 0.62305,-0.006 0.62305,-0.006 0.62304,-0.006 0.62305,-0.006 0.62305,-0.006 0.62304,-0.006 0.62305,-0.006 0.62305,-0.006 0.62304,-0.006 0.62305,-0.006 0.62305,-0.006 0.62304,-0.006 0.62305,-0.006 0.62305,-0.006 0.62304,-0.006 0.62305,-0.006 0.62305,-0.006 0.62304,-0.006 0.62305,-0.006 0.62305,-0.006 0.62304,-0.006 0.62305,-0.006 0.62305,-0.006 0.62304,-0.006 0.62305,-0.006 0.62305,-0.006 0.62304,-0.006 0.62305,-0.006 0.62305,-0.006 0.62304,-0.006 0.62305,-0.006 0.62305,-0.006 0.62304,-0.006 0.62305,-0.006 0.62305,-0.006 0.62304,-0.006 0.62305,-0.006 0.62305,-0.006 0.62304,-0.006 0.62305,-0.006 0.62305,-0.006 0.62304,-0.006 0.62305,-0.006 0.62305,-0.006 0.62304,-0.006 0.62305,-0.006 0.62305,-0.006 0.62304,-0.006 0.62305,-0.006 0.62305,-0.006 0.62304,-0.006 0.62305,-0.006 0.62305,-0.006 0.62304,-0.006 0.62305,-0.006 0.62305,-0.006 0.62304,-0.006 0.62305,-0.006 0.62305,-0.006 0.62304,-0.006 0.62305,-0.006 0.62305,-0.006 0.62304,-0.006 0.62305,-0.006 0.62305,-0.006 0.62304,-0.007 0.62305,-0.006 0.62305,-0.007 0.62304,-0.006 0.62305,-0.007 0.62305,-0.007 0.62304,-0.007 0.62305,-0.007 0.62305,-0.007 0.62304,-0.007 0.62305,-0.007 0.62305,-0.007 0.62304,-0.007 0.62305,-0.007 0.62305,-0.007 0.62304,-0.007 0.62305,-0.007 0.62305,-0.007 0.62305,-0.007 0.62304,-0.007 0.62305,-0.007 0.62304,-0.007 0.62305,-0.007 0.62305,-0.007 0.62304,-0.007 0.62305,-0.007 0.62305,-0.007 0.62304,-0.007 0.62305,-0.007 0.62305,-0.007 0.62304,-0.007 0.62305,-0.007 0.62305,-0.007 0.62304,-0.007 0.62305,-0.007 0.62305,-0.007 0.62305,-0.007 0.62304,-0.007 0.62305,-0.007 0.62304,-0.007 0.62305,-0.007 0.62305,-0.007 0.62304,-0.007 0.62305,-0.007 0.62305,-0.007 0.62305,-0.007 0.62304,-0.007 0.62305,-0.007 0.62304,-0.007 0.62305,-0.007 0.62305,-0.007 0.62304,-0.007 0.62305,-0.007 0.62305,-0.007 0.62304,-0.007 0.62305,-0.007 0.62305,-0.007 0.62305,-0.007 0.62304,-0.007 0.62305,-0.007 0.62304,-0.007 0.62305,-0.007 0.62305,-0.007 0.62304,-0.007 0.62305,-0.007 0.62305,-0.007 0.62305,-0.007 0.62304,-0.007 0.62305,-0.007 0.62305,-0.007 0.62304,-0.007 0.62305,-0.007 0.62305,-0.007 0.62304,-0.007 0.62305,-0.007 0.62305,-0.007 0.62304,-0.007 0.62305,-0.007 0.62305,-0.007 0.62304,-0.007 0.62305,-0.007 0.62305,-0.007 0.62304,-0.007 0.62305,-0.007 0.62305,-0.007 0.62304,-0.007 0.62305,-0.007 0.62305,-0.007 0.62304,-0.007 0.62305,-0.007 0.62305,-0.007 0.62304,-0.007 0.62305,-0.007 0.62305,-0.007 0.62304,-0.007 0.62305,-0.007 0.62305,-0.007 0.62304,-0.007 0.62305,-0.007 0.62305,-0.007 0.62304,-0.007 0.62305,-0.007 0.62305,-0.007 0.62304,-0.007 0.62305,-0.007 0.62305,-0.007 0.62304,-0.007 0.62305,-0.007 0.62305,-0.007 0.62304,-0.007 0.62305,-0.007 0.62305,-0.007 0.62304,-0.007 0.62305,-0.007 0.62305,-0.007 0.62304,-0.007 0.62305,-0.007 0.62305,-0.007 0.62304,-0.007 0.62305,-0.007 0.62305,-0.007 0.62304,-0.007 0.62305,-0.007 0.62305,-0.007 0.62304,-0.007 0.62305,-0.007 0.62305,-0.007 0.62304,-0.007 0.62305,-0.007 0.62305,-0.007 0.62304,-0.007 0.62305,-0.007 0.62305,-0.007 0.62304,-0.007 0.62305,-0.007 0.62305,-0.007 0.62304,-0.007 0.62305,-0.007 0.62305,-0.007 0.62304,-0.007 0.62305,-0.007 0.62305,-0.007 0.62304,-0.007 0.62305,-0.007 0.62305,-0.007 0.62304,-0.007 0.62305,-0.007 0.62305,-0.007 0.62304,-0.007 0.62305,-0.007 0.62305,-0.007 0.62304,-0.007 0.62305,-0.007 0.62305,-0.007 0.62304,-0.007 0.62305,-0.007 0.62305,-0.007 0.62304,-0.007 0.62305,-0.007 0.62305,-0.007 0.62304,-0.007 0.62305,-0.007 0.62305,-0.007 0.62304,-0.007 0.62305,-0.007 0.62305,-0.007 0.62304,-0.007 0.62305,-0.007 0.62305,-0.007 0.62304,-0.007 0.62305,-0.007 0.62305,-0.007 0.62304,-0.007 0.62305,-0.007 0.62305,-0.007 0.62304,-0.007 0.62305,-0.007 0.62305,-0.007 0.62304,-0.007 0.62305,-0.007 0.62305,-0.007 0.62304,-0.007 0.62305,-0.007 0.62305,-0.007 0.62304,-0.007 0.62305,-0.007 0.62305,-0.007 0.62304,-0.007 0.62305,-0.007 0.62305,-0.007 0.62304,-0.007 0.62305,-0.007 0.62305,-0.007 0.62304,-0.007 0.62305,-0.007 0.62305,-0.007 0.62304,-0.007 0.62305,-0.007 0.62305,-0.007 0.62304,-0.007 0.62305,-0.007 0.62305,-0.007 0.62304,-0.007 0.62305,-0.007 0.62305,-0.007 0.62304,-0.007 0.62305,-0.007 0.62305,-0.007 0.62304,-0.007 0.62305,-0.007 0.62305,-0.007 0.62304,-0.007 0.62305,-0.008 0.62305,-0.008 0.62304,-0.008 0.62305,-0.008 0.62305,-0.008 0.62304,-0.008 0.62305,-0.008 0.62305,-0.008 0.62304,-0.008 0.62305,-0.008 0.62305,-0.008 0.62304,-0.008 0.62305,-0.008 0.62305,-0.008 0.62304,-0.008 0.62305,-0.008 0.62305,-0.008 0.62304,-0.008 0.62305,-0.008 0.62305,-0.008 0.62305,-0.008 0.62304,-0.008 0.62305,-0.008 0.62304,-0.008 0.62305,-0.008 0.62305,-0.008 0.62304,-0.008 0.62305,-0.008 0.62305,-0.008 0.62304,-0.008 0.62305,-0.008 0.62305,-0.008 0.62304,-0.008 0.62305,-0.008 0.62305,-0.008 0.62304,-0.008 0.62305,-0.008 0.62305,-0.008 0.62304,-0.008 0.62305,-0.008 0.62305,-0.008 0.62304,-0.008 0.62305,-0.008 0.62305,-0.008 0.62304,-0.008 0.62305,-0.008 0.62305,-0.008 0.62304,-0.008 0.62305,-0.008 0.62305,-0.008 0.62304,-0.008 0.62305,-0.008 0.62305,-0.008 0.62304,-0.008 0.62305,-0.008 0.62305,-0.008 0.62304,-0.008 0.62305,-0.008 0.62305,-0.008 0.62305,-0.008 0.62304,-0.008 0.62305,-0.008 0.62305,-0.008 0.62304,-0.008 0.62305,-0.008 0.62305,-0.008 0.62304,-0.008 0.62305,-0.008 0.62305,-0.008 0.62304,-0.008 0.62305,-0.008 0.62305,-0.008 0.62304,-0.008 0.62305,-0.008 0.62305,-0.008 0.62304,-0.008 0.62305,-0.008 0.62305,-0.008 0.62304,-0.008 0.62305,-0.008 0.62305,-0.008 0.62304,-0.008 0.62305,-0.008 0.62305,-0.008 0.62304,-0.008 0.62305,-0.008 0.62305,-0.008 0.62304,-0.008 0.62305,-0.008 0.62305,-0.008 0.62304,-0.008 0.62305,-0.008 0.62305,-0.008 0.62304,-0.008 0.62305,-0.008 0.62305,-0.008 0.62304,-0.008 0.62305,-0.008 0.62305,-0.008 0.62304,-0.008 0.62305,-0.008 0.62305,-0.008 0.62304,-0.008 0.62305,-0.008 0.62305,-0.008 0.62304,-0.008 0.62305,-0.008 0.62305,-0.008 0.62304,-0.008 0.62305,-0.008 0.62305,-0.008 0.62304,-0.008 0.62305,-0.008 0.62305,-0.008 0.62304,-0.008 0.62305,-0.008 0.62305,-0.008 0.62304,-0.008 0.62305,-0.008 0.62305,-0.008 0.62304,-0.008 0.62305,-0.008 0.62305,-0.008 0.62304,-0.008 0.62305,-0.008 0.62305,-0.008 0.62304,-0.008 0.62305,-0.008 0.62305,-0.008 0.62304,-0.008 0.62305,-0.008 0.62305,-0.008 0.62304,-0.008 0.62305,-0.008 0.62305,-0.008 0.62304,-0.008 0.62305,-0.008 0.62305,-0.008 0.62304,-0.008 0.62305,-0.008 0.62305,-0.009 0.62304,-0.009 0.62305,-0.009 0.62305,-0.009 0.62304,-0.009 0.62305,-0.009 0.62305,-0.009 0.62304,-0.009 0.62305,-0.009 0.62305,-0.009 0.62304,-0.009 0.62305,-0.009 0.62305,-0.009 0.62304,-0.009 0.62305,-0.009 0.62305,-0.009 0.62304,-0.009 0.62305,-0.009 0.62305,-0.009 0.62304,-0.009 0.62305,-0.009 0.62305,-0.009 0.62304,-0.009 0.62305,-0.009 0.62305,-0.009 0.62304,-0.009 0.62305,-0.009 0.62305,-0.009 0.62304,-0.009 0.62305,-0.009 0.62305,-0.009 0.62304,-0.009 0.62305,-0.009 0.62305,-0.009 0.62304,-0.009 0.62305,-0.009 0.62305,-0.009 0.62304,-0.009 0.62305,-0.009 0.62305,-0.009 0.62304,-0.009 0.62305,-0.009 0.62305,-0.009 0.62304,-0.009 0.62305,-0.009 0.62305,-0.009 0.62304,-0.009 0.62305,-0.009 0.62305,-0.009 0.62304,-0.009 0.62305,-0.009 0.62305,-0.009 0.62304,-0.009 0.62305,-0.009 0.62305,-0.009 0.62304,-0.009 0.62305,-0.009 0.62305,-0.009 0.62304,-0.009 0.62305,-0.009 0.62305,-0.009 0.62304,-0.009 0.62305,-0.009 0.62305,-0.009 0.62304,-0.009 0.62305,-0.009 0.62305,-0.009 0.62304,-0.009 0.62305,-0.009 0.62305,-0.009 0.62304,-0.009 0.62305,-0.009 0.62305,-0.009 0.62304,-0.009 0.62305,-0.009 0.62305,-0.009 0.62304,-0.009 0.62305,-0.009 0.62305,-0.009 0.62305,-0.009 0.62304,-0.009 0.62305,-0.009 0.62305,-0.009 0.62304,-0.009 0.62305,-0.009 0.62304,-0.009 0.62305,-0.009 0.62305,-0.009 0.62304,-0.009 0.62305,-0.009 0.62305,-0.009 0.62304,-0.009 0.62305,-0.009 0.62305,-0.009 0.62304,-0.009 0.62305,-0.009 0.62305,-0.009 0.62304,-0.009 0.62305,-0.01 0.62305,-0.01 0.62304,-0.01 0.62305,-0.01 0.62305,-0.01 0.62305,-0.01 0.62304,-0.01 0.62305,-0.01 0.62305,-0.01 0.62304,-0.01 0.62305,-0.01 0.62304,-0.01 0.62305,-0.01 0.62305,-0.01 0.62304,-0.01 0.62305,-0.01 0.62305,-0.01 0.62305,-0.01 0.62304,-0.01 0.62305,-0.01 0.62304,-0.01 0.62305,-0.01 0.62305,-0.01 0.62305,-0.01 0.62304,-0.01 0.62305,-0.01 0.62305,-0.01 0.62304,-0.01 0.62305,-0.01 0.62305,-0.01 0.62304,-0.01 0.62305,-0.01 0.62305,-0.01 0.62304,-0.01 0.62305,-0.01 0.62305,-0.01 0.62304,-0.01 0.62305,-0.01 0.62305,-0.01 0.62304,-0.01 0.62305,-0.01 0.62305,-0.01 0.62304,-0.0101 0.62305,-0.0101 0.62305,-0.0101 0.62304,-0.0101 0.62305,-0.0101 0.62305,-0.0101 0.62304,-0.0101 0.62305,-0.0102 0.62305,-0.0102 0.62304,-0.0102 0.62305,-0.0102 0.62305,-0.0102 0.62304,-0.0102 0.62305,-0.0102 0.62305,-0.0103 0.62304,-0.0103 0.62305,-0.0103 0.62305,-0.0103 0.62304,-0.0103 0.62305,-0.0103 0.62305,-0.0104 0.62304,-0.0104 0.62305,-0.0104 0.62305,-0.0104 0.62304,-0.0104 0.62305,-0.0104 0.62305,-0.0105 0.62304,-0.0105 0.62305,-0.0105 0.62305,-0.0105 0.62304,-0.0105 0.62305,-0.0105 0.62305,-0.0105 0.62304,-0.0106 0.62305,-0.0106 0.62305,-0.0106 0.62304,-0.0106 0.62305,-0.0106 0.62305,-0.0106 0.62304,-0.0107 0.62305,-0.0107 0.62305,-0.0107 0.62304,-0.0107 0.62305,-0.0107 0.62305,-0.0108 0.62304,-0.0108 0.62305,-0.0108 0.62305,-0.0108 0.62304,-0.0108 0.62305,-0.0108 0.62305,-0.0109 0.62304,-0.0109 0.62305,-0.0109 0.62305,-0.0109 0.62304,-0.0109 0.62305,-0.0109 0.62305,-0.011 0.62304,-0.011 0.62305,-0.011 0.62305,-0.011 0.62304,-0.011 0.62305,-0.0111 0.62305,-0.0111 0.62304,-0.0111 0.62305,-0.0111 0.62305,-0.0111 0.62304,-0.0112 0.62305,-0.0112 0.62305,-0.0112 0.62304,-0.0112 0.62305,-0.0112 0.62305,-0.0113 0.62304,-0.0113 0.62305,-0.0113 0.62305,-0.0113 0.62304,-0.0113 0.62305,-0.0114 0.62305,-0.0114 0.62304,-0.0114 0.62305,-0.0114 0.62305,-0.0114 0.62304,-0.0115 0.62305,-0.0115 0.62305,-0.0115 0.62304,-0.0115 0.62305,-0.0115 0.62305,-0.0116 0.62304,-0.0116 0.62305,-0.0116 0.62305,-0.0116 0.62304,-0.0117 0.62305,-0.0117 0.62305,-0.0117 0.62304,-0.0117 0.62305,-0.0118 0.62305,-0.0118 0.62304,-0.0118 0.62305,-0.0118 0.62305,-0.0118 0.62304,-0.0119 0.62305,-0.0119 0.62305,-0.0119 0.62304,-0.0119 0.62305,-0.012 0.62305,-0.012 0.62304,-0.012 0.62305,-0.012 0.62305,-0.0121 0.62304,-0.0121 0.62305,-0.0121 0.62305,-0.0121 0.62304,-0.0122 0.62305,-0.0122 0.62305,-0.0122 0.62304,-0.0122 0.62305,-0.0123 0.62305,-0.0123 0.62304,-0.0123 0.62305,-0.0123 0.62305,-0.0124 0.62304,-0.0124 0.62305,-0.0124 0.62305,-0.0125 0.62304,-0.0125 0.62305,-0.0125 0.62305,-0.0125 0.62304,-0.0126 0.62305,-0.0126 0.62305,-0.0126 0.62304,-0.0127 0.62305,-0.0127 0.62305,-0.0127 0.62305,-0.0127 0.62304,-0.0128 0.62305,-0.0128 0.62305,-0.0128 0.62304,-0.0129 0.62305,-0.0129 0.62304,-0.0129 0.62305,-0.0129 0.62305,-0.013 0.62304,-0.013 0.62305,-0.013 0.62305,-0.0131 0.62304,-0.0131 0.62305,-0.0131 0.62305,-0.0132 0.62304,-0.0132 0.62305,-0.0132 0.62305,-0.0132 0.62305,-0.0133 0.62304,-0.0133 0.62305,-0.0134 0.62305,-0.0134 0.62304,-0.0134 0.62305,-0.0135 0.62304,-0.0135 0.62305,-0.0135 0.62305,-0.0136 0.62305,-0.0136 0.62304,-0.0136 0.62305,-0.0137 0.62305,-0.0137 0.62304,-0.0137 0.62305,-0.0138 0.62304,-0.0138 0.62305,-0.0138 0.62305,-0.0139 0.62304,-0.0139 0.62305,-0.014 0.62305,-0.014 0.62305,-0.014 0.62304,-0.0141 0.62305,-0.0141 0.62304,-0.0142 0.62305,-0.0142 0.62305,-0.0142 0.62305,-0.0143 0.62304,-0.0143 0.62305,-0.0144 0.62304,-0.0144 0.62305,-0.0144 0.62305,-0.0145 0.62304,-0.0145 0.62305,-0.0146 0.62305,-0.0146 0.62305,-0.0147 0.62304,-0.0147 0.62305,-0.0148 0.62305,-0.0148 0.62304,-0.0148 0.62305,-0.0149 0.62305,-0.0149 0.62304,-0.015 0.62305,-0.015 0.62305,-0.0151 0.62304,-0.0151 0.62305,-0.0152 0.62305,-0.0152 0.62304,-0.0153 0.62305,-0.0153 0.62305,-0.0154 0.62304,-0.0154 0.62305,-0.0155 0.62305,-0.0155 0.62304,-0.0156 0.62305,-0.0157 0.62305,-0.0157 0.62304,-0.0157 0.62305,-0.0158 0.62305,-0.0159 0.62304,-0.0159 0.62305,-0.016 0.62305,-0.016 0.62304,-0.0161 0.62305,-0.0161 0.62305,-0.0162 0.62304,-0.0163 0.62305,-0.0163 0.62305,-0.0164 0.62304,-0.0165 0.62305,-0.0165 0.62305,-0.0166 0.62304,-0.0166 0.62305,-0.0167 0.62305,-0.0168 0.62304,-0.0168 0.62305,-0.0169 0.62305,-0.017 0.62304,-0.0171 0.62305,-0.0171 0.62305,-0.0172 0.62304,-0.0173 0.62305,-0.0173 0.62305,-0.0174 0.62304,-0.0175 0.62305,-0.0176 0.62305,-0.0176 0.62304,-0.0177 0.62305,-0.0178 0.62305,-0.0179 0.62304,-0.018 0.62305,-0.018 0.62305,-0.0181 0.62304,-0.0182 0.62305,-0.0183 0.62305,-0.0184 0.62304,-0.0185 0.62305,-0.0186 0.62305,-0.0187 0.62304,-0.0187 0.62305,-0.0188 0.62305,-0.0189 0.62304,-0.019 0.62305,-0.0191 0.62305,-0.0192 0.62304,-0.0193 0.62305,-0.0194 0.62305,-0.0195 0.62304,-0.0196 0.62305,-0.0198 0.62305,-0.0199 0.62304,-0.02 0.62305,-0.0201 0.62305,-0.0202 0.62304,-0.0203 0.62305,-0.0204 0.62305,-0.0206 0.62304,-0.0207 0.62305,-0.0208 0.62305,-0.0209 0.62304,-0.0211 0.62305,-0.0212 0.62305,-0.0213 0.62304,-0.0215 0.62305,-0.0216 0.62305,-0.0217 0.62304,-0.0219 0.62305,-0.022 0.62305,-0.0222 0.62304,-0.0224 0.62305,-0.0225 0.62305,-0.0227 0.62304,-0.0228 0.62305,-0.023 0.62305,-0.0232 0.62304,-0.0234 0.62305,-0.0236 0.62305,-0.0237 0.62304,-0.0239 0.62305,-0.0241 0.62305,-0.0243 0.62304,-0.0245 0.62305,-0.0247 0.62305,-0.0249 0.62304,-0.0252 0.62305,-0.0254 0.62305,-0.0256 0.62304,-0.0259 0.62305,-0.0261 0.62305,-0.0264 0.62304,-0.0266 0.62305,-0.0269 0.62305,-0.0272 0.62304,-0.0275 0.62305,-0.0278 0.62305,-0.0281 0.62304,-0.0284 0.62305,-0.0287 0.62305,-0.029 0.62304,-0.0294 0.62305,-0.0298 0.62305,-0.0302 0.62304,-0.0305 0.62305,-0.031 0.62305,-0.0314 0.62304,-0.0318 0.62305,-0.0323 0.62305,-0.0328 0.62304,-0.0333 0.62305,-0.0338 0.62305,-0.0344 0.62304,-0.0349 0.62305,-0.0356 0.62305,-0.0362 0.62304,-0.0369 0.62305,-0.0376 0.62305,-0.0384 0.62305,-0.0392 0.62304,-0.0401 0.62305,-0.0411 0.62304,-0.0421 0.62305,-0.0432 0.62305,-0.0443 0.62304,-0.0456 0.62305,-0.047 0.62305,-0.0486 0.62304,-0.0503 0.62305,-0.0521 0.62305,-0.0543 0.62305,-0.0567 0.62304,-0.0594 0.62305,-0.0626 0.62304,-0.0664 0.62305,-0.0709 0.62305,-0.0766 0.62305,-0.0838 0.62304,-0.0936 0.62305,-0.10797 v -0.60369 0 h -0.62305 -0.62304 -0.62305 -0.62305 -0.62305 -0.62304 -0.62305 -0.62304 -0.62305 -0.62305 -0.62305 -0.62304 -0.62305 -0.62305 -0.62304 -0.62305 -0.62305 -0.62304 -0.62305 -0.62304 -0.62305 -0.62305 -0.62305 -0.62304 -0.62305 -0.62305 -0.62304 -0.62305 -0.62305 -0.62304 -0.62305 -0.62305 -0.62304 -0.62305 -0.62305 -0.62304 -0.62305 -0.62305 -0.62304 -0.62305 -0.62305 -0.62304 -0.62305 -0.62305 -0.62304 -0.62305 -0.62305 -0.62304 -0.62305 -0.62305 -0.62304 -0.62305 -0.62305 -0.62304 -0.62305 -0.62305 -0.62304 -0.62305 -0.62305 -0.62304 -0.62305 -0.62305 -0.62304 -0.62305 -0.62305 -0.62304 -0.62305 -0.62305 -0.62304 -0.62305 -0.62305 -0.62304 -0.62305 -0.62305 -0.62304 -0.62305 -0.62305 -0.62304 -0.62305 -0.62305 -0.62304 -0.62305 -0.62305 -0.62304 -0.62305 -0.62305 -0.62304 -0.62305 -0.62305 -0.62304 -0.62305 -0.62305 -0.62304 -0.62305 -0.62305 -0.62304 -0.62305 -0.62305 -0.62304 -0.62305 -0.62305 -0.62304 -0.62305 -0.62305 -0.62304 -0.62305 -0.62305 -0.62304 -0.62305 -0.62305 -0.62304 -0.62305 -0.62305 -0.62304 -0.62305 -0.62305 -0.62304 -0.62305 -0.62305 -0.62304 -0.62305 -0.62305 -0.62304 -0.62305 -0.62305 -0.62304 -0.62305 -0.62305 -0.62304 -0.62305 -0.62305 -0.62304 -0.62305 -0.62305 -0.62304 -0.62305 -0.62305 -0.62304 -0.62305 -0.62305 -0.62304 -0.62305 -0.62305 -0.62304 -0.62305 -0.62305 -0.62304 -0.62305 -0.62305 -0.62304 -0.62305 -0.62305 -0.62304 -0.62305 -0.62305 -0.62304 -0.62305 -0.62305 -0.62304 -0.62305 -0.62305 -0.62304 -0.62305 -0.62305 -0.62305 -0.62304 -0.62305 -0.62305 -0.62304 -0.62305 -0.62304 -0.62305 -0.62305 -0.62305 -0.62304 -0.62305 -0.62304 -0.62305 -0.62305 -0.62305 -0.62304 -0.62305 -0.62305 -0.62304 -0.62305 -0.62304 -0.62305 -0.62305 -0.62304 -0.62305 -0.62305 -0.62305 -0.62304 -0.62305 -0.62304 -0.62305 -0.62305 -0.62304 -0.62305 -0.62305 -0.62305 -0.62304 -0.62305 -0.62305 -0.62304 -0.62305 -0.62305 -0.62304 -0.62305 -0.62305 -0.62304 -0.62305 -0.62304 -0.62305 -0.62305 -0.62304 -0.62305 -0.62305 -0.62305 -0.62304 -0.62305 -0.62305 -0.62304 -0.62305 -0.62305 -0.62304 -0.62305 -0.62305 -0.62304 -0.62305 -0.62305 -0.62304 -0.62305 -0.62305 -0.62304 -0.62305 -0.62305 -0.62304 -0.62305 -0.62305 -0.62304 -0.62305 -0.62305 -0.62304 -0.62305 -0.62305 -0.62304 -0.62305 -0.62305 -0.62304 -0.62305 -0.62305 -0.62304 -0.62305 -0.62305 -0.62304 -0.62305 -0.62305 -0.62304 -0.62305 -0.62305 -0.62304 -0.62305 -0.62305 -0.62304 -0.62305 -0.62305 -0.62304 -0.62305 -0.62305 -0.62304 -0.62305 -0.62305 -0.62304 -0.62305 -0.62305 -0.62304 -0.62305 -0.62305 -0.62304 -0.62305 -0.62305 -0.62304 -0.62305 -0.62305 -0.62304 -0.62305 -0.62305 -0.62304 -0.62305 -0.62305 -0.62304 -0.62305 -0.62305 -0.62304 -0.62305 -0.62305 -0.62304 -0.62305 -0.62305 -0.62304 -0.62305 -0.62305 -0.62304 -0.62305 -0.62305 -0.62304 -0.62305 -0.62305 -0.62304 -0.62305 -0.62305 -0.62304 -0.62305 -0.62305 -0.62304 -0.62305 -0.62305 -0.62304 -0.62305 -0.62305 -0.62304 -0.62305 -0.62305 -0.62304 -0.62305 -0.62305 -0.62304 -0.62305 -0.62305 -0.62304 -0.62305 -0.62305 -0.62304 -0.62305 -0.62305 -0.62304 -0.62305 -0.62305 -0.62304 -0.62305 -0.62305 -0.62304 -0.62305 -0.62305 -0.62304 -0.62305 -0.62305 -0.62304 -0.62305 -0.62305 -0.62304 -0.62305 -0.62305 -0.62304 -0.62305 -0.62305 -0.62304 -0.62305 -0.62305 -0.62304 -0.62305 -0.62305 -0.62304 -0.62305 -0.62305 -0.62304 -0.62305 -0.62305 -0.62305 -0.62304 -0.62305 -0.62304 -0.62305 -0.62305 -0.62305 -0.62304 -0.62305 -0.62305 -0.62304 -0.62305 -0.62304 -0.62305 -0.62305 -0.62304 -0.62305 -0.62305 -0.62305 -0.62304 -0.62305 -0.62305 -0.62304 -0.62305 -0.62305 -0.62304 -0.62305 -0.62305 -0.62304 -0.62305 -0.62305 -0.62304 -0.62305 -0.62305 -0.62304 -0.62305 -0.62304 -0.62305 -0.62305 -0.62304 -0.62305 -0.62305 -0.62305 -0.62304 -0.62305 -0.62305 -0.62304 -0.62305 -0.62305 -0.62304 -0.62305 -0.62305 -0.62304 -0.62305 -0.62305 -0.62304 -0.62305 -0.62305 -0.62304 -0.62305 -0.62305 -0.62304 -0.62305 -0.62305 -0.62304 -0.62305 -0.62305 -0.62304 -0.62305 -0.62305 -0.62304 -0.62305 -0.62305 -0.62304 -0.62305 -0.62305 -0.62304 -0.62305 -0.62305 -0.62304 -0.62305 -0.62305 -0.62304 -0.62305 -0.62305 -0.62304 -0.62305 -0.62305 -0.62304 -0.62305 -0.62305 -0.62304 -0.62305 -0.62305 -0.62304 -0.62305 -0.62305 -0.62304 -0.62305 -0.62305 -0.62304 -0.62305 -0.62305 -0.62304 -0.62305 -0.62305 -0.62304 -0.62305 -0.62305 -0.62304 -0.62305 -0.62305 -0.62304 -0.62305 -0.62305 -0.62304 -0.62305 -0.62305 -0.62304 -0.62305 -0.62305 -0.62304 -0.62305 -0.62305 -0.62304 -0.62305 -0.62305 -0.62304 -0.62305 -0.62305 -0.62304 -0.62305 -0.62305 -0.62304 -0.62305 -0.62305 -0.62304 -0.62305 -0.62305 -0.62304 -0.62305 -0.62305 -0.62304 -0.62305 -0.62305 -0.62304 -0.62305 -0.62305 -0.62304 -0.62305 -0.62305 -0.62304 -0.62305 -0.62305 -0.62304 -0.62305 -0.62305 -0.62304 -0.62305 -0.62305 -0.62304 -0.62305 -0.62305 -0.62304 -0.62305 -0.62305 -0.62304 -0.62305 -0.62305 -0.62304 -0.62305 -0.62305 -0.62304 -0.62305 -0.62305 -0.62304 -0.62305 -0.62305 -0.62304 -0.62305 -0.62305 -0.62304 -0.62305 -0.62305 -0.62304 -0.62305 -0.62305 -0.62304 -0.62305 -0.62305 -0.62304 -0.62305 -0.62305 -0.62304 -0.62305 -0.62305 -0.62304 -0.62305 -0.62305 -0.62304 -0.62305 -0.62305 -0.62305 -0.62304 -0.62305 -0.62305 -0.62304 -0.62305 -0.62305 -0.62304 -0.62305 -0.62305 -0.62304 -0.62305 -0.62305 -0.62304 -0.62305 -0.62305 -0.62304 -0.62305 -0.62305 -0.62304 -0.62305 -0.62305 -0.62304 -0.62305 -0.62305 -0.62304 -0.62305 -0.62305 -0.62304 -0.62305 -0.62305 -0.62304 -0.62305 -0.62305 -0.62304 -0.62305 -0.62304 -0.62305 -0.62305 -0.62305 -0.62304 -0.62305 -0.62305 -0.62304 -0.62305 -0.62305 -0.62304 -0.62305 -0.62305 -0.62304 -0.62305 -0.62305 -0.62304 -0.62305 -0.62305 -0.62304 -0.62305 -0.62305 -0.62304 -0.62305 -0.62305 -0.62304 -0.62305 -0.62305 -0.62304 -0.62305 -0.62305 -0.62304 -0.62305 -0.62305 -0.62304 -0.62305 -0.62305 -0.62304 -0.62305 -0.62305 -0.62304 -0.62305 -0.62305 -0.62304 -0.62305 -0.62305 -0.62304 -0.62305 -0.62305 -0.62304 -0.62305 -0.62305 -0.62304 -0.62305 -0.62305 -0.62304 -0.62305 -0.62305 -0.62304 -0.62305 -0.62305 -0.62304 -0.62305 -0.62305 -0.62304 -0.62305 -0.62305 -0.62304 -0.62305 -0.62305 -0.62304 -0.62305 -0.62305 -0.62304 -0.62305 -0.62305 -0.62304 -0.62305 -0.62305 -0.62304 -0.62305 -0.62305 -0.62304 -0.62305 -0.62305 -0.62304 -0.62305 -0.62305 -0.62304 -0.62305 -0.62305 -0.62304 -0.62305 -0.62305 -0.62304 -0.62305 -0.62305 -0.62304 -0.62305 -0.62305 -0.62304 -0.62305 -0.62305 -0.62304 -0.62305 -0.62305 -0.62304 -0.62305 -0.62305 -0.62304 -0.62305 -0.62305 -0.62304 -0.62305 -0.62305 -0.62304 -0.62305 -0.62305 -0.62304 -0.62305 -0.62305 -0.62304 -0.62305 -0.62305 -0.62304 -0.62305 -0.62305 -0.62304 -0.62305 -0.62305 -0.62304 -0.62305 -0.62305 -0.62304 -0.62305 -0.62305 -0.62304 -0.62305 -0.62305 -0.62304 -0.62305 -0.62305 -0.62304 -0.62305 -0.62305 -0.62304 -0.62305 -0.62305 -0.62304 -0.62305 -0.62305 -0.62304 -0.62305 -0.62305 -0.62304 -0.62305 -0.62305 -0.62304 -0.62305 -0.62305 -0.62304 -0.62305 -0.62305 -0.62304 -0.62305 -0.62305 -0.62304 -0.62305 -0.62305 -0.62305 -0.62304 -0.62305 -0.62305 -0.62304 -0.62305 -0.62304 -0.62305 -0.62305 -0.62305 -0.62304 -0.62305 -0.62305 -0.62304 -0.62305 -0.62305 -0.62304 -0.62305 -0.62304 -0.62305 -0.62305 -0.62305 -0.62304 -0.62305 -0.62305 -0.62304 -0.62305 -0.62304 -0.62305 -0.62305 -0.62305 -0.62304 -0.62305 -0.62305 -0.62304 -0.62305 -0.62305 -0.62304 -0.62305 -0.62305 -0.62304 -0.62305 -0.62305 -0.62304 -0.62305 -0.62304 -0.62305 -0.62305 -0.62305 -0.62304 -0.62305 -0.62305 -0.62304 -0.62305 -0.62305 -0.62304 -0.62305 -0.62305 -0.62304 -0.62305 -0.62305 -0.62304 -0.62305 -0.62305 -0.62304 -0.62305 -0.62305 -0.62304 -0.62305 -0.62305 -0.62304 -0.62305 -0.62305 -0.62304 -0.62305 -0.62305 -0.62304 -0.62305 -0.62305 -0.62304 -0.62305 -0.62305 -0.62304 -0.62305 -0.62305 -0.62304 -0.62305 -0.62305 -0.62304 -0.62305 -0.62305 -0.62304 -0.62305 -0.62305 -0.62304 -0.62305 -0.62305 -0.62304 -0.62305 -0.62305 -0.62304 -0.62305 -0.62305 -0.62304 -0.62305 -0.62305 -0.62304 -0.62305 -0.62305 -0.62304 -0.62305 -0.62305 -0.62304 -0.62305 -0.62305 -0.62304 -0.62305 -0.62305 -0.62304 -0.62305 -0.62305 -0.62304 -0.62305 -0.62305 -0.62304 -0.62305 -0.62305 -0.62304 -0.62305 -0.62305 -0.62304 -0.62305 -0.62305 -0.62304 -0.62305 -0.62305 -0.62304 -0.62305 -0.62305 -0.62304 -0.62305 -0.62305 -0.62304 -0.62305 -0.62305 -0.62304 -0.62305 -0.62305 -0.62304 -0.62305 -0.62305 -0.62304 -0.62305 -0.62305 -0.62304 -0.62305 -0.62305 -0.62304 -0.62305 -0.62305 -0.62304 -0.62305 -0.62305 -0.62304 -0.62305 -0.62305 -0.62304 -0.62305 -0.62305 -0.62304 -0.62305 -0.62305 -0.62304 -0.62305 -0.62305 -0.62304 -0.62305 -0.62305 -0.62304 -0.62305 -0.62305 -0.62304 -0.62305 -0.62305 -0.62304 -0.62305 -0.62305 -0.62304 -0.62305 -0.62305 -0.62304 -0.62305 -0.62305 -0.62304 -0.62305 -0.62305 -0.62304 -0.62305 -0.62305 -0.62304 -0.62305 -0.62305 -0.62305 -0.62304 -0.62305 -0.62305 -0.62304 -0.62305 -0.62305 -0.62304 -0.62305 -0.62305 -0.62304 -0.62305 -0.62305 -0.62304 -0.62305 -0.62305 -0.62304 -0.62305 -0.62305 -0.62304 -0.62305 z"
         style="fill:#009d72;fill-opacity:0.50196081;fill-rule:nonzero;stroke:#009e73;stroke-width:0.77735907;stroke-linecap:butt;stroke-linejoin:round;stroke-miterlimit:10;stroke-dasharray:none;stroke-opacity:0.5"
         id="path1592"
         inkscape:connector-curvature="0" /></g></g><g
     transform="matrix(0.45901081,0,0,-0.44867938,322.11426,359.69896)"
     style="fill:#e59f00;fill-opacity:0.50196078;stroke-width:0.77735907"
     id="g1594"><g
       style="fill:#e59f00;fill-opacity:0.50196078;stroke-width:0.77735907"
       id="g1596"
       clip-path="url(#clipPath1600)"><path
         d="m 141.55118,112.48731 v 6.54675 l 0.62305,0.002 0.62304,0.002 0.62305,0.002 0.62305,0.002 0.62304,0.002 0.62305,0.002 0.62305,0.002 0.62304,0.002 0.62305,0.002 0.62305,0.002 0.62304,0.002 0.62305,0.002 0.62305,0.002 0.62304,0.002 0.62305,0.002 0.62305,0.002 0.62304,0.002 0.62305,0.002 0.62305,0.002 0.62304,0.002 0.62305,0.002 0.62305,0.002 0.62305,0.002 0.62304,0.002 0.62305,0.002 0.62305,0.002 0.62304,0.002 0.62305,0.002 0.62305,0.002 0.62304,0.002 0.62305,0.002 0.62305,0.002 0.62304,0.002 0.62305,0.002 0.62305,0.002 0.62304,0.002 0.62305,0.002 0.62305,0.002 0.62304,0.002 0.62305,0.002 0.62305,0.002 0.62304,0.002 0.62305,0.002 0.62305,0.002 0.62304,0.002 0.62305,0.002 0.62305,0.002 0.62304,0.002 0.62305,0.002 0.62305,0.002 0.62304,0.002 0.62305,0.002 0.62305,0.002 0.62304,0.002 0.62305,0.002 0.62305,0.002 0.62304,0.002 0.62305,0.002 0.62305,0.002 0.62304,0.002 0.62305,0.002 0.62305,0.002 0.62304,0.002 0.62305,0.002 0.62305,0.002 0.62304,0.002 0.62305,0.002 0.62305,0.002 0.62304,0.002 0.62305,0.002 0.62305,0.002 0.62304,0.002 0.62305,0.002 0.62305,0.002 0.62304,0.002 0.62305,0.002 0.62305,0.002 0.62304,0.002 0.62305,0.002 0.62305,0.002 0.62304,0.002 0.62305,0.002 0.62305,0.002 0.62304,0.002 0.62305,0.002 0.62305,0.002 0.62304,0.002 0.62305,0.002 0.62305,0.002 0.62304,0.002 0.62305,0.002 0.62305,0.002 0.62304,0.002 0.62305,0.002 0.62305,0.002 0.62304,0.002 0.62305,0.002 0.62305,0.002 0.62304,0.002 0.62305,0.002 0.62305,0.002 0.62304,0.002 0.62305,0.002 0.62305,0.002 0.62304,0.002 0.62305,0.002 0.62305,0.002 0.62304,0.002 0.62305,0.002 0.62305,0.002 0.62304,0.002 0.62305,0.002 0.62305,0.002 0.62304,0.002 0.62305,0.002 0.62305,0.002 0.62304,0.002 0.62305,0.002 0.62305,0.002 0.62304,0.002 0.62305,0.002 0.62305,0.002 0.62304,0.002 0.62305,0.002 0.62305,0.002 0.62304,0.002 0.62305,0.002 0.62305,0.002 0.62304,0.002 0.62305,0.002 0.62305,0.002 0.62304,0.002 0.62305,0.002 0.62305,0.002 0.62304,0.002 0.62305,0.002 0.62305,0.002 0.62304,0.002 0.62305,0.002 0.62305,0.002 0.62304,0.002 0.62305,0.002 0.62305,0.002 0.62304,0.002 0.62305,0.002 0.62305,0.002 0.62304,0.002 0.62305,0.002 0.62305,0.002 0.62304,0.002 0.62305,0.002 0.62305,0.002 0.62304,0.002 0.62305,0.002 0.62305,0.002 0.62304,0.002 0.62305,0.002 0.62305,0.002 0.62304,0.002 0.62305,0.002 0.62305,0.002 0.62304,0.002 0.62305,0.002 0.62305,0.002 0.62304,0.002 0.62305,0.002 0.62305,0.002 0.62304,0.002 0.62305,0.002 0.62305,0.002 0.62304,0.002 0.62305,0.002 0.62305,0.002 0.62304,0.002 0.62305,0.002 0.62305,0.002 0.62305,0.002 0.62304,0.002 0.62305,0.002 0.62304,0.002 0.62305,0.002 0.62305,0.002 0.62304,0.002 0.62305,0.002 0.62305,0.002 0.62304,0.002 0.62305,0.002 0.62305,0.002 0.62304,0.002 0.62305,0.002 0.62305,0.002 0.62304,0.002 0.62305,0.002 0.62305,0.002 0.62305,0.002 0.62304,0.002 0.62305,0.002 0.62304,0.002 0.62305,0.002 0.62305,0.002 0.62304,0.002 0.62305,0.002 0.62305,0.002 0.62305,0.002 0.62304,0.002 0.62305,0.002 0.62304,0.002 0.62305,0.002 0.62305,0.002 0.62304,0.002 0.62305,0.002 0.62305,0.002 0.62304,0.002 0.62305,0.003 0.62305,0.002 0.62305,0.003 0.62304,0.003 0.62305,0.003 0.62304,0.003 0.62305,0.003 0.62305,0.003 0.62304,0.003 0.62305,0.003 0.62305,0.003 0.62305,0.003 0.62304,0.003 0.62305,0.003 0.62305,0.003 0.62304,0.003 0.62305,0.003 0.62305,0.003 0.62304,0.003 0.62305,0.003 0.62305,0.003 0.62304,0.003 0.62305,0.003 0.62305,0.003 0.62304,0.003 0.62305,0.003 0.62305,0.003 0.62304,0.003 0.62305,0.003 0.62305,0.003 0.62304,0.003 0.62305,0.003 0.62305,0.003 0.62304,0.003 0.62305,0.003 0.62305,0.003 0.62304,0.003 0.62305,0.003 0.62305,0.003 0.62304,0.003 0.62305,0.003 0.62305,0.003 0.62304,0.003 0.62305,0.003 0.62305,0.003 0.62304,0.003 0.62305,0.003 0.62305,0.003 0.62304,0.003 0.62305,0.003 0.62305,0.003 0.62304,0.003 0.62305,0.003 0.62305,0.003 0.62304,0.003 0.62305,0.003 0.62305,0.003 0.62304,0.003 0.62305,0.003 0.62305,0.003 0.62304,0.003 0.62305,0.003 0.62305,0.003 0.62304,0.003 0.62305,0.003 0.62305,0.003 0.62304,0.003 0.62305,0.003 0.62305,0.003 0.62304,0.003 0.62305,0.003 0.62305,0.003 0.62304,0.003 0.62305,0.003 0.62305,0.003 0.62304,0.003 0.62305,0.003 0.62305,0.003 0.62304,0.003 0.62305,0.003 0.62305,0.003 0.62304,0.003 0.62305,0.003 0.62305,0.003 0.62304,0.003 0.62305,0.003 0.62305,0.003 0.62304,0.003 0.62305,0.003 0.62305,0.003 0.62304,0.003 0.62305,0.003 0.62305,0.003 0.62304,0.003 0.62305,0.003 0.62305,0.003 0.62304,0.003 0.62305,0.003 0.62305,0.003 0.62304,0.003 0.62305,0.003 0.62305,0.003 0.62304,0.003 0.62305,0.003 0.62305,0.003 0.62304,0.003 0.62305,0.003 0.62305,0.003 0.62304,0.003 0.62305,0.003 0.62305,0.003 0.62304,0.003 0.62305,0.003 0.62305,0.003 0.62304,0.003 0.62305,0.003 0.62305,0.003 0.62304,0.003 0.62305,0.003 0.62305,0.003 0.62304,0.003 0.62305,0.003 0.62305,0.003 0.62304,0.003 0.62305,0.003 0.62305,0.003 0.62304,0.003 0.62305,0.003 0.62305,0.003 0.62304,0.003 0.62305,0.003 0.62305,0.003 0.62304,0.003 0.62305,0.003 0.62305,0.003 0.62304,0.003 0.62305,0.003 0.62305,0.003 0.62304,0.003 0.62305,0.003 0.62305,0.003 0.62304,0.003 0.62305,0.003 0.62305,0.003 0.62304,0.003 0.62305,0.003 0.62305,0.003 0.62304,0.003 0.62305,0.003 0.62305,0.003 0.62304,0.003 0.62305,0.003 0.62305,0.003 0.62304,0.003 0.62305,0.003 0.62305,0.003 0.62304,0.003 0.62305,0.003 0.62305,0.003 0.62304,0.003 0.62305,0.003 0.62305,0.003 0.62304,0.003 0.62305,0.003 0.62305,0.004 0.62304,0.004 0.62305,0.004 0.62305,0.004 0.62304,0.004 0.62305,0.004 0.62305,0.004 0.62304,0.004 0.62305,0.004 0.62305,0.004 0.62304,0.004 0.62305,0.004 0.62305,0.004 0.62305,0.004 0.62304,0.004 0.62305,0.004 0.62304,0.004 0.62305,0.004 0.62305,0.004 0.62304,0.004 0.62305,0.004 0.62305,0.004 0.62304,0.004 0.62305,0.004 0.62305,0.004 0.62304,0.004 0.62305,0.004 0.62305,0.004 0.62304,0.004 0.62305,0.004 0.62305,0.004 0.62304,0.004 0.62305,0.004 0.62305,0.004 0.62304,0.004 0.62305,0.004 0.62305,0.004 0.62304,0.004 0.62305,0.004 0.62305,0.004 0.62304,0.004 0.62305,0.004 0.62305,0.004 0.62304,0.004 0.62305,0.004 0.62305,0.004 0.62304,0.004 0.62305,0.004 0.62305,0.004 0.62304,0.004 0.62305,0.004 0.62305,0.004 0.62305,0.004 0.62304,0.004 0.62305,0.004 0.62305,0.004 0.62304,0.004 0.62305,0.004 0.62305,0.004 0.62304,0.004 0.62305,0.004 0.62305,0.004 0.62304,0.004 0.62305,0.004 0.62305,0.004 0.62304,0.004 0.62305,0.004 0.62305,0.004 0.62304,0.004 0.62305,0.004 0.62305,0.004 0.62304,0.004 0.62305,0.004 0.62305,0.004 0.62304,0.004 0.62305,0.004 0.62305,0.004 0.62304,0.004 0.62305,0.004 0.62305,0.004 0.62304,0.004 0.62305,0.004 0.62305,0.004 0.62304,0.004 0.62305,0.004 0.62305,0.004 0.62304,0.004 0.62305,0.004 0.62305,0.004 0.62304,0.004 0.62305,0.004 0.62305,0.004 0.62304,0.004 0.62305,0.004 0.62305,0.004 0.62304,0.004 0.62305,0.004 0.62305,0.004 0.62304,0.005 0.62305,0.005 0.62305,0.005 0.62304,0.005 0.62305,0.005 0.62305,0.005 0.62304,0.005 0.62305,0.005 0.62305,0.005 0.62304,0.005 0.62305,0.005 0.62305,0.005 0.62304,0.005 0.62305,0.005 0.62305,0.005 0.62304,0.005 0.62305,0.005 0.62305,0.005 0.62304,0.005 0.62305,0.005 0.62305,0.005 0.62304,0.005 0.62305,0.005 0.62305,0.005 0.62304,0.005 0.62305,0.005 0.62305,0.005 0.62304,0.005 0.62305,0.005 0.62305,0.005 0.62304,0.005 0.62305,0.005 0.62305,0.005 0.62304,0.005 0.62305,0.005 0.62305,0.005 0.62304,0.005 0.62305,0.005 0.62305,0.005 0.62304,0.005 0.62305,0.005 0.62305,0.005 0.62304,0.005 0.62305,0.005 0.62305,0.005 0.62304,0.005 0.62305,0.005 0.62305,0.005 0.62304,0.005 0.62305,0.005 0.62305,0.005 0.62304,0.005 0.62305,0.005 0.62305,0.005 0.62304,0.005 0.62305,0.005 0.62305,0.005 0.62304,0.005 0.62305,0.005 0.62305,0.005 0.62304,0.005 0.62305,0.005 0.62305,0.005 0.62304,0.005 0.62305,0.005 0.62305,0.006 0.62304,0.006 0.62305,0.006 0.62305,0.006 0.62304,0.006 0.62305,0.006 0.62305,0.006 0.62304,0.006 0.62305,0.006 0.62305,0.006 0.62304,0.006 0.62305,0.006 0.62305,0.006 0.62304,0.006 0.62305,0.006 0.62305,0.006 0.62304,0.006 0.62305,0.006 0.62305,0.006 0.62304,0.006 0.62305,0.006 0.62305,0.006 0.62304,0.006 0.62305,0.006 0.62305,0.006 0.62304,0.006 0.62305,0.006 0.62305,0.006 0.62304,0.006 0.62305,0.006 0.62305,0.006 0.62304,0.006 0.62305,0.006 0.62305,0.006 0.62304,0.006 0.62305,0.006 0.62305,0.006 0.62304,0.006 0.62305,0.006 0.62305,0.006 0.62304,0.006 0.62305,0.006 0.62305,0.006 0.62304,0.006 0.62305,0.006 0.62305,0.006 0.62304,0.007 0.62305,0.007 0.62305,0.007 0.62305,0.007 0.62304,0.007 0.62305,0.007 0.62305,0.007 0.62304,0.007 0.62305,0.007 0.62304,0.007 0.62305,0.007 0.62305,0.007 0.62304,0.007 0.62305,0.007 0.62305,0.007 0.62304,0.007 0.62305,0.007 0.62305,0.007 0.62304,0.007 0.62305,0.007 0.62305,0.007 0.62304,0.007 0.62305,0.007 0.62305,0.007 0.62304,0.007 0.62305,0.007 0.62305,0.007 0.62305,0.007 0.62304,0.007 0.62305,0.007 0.62305,0.007 0.62304,0.007 0.62305,0.007 0.62304,0.007 0.62305,0.007 0.62305,0.007 0.62304,0.008 0.62305,0.008 0.62305,0.008 0.62305,0.008 0.62304,0.008 0.62305,0.008 0.62304,0.008 0.62305,0.008 0.62305,0.008 0.62305,0.008 0.62304,0.008 0.62305,0.008 0.62305,0.008 0.62304,0.008 0.62305,0.008 0.62305,0.008 0.62304,0.008 0.62305,0.008 0.62305,0.008 0.62304,0.008 0.62305,0.008 0.62305,0.008 0.62304,0.008 0.62305,0.008 0.62305,0.008 0.62304,0.008 0.62305,0.008 0.62305,0.008 0.62304,0.009 0.62305,0.009 0.62305,0.009 0.62304,0.009 0.62305,0.009 0.62305,0.009 0.62304,0.009 0.62305,0.009 0.62305,0.009 0.62304,0.009 0.62305,0.009 0.62305,0.009 0.62304,0.009 0.62305,0.009 0.62305,0.009 0.62304,0.009 0.62305,0.009 0.62305,0.009 0.62304,0.009 0.62305,0.009 0.62305,0.009 0.62304,0.009 0.62305,0.01 0.62305,0.01 0.62304,0.01 0.62305,0.01 0.62305,0.01 0.62304,0.01 0.62305,0.01 0.62305,0.01 0.62304,0.01 0.62305,0.01 0.62305,0.0101 0.62304,0.0101 0.62305,0.0102 0.62305,0.0102 0.62304,0.0103 0.62305,0.0103 0.62305,0.0104 0.62304,0.0105 0.62305,0.0105 0.62305,0.0106 0.62304,0.0106 0.62305,0.0107 0.62305,0.0108 0.62304,0.0108 0.62305,0.0109 0.62305,0.0109 0.62304,0.011 0.62305,0.0111 0.62305,0.0111 0.62304,0.0112 0.62305,0.0113 0.62305,0.0113 0.62304,0.0114 0.62305,0.0115 0.62305,0.0115 0.62304,0.0116 0.62305,0.0117 0.62305,0.0117 0.62304,0.0118 0.62305,0.0119 0.62305,0.012 0.62304,0.012 0.62305,0.0121 0.62305,0.0122 0.62304,0.0123 0.62305,0.0124 0.62305,0.0124 0.62304,0.0125 0.62305,0.0126 0.62305,0.0127 0.62304,0.0128 0.62305,0.0129 0.62305,0.0129 0.62304,0.013 0.62305,0.0131 0.62305,0.0132 0.62304,0.0133 0.62305,0.0134 0.62305,0.0135 0.62304,0.0136 0.62305,0.0137 0.62305,0.0138 0.62304,0.0139 0.62305,0.0139 0.62305,0.014 0.62304,0.0142 0.62305,0.0143 0.62305,0.0143 0.62304,0.0145 0.62305,0.0146 0.62305,0.0147 0.62304,0.0148 0.62305,0.0149 0.62305,0.015 0.62304,0.0151 0.62305,0.0152 0.62305,0.0153 0.62304,0.0155 0.62305,0.0156 0.62305,0.0157 0.62304,0.0158 0.62305,0.016 0.62305,0.0161 0.62304,0.0162 0.62305,0.0163 0.62305,0.0165 0.62304,0.0166 0.62305,0.0167 0.62305,0.0169 0.62304,0.017 0.62305,0.0172 0.62305,0.0173 0.62304,0.0174 0.62305,0.0176 0.62305,0.0177 0.62304,0.0179 0.62305,0.0181 0.62305,0.0182 0.62304,0.0184 0.62305,0.0185 0.62305,0.0187 0.62304,0.0189 0.62305,0.019 0.62305,0.0192 0.62304,0.0194 0.62305,0.0196 0.62305,0.0198 0.62304,0.0199 0.62305,0.0201 0.62305,0.0203 0.62305,0.0205 0.62304,0.0207 0.62305,0.0209 0.62305,0.0211 0.62304,0.0213 0.62305,0.0216 0.62304,0.0218 0.62305,0.022 0.62305,0.0222 0.62304,0.0225 0.62305,0.0227 0.62305,0.0229 0.62304,0.0232 0.62305,0.0234 0.62305,0.0237 0.62304,0.0239 0.62305,0.0242 0.62305,0.0245 0.62305,0.0247 0.62304,0.025 0.62305,0.0253 0.62305,0.0256 0.62304,0.0259 0.62305,0.0262 0.62304,0.0265 0.62305,0.0268 0.62305,0.0271 0.62305,0.0275 0.62304,0.0278 0.62305,0.0281 0.62305,0.0285 0.62304,0.0289 0.62305,0.0292 0.62304,0.0296 0.62305,0.03 0.62305,0.0304 0.62304,0.0308 0.62305,0.0312 0.62305,0.0316 0.62305,0.0321 0.62304,0.0325 0.62305,0.033 0.62304,0.0334 0.62305,0.0339 0.62305,0.0344 0.62305,0.0349 0.62304,0.0354 0.62305,0.036 0.62304,0.0365 0.62305,0.0371 0.62305,0.0377 0.62304,0.0383 0.62305,0.0389 0.62305,0.0395 0.62305,0.0402 0.62304,0.0409 0.62305,0.0416 0.62305,0.0423 0.62304,0.043 0.62305,0.0438 0.62305,0.0446 0.62304,0.0454 0.62305,0.0462 0.62305,0.0471 0.62304,0.048 0.62305,0.0489 0.62305,0.0499 0.62304,0.0508 0.62305,0.0519 0.62305,0.0529 0.62304,0.0541 0.62305,0.0552 0.62305,0.0564 0.62304,0.0576 0.62305,0.0589 0.62305,0.0603 0.62304,0.0617 0.62305,0.0632 0.62305,0.0647 0.62304,0.0663 0.62305,0.0679 0.62305,0.0697 0.62304,0.0715 0.62305,0.0734 0.62305,0.0754 0.62304,0.0775 0.62305,0.0798 0.62305,0.0821 0.62304,0.0845 0.62305,0.0871 0.62305,0.0899 0.62304,0.0928 0.62305,0.0959 0.62305,0.0991 0.62304,0.10259 0.62305,0.10629 0.62305,0.11024 0.62304,0.11445 0.62305,0.11895 0.62305,0.1238 0.62304,0.12902 0.62305,0.13462 0.62305,0.14071 0.62304,0.14728 0.62305,0.15445 0.62305,0.16227 0.62304,0.17082 0.62305,0.18022 0.62305,0.1906 0.62304,0.20211 0.62305,0.21493 0.62305,0.2293 0.62304,0.24548 0.62305,0.26386 0.62305,0.28486 0.62304,0.30907 0.62305,0.33728 0.62305,0.37047 0.62304,0.41004 0.62305,0.45796 0.62305,0.51698 0.62304,0.59129 0.62305,0.68734 0.62305,0.81573 0.62304,0.99495 0.62305,1.26042 0.62305,1.6887 0.62304,2.47983 0.62305,4.3612 0.62305,13.77407 v -47.23693 0 h -0.62305 -0.62305 -0.62304 -0.62305 -0.62305 -0.62304 -0.62305 -0.62305 -0.62304 -0.62305 -0.62305 -0.62304 -0.62305 -0.62305 -0.62304 -0.62305 -0.62305 -0.62304 -0.62305 -0.62305 -0.62304 -0.62305 -0.62305 -0.62304 -0.62305 -0.62305 -0.62304 -0.62305 -0.62305 -0.62304 -0.62305 -0.62305 -0.62304 -0.62305 -0.62305 -0.62304 -0.62305 -0.62305 -0.62304 -0.62305 -0.62305 -0.62304 -0.62305 -0.62305 -0.62304 -0.62305 -0.62305 -0.62304 -0.62305 -0.62305 -0.62304 -0.62305 -0.62305 -0.62304 -0.62305 -0.62305 -0.62304 -0.62305 -0.62305 -0.62304 -0.62305 -0.62305 -0.62304 -0.62305 -0.62305 -0.62304 -0.62305 -0.62305 -0.62304 -0.62305 -0.62305 -0.62304 -0.62305 -0.62305 -0.62304 -0.62305 -0.62305 -0.62305 -0.62304 -0.62305 -0.62305 -0.62304 -0.62305 -0.62304 -0.62305 -0.62305 -0.62305 -0.62304 -0.62305 -0.62304 -0.62305 -0.62305 -0.62305 -0.62304 -0.62305 -0.62305 -0.62304 -0.62305 -0.62304 -0.62305 -0.62305 -0.62304 -0.62305 -0.62305 -0.62305 -0.62304 -0.62305 -0.62304 -0.62305 -0.62305 -0.62304 -0.62305 -0.62305 -0.62305 -0.62304 -0.62305 -0.62305 -0.62304 -0.62305 -0.62305 -0.62304 -0.62305 -0.62305 -0.62304 -0.62305 -0.62304 -0.62305 -0.62305 -0.62304 -0.62305 -0.62305 -0.62305 -0.62304 -0.62305 -0.62305 -0.62304 -0.62305 -0.62305 -0.62304 -0.62305 -0.62305 -0.62304 -0.62305 -0.62305 -0.62304 -0.62305 -0.62305 -0.62304 -0.62305 -0.62305 -0.62304 -0.62305 -0.62305 -0.62304 -0.62305 -0.62305 -0.62304 -0.62305 -0.62305 -0.62304 -0.62305 -0.62305 -0.62304 -0.62305 -0.62305 -0.62304 -0.62305 -0.62305 -0.62304 -0.62305 -0.62305 -0.62304 -0.62305 -0.62305 -0.62304 -0.62305 -0.62305 -0.62304 -0.62305 -0.62305 -0.62304 -0.62305 -0.62305 -0.62304 -0.62305 -0.62305 -0.62304 -0.62305 -0.62305 -0.62304 -0.62305 -0.62305 -0.62304 -0.62305 -0.62305 -0.62304 -0.62305 -0.62305 -0.62304 -0.62305 -0.62305 -0.62304 -0.62305 -0.62305 -0.62304 -0.62305 -0.62305 -0.62304 -0.62305 -0.62305 -0.62304 -0.62305 -0.62305 -0.62304 -0.62305 -0.62305 -0.62304 -0.62305 -0.62305 -0.62304 -0.62305 -0.62305 -0.62304 -0.62305 -0.62305 -0.62304 -0.62305 -0.62305 -0.62304 -0.62305 -0.62305 -0.62304 -0.62305 -0.62305 -0.62304 -0.62305 -0.62305 -0.62304 -0.62305 -0.62305 -0.62304 -0.62305 -0.62305 -0.62304 -0.62305 -0.62305 -0.62304 -0.62305 -0.62305 -0.62304 -0.62305 -0.62305 -0.62304 -0.62305 -0.62305 -0.62304 -0.62305 -0.62305 -0.62304 -0.62305 -0.62305 -0.62304 -0.62305 -0.62305 -0.62304 -0.62305 -0.62305 -0.62304 -0.62305 -0.62305 -0.62304 -0.62305 -0.62305 -0.62304 -0.62305 -0.62305 -0.62304 -0.62305 -0.62305 -0.62304 -0.62305 -0.62305 -0.62305 -0.62304 -0.62305 -0.62304 -0.62305 -0.62305 -0.62305 -0.62304 -0.62305 -0.62305 -0.62304 -0.62305 -0.62304 -0.62305 -0.62305 -0.62304 -0.62305 -0.62305 -0.62305 -0.62304 -0.62305 -0.62305 -0.62304 -0.62305 -0.62305 -0.62304 -0.62305 -0.62305 -0.62304 -0.62305 -0.62305 -0.62304 -0.62305 -0.62305 -0.62304 -0.62305 -0.62304 -0.62305 -0.62305 -0.62304 -0.62305 -0.62305 -0.62305 -0.62304 -0.62305 -0.62305 -0.62304 -0.62305 -0.62305 -0.62304 -0.62305 -0.62305 -0.62304 -0.62305 -0.62305 -0.62304 -0.62305 -0.62305 -0.62304 -0.62305 -0.62305 -0.62304 -0.62305 -0.62305 -0.62304 -0.62305 -0.62305 -0.62304 -0.62305 -0.62305 -0.62304 -0.62305 -0.62305 -0.62304 -0.62305 -0.62305 -0.62304 -0.62305 -0.62305 -0.62304 -0.62305 -0.62305 -0.62304 -0.62305 -0.62305 -0.62304 -0.62305 -0.62305 -0.62304 -0.62305 -0.62305 -0.62304 -0.62305 -0.62305 -0.62304 -0.62305 -0.62305 -0.62304 -0.62305 -0.62305 -0.62304 -0.62305 -0.62305 -0.62304 -0.62305 -0.62305 -0.62304 -0.62305 -0.62305 -0.62304 -0.62305 -0.62305 -0.62304 -0.62305 -0.62305 -0.62304 -0.62305 -0.62305 -0.62304 -0.62305 -0.62305 -0.62304 -0.62305 -0.62305 -0.62304 -0.62305 -0.62305 -0.62304 -0.62305 -0.62305 -0.62304 -0.62305 -0.62305 -0.62304 -0.62305 -0.62305 -0.62304 -0.62305 -0.62305 -0.62304 -0.62305 -0.62305 -0.62304 -0.62305 -0.62305 -0.62304 -0.62305 -0.62305 -0.62304 -0.62305 -0.62305 -0.62304 -0.62305 -0.62305 -0.62304 -0.62305 -0.62305 -0.62304 -0.62305 -0.62305 -0.62304 -0.62305 -0.62305 -0.62304 -0.62305 -0.62305 -0.62304 -0.62305 -0.62305 -0.62304 -0.62305 -0.62305 -0.62304 -0.62305 -0.62305 -0.62304 -0.62305 -0.62305 -0.62304 -0.62305 -0.62305 -0.62304 -0.62305 -0.62305 -0.62304 -0.62305 -0.62305 -0.62304 -0.62305 -0.62305 -0.62304 -0.62305 -0.62305 -0.62304 -0.62305 -0.62305 -0.62304 -0.62305 -0.62305 -0.62304 -0.62305 -0.62305 -0.62305 -0.62304 -0.62305 -0.62305 -0.62304 -0.62305 -0.62305 -0.62304 -0.62305 -0.62305 -0.62304 -0.62305 -0.62305 -0.62304 -0.62305 -0.62305 -0.62304 -0.62305 -0.62305 -0.62304 -0.62305 -0.62305 -0.62304 -0.62305 -0.62305 -0.62304 -0.62305 -0.62305 -0.62304 -0.62305 -0.62305 -0.62304 -0.62305 -0.62305 -0.62304 -0.62305 -0.62304 -0.62305 -0.62305 -0.62305 -0.62304 -0.62305 -0.62305 -0.62304 -0.62305 -0.62305 -0.62304 -0.62305 -0.62305 -0.62304 -0.62305 -0.62305 -0.62304 -0.62305 -0.62305 -0.62304 -0.62305 -0.62305 -0.62304 -0.62305 -0.62305 -0.62304 -0.62305 -0.62305 -0.62304 -0.62305 -0.62305 -0.62304 -0.62305 -0.62305 -0.62304 -0.62305 -0.62305 -0.62304 -0.62305 -0.62305 -0.62304 -0.62305 -0.62305 -0.62304 -0.62305 -0.62305 -0.62304 -0.62305 -0.62305 -0.62304 -0.62305 -0.62305 -0.62304 -0.62305 -0.62305 -0.62304 -0.62305 -0.62305 -0.62304 -0.62305 -0.62305 -0.62304 -0.62305 -0.62305 -0.62304 -0.62305 -0.62305 -0.62304 -0.62305 -0.62305 -0.62304 -0.62305 -0.62305 -0.62304 -0.62305 -0.62305 -0.62304 -0.62305 -0.62305 -0.62304 -0.62305 -0.62305 -0.62304 -0.62305 -0.62305 -0.62304 -0.62305 -0.62305 -0.62304 -0.62305 -0.62305 -0.62304 -0.62305 -0.62305 -0.62304 -0.62305 -0.62305 -0.62304 -0.62305 -0.62305 -0.62304 -0.62305 -0.62305 -0.62304 -0.62305 -0.62305 -0.62304 -0.62305 -0.62305 -0.62304 -0.62305 -0.62305 -0.62304 -0.62305 -0.62305 -0.62304 -0.62305 -0.62305 -0.62304 -0.62305 -0.62305 -0.62304 -0.62305 -0.62305 -0.62304 -0.62305 -0.62305 -0.62304 -0.62305 -0.62305 -0.62304 -0.62305 -0.62305 -0.62304 -0.62305 -0.62305 -0.62304 -0.62305 -0.62305 -0.62304 -0.62305 -0.62305 -0.62304 -0.62305 -0.62305 -0.62304 -0.62305 -0.62305 -0.62304 -0.62305 -0.62305 -0.62304 -0.62305 -0.62305 -0.62304 -0.62305 -0.62305 -0.62304 -0.62305 -0.62305 -0.62304 -0.62305 -0.62305 -0.62304 -0.62305 -0.62305 -0.62304 -0.62305 -0.62305 -0.62305 -0.62304 -0.62305 -0.62305 -0.62304 -0.62305 -0.62304 -0.62305 -0.62305 -0.62305 -0.62304 -0.62305 -0.62305 -0.62304 -0.62305 -0.62305 -0.62304 -0.62305 -0.62304 -0.62305 -0.62305 -0.62305 -0.62304 -0.62305 -0.62305 -0.62304 -0.62305 -0.62304 -0.62305 -0.62305 -0.62305 -0.62304 -0.62305 -0.62305 -0.62304 -0.62305 -0.62305 -0.62304 -0.62305 -0.62305 -0.62304 -0.62305 -0.62305 -0.62304 -0.62305 -0.62304 -0.62305 -0.62305 -0.62305 -0.62304 -0.62305 -0.62305 -0.62304 -0.62305 -0.62305 -0.62304 -0.62305 -0.62305 -0.62304 -0.62305 -0.62305 -0.62304 -0.62305 -0.62305 -0.62304 -0.62305 -0.62305 -0.62304 -0.62305 -0.62305 -0.62304 -0.62305 -0.62305 -0.62304 -0.62305 -0.62305 -0.62304 -0.62305 -0.62305 -0.62304 -0.62305 -0.62305 -0.62304 -0.62305 -0.62305 -0.62304 -0.62305 -0.62305 -0.62304 -0.62305 -0.62305 -0.62304 -0.62305 -0.62305 -0.62304 -0.62305 -0.62305 -0.62304 -0.62305 -0.62305 -0.62304 -0.62305 -0.62305 -0.62304 -0.62305 -0.62305 -0.62304 -0.62305 -0.62305 -0.62304 -0.62305 -0.62305 -0.62304 -0.62305 -0.62305 -0.62304 -0.62305 -0.62305 -0.62304 -0.62305 -0.62305 -0.62304 -0.62305 -0.62305 -0.62304 -0.62305 -0.62305 -0.62304 -0.62305 -0.62305 -0.62304 -0.62305 -0.62305 -0.62304 -0.62305 -0.62305 -0.62304 -0.62305 -0.62305 -0.62304 -0.62305 -0.62305 -0.62304 -0.62305 -0.62305 -0.62304 -0.62305 -0.62305 -0.62304 -0.62305 -0.62305 -0.62304 -0.62305 -0.62305 -0.62304 -0.62305 -0.62305 -0.62304 -0.62305 -0.62305 -0.62304 -0.62305 -0.62305 -0.62304 -0.62305 -0.62305 -0.62304 -0.62305 -0.62305 -0.62304 -0.62305 -0.62305 -0.62304 -0.62305 -0.62305 -0.62304 -0.62305 -0.62305 -0.62304 -0.62305 -0.62305 -0.62304 -0.62305 -0.62305 -0.62304 -0.62305 -0.62305 -0.62304 -0.62305 -0.62305 -0.62304 -0.62305 -0.62305 -0.62304 -0.62305 -0.62305 -0.62304 -0.62305 -0.62305 -0.62304 -0.62305 -0.62305 -0.62305 -0.62304 -0.62305 -0.62305 -0.62304 -0.62305 -0.62305 -0.62304 -0.62305 -0.62305 -0.62304 -0.62305 -0.62305 -0.62304 -0.62305 -0.62305 -0.62304 -0.62305 -0.62305 -0.62304 -0.62305 z"
         style="fill:#e59f00;fill-opacity:0.50196078;fill-rule:nonzero;stroke:#e69f00;stroke-width:0.77735907;stroke-linecap:butt;stroke-linejoin:round;stroke-miterlimit:10;stroke-dasharray:none;stroke-opacity:0.5"
         id="path1602"
         inkscape:connector-curvature="0" /></g></g><g
     transform="matrix(0.45901081,0,0,-0.44867938,322.11426,340.59786)"
     style="fill:#efe342;fill-opacity:0.50196078;stroke-width:0.77735907"
     id="g1604"><g
       style="fill:#efe342;fill-opacity:0.50196078;stroke-width:0.77735907"
       id="g1606"
       clip-path="url(#clipPath1610)"><path
         d="m 141.55118,112.48731 v 6.93895 l 0.62305,0.0182 0.62304,0.0183 0.62305,0.0184 0.62305,0.0185 0.62304,0.0187 0.62305,0.0188 0.62305,0.0189 0.62304,0.019 0.62305,0.0191 0.62305,0.0192 0.62304,0.0194 0.62305,0.0195 0.62305,0.0196 0.62304,0.0197 0.62305,0.0199 0.62305,0.02 0.62304,0.0201 0.62305,0.0203 0.62305,0.0204 0.62304,0.0205 0.62305,0.0207 0.62305,0.0208 0.62305,0.0209 0.62304,0.0211 0.62305,0.0212 0.62305,0.0214 0.62304,0.0215 0.62305,0.0216 0.62305,0.0218 0.62304,0.0219 0.62305,0.0221 0.62305,0.0222 0.62304,0.0224 0.62305,0.0225 0.62305,0.0227 0.62304,0.0228 0.62305,0.023 0.62305,0.0232 0.62304,0.0233 0.62305,0.0235 0.62305,0.0237 0.62304,0.0238 0.62305,0.024 0.62305,0.0242 0.62304,0.0244 0.62305,0.0245 0.62305,0.0247 0.62304,0.0249 0.62305,0.0251 0.62305,0.0253 0.62304,0.0254 0.62305,0.0256 0.62305,0.0258 0.62304,0.026 0.62305,0.0262 0.62305,0.0264 0.62304,0.0266 0.62305,0.0268 0.62305,0.027 0.62304,0.0272 0.62305,0.0275 0.62305,0.0277 0.62304,0.0279 0.62305,0.0281 0.62305,0.0283 0.62304,0.0285 0.62305,0.0288 0.62305,0.029 0.62304,0.0292 0.62305,0.0295 0.62305,0.0297 0.62304,0.0299 0.62305,0.0302 0.62305,0.0305 0.62304,0.0307 0.62305,0.031 0.62305,0.0312 0.62304,0.0315 0.62305,0.0317 0.62305,0.032 0.62304,0.0323 0.62305,0.0326 0.62305,0.0328 0.62304,0.0331 0.62305,0.0334 0.62305,0.0337 0.62304,0.034 0.62305,0.0343 0.62305,0.0346 0.62304,0.0349 0.62305,0.0352 0.62305,0.0355 0.62304,0.0358 0.62305,0.0362 0.62305,0.0365 0.62304,0.0368 0.62305,0.0372 0.62305,0.0375 0.62304,0.0379 0.62305,0.0382 0.62305,0.0386 0.62304,0.0389 0.62305,0.0393 0.62305,0.0397 0.62304,0.0401 0.62305,0.0405 0.62305,0.0408 0.62304,0.0412 0.62305,0.0417 0.62305,0.0421 0.62304,0.0425 0.62305,0.0429 0.62305,0.0433 0.62304,0.0438 0.62305,0.0442 0.62305,0.0447 0.62304,0.0451 0.62305,0.0456 0.62305,0.0461 0.62304,0.0466 0.62305,0.047 0.62305,0.0475 0.62304,0.0481 0.62305,0.0486 0.62305,0.0491 0.62304,0.0496 0.62305,0.0502 0.62305,0.0507 0.62304,0.0513 0.62305,0.0519 0.62305,0.0524 0.62304,0.053 0.62305,0.0536 0.62305,0.0542 0.62304,0.0549 0.62305,0.0555 0.62305,0.0562 0.62304,0.0568 0.62305,0.0575 0.62305,0.0582 0.62304,0.0589 0.62305,0.0596 0.62305,0.0603 0.62304,0.061 0.62305,0.0618 0.62305,0.0626 0.62304,0.0633 0.62305,0.0641 0.62305,0.0649 0.62304,0.0658 0.62305,0.0666 0.62305,0.0675 0.62304,0.0684 0.62305,0.0693 0.62305,0.0702 0.62304,0.0711 0.62305,0.0721 0.62305,0.0731 0.62304,0.0741 0.62305,0.0751 0.62305,0.0761 0.62304,0.0772 0.62305,0.0783 0.62305,0.0794 0.62304,0.0805 0.62305,0.0817 0.62305,0.0829 0.62304,0.0841 0.62305,0.0854 0.62305,0.0866 0.62304,0.0879 0.62305,0.0893 0.62305,0.0906 0.62304,0.092 0.62305,0.0935 0.62305,0.0949 0.62305,0.0965 0.62304,0.098 0.62305,0.0996 0.62304,0.10122 0.62305,0.10289 0.62305,0.1046 0.62304,0.10637 0.62305,0.10817 0.62305,0.11002 0.62304,0.11193 0.62305,0.11389 0.62305,0.1159 0.62304,0.11797 0.62305,0.1201 0.62305,0.12228 0.62304,0.12454 0.62305,0.12685 0.62305,0.12924 0.62305,0.1317 0.62304,0.13422 0.62305,0.13684 0.62304,0.13953 0.62305,0.14229 0.62305,0.14516 0.62304,0.14812 0.62305,0.15115 0.62305,0.15431 0.62305,0.15756 0.62304,0.16092 0.62305,0.16439 0.62304,0.16799 0.62305,0.17171 0.62305,0.17555 0.62304,0.17955 0.62305,0.18367 0.62305,0.18796 0.62304,0.1924 0.62305,0.19701 0.62305,0.2018 0.62305,0.20676 0.62304,0.21194 0.62305,0.2173 0.62304,0.22289 0.62305,0.22871 0.62305,0.23477 0.62304,0.24108 0.62305,0.24768 0.62305,0.25454 0.62305,0.26173 0.62304,0.26923 0.62305,0.27708 0.62305,0.28528 0.62304,0.29389 0.62305,0.30291 0.62305,0.31236 0.62304,0.32229 0.62305,0.33273 0.62305,0.3437 0.62304,0.35526 0.62305,0.36744 0.62305,0.38029 0.62304,0.39386 0.62305,0.4082 0.62305,0.42338 0.62304,0.43948 0.62305,0.45655 0.62305,0.47469 0.62304,0.49398 0.62305,0.51455 0.62305,0.53648 0.62304,0.55993 0.62305,0.58502 0.62305,0.61193 0.62304,0.64084 0.62305,0.67195 0.62305,0.7055 0.62304,0.74177 0.62305,0.78104 0.62305,0.8237 0.62304,0.87013 0.62305,0.9208 0.62305,0.97629 0.62304,1.0372 0.62305,1.10431 0.62305,1.17851 0.62304,1.26086 0.62305,1.35262 0.62305,1.45533 0.62304,1.57086 0.62305,1.70147 0.62305,1.85003 0.62304,2.02001 0.62305,2.21592 0.62305,2.44342 0.62304,2.70992 0.62305,3.02516 0.62305,3.4021 0.62304,3.85854 0.62305,4.4192 0.62305,5.11951 0.62304,6.01159 0.62305,7.17506 0.62305,8.73648 0.62304,10.90794 0.62305,14.0685 0.62305,18.95504 0.62304,27.17336 0.62305,42.85132 0.62305,79.8347 0.62304,217.45627 v -513.68212 0 h -0.62304 -0.62305 -0.62305 -0.62304 -0.62305 -0.62305 -0.62304 -0.62305 -0.62305 -0.62304 -0.62305 -0.62305 -0.62304 -0.62305 -0.62305 -0.62304 -0.62305 -0.62305 -0.62304 -0.62305 -0.62305 -0.62304 -0.62305 -0.62305 -0.62304 -0.62305 -0.62305 -0.62304 -0.62305 -0.62305 -0.62304 -0.62305 -0.62305 -0.62304 -0.62305 -0.62305 -0.62304 -0.62305 -0.62305 -0.62304 -0.62305 -0.62305 -0.62304 -0.62305 -0.62305 -0.62304 -0.62305 -0.62305 -0.62304 -0.62305 -0.62305 -0.62304 -0.62305 -0.62305 -0.62304 -0.62305 -0.62305 -0.62304 -0.62305 -0.62305 -0.62304 -0.62305 -0.62305 -0.62305 -0.62304 -0.62305 -0.62305 -0.62304 -0.62305 -0.62304 -0.62305 -0.62305 -0.62305 -0.62304 -0.62305 -0.62305 -0.62304 -0.62305 -0.62305 -0.62304 -0.62305 -0.62304 -0.62305 -0.62305 -0.62305 -0.62304 -0.62305 -0.62305 -0.62304 -0.62305 -0.62304 -0.62305 -0.62305 -0.62305 -0.62304 -0.62305 -0.62305 -0.62304 -0.62305 -0.62305 -0.62304 -0.62305 -0.62305 -0.62304 -0.62305 -0.62305 -0.62304 -0.62305 -0.62304 -0.62305 -0.62305 -0.62305 -0.62304 -0.62305 -0.62305 -0.62304 -0.62305 -0.62305 -0.62304 -0.62305 -0.62305 -0.62304 -0.62305 -0.62305 -0.62304 -0.62305 -0.62305 -0.62304 -0.62305 -0.62305 -0.62304 -0.62305 -0.62305 -0.62304 -0.62305 -0.62305 -0.62304 -0.62305 -0.62305 -0.62304 -0.62305 -0.62305 -0.62304 -0.62305 -0.62305 -0.62304 -0.62305 -0.62305 -0.62304 -0.62305 -0.62305 -0.62304 -0.62305 -0.62305 -0.62304 -0.62305 -0.62305 -0.62304 -0.62305 -0.62305 -0.62304 -0.62305 -0.62305 -0.62304 -0.62305 -0.62305 -0.62304 -0.62305 -0.62305 -0.62304 -0.62305 -0.62305 -0.62304 -0.62305 -0.62305 -0.62304 -0.62305 -0.62305 -0.62304 -0.62305 -0.62305 -0.62304 -0.62305 -0.62305 -0.62304 -0.62305 -0.62305 -0.62304 -0.62305 -0.62305 -0.62304 -0.62305 -0.62305 -0.62304 -0.62305 -0.62305 -0.62304 -0.62305 -0.62305 -0.62304 -0.62305 -0.62305 -0.62304 -0.62305 -0.62305 -0.62304 -0.62305 -0.62305 -0.62304 -0.62305 -0.62305 -0.62304 -0.62305 -0.62305 -0.62304 -0.62305 -0.62305 -0.62304 -0.62305 -0.62305 -0.62304 -0.62305 -0.62305 -0.62304 -0.62305 -0.62305 -0.62304 -0.62305 -0.62305 -0.62304 -0.62305 -0.62305 -0.62304 -0.62305 -0.62305 -0.62304 -0.62305 -0.62305 -0.62304 -0.62305 -0.62305 -0.62304 -0.62305 -0.62305 -0.62304 -0.62305 -0.62305 -0.62304 -0.62305 -0.62305 -0.62304 -0.62305 -0.62305 -0.62304 -0.62305 -0.62305 -0.62304 -0.62305 -0.62305 -0.62304 -0.62305 -0.62305 -0.62304 -0.62305 -0.62305 -0.62305 -0.62304 -0.62305 -0.62305 -0.62304 -0.62305 -0.62305 -0.62304 -0.62305 -0.62305 -0.62304 -0.62305 -0.62305 -0.62304 -0.62305 -0.62305 -0.62304 -0.62305 -0.62305 -0.62304 -0.62305 z"
         style="fill:#efe342;fill-opacity:0.50196078;fill-rule:nonzero;stroke:#f0e442;stroke-width:0.77735907;stroke-linecap:butt;stroke-linejoin:round;stroke-miterlimit:10;stroke-dasharray:none;stroke-opacity:0.5"
         id="path1612"
         inkscape:connector-curvature="0" /></g></g><g
     transform="matrix(0.45901081,0,0,-0.44867938,322.11426,371.22289)"
     style="stroke-width:0.77735907"
     id="g1614"><path
       d="m 124.49848,86.8032 v -3.5"
       style="fill:#000000;fill-opacity:1;fill-rule:nonzero;stroke:#000000;stroke-width:0.62188733;stroke-linecap:butt;stroke-linejoin:round;stroke-miterlimit:10;stroke-dasharray:none;stroke-opacity:1"
       id="path1616"
       inkscape:connector-curvature="0" /><g
       style="stroke-width:0.77735907"
       id="g1618"
       transform="translate(109.21723,67.64695)"><text
   transform="scale(1,-1)"
   style="font-variant:normal;font-weight:normal;font-size:16px;font-family:'DejaVu Sans';-inkscape-font-specification:DejaVuSans;writing-mode:lr-tb;fill:#000000;fill-opacity:1;fill-rule:nonzero;stroke:none;stroke-width:0.77735907"
   id="text1622"><tspan
     style="stroke-width:0.77735907"
     x="0 10.176 20.351999"
     y="0"
     sodipodi:role="line"
     id="tspan1620">500</tspan></text>

</g><path
       d="m 252.39375,86.8032 v -3.5"
       style="fill:#000000;fill-opacity:1;fill-rule:nonzero;stroke:#000000;stroke-width:0.62188733;stroke-linecap:butt;stroke-linejoin:round;stroke-miterlimit:10;stroke-dasharray:none;stroke-opacity:1"
       id="path1624"
       inkscape:connector-curvature="0" /><g
       style="stroke-width:0.77735907"
       id="g1626"
       transform="translate(237.1125,67.64695)"><text
   transform="scale(1,-1)"
   style="font-variant:normal;font-weight:normal;font-size:16px;font-family:'DejaVu Sans';-inkscape-font-specification:DejaVuSans;writing-mode:lr-tb;fill:#000000;fill-opacity:1;fill-rule:nonzero;stroke:none;stroke-width:0.77735907"
   id="text1630"><tspan
     style="stroke-width:0.77735907"
     x="0 10.176 20.351999"
     y="0"
     sodipodi:role="line"
     id="tspan1628">400</tspan></text>

</g><path
       d="m 380.28901,86.8032 v -3.5"
       style="fill:#000000;fill-opacity:1;fill-rule:nonzero;stroke:#000000;stroke-width:0.62188733;stroke-linecap:butt;stroke-linejoin:round;stroke-miterlimit:10;stroke-dasharray:none;stroke-opacity:1"
       id="path1632"
       inkscape:connector-curvature="0" /><g
       style="stroke-width:0.77735907"
       id="g1634"
       transform="translate(365.00776,67.64695)"><text
   transform="scale(1,-1)"
   style="font-variant:normal;font-weight:normal;font-size:16px;font-family:'DejaVu Sans';-inkscape-font-specification:DejaVuSans;writing-mode:lr-tb;fill:#000000;fill-opacity:1;fill-rule:nonzero;stroke:none;stroke-width:0.77735907"
   id="text1638"><tspan
     style="stroke-width:0.77735907"
     x="0 10.176 20.351999"
     y="0"
     sodipodi:role="line"
     id="tspan1636">300</tspan></text>

</g><path
       d="m 508.18428,86.8032 v -3.5"
       style="fill:#000000;fill-opacity:1;fill-rule:nonzero;stroke:#000000;stroke-width:0.62188733;stroke-linecap:butt;stroke-linejoin:round;stroke-miterlimit:10;stroke-dasharray:none;stroke-opacity:1"
       id="path1640"
       inkscape:connector-curvature="0" /><g
       style="stroke-width:0.77735907"
       id="g1642"
       transform="translate(492.90303,67.64695)"><text
   transform="scale(1,-1)"
   style="font-variant:normal;font-weight:normal;font-size:16px;font-family:'DejaVu Sans';-inkscape-font-specification:DejaVuSans;writing-mode:lr-tb;fill:#000000;fill-opacity:1;fill-rule:nonzero;stroke:none;stroke-width:0.77735907"
   id="text1646"><tspan
     style="stroke-width:0.77735907"
     x="0 10.176 20.351999"
     y="0"
     sodipodi:role="line"
     id="tspan1644">200</tspan></text>

</g><path
       d="m 636.07955,86.8032 v -3.5"
       style="fill:#000000;fill-opacity:1;fill-rule:nonzero;stroke:#000000;stroke-width:0.62188733;stroke-linecap:butt;stroke-linejoin:round;stroke-miterlimit:10;stroke-dasharray:none;stroke-opacity:1"
       id="path1648"
       inkscape:connector-curvature="0" /><g
       style="stroke-width:0.77735907"
       id="g1650"
       transform="translate(620.7983,67.64695)"><text
   transform="scale(1,-1)"
   style="font-variant:normal;font-weight:normal;font-size:16px;font-family:'DejaVu Sans';-inkscape-font-specification:DejaVuSans;writing-mode:lr-tb;fill:#000000;fill-opacity:1;fill-rule:nonzero;stroke:none;stroke-width:0.77735907"
   id="text1654"><tspan
     style="stroke-width:0.77735907"
     x="0 10.176 20.351999"
     y="0"
     sodipodi:role="line"
     id="tspan1652">100</tspan></text>

</g><path
       d="m 763.97482,86.8032 v -3.5"
       style="fill:#000000;fill-opacity:1;fill-rule:nonzero;stroke:#000000;stroke-width:0.62188733;stroke-linecap:butt;stroke-linejoin:round;stroke-miterlimit:10;stroke-dasharray:none;stroke-opacity:1"
       id="path1656"
       inkscape:connector-curvature="0" /><g
       style="stroke-width:0.77735907"
       id="g1658"
       transform="translate(758.88107,67.64695)"><text
   transform="scale(1,-1)"
   style="font-variant:normal;font-weight:normal;font-size:16px;font-family:'DejaVu Sans';-inkscape-font-specification:DejaVuSans;writing-mode:lr-tb;fill:#000000;fill-opacity:1;fill-rule:nonzero;stroke:none;stroke-width:0.77735907"
   id="text1662"><tspan
     style="stroke-width:0.77735907"
     x="0"
     y="0"
     id="tspan1660">0</tspan></text>

</g><g
       style="stroke-width:0.77735907"
       id="g1664"
       transform="translate(348.18488,43.600075)"><text
   transform="scale(1,-1)"
   style="font-variant:normal;font-weight:normal;font-size:22px;font-family:'DejaVu Sans';-inkscape-font-specification:DejaVuSans;writing-mode:lr-tb;fill:#000000;fill-opacity:1;fill-rule:nonzero;stroke:none;stroke-width:0.77735907"
   id="text1668"><tspan
     style="stroke-width:0.77735907"
     x="0 12.770125 18.886126 40.314125 53.844124 60.840126 69.420128 83.390121 96.920128 110.86813 124.39812 133.44012 146.92613 155.55013 161.66612 175.13013 189.07812 200.54013"
     y="0"
     sodipodi:role="line"
     id="tspan1666">Time (generations)</tspan></text>

</g><path
       d="m 110.43,112.48731 h -3.5"
       style="fill:#000000;fill-opacity:1;fill-rule:nonzero;stroke:#000000;stroke-width:0.62188733;stroke-linecap:butt;stroke-linejoin:round;stroke-miterlimit:10;stroke-dasharray:none;stroke-opacity:1"
       id="path1670"
       inkscape:connector-curvature="0" /><g
       style="stroke-width:0.77735907"
       id="g1672"
       transform="translate(93.2425,106.40918)"><text
   transform="scale(1,-1)"
   style="font-variant:normal;font-weight:normal;font-size:16px;font-family:'DejaVu Sans';-inkscape-font-specification:DejaVuSans;writing-mode:lr-tb;fill:#000000;fill-opacity:1;fill-rule:nonzero;stroke:none;stroke-width:0.77735907"
   id="text1676"><tspan
     style="stroke-width:0.77735907"
     x="0"
     y="0"
     id="tspan1674">0</tspan></text>

</g><path
       d="m 110.43,306.46674 h -3.5"
       style="fill:#000000;fill-opacity:1;fill-rule:nonzero;stroke:#000000;stroke-width:0.62188733;stroke-linecap:butt;stroke-linejoin:round;stroke-miterlimit:10;stroke-dasharray:none;stroke-opacity:1"
       id="path1678"
       inkscape:connector-curvature="0" /><g
       style="stroke-width:0.77735907"
       id="g1680"
       transform="translate(67.77375,300.38861)"><text
   transform="scale(1,-1)"
   style="font-variant:normal;font-weight:normal;font-size:16px;font-family:'DejaVu Sans';-inkscape-font-specification:DejaVuSans;writing-mode:lr-tb;fill:#000000;fill-opacity:1;fill-rule:nonzero;stroke:none;stroke-width:0.77735907"
   id="text1684"><tspan
     style="stroke-width:0.77735907"
     x="0 10.176 15.264 25.440001"
     y="0"
     sodipodi:role="line"
     id="tspan1682">0.05</tspan></text>

</g><path
       d="m 110.43,500.44617 h -3.5"
       style="fill:#000000;fill-opacity:1;fill-rule:nonzero;stroke:#000000;stroke-width:0.62188733;stroke-linecap:butt;stroke-linejoin:round;stroke-miterlimit:10;stroke-dasharray:none;stroke-opacity:1"
       id="path1686"
       inkscape:connector-curvature="0" /><g
       style="stroke-width:0.77735907"
       id="g1688"
       transform="translate(67.77375,494.36804)"><text
   transform="scale(1,-1)"
   style="font-variant:normal;font-weight:normal;font-size:16px;font-family:'DejaVu Sans';-inkscape-font-specification:DejaVuSans;writing-mode:lr-tb;fill:#000000;fill-opacity:1;fill-rule:nonzero;stroke:none;stroke-width:0.77735907"
   id="text1692"><tspan
     style="stroke-width:0.77735907"
     x="0 10.176 15.264 25.440001"
     y="0"
     sodipodi:role="line"
     id="tspan1690">0.10</tspan></text>

</g><path
       d="m 110.43,694.4256 h -3.5"
       style="fill:#000000;fill-opacity:1;fill-rule:nonzero;stroke:#000000;stroke-width:0.62188733;stroke-linecap:butt;stroke-linejoin:round;stroke-miterlimit:10;stroke-dasharray:none;stroke-opacity:1"
       id="path1694"
       inkscape:connector-curvature="0" /><g
       style="stroke-width:0.77735907"
       id="g1696"
       transform="translate(67.77375,688.34747)"><text
   transform="scale(1,-1)"
   style="font-variant:normal;font-weight:normal;font-size:16px;font-family:'DejaVu Sans';-inkscape-font-specification:DejaVuSans;writing-mode:lr-tb;fill:#000000;fill-opacity:1;fill-rule:nonzero;stroke:none;stroke-width:0.77735907"
   id="text1700"><tspan
     style="stroke-width:0.77735907"
     x="0 10.176 15.264 25.440001"
     y="0"
     sodipodi:role="line"
     id="tspan1698">0.15</tspan></text>

</g><g
       style="stroke-width:0.77735907"
       id="g1702"
       transform="rotate(90,-103.10782,162.30345)"><text
   transform="scale(1,-1)"
   style="font-variant:normal;font-weight:normal;font-size:22px;font-family:'DejaVu Sans';-inkscape-font-specification:DejaVuSans;writing-mode:lr-tb;fill:#000000;fill-opacity:1;fill-rule:nonzero;stroke:none;stroke-width:0.77735907"
   id="text1706"><tspan
     style="stroke-width:0.77735907"
     x="0 15.356 28.82 42.306 48.422001 61.952 73.414001 85.514 99.043999 112.992 125.092 138.62199 145.618 151.73399 157.85001 169.80675 183.33675 189.45274 195.56876 209.51675 222.98074 236.44475"
     y="0"
     sodipodi:role="line"
     id="tspan1704">Coalescence likelihood</tspan></text>

</g><path
       d="M 110.43,86.8032 V 694.4256"
       style="fill:none;stroke:#000000;stroke-width:0.62188733;stroke-linecap:square;stroke-linejoin:miter;stroke-miterlimit:10;stroke-dasharray:none;stroke-opacity:1"
       id="path1708"
       inkscape:connector-curvature="0" /><path
       d="M 795.096,86.8032 V 694.4256"
       style="fill:none;stroke:#000000;stroke-width:0.62188733;stroke-linecap:square;stroke-linejoin:miter;stroke-miterlimit:10;stroke-dasharray:none;stroke-opacity:1"
       id="path1710"
       inkscape:connector-curvature="0" /><path
       d="M 110.43,86.8032 H 795.096"
       style="fill:none;stroke:#000000;stroke-width:0.62188733;stroke-linecap:square;stroke-linejoin:miter;stroke-miterlimit:10;stroke-dasharray:none;stroke-opacity:1"
       id="path1712"
       inkscape:connector-curvature="0" /><path
       d="M 110.43,694.4256 H 795.096"
       style="fill:none;stroke:#000000;stroke-width:0.62188733;stroke-linecap:square;stroke-linejoin:miter;stroke-miterlimit:10;stroke-dasharray:none;stroke-opacity:1"
       id="path1714"
       inkscape:connector-curvature="0" /><path
       d="M 672.20538,642.40998 H 788.096 c 1.33333,0 2,0.66666 2,2 v 43.01562 c 0,1.33333 -0.66667,2 -2,2 H 672.20538 c -1.33334,0 -2,-0.66667 -2,-2 v -43.01562 c 0,-1.33334 0.66666,-2 2,-2 z"
       style="fill:#ffffff;fill-opacity:0.8;fill-rule:nonzero;stroke:#cccccc;stroke-width:0.77735907;stroke-linecap:butt;stroke-linejoin:miter;stroke-miterlimit:10;stroke-dasharray:none;stroke-opacity:0.8"
       id="path1716"
       inkscape:connector-curvature="0" /><path
       d="m 674.20538,677.83185 h 20 v 7 h -20 z"
       style="fill:#009e73;fill-opacity:0.5;fill-rule:nonzero;stroke:#009e73;stroke-width:0.77735907;stroke-linecap:butt;stroke-linejoin:miter;stroke-miterlimit:10;stroke-dasharray:none;stroke-opacity:0.5"
       id="path1718"
       inkscape:connector-curvature="0" /><g
       style="stroke-width:0.77735907"
       id="g1720"
       transform="translate(702.20538,677.83185)"><text
   transform="scale(1,-1)"
   style="font-variant:normal;font-weight:normal;font-size:10px;font-family:'DejaVu Sans';-inkscape-font-specification:DejaVuSans;writing-mode:lr-tb;fill:#000000;fill-opacity:1;fill-rule:nonzero;stroke:none;stroke-width:0.77735907"
   id="text1724"><tspan
     style="stroke-width:0.77735907"
     x="0 5.03125 7.8112502 11.92125 17.13125 21.05125 24.231251 29.44125 35.591251 41.94125 51.681252 57.831249 64.171249"
     y="0"
     sodipodi:role="line"
     id="tspan1722">First segment</tspan></text>

</g><path
       d="m 674.20538,663.15998 h 20 v 7 h -20 z"
       style="fill:#e69f00;fill-opacity:0.5;fill-rule:nonzero;stroke:#e69f00;stroke-width:0.77735907;stroke-linecap:butt;stroke-linejoin:miter;stroke-miterlimit:10;stroke-dasharray:none;stroke-opacity:0.5"
       id="path1726"
       inkscape:connector-curvature="0" /><g
       style="stroke-width:0.77735907"
       id="g1728"
       transform="translate(702.20538,663.15998)"><text
   transform="scale(1,-1)"
   style="font-variant:normal;font-weight:normal;font-size:10px;font-family:'DejaVu Sans';-inkscape-font-specification:DejaVuSans;writing-mode:lr-tb;fill:#000000;fill-opacity:1;fill-rule:nonzero;stroke:none;stroke-width:0.77735907"
   id="text1732"><tspan
     style="stroke-width:0.77735907"
     x="0 6.3499999 12.5 18 24.120001 30.459999 36.810001 39.990002 45.200001 51.349998 57.700001 67.440002 73.589996 79.93"
     y="0"
     sodipodi:role="line"
     id="tspan1730">Second segment</tspan></text>

</g><path
       d="m 674.20538,648.4881 h 20 v 7 h -20 z"
       style="fill:#f0e442;fill-opacity:0.5;fill-rule:nonzero;stroke:#f0e442;stroke-width:0.77735907;stroke-linecap:butt;stroke-linejoin:miter;stroke-miterlimit:10;stroke-dasharray:none;stroke-opacity:0.5"
       id="path1734"
       inkscape:connector-curvature="0" /><g
       style="stroke-width:0.77735907"
       id="g1736"
       transform="translate(702.20538,648.4881)"><text
   transform="scale(1,-1)"
   style="font-variant:normal;font-weight:normal;font-size:10px;font-family:'DejaVu Sans';-inkscape-font-specification:DejaVuSans;writing-mode:lr-tb;fill:#000000;fill-opacity:1;fill-rule:nonzero;stroke:none;stroke-width:0.77735907"
   id="text1740"><tspan
     style="stroke-width:0.77735907"
     x="0 6.1100001 12.45 15.23 19.168125 25.518126 28.698126 33.908127 40.058125 46.408127 56.148125 62.298126 68.638123"
     y="0"
     sodipodi:role="line"
     id="tspan1738">Third segment</tspan></text>

</g></g><rect
     style="opacity:1;vector-effect:none;fill:#ffffff;fill-opacity:1;stroke:none;stroke-width:2;stroke-linecap:butt;stroke-linejoin:miter;stroke-miterlimit:4;stroke-dasharray:none;stroke-dashoffset:0;stroke-opacity:1;paint-order:normal"
     id="rect1118"
     width="57.929279"
     height="23.719482"
     x="627.45526"
     y="61.116676"
     ry="11.859741"
     rx="0" /><path
     style="opacity:1;vector-effect:none;fill:#0072b2;fill-opacity:1;stroke:none;stroke-width:2;stroke-linecap:butt;stroke-linejoin:miter;stroke-miterlimit:4;stroke-dasharray:none;stroke-dashoffset:0;stroke-opacity:1;paint-order:normal"
     d="M 107.35788,280.72757 V 254.47593 H 62.709448 18.061012 v -39.8942 -39.89421 H 11.446429 4.8318456 v -1.03353 -1.03353 h 6.6145834 6.614583 V 131.12227 89.624066 l 26.148275,-0.250529 c 14.381551,-0.137789 55.355793,-0.346498 91.053873,-0.463793 35.69808,-0.117298 88.13004,-0.333603 116.51548,-0.480682 l 51.60988,-0.267414 -0.14015,0.991616 -0.14017,0.991613 -38.65396,0.250619 c -21.25969,0.13784 -81.53508,0.373628 -133.94531,0.523975 -52.410239,0.15035 -98.686485,0.383302 -102.836101,0.517676 l -7.54476,0.244314 v 80.363709 80.36371 h 43.61187 43.611871 l 0.10639,-26.56169 0.10639,-26.56169 57.46419,-0.25034 c 31.60531,-0.13769 71.74239,-0.27721 89.19353,-0.31006 l 31.72933,-0.0597 v -19.01693 -19.01693 h 8.26822 8.26823 v 1.03353 1.03353 h -7.23704 -7.23701 l 0.10567,35.03662 0.10568,35.03662 7.13136,0.11312 7.13134,0.11311 v 1.03251 1.03251 l -8.16488,-0.1121 -8.16488,-0.11209 -0.10798,-17.12163 -0.108,-17.12162 -59.59519,0.27511 c -32.77736,0.15131 -72.49377,0.27511 -88.2587,0.27511 h -28.66352 v 51.88313 51.88314 h 96.73828 96.73828 v 1.03354 1.03352 h -97.77181 -97.77181 z"
     id="path1120"
     inkscape:connector-curvature="0" /><circle
     style="opacity:1;vector-effect:none;fill:#0072b2;fill-opacity:1;stroke:none;stroke-width:2;stroke-linecap:butt;stroke-linejoin:miter;stroke-miterlimit:4;stroke-dasharray:none;stroke-dashoffset:0;stroke-opacity:1;paint-order:normal"
     id="path1122"
     cx="303.38852"
     cy="88.161644"
     r="8.0615234" /><circle
     style="opacity:1;vector-effect:none;fill:#0072b2;fill-opacity:1;stroke:none;stroke-width:2;stroke-linecap:butt;stroke-linejoin:miter;stroke-miterlimit:4;stroke-dasharray:none;stroke-dashoffset:0;stroke-opacity:1;paint-order:normal"
     id="path1122-3"
     cx="302.4881"
     cy="160.63153"
     r="8.0615234" /><circle
     style="opacity:1;vector-effect:none;fill:#0072b2;fill-opacity:1;stroke:none;stroke-width:2;stroke-linecap:butt;stroke-linejoin:miter;stroke-miterlimit:4;stroke-dasharray:none;stroke-dashoffset:0;stroke-opacity:1;paint-order:normal"
     id="path1122-6"
     cx="303.02243"
     cy="306.12418"
     r="8.0615234" /><circle
     style="opacity:1;vector-effect:none;fill:#0072b2;fill-opacity:1;stroke:none;stroke-width:2;stroke-linecap:butt;stroke-linejoin:miter;stroke-miterlimit:4;stroke-dasharray:none;stroke-dashoffset:0;stroke-opacity:1;paint-order:normal"
     id="path1122-7"
     cx="302.61172"
     cy="233.84019"
     r="8.0615234" /><path
     style="fill:none;stroke:#000000;stroke-width:0.26458332px;stroke-linecap:butt;stroke-linejoin:miter;stroke-opacity:1"
     d="M 456.02863,288.2043 V 272.4187"
     id="path1170"
     inkscape:connector-curvature="0" /></svg>