<?xml version="1.0" encoding="UTF-8" standalone="no"?>
<!-- Created with Inkscape (http://www.inkscape.org/) -->

<svg
   xmlns:dc="http://purl.org/dc/elements/1.1/"
   xmlns:cc="http://creativecommons.org/ns#"
   xmlns:rdf="http://www.w3.org/1999/02/22-rdf-syntax-ns#"
   xmlns:svg="http://www.w3.org/2000/svg"
   xmlns="http://www.w3.org/2000/svg"
   xmlns:sodipodi="http://sodipodi.sourceforge.net/DTD/sodipodi-0.dtd"
   xmlns:inkscape="http://www.inkscape.org/namespaces/inkscape"
   width="400mm"
   height="300mm"
   viewBox="0 0 400 300.00001"
   version="1.1"
   id="svg8"
   inkscape:version="0.92.5 (2060ec1f9f, 2020-04-08)"
   sodipodi:docname="tree-blank-multisample.svg"
   xml:space="preserve"><defs
     id="defs2"><marker
       inkscape:stockid="Arrow1Mstart"
       orient="auto"
       refY="0"
       refX="0"
       id="Arrow1Mstart"
       style="overflow:visible"
       inkscape:isstock="true"><path
         id="path1218"
         d="M 0,0 5,-5 -12.5,0 5,5 Z"
         style="fill:#000000;fill-opacity:1;fill-rule:evenodd;stroke:#000000;stroke-width:1pt;stroke-opacity:1"
         transform="matrix(0.4,0,0,0.4,4,0)" /></marker><marker
       inkscape:stockid="Arrow1Lstart"
       orient="auto"
       refY="0"
       refX="0"
       id="marker1765"
       style="overflow:visible"
       inkscape:isstock="true"><path
         id="path1763"
         d="M 0,0 5,-5 -12.5,0 5,5 Z"
         style="fill:#000000;fill-opacity:1;fill-rule:evenodd;stroke:#000000;stroke-width:1pt;stroke-opacity:1"
         transform="matrix(0.8,0,0,0.8,10,0)" /></marker><marker
       inkscape:stockid="StopS"
       orient="auto"
       refY="0"
       refX="0"
       id="StopS"
       style="overflow:visible"
       inkscape:isstock="true"><path
         id="path1042"
         d="M 0,5.65 V -5.65"
         style="fill:none;fill-opacity:0.75;fill-rule:evenodd;stroke:#000000;stroke-width:1pt;stroke-opacity:1"
         transform="scale(0.2)" /></marker><marker
       inkscape:stockid="StopM"
       orient="auto"
       refY="0"
       refX="0"
       id="StopM"
       style="overflow:visible"
       inkscape:isstock="true"><path
         id="path1039"
         d="M 0,5.65 V -5.65"
         style="fill:none;fill-opacity:0.75;fill-rule:evenodd;stroke:#000000;stroke-width:1pt;stroke-opacity:1"
         transform="scale(0.4)" /></marker><marker
       inkscape:stockid="Tail"
       orient="auto"
       refY="0"
       refX="0"
       id="Tail"
       style="overflow:visible"
       inkscape:isstock="true"><g
         id="g915"
         transform="scale(-1.2)"
         style="fill:#000000;fill-opacity:1;stroke:#000000;stroke-opacity:1"><path
           id="path903"
           d="M -3.8048674,-3.9585227 0.54352094,0"
           style="fill:#000000;fill-opacity:1;fill-rule:evenodd;stroke:#000000;stroke-width:0.8;stroke-linecap:round;stroke-opacity:1" /><path
           id="path905"
           d="M -1.2866832,-3.9585227 3.0617053,0"
           style="fill:#000000;fill-opacity:1;fill-rule:evenodd;stroke:#000000;stroke-width:0.8;stroke-linecap:round;stroke-opacity:1" /><path
           id="path907"
           d="M 1.3053582,-3.9585227 5.6537466,0"
           style="fill:#000000;fill-opacity:1;fill-rule:evenodd;stroke:#000000;stroke-width:0.8;stroke-linecap:round;stroke-opacity:1" /><path
           id="path909"
           d="M -3.8048674,4.1775838 0.54352094,0.21974226"
           style="fill:#000000;fill-opacity:1;fill-rule:evenodd;stroke:#000000;stroke-width:0.8;stroke-linecap:round;stroke-opacity:1" /><path
           id="path911"
           d="M -1.2866832,4.1775838 3.0617053,0.21974226"
           style="fill:#000000;fill-opacity:1;fill-rule:evenodd;stroke:#000000;stroke-width:0.8;stroke-linecap:round;stroke-opacity:1" /><path
           id="path913"
           d="M 1.3053582,4.1775838 5.6537466,0.21974226"
           style="fill:#000000;fill-opacity:1;fill-rule:evenodd;stroke:#000000;stroke-width:0.8;stroke-linecap:round;stroke-opacity:1" /></g></marker><marker
       inkscape:stockid="Arrow1Lstart"
       orient="auto"
       refY="0"
       refX="0"
       id="Arrow1Lstart"
       style="overflow:visible"
       inkscape:isstock="true"><path
         id="path867"
         d="M 0,0 5,-5 -12.5,0 5,5 Z"
         style="fill:#000000;fill-opacity:1;fill-rule:evenodd;stroke:#000000;stroke-width:1pt;stroke-opacity:1"
         transform="matrix(0.8,0,0,0.8,10,0)" /></marker><marker
       inkscape:stockid="StopL"
       orient="auto"
       refY="0"
       refX="0"
       id="StopL"
       style="overflow:visible"
       inkscape:isstock="true"><path
         id="path1036"
         d="M 0,5.65 V -5.65"
         style="fill:none;fill-opacity:0.75;fill-rule:evenodd;stroke:#000000;stroke-width:1pt;stroke-opacity:1"
         transform="scale(0.8)" /></marker><clipPath
       clipPathUnits="userSpaceOnUse"
       id="clipPath4344"><rect
         style="fill:#00ff00;fill-opacity:0.415442;stroke:none;stroke-width:0.264999;stroke-dasharray:none"
         id="rect4346"
         width="448.2951"
         height="200.26271"
         x="30.505629"
         y="54.441097" /></clipPath></defs><sodipodi:namedview
     id="base"
     pagecolor="#ffffff"
     bordercolor="#666666"
     borderopacity="1.0"
     inkscape:pageopacity="0.0"
     inkscape:pageshadow="2"
     inkscape:zoom="0.47265625"
     inkscape:cx="165.02479"
     inkscape:cy="409.38843"
     inkscape:document-units="mm"
     inkscape:current-layer="layer2"
     showgrid="false"
     units="mm"
     inkscape:pagecheckerboard="false"
     inkscape:window-width="1920"
     inkscape:window-height="1136"
     inkscape:window-x="0"
     inkscape:window-y="27"
     inkscape:window-maximized="1"
     inkscape:showpageshadow="0"
     inkscape:deskcolor="#d1d1d1"
     inkscape:snap-object-midpoints="true"
     inkscape:snap-center="false"
     inkscape:snap-grids="true"
     inkscape:snap-bbox="false"
     inkscape:snap-bbox-edge-midpoints="true"
     inkscape:bbox-paths="true"
     inkscape:bbox-nodes="true"
     inkscape:snap-bbox-midpoints="true"
     inkscape:snap-global="true"
     inkscape:object-nodes="true"
     inkscape:snap-others="true"
     inkscape:object-paths="true" /><metadata
     id="metadata5"><rdf:RDF><cc:Work
         rdf:about=""><dc:format>image/svg+xml</dc:format><dc:type
           rdf:resource="http://purl.org/dc/dcmitype/StillImage" /></cc:Work></rdf:RDF></metadata><g
     inkscape:label="Branches"
     inkscape:groupmode="layer"
     id="layer1"
     transform="translate(0,3.000061)"><flowRoot
   xml:space="preserve"
   id="flowRoot18"
   style="font-style:normal;font-variant:normal;font-weight:500;font-stretch:normal;font-size:40px;line-height:1.25;font-family:'CMU Sans Serif';-inkscape-font-specification:'CMU Sans Serif, Medium';font-variant-ligatures:normal;font-variant-caps:normal;font-variant-numeric:normal;font-feature-settings:normal;text-align:start;letter-spacing:0px;word-spacing:0px;writing-mode:lr-tb;text-anchor:start;fill:#000000;fill-opacity:1;stroke:none"><flowRegion
     id="flowRegion20"
     style="font-style:normal;font-variant:normal;font-weight:500;font-stretch:normal;font-size:40px;font-family:'CMU Sans Serif';-inkscape-font-specification:'CMU Sans Serif, Medium';font-variant-ligatures:normal;font-variant-caps:normal;font-variant-numeric:normal;font-feature-settings:normal;text-align:start;writing-mode:lr-tb;text-anchor:start"><rect
       id="rect22"
       width="1310"
       height="318"
       x="354"
       y="142"
       style="font-style:normal;font-variant:normal;font-weight:500;font-stretch:normal;font-size:40px;font-family:'CMU Sans Serif';-inkscape-font-specification:'CMU Sans Serif, Medium';font-variant-ligatures:normal;font-variant-caps:normal;font-variant-numeric:normal;font-feature-settings:normal;text-align:start;writing-mode:lr-tb;text-anchor:start" /></flowRegion><flowPara
     id="flowPara24" /></flowRoot>

<flowRoot
   xml:space="preserve"
   id="flowRoot4050"
   style="font-style:normal;font-variant:normal;font-weight:500;font-stretch:normal;font-size:48px;line-height:1.25;font-family:'CMU Sans Serif';-inkscape-font-specification:'CMU Sans Serif, Medium';font-variant-ligatures:normal;font-variant-caps:normal;font-variant-numeric:normal;font-feature-settings:normal;text-align:start;letter-spacing:0px;word-spacing:0px;writing-mode:lr-tb;text-anchor:start;fill:#000000;fill-opacity:1;stroke:none"><flowRegion
     id="flowRegion4052"><rect
       id="rect4054"
       width="528"
       height="114"
       x="716"
       y="168" /></flowRegion><flowPara
     id="flowPara4056" /></flowRoot><path
   style="fill:none;stroke:#000000;stroke-width:2;stroke-linecap:butt;stroke-linejoin:round;stroke-miterlimit:4;stroke-dasharray:none;stroke-opacity:1"
   d="m 260.94272,169.67751 h -40.21667 v 0.52917 z"
   id="path5059"
   inkscape:connector-curvature="0" /><path
   style="fill:none;stroke:#000000;stroke-width:2.30089;stroke-linecap:butt;stroke-linejoin:round;stroke-miterlimit:4;stroke-dasharray:none;stroke-opacity:1"
   d="m 338.17264,214.65781 -144.06339,0.38703 z"
   id="path5061"
   inkscape:connector-curvature="0"
   sodipodi:nodetypes="ccc" /><path
   style="fill:none;stroke:#000000;stroke-width:2;stroke-linecap:butt;stroke-linejoin:round;stroke-miterlimit:4;stroke-dasharray:none;stroke-opacity:1"
   d="m 260.94272,124.43269 h -40.21667 v 0.52917 z"
   id="path5059-5"
   inkscape:connector-curvature="0" /><path
   style="fill:none;stroke:#000000;stroke-width:2.30089;stroke-linecap:butt;stroke-linejoin:round;stroke-miterlimit:4;stroke-dasharray:none;stroke-opacity:1"
   d="m 338.17264,259.90262 -144.06339,0.38704 z"
   id="path5061-1"
   inkscape:connector-curvature="0"
   sodipodi:nodetypes="ccc" /><path
   style="fill:none;stroke:#000000;stroke-width:2;stroke-linecap:butt;stroke-linejoin:round;stroke-miterlimit:4;stroke-dasharray:none;stroke-opacity:1"
   d="M 220.72605,147.58427 H 143.03347 V 78.923342 l 195.13917,-2e-6"
   id="path5142-1"
   inkscape:connector-curvature="0"
   sodipodi:nodetypes="cccc" /><path
   style="fill:none;stroke:#000000;stroke-width:2;stroke-linecap:butt;stroke-linejoin:round;stroke-miterlimit:4;stroke-dasharray:none;stroke-opacity:1"
   d="M 142.87499,114.9666 84.137499,114.43744 V 33.678524 H 269.67397"
   id="path5180"
   inkscape:connector-curvature="0"
   sodipodi:nodetypes="cccc" /><path
   transform="translate(0,-3.000061)"
   style="fill:none;stroke:#000000;stroke-width:2;stroke-linecap:butt;stroke-linejoin:round;stroke-miterlimit:4;stroke-dasharray:none;stroke-opacity:1"
   d="m 220.72605,127.96192 v 45.24482 z"
   id="path5100"
   inkscape:connector-curvature="0" /><path
   style="fill:none;stroke:#000000;stroke-width:2;stroke-linecap:butt;stroke-linejoin:round;stroke-miterlimit:4;stroke-dasharray:none;stroke-opacity:1"
   d="m 194.10925,218.0449 v 45.24482"
   id="path5102"
   inkscape:connector-curvature="0"
   transform="translate(0,-3.000061)" /><path
   transform="translate(0,-3.000061)"
   style="fill:none;stroke:#000000;stroke-width:2;stroke-linecap:butt;stroke-linejoin:round;stroke-miterlimit:4;stroke-dasharray:none;stroke-opacity:1"
   d="M 84.387197,76.559168 H 30.691666 V 240.66731 H 194.10925"
   id="path5221"
   inkscape:connector-curvature="0"
   sodipodi:nodetypes="cccc" /><path
   transform="translate(0,-3.000061)"
   style="fill:none;stroke:#000000;stroke-width:2;stroke-linecap:butt;stroke-linejoin:round;stroke-miterlimit:4;stroke-dasharray:none;stroke-opacity:1"
   d="M 30.691666,158.61324 H 10.583333"
   id="path5238"
   inkscape:connector-curvature="0" /><path
   style="fill:#1c5d99;fill-opacity:0;stroke:#1c5d99;stroke-width:3.77953;stroke-linecap:butt;stroke-linejoin:miter;stroke-miterlimit:4;stroke-dasharray:none;stroke-dashoffset:0;stroke-opacity:0;paint-order:normal"
   d="m 1008.5402,1026.5403 c -4.9188,-1.5084 -11.75745,-5.8007 -15.23086,-9.5596 -3.22374,-3.4887 -6.28335,-10.6061 -6.28335,-14.6166 v -3.00325 H 860.21627 c -69.74535,0 -127.65396,-0.32395 -128.6858,-0.71991 -1.66251,-0.63796 -1.87607,-5.56582 -1.87607,-43.29062 V 912.77963 H 683.9917 638.329 v -3.55814 -3.55813 h 45.64772 45.64772 l 0.31149,-42.40108 0.31149,-42.40108 127.775,-0.30183 127.77501,-0.30182 0.54595,-2.66329 c 0.30027,-1.4648 0.84511,-4.5313 1.21075,-6.81444 1.01785,-6.35557 4.68069,-11.35722 11.75887,-16.05687 8.8061,-5.84693 18.8832,-7.60816 28.1073,-4.91246 7.9657,2.32795 15.437,7.15871 19.4189,12.5558 5.9267,8.0333 6.9681,26.91988 2.0142,36.53285 -11.792,22.88259 -49.14666,23.47118 -59.57883,0.93877 -1.20806,-2.6093 -2.2082,-6.21191 -2.22253,-8.0058 l -0.0261,-3.26162 H 861.8901 736.7542 l 0.30475,80.94751 0.30474,80.94752 123.86821,0.30203 c 98.31086,0.23972 124.06315,-0.005 124.81299,-1.18605 0.51963,-0.81844 0.96468,-3.08923 0.98899,-5.0462 0.21994,-17.70138 26.64402,-30.46018 45.68252,-22.05771 7.0125,3.09492 14.2532,9.7734 16.8423,15.53447 2.765,6.15231 2.7394,25.33444 -0.041,30.96474 -5.1709,10.4701 -16.3888,17.5255 -29.1016,18.3032 -4.3395,0.2654 -9.6835,-0.067 -11.8757,-0.7397 z"
   id="path6051"
   inkscape:connector-curvature="0"
   transform="matrix(0.26458333,0,0,0.26458333,0,-3.000061)" /><path
   style="fill:#1c5d99;fill-opacity:0;stroke:#1c5d99;stroke-width:4.48269;stroke-linecap:butt;stroke-linejoin:miter;stroke-miterlimit:4;stroke-dasharray:none;stroke-dashoffset:0;stroke-opacity:0;paint-order:normal"
   d="m 1008.5402,1026.5403 c -4.9188,-1.5084 -11.75745,-5.8007 -15.23086,-9.5596 -3.22374,-3.4887 -6.28335,-10.6061 -6.28335,-14.6166 v -3.00325 H 860.21627 c -69.74535,0 -127.65396,-0.32395 -128.6858,-0.71991 -1.66251,-0.63796 -1.87607,-5.56582 -1.87607,-43.29062 V 912.77963 H 683.9917 638.329 v -3.55814 -3.55813 h 45.64772 45.64772 l 0.31149,-42.40108 0.31149,-42.40108 127.775,-0.30183 127.77501,-0.30182 0.54595,-2.66329 c 0.30027,-1.4648 0.84511,-4.5313 1.21075,-6.81444 1.01785,-6.35557 4.68069,-11.35722 11.75887,-16.05687 8.8061,-5.84693 18.8832,-7.60816 28.1073,-4.91246 7.9657,2.32795 15.437,7.15871 19.4189,12.5558 5.9267,8.0333 6.9681,26.91988 2.0142,36.53285 -11.792,22.88259 -49.14666,23.47118 -59.57883,0.93877 -1.20806,-2.6093 -2.2082,-6.21191 -2.22253,-8.0058 l -0.0261,-3.26162 H 861.8901 736.7542 l 0.30475,80.94751 0.30474,80.94752 123.86821,0.30203 c 98.31086,0.23972 124.06315,-0.005 124.81299,-1.18605 0.51963,-0.81844 0.96468,-3.08923 0.98899,-5.0462 0.21994,-17.70138 26.64402,-30.46018 45.68252,-22.05771 7.0125,3.09492 14.2532,9.7734 16.8423,15.53447 2.765,6.15231 2.7394,25.33444 -0.041,30.96474 -5.1709,10.4701 -16.3888,17.5255 -29.1016,18.3032 -4.3395,0.2654 -9.6835,-0.067 -11.8757,-0.7397 z"
   id="path6071"
   inkscape:connector-curvature="0"
   transform="matrix(0.26458333,0,0,0.26458333,0,-3.000061)" /><path
   style="fill:#1c5d99;fill-opacity:0;stroke:#1c5d99;stroke-width:3.77953;stroke-linecap:butt;stroke-linejoin:miter;stroke-miterlimit:4;stroke-dasharray:none;stroke-dashoffset:0;stroke-opacity:0;paint-order:normal"
   d="m 1006.5866,1025.7672 c -11.55508,-4.1369 -17.84153,-11.2611 -19.25845,-21.825 l -0.61308,-4.5708 -128.23381,-0.30178 -128.23384,-0.30179 -0.31149,-42.40108 -0.31149,-42.40108 H 683.97672 638.329 v -4.15115 -4.15116 h 45.64772 45.64772 l 0.31149,-42.40108 0.31149,-42.40108 127.67048,-0.30181 127.67047,-0.30182 1.30353,-7.40747 c 1.47466,-8.37984 3.52842,-11.67749 10.70098,-17.18211 12.70322,-9.7492 29.55762,-9.48813 43.53722,0.67436 13.3197,9.68277 15.0769,37.03246 3.1686,49.31755 -13.5737,14.00323 -37.6562,14.53294 -50.39003,1.10836 -3.72354,-3.92552 -6.88267,-10.8998 -6.88267,-15.19457 v -3.0032 H 862.49135 737.95671 v 81.24403 81.24402 H 861.82566 985.6946 l 0.82155,-5.63371 c 2.24046,-15.36372 14.70715,-25.34962 31.94005,-25.58412 9.7854,-0.13317 18.8703,3.42188 25.3801,9.93165 5.3016,5.30168 7.3173,10.45293 8.0905,20.67636 1.2368,16.35388 -5.1993,28.25588 -18.4491,34.11688 -7.627,3.3738 -19.3594,3.898 -26.8911,1.2016 z"
   id="path6163"
   inkscape:connector-curvature="0"
   transform="matrix(0.26458333,0,0,0.26458333,0,-3.000061)" /><path
   style="fill:#1c5d99;fill-opacity:0;stroke:#1c5d99;stroke-width:4.48269;stroke-linecap:butt;stroke-linejoin:miter;stroke-miterlimit:4;stroke-dasharray:none;stroke-dashoffset:0;stroke-opacity:0;paint-order:normal"
   d="m 1008.5402,1026.5403 c -4.9188,-1.5084 -11.75745,-5.8007 -15.23086,-9.5596 -3.22374,-3.4887 -6.28334,-10.6061 -6.28334,-14.6166 v -3.00325 H 860.21627 c -69.74535,0 -127.65396,-0.32395 -128.6858,-0.71991 -1.66251,-0.63796 -1.87607,-5.56582 -1.87607,-43.29062 V 912.77963 H 683.9917 638.329 v -3.55814 -3.55813 h 45.64772 45.64772 l 0.31149,-42.40108 0.31149,-42.40108 127.775,-0.30183 127.77501,-0.30182 0.54595,-2.66329 c 0.30027,-1.4648 0.84512,-4.5313 1.21075,-6.81444 1.01785,-6.35557 4.68069,-11.35722 11.75887,-16.05687 8.8061,-5.84693 18.8832,-7.60816 28.1073,-4.91246 7.9657,2.32795 15.437,7.15871 19.4189,12.5558 5.9267,8.0333 6.9681,26.91988 2.0142,36.53285 -11.792,22.88259 -49.14666,23.47118 -59.57883,0.93877 -1.20806,-2.6093 -2.2082,-6.21191 -2.22253,-8.0058 l -0.026,-3.26162 H 861.8901 736.75421 l 0.30474,80.94751 0.30474,80.94752 123.86822,0.30203 c 98.31086,0.23972 124.06314,-0.005 124.81298,-1.18605 0.51963,-0.81844 0.96468,-3.08923 0.98899,-5.0462 0.21994,-17.70138 26.64402,-30.46018 45.68252,-22.05771 7.0125,3.09492 14.2532,9.7734 16.8423,15.53447 2.765,6.15231 2.7394,25.33444 -0.041,30.96474 -5.1709,10.4701 -16.3888,17.5255 -29.1016,18.3032 -4.3395,0.2654 -9.6835,-0.067 -11.8757,-0.7397 z"
   id="path6167"
   inkscape:connector-curvature="0"
   transform="matrix(0.26458333,0,0,0.26458333,0,-3.000061)" /></g><g
     inkscape:groupmode="layer"
     id="layer2"
     inkscape:label="Leaf Nodes"
     style="opacity:1"><rect
   transform="translate(0,3.0000609)"
   id="rect4170"
   width="17.4625"
   height="17.4625"
   x="260.94272"
   y="24.947273"
   style="fill:#d55e00;fill-opacity:1;stroke-width:0.264583" /><path
   style="fill:#0072b2;fill-opacity:1;stroke:none;stroke-width:0.529167;stroke-opacity:1"
   d="m 334.04541,225.98245 c -3.46015,-1.61865 -4.71015,-3.8413 -4.71015,-8.37523 0,-4.38822 0.87719,-6.02001 4.28308,-7.96759 3.90903,-2.23529 9.30327,-1.05669 12.03705,2.63001 1.51964,2.04934 1.82436,7.03733 0.58896,9.64073 -1.98612,4.18546 -7.80465,6.12772 -12.19894,4.07208 z"
   id="path4176"
   inkscape:connector-curvature="0" /><rect
   transform="translate(0,3.0000609)"
   id="rect4170-8"
   width="17.4625"
   height="17.4625"
   x="260.94272"
   y="115.43691"
   style="fill:#d55e00;fill-opacity:1;stroke-width:0.264583" /><rect
   transform="translate(0,3.0000609)"
   id="rect4170-0"
   width="17.4625"
   height="17.4625"
   x="260.94272"
   y="160.68173"
   style="fill:#d55e00;fill-opacity:1;stroke-width:0.264583" /><path
   style="fill:#0072b2;fill-opacity:1;stroke:none;stroke-width:0.529167;stroke-opacity:1"
   d="m 334.04541,90.247989 c -3.46015,-1.61866 -4.71015,-3.84131 -4.71015,-8.37523 0,-4.38822 0.87719,-6.02001 4.28308,-7.9676 3.90903,-2.23529 9.30327,-1.05668 12.03705,2.63002 1.51964,2.04933 1.82436,7.03732 0.58896,9.64072 -1.98612,4.18546 -7.80465,6.12773 -12.19894,4.07209 z"
   id="path4176-1"
   inkscape:connector-curvature="0" /><path
   style="fill:#0072b2;fill-opacity:1;stroke:none;stroke-width:0.529167;stroke-opacity:1"
   d="m 334.04541,271.22727 c -3.46015,-1.61865 -4.71015,-3.84131 -4.71015,-8.37523 0,-4.38822 0.87719,-6.02001 4.28308,-7.9676 3.90903,-2.23529 9.30327,-1.05668 12.03705,2.63002 1.51964,2.04933 1.82436,7.03733 0.58896,9.64072 -1.98612,4.18546 -7.80465,6.12773 -12.19894,4.07209 z"
   id="path4176-0"
   inkscape:connector-curvature="0" />



</g><path
     style="fill:#1c5d99;fill-opacity:0;stroke:#1c5d99;stroke-width:1.40665;stroke-linecap:butt;stroke-linejoin:miter;stroke-miterlimit:4;stroke-dasharray:none;stroke-dashoffset:0;stroke-opacity:0;paint-order:normal"
     d="m 266.5998,90.536907 c -1.63663,-0.474334 -3.9521,-2.245003 -4.60506,-3.521546 -0.33644,-0.657765 -0.68238,-1.822775 -0.76873,-2.588911 L 261.069,83.033472 h -46.08889 -46.0889 v -1.097285 -1.097283 l 46.05125,-0.07949 46.05126,-0.07949 0.0824,-0.784519 c 0.30299,-2.88386 2.39961,-5.412501 5.31002,-6.404176 4.40892,-1.502267 9.652,0.515816 11.24448,4.328033 0.80192,1.919682 0.94871,5.098727 0.33324,7.215902 -1.24383,4.278664 -6.61387,6.878476 -11.36409,5.501751 z"
     id="path6019"
     inkscape:connector-curvature="0" /><path
     style="fill:#1c5d99;fill-opacity:0;stroke:#1c5d99;stroke-width:1.40665;stroke-linecap:butt;stroke-linejoin:miter;stroke-miterlimit:4;stroke-dasharray:none;stroke-dashoffset:0;stroke-opacity:0;paint-order:normal"
     d="m 266.5998,90.536907 c -1.63663,-0.474334 -3.9521,-2.245003 -4.60506,-3.521546 -0.33644,-0.657765 -0.68238,-1.822775 -0.76873,-2.588911 L 261.069,83.033472 h -46.08889 -46.0889 v -1.097285 -1.097283 l 46.05125,-0.07949 46.05126,-0.07949 0.0824,-0.784519 c 0.30299,-2.88386 2.39961,-5.412501 5.31002,-6.404176 4.40892,-1.502267 9.652,0.515816 11.24448,4.328033 0.80192,1.919682 0.94871,5.098727 0.33324,7.215902 -1.24383,4.278664 -6.61387,6.878476 -11.36409,5.501751 z"
     id="path6021"
     inkscape:connector-curvature="0" /><path
     style="fill:#1c5d99;fill-opacity:0;stroke:#1c5d99;stroke-width:1.40665;stroke-linecap:butt;stroke-linejoin:miter;stroke-miterlimit:4;stroke-dasharray:none;stroke-dashoffset:0;stroke-opacity:0;paint-order:normal"
     d="m 266.5998,90.536907 c -1.63663,-0.474334 -3.9521,-2.245003 -4.60506,-3.521546 -0.33644,-0.657765 -0.68238,-1.822775 -0.76873,-2.588911 L 261.069,83.033472 h -46.08889 -46.0889 v -1.097285 -1.097283 l 46.05125,-0.07949 46.05126,-0.07949 0.0824,-0.784519 c 0.30299,-2.88386 2.39961,-5.412501 5.31002,-6.404176 4.40892,-1.502267 9.652,0.515816 11.24448,4.328033 0.80192,1.919682 0.94871,5.098727 0.33324,7.215902 -1.24383,4.278664 -6.61387,6.878476 -11.36409,5.501751 z"
     id="path6023"
     inkscape:connector-curvature="0" /><path
     style="fill:#1c5d99;fill-opacity:0;stroke:#1c5d99;stroke-width:1.40665;stroke-linecap:butt;stroke-linejoin:miter;stroke-miterlimit:4;stroke-dasharray:none;stroke-dashoffset:0;stroke-opacity:0;paint-order:normal"
     d="m 266.5998,90.536907 c -1.63663,-0.474334 -3.9521,-2.245003 -4.60506,-3.521546 -0.33644,-0.657765 -0.68238,-1.822775 -0.76873,-2.588911 L 261.069,83.033472 h -46.08889 -46.0889 v -1.097285 -1.097283 l 46.05125,-0.07949 46.05126,-0.07949 0.0824,-0.784519 c 0.30299,-2.88386 2.39961,-5.412501 5.31002,-6.404176 4.40892,-1.502267 9.652,0.515816 11.24448,4.328033 0.80192,1.919682 0.94871,5.098727 0.33324,7.215902 -1.24383,4.278664 -6.61387,6.878476 -11.36409,5.501751 z"
     id="path6025"
     inkscape:connector-curvature="0" /><path
     style="fill:#1c5d99;fill-opacity:0;stroke:#1c5d99;stroke-width:1.40665;stroke-linecap:butt;stroke-linejoin:miter;stroke-miterlimit:4;stroke-dasharray:none;stroke-dashoffset:0;stroke-opacity:0;paint-order:normal"
     d="m 266.5998,90.536907 c -1.63663,-0.474334 -3.9521,-2.245003 -4.60506,-3.521546 -0.33644,-0.657765 -0.68238,-1.822775 -0.76873,-2.588911 L 261.069,83.033472 h -46.08889 -46.0889 v -1.097285 -1.097283 l 46.05125,-0.07949 46.05126,-0.07949 0.0824,-0.784519 c 0.30299,-2.88386 2.39961,-5.412501 5.31002,-6.404176 4.40892,-1.502267 9.652,0.515816 11.24448,4.328033 0.80192,1.919682 0.94871,5.098727 0.33324,7.215902 -1.24383,4.278664 -6.61387,6.878476 -11.36409,5.501751 z"
     id="path6027"
     inkscape:connector-curvature="0" /><path
     style="fill:#1c5d99;fill-opacity:0;stroke:#1c5d99;stroke-width:1.40665;stroke-linecap:butt;stroke-linejoin:miter;stroke-miterlimit:4;stroke-dasharray:none;stroke-dashoffset:0;stroke-opacity:0;paint-order:normal"
     d="m 266.5998,90.536907 c -1.63663,-0.474334 -3.9521,-2.245003 -4.60506,-3.521546 -0.33644,-0.657765 -0.68238,-1.822775 -0.76873,-2.588911 L 261.069,83.033472 h -46.08889 -46.0889 v -1.097285 -1.097283 l 46.05125,-0.07949 46.05126,-0.07949 0.0824,-0.784519 c 0.30299,-2.88386 2.39961,-5.412501 5.31002,-6.404176 4.40892,-1.502267 9.652,0.515816 11.24448,4.328033 0.80192,1.919682 0.94871,5.098727 0.33324,7.215902 -1.24383,4.278664 -6.61387,6.878476 -11.36409,5.501751 z"
     id="path6029"
     inkscape:connector-curvature="0" /><path
     style="fill:#1c5d99;fill-opacity:0;stroke:#1c5d99;stroke-width:1.40665;stroke-linecap:butt;stroke-linejoin:miter;stroke-miterlimit:4;stroke-dasharray:none;stroke-dashoffset:0;stroke-opacity:0;paint-order:normal"
     d="m 266.5998,90.536907 c -1.63663,-0.474334 -3.9521,-2.245003 -4.60506,-3.521546 -0.33644,-0.657765 -0.68238,-1.822775 -0.76873,-2.588911 L 261.069,83.033472 h -46.08889 -46.0889 v -1.097285 -1.097283 l 46.05125,-0.07949 46.05126,-0.07949 0.0824,-0.784519 c 0.30299,-2.88386 2.39961,-5.412501 5.31002,-6.404176 4.40892,-1.502267 9.652,0.515816 11.24448,4.328033 0.80192,1.919682 0.94871,5.098727 0.33324,7.215902 -1.24383,4.278664 -6.61387,6.878476 -11.36409,5.501751 z"
     id="path6031"
     inkscape:connector-curvature="0" /><path
     style="fill:#1c5d99;fill-opacity:0;stroke:#1c5d99;stroke-width:1.40665;stroke-linecap:butt;stroke-linejoin:miter;stroke-miterlimit:4;stroke-dasharray:none;stroke-dashoffset:0;stroke-opacity:0;paint-order:normal"
     d="m 266.5998,90.536907 c -1.63663,-0.474334 -3.9521,-2.245003 -4.60506,-3.521546 -0.33644,-0.657765 -0.68238,-1.822775 -0.76873,-2.588911 L 261.069,83.033472 h -46.08889 -46.0889 v -1.097285 -1.097283 l 46.05125,-0.07949 46.05126,-0.07949 0.0824,-0.784519 c 0.30299,-2.88386 2.39961,-5.412501 5.31002,-6.404176 4.40892,-1.502267 9.652,0.515816 11.24448,4.328033 0.80192,1.919682 0.94871,5.098727 0.33324,7.215902 -1.24383,4.278664 -6.61387,6.878476 -11.36409,5.501751 z"
     id="path6033"
     inkscape:connector-curvature="0" /><path
     style="fill:#1c5d99;fill-opacity:0;stroke:#1c5d99;stroke-width:1;stroke-linecap:butt;stroke-linejoin:miter;stroke-miterlimit:4;stroke-dasharray:none;stroke-dashoffset:0;stroke-opacity:0;paint-order:normal"
     d="m 266.5998,90.536907 c -1.63663,-0.474334 -3.9521,-2.245003 -4.60506,-3.521546 -0.33644,-0.657765 -0.68238,-1.822775 -0.76873,-2.588911 L 261.069,83.033472 h -46.08889 -46.0889 v -1.097285 -1.097283 l 46.05125,-0.07949 46.05126,-0.07949 0.0824,-0.784519 c 0.30299,-2.88386 2.39961,-5.412501 5.31002,-6.404176 4.40892,-1.502267 9.652,0.515816 11.24448,4.328033 0.80192,1.919682 0.94871,5.098727 0.33324,7.215902 -1.24383,4.278664 -6.61387,6.878476 -11.36409,5.501751 z"
     id="path6035"
     inkscape:connector-curvature="0" /><path
     style="fill:#1c5d99;fill-opacity:0;stroke:#1c5d99;stroke-width:1.18605;stroke-linecap:butt;stroke-linejoin:miter;stroke-miterlimit:4;stroke-dasharray:none;stroke-dashoffset:0;stroke-opacity:0;paint-order:normal"
     d="M 167.94979,264.41422 V 242.4477 h -62.3971 c -60.308269,0 -75.187027,-0.13019 -76.053384,-0.66547 -0.332365,-0.20535 -0.427699,-7.89757 -0.506929,-40.90251 l -0.09758,-40.6496 H 19.342795 9.7907947 v -1.72594 -1.72594 h 9.5492313 9.54923 l 0.100351,-40.61203 c 0.05519,-22.336616 0.170958,-40.679549 0.257254,-40.76207 0.0863,-0.08252 12.04812,-0.253934 26.58183,-0.380912 l 26.424924,-0.230873 0.09181,-19.4266 c 0.07368,-15.590419 0.172905,-19.476691 0.502478,-19.680261 0.832387,-0.514141 11.689903,-0.664575 47.965817,-0.664575 h 37.13607 V 24.665272 c 0,-10.146444 0.0127,-10.355649 0.62761,-10.355649 0.61631,0 0.62762,0.209205 0.62762,11.610879 v 11.610879 h 45.8159 45.8159 v -4.864018 -4.864015 h 8.78661 8.7866 v 8.943514 8.943515 h -8.7866 -8.78661 v -3.922596 -3.922594 h -45.8159 -45.8159 v 21.495816 21.495816 h 45.77219 45.77219 l 0.18383,-1.552167 c 0.25324,-2.138223 0.92598,-3.292017 2.65978,-4.56166 3.91293,-2.865406 8.87818,-2.714429 12.31372,0.374422 2.01343,1.810232 2.65959,3.511973 2.65597,6.994636 -0.003,3.128039 -0.73144,4.989587 -2.59004,6.621463 -1.96699,1.727043 -3.65789,2.315532 -6.66305,2.318985 -2.37323,0.0028 -2.85266,-0.09958 -4.34798,-0.927806 -2.62277,-1.452729 -4.12481,-3.726704 -4.12481,-6.244656 v -0.826564 h -45.8159 -45.8159 v 32.949788 32.94979 h 24.9477 24.9477 l 0.005,-10.90481 c 0.002,-6.01429 0.13308,-11.10754 0.29083,-11.35686 0.49623,-0.78427 3.98286,-0.92735 23.00458,-0.94397 l 18.43619,-0.0161 v -3.76569 -3.76569 h 8.78663 8.7866 v 8.94351 8.94352 h -8.7866 -8.78663 v -3.46683 -3.46681 l -16.23954,0.18166 c -8.93174,0.0999 -17.54576,0.26102 -19.14226,0.35803 l -2.90271,0.17637 v 20.5251 20.52511 h 19.14225 19.14226 v -3.60879 -3.60878 h 8.78663 8.7866 v 8.78661 8.78661 h -8.7866 -8.78663 v -3.48584 -3.48585 l -10.7479,0.22289 c -19.23235,0.39885 -29.96456,0.36645 -30.42346,-0.0918 -0.31554,-0.31512 -0.42859,-2.86037 -0.49831,-11.21862 l -0.0902,-10.81103 h -24.93597 -24.93596 v 44.55694 44.55693 l 12.00313,0.086 12.00314,0.086 -12.00314,0.0746 -12.00313,0.0746 v 22.28034 c 0,22.07111 -0.006,22.28032 -0.62762,22.28032 -0.62164,0 -0.62762,-0.20921 -0.62762,-21.96652 z m 0,-68.7017 v -43.2833 l -12.69834,-0.10059 c -11.69054,-0.0926 -12.74278,-0.14505 -13.25836,-0.66069 -0.51976,-0.51981 -0.56718,-1.68506 -0.65929,-16.20316 l -0.0993,-15.64308 -12.29614,-0.18395 c -47.019506,-0.7034 -45.365678,-0.65859 -45.952431,-1.24511 -0.50877,-0.50856 -0.555556,-1.98745 -0.642467,-20.307393 L 82.249768,78.32636 H 57.317354 32.384936 v 80.33472 80.33473 h 67.782424 67.78243 z m 0,-79.41545 V 83.661088 h -11.61088 -11.61088 v 32.635982 32.63598 h 11.61088 11.61088 z m -26.6182,-17.704212 c 0.0558,-9.737314 0.17207,-17.772319 0.25837,-17.855567 0.0863,-0.08324 6.05256,-0.255072 13.25837,-0.381836 l 13.10146,-0.230487 V 59.298884 38.472803 H 126.99791 86.046023 v 38.598326 38.598331 l 5.883892,0.0452 c 6.544042,0.0503 39.108415,0.42444 45.322175,0.52076 l 3.97804,0.0617 z M 260.83682,81.935144 v -0.784518 h -45.8159 -45.8159 v 0.784518 0.784519 h 45.8159 45.8159 z"
     id="path6037"
     inkscape:connector-curvature="0" /><path
     style="fill:#1c5d99;fill-opacity:0;stroke:#1c5d99;stroke-width:1.18605;stroke-linecap:butt;stroke-linejoin:miter;stroke-miterlimit:4;stroke-dasharray:none;stroke-dashoffset:0;stroke-opacity:0;paint-order:normal"
     d="M 167.94979,264.41422 V 242.4477 h -62.3971 c -60.308269,0 -75.187027,-0.13019 -76.053384,-0.66547 -0.332365,-0.20535 -0.427699,-7.89757 -0.506929,-40.90251 l -0.09758,-40.6496 H 19.342795 9.7907947 v -1.72594 -1.72594 h 9.5492313 9.54923 l 0.100351,-40.61203 c 0.05519,-22.336616 0.170958,-40.679549 0.257254,-40.76207 0.0863,-0.08252 12.04812,-0.253934 26.58183,-0.380912 l 26.424924,-0.230873 0.09181,-19.4266 c 0.07368,-15.590419 0.172905,-19.476691 0.502478,-19.680261 0.832387,-0.514141 11.689903,-0.664575 47.965817,-0.664575 h 37.13607 V 24.665272 c 0,-10.146444 0.0127,-10.355649 0.62761,-10.355649 0.61631,0 0.62762,0.209205 0.62762,11.610879 v 11.610879 h 45.8159 45.8159 v -4.864018 -4.864015 h 8.78661 8.7866 v 8.943514 8.943515 h -8.7866 -8.78661 v -3.922596 -3.922594 h -45.8159 -45.8159 v 21.495816 21.495816 h 45.77219 45.77219 l 0.18383,-1.552167 c 0.25324,-2.138223 0.92598,-3.292017 2.65978,-4.56166 3.91293,-2.865406 8.87818,-2.714429 12.31372,0.374422 2.01343,1.810232 2.65959,3.511973 2.65597,6.994636 -0.003,3.128039 -0.73144,4.989587 -2.59004,6.621463 -1.96699,1.727043 -3.65789,2.315532 -6.66305,2.318985 -2.37323,0.0028 -2.85266,-0.09958 -4.34798,-0.927806 -2.62277,-1.452729 -4.12481,-3.726704 -4.12481,-6.244656 v -0.826564 h -45.8159 -45.8159 v 32.949788 32.94979 h 24.9477 24.9477 l 0.005,-10.90481 c 0.002,-6.01429 0.13308,-11.10754 0.29083,-11.35686 0.49623,-0.78427 3.98286,-0.92735 23.00458,-0.94397 l 18.43619,-0.0161 v -3.76569 -3.76569 h 8.78663 8.7866 v 8.94351 8.94352 h -8.7866 -8.78663 v -3.46683 -3.46681 l -16.23954,0.18166 c -8.93174,0.0999 -17.54576,0.26102 -19.14226,0.35803 l -2.90271,0.17637 v 20.5251 20.52511 h 19.14225 19.14226 v -3.60879 -3.60878 h 8.78663 8.7866 v 8.78661 8.78661 h -8.7866 -8.78663 v -3.48584 -3.48585 l -10.7479,0.22289 c -19.23235,0.39885 -29.96456,0.36645 -30.42346,-0.0918 -0.31554,-0.31512 -0.42859,-2.86037 -0.49831,-11.21862 l -0.0902,-10.81103 h -24.93597 -24.93596 v 44.55694 44.55693 l 12.00313,0.086 12.00314,0.086 -12.00314,0.0746 -12.00313,0.0746 v 22.28034 c 0,22.07111 -0.006,22.28032 -0.62762,22.28032 -0.62164,0 -0.62762,-0.20921 -0.62762,-21.96652 z m 0,-68.7017 v -43.2833 l -12.69834,-0.10059 c -11.69054,-0.0926 -12.74278,-0.14505 -13.25836,-0.66069 -0.51976,-0.51981 -0.56718,-1.68506 -0.65929,-16.20316 l -0.0993,-15.64308 -12.29614,-0.18395 c -47.019506,-0.7034 -45.365678,-0.65859 -45.952431,-1.24511 -0.50877,-0.50856 -0.555556,-1.98745 -0.642467,-20.307393 L 82.249768,78.32636 H 57.317354 32.384936 v 80.33472 80.33473 h 67.782424 67.78243 z m 0,-79.41545 V 83.661088 h -11.61088 -11.61088 v 32.635982 32.63598 h 11.61088 11.61088 z m -26.6182,-17.704212 c 0.0558,-9.737314 0.17207,-17.772319 0.25837,-17.855567 0.0863,-0.08324 6.05256,-0.255072 13.25837,-0.381836 l 13.10146,-0.230487 V 59.298884 38.472803 H 126.99791 86.046023 v 38.598326 38.598331 l 5.883892,0.0452 c 6.544042,0.0503 39.108415,0.42444 45.322175,0.52076 l 3.97804,0.0617 z M 260.83682,81.935144 v -0.784518 h -45.8159 -45.8159 v 0.784518 0.784519 h 45.8159 45.8159 z"
     id="path6039"
     inkscape:connector-curvature="0" /><path
     style="fill:#1c5d99;fill-opacity:0;stroke:#1c5d99;stroke-width:1.18605;stroke-linecap:butt;stroke-linejoin:miter;stroke-miterlimit:4;stroke-dasharray:none;stroke-dashoffset:0;stroke-opacity:0;paint-order:normal"
     d="M 167.94979,264.41422 V 242.4477 h -62.3971 c -60.308269,0 -75.187027,-0.13019 -76.053384,-0.66547 -0.332365,-0.20535 -0.427699,-7.89757 -0.506929,-40.90251 l -0.09758,-40.6496 H 19.342795 9.7907947 v -1.72594 -1.72594 h 9.5492313 9.54923 l 0.100351,-40.61203 c 0.05519,-22.336616 0.170958,-40.679549 0.257254,-40.76207 0.0863,-0.08252 12.04812,-0.253934 26.58183,-0.380912 l 26.424924,-0.230873 0.09181,-19.4266 c 0.07368,-15.590419 0.172905,-19.476691 0.502478,-19.680261 0.832387,-0.514141 11.689903,-0.664575 47.965817,-0.664575 h 37.13607 V 24.665272 c 0,-10.146444 0.0127,-10.355649 0.62761,-10.355649 0.61631,0 0.62762,0.209205 0.62762,11.610879 v 11.610879 h 45.8159 45.8159 v -4.864018 -4.864015 h 8.78661 8.7866 v 8.943514 8.943515 h -8.7866 -8.78661 v -3.922596 -3.922594 h -45.8159 -45.8159 v 21.495816 21.495816 h 45.77219 45.77219 l 0.18383,-1.552167 c 0.25324,-2.138223 0.92598,-3.292017 2.65978,-4.56166 3.91293,-2.865406 8.87818,-2.714429 12.31372,0.374422 2.01343,1.810232 2.65959,3.511973 2.65597,6.994636 -0.003,3.128039 -0.73144,4.989587 -2.59004,6.621463 -1.96699,1.727043 -3.65789,2.315532 -6.66305,2.318985 -2.37323,0.0028 -2.85266,-0.09958 -4.34798,-0.927806 -2.62277,-1.452729 -4.12481,-3.726704 -4.12481,-6.244656 v -0.826564 h -45.8159 -45.8159 v 32.949788 32.94979 h 24.9477 24.9477 l 0.005,-10.90481 c 0.002,-6.01429 0.13308,-11.10754 0.29083,-11.35686 0.49623,-0.78427 3.98286,-0.92735 23.00458,-0.94397 l 18.43619,-0.0161 v -3.76569 -3.76569 h 8.78663 8.7866 v 8.94351 8.94352 h -8.7866 -8.78663 v -3.46683 -3.46681 l -16.23954,0.18166 c -8.93174,0.0999 -17.54576,0.26102 -19.14226,0.35803 l -2.90271,0.17637 v 20.5251 20.52511 h 19.14225 19.14226 v -3.60879 -3.60878 h 8.78663 8.7866 v 8.78661 8.78661 h -8.7866 -8.78663 v -3.48584 -3.48585 l -10.7479,0.22289 c -19.23235,0.39885 -29.96456,0.36645 -30.42346,-0.0918 -0.31554,-0.31512 -0.42859,-2.86037 -0.49831,-11.21862 l -0.0902,-10.81103 h -24.93597 -24.93596 v 44.55694 44.55693 l 12.00313,0.086 12.00314,0.086 -12.00314,0.0746 -12.00313,0.0746 v 22.28034 c 0,22.07111 -0.006,22.28032 -0.62762,22.28032 -0.62164,0 -0.62762,-0.20921 -0.62762,-21.96652 z m 0,-68.7017 v -43.2833 l -12.69834,-0.10059 c -11.69054,-0.0926 -12.74278,-0.14505 -13.25836,-0.66069 -0.51976,-0.51981 -0.56718,-1.68506 -0.65929,-16.20316 l -0.0993,-15.64308 -12.29614,-0.18395 c -47.019506,-0.7034 -45.365678,-0.65859 -45.952431,-1.24511 -0.50877,-0.50856 -0.555556,-1.98745 -0.642467,-20.307393 L 82.249768,78.32636 H 57.317354 32.384936 v 80.33472 80.33473 h 67.782424 67.78243 z m 0,-79.41545 V 83.661088 h -11.61088 -11.61088 v 32.635982 32.63598 h 11.61088 11.61088 z m -26.6182,-17.704212 c 0.0558,-9.737314 0.17207,-17.772319 0.25837,-17.855567 0.0863,-0.08324 6.05256,-0.255072 13.25837,-0.381836 l 13.10146,-0.230487 V 59.298884 38.472803 H 126.99791 86.046023 v 38.598326 38.598331 l 5.883892,0.0452 c 6.544042,0.0503 39.108415,0.42444 45.322175,0.52076 l 3.97804,0.0617 z M 260.83682,81.935144 v -0.784518 h -45.8159 -45.8159 v 0.784518 0.784519 h 45.8159 45.8159 z"
     id="path6041"
     inkscape:connector-curvature="0" /><path
     style="fill:#1c5d99;fill-opacity:0;stroke:#1c5d99;stroke-width:1.18605;stroke-linecap:butt;stroke-linejoin:miter;stroke-miterlimit:4;stroke-dasharray:none;stroke-dashoffset:0;stroke-opacity:0;paint-order:normal"
     d="M 167.94979,264.41422 V 242.4477 h -62.3971 c -60.308269,0 -75.187027,-0.13019 -76.053384,-0.66547 -0.332365,-0.20535 -0.427699,-7.89757 -0.506929,-40.90251 l -0.09758,-40.6496 H 19.342795 9.7907947 v -1.72594 -1.72594 h 9.5492313 9.54923 l 0.100351,-40.61203 c 0.05519,-22.336616 0.170958,-40.679549 0.257254,-40.76207 0.0863,-0.08252 12.04812,-0.253934 26.58183,-0.380912 l 26.424924,-0.230873 0.09181,-19.4266 c 0.07368,-15.590419 0.172905,-19.476691 0.502478,-19.680261 0.832387,-0.514141 11.689903,-0.664575 47.965817,-0.664575 h 37.13607 V 24.665272 c 0,-10.146444 0.0127,-10.355649 0.62761,-10.355649 0.61631,0 0.62762,0.209205 0.62762,11.610879 v 11.610879 h 45.8159 45.8159 v -4.864018 -4.864015 h 8.78661 8.7866 v 8.943514 8.943515 h -8.7866 -8.78661 v -3.922596 -3.922594 h -45.8159 -45.8159 v 21.495816 21.495816 h 45.77219 45.77219 l 0.18383,-1.552167 c 0.25324,-2.138223 0.92598,-3.292017 2.65978,-4.56166 3.91293,-2.865406 8.87818,-2.714429 12.31372,0.374422 2.01343,1.810232 2.65959,3.511973 2.65597,6.994636 -0.003,3.128039 -0.73144,4.989587 -2.59004,6.621463 -1.96699,1.727043 -3.65789,2.315532 -6.66305,2.318985 -2.37323,0.0028 -2.85266,-0.09958 -4.34798,-0.927806 -2.62277,-1.452729 -4.12481,-3.726704 -4.12481,-6.244656 v -0.826564 h -45.8159 -45.8159 v 32.949788 32.94979 h 24.9477 24.9477 l 0.005,-10.90481 c 0.002,-6.01429 0.13308,-11.10754 0.29083,-11.35686 0.49623,-0.78427 3.98286,-0.92735 23.00458,-0.94397 l 18.43619,-0.0161 v -3.76569 -3.76569 h 8.78663 8.7866 v 8.94351 8.94352 h -8.7866 -8.78663 v -3.46683 -3.46681 l -16.23954,0.18166 c -8.93174,0.0999 -17.54576,0.26102 -19.14226,0.35803 l -2.90271,0.17637 v 20.5251 20.52511 h 19.14225 19.14226 v -3.60879 -3.60878 h 8.78663 8.7866 v 8.78661 8.78661 h -8.7866 -8.78663 v -3.48584 -3.48585 l -10.7479,0.22289 c -19.23235,0.39885 -29.96456,0.36645 -30.42346,-0.0918 -0.31554,-0.31512 -0.42859,-2.86037 -0.49831,-11.21862 l -0.0902,-10.81103 h -24.93597 -24.93596 v 44.55694 44.55693 l 12.00313,0.086 12.00314,0.086 -12.00314,0.0746 -12.00313,0.0746 v 22.28034 c 0,22.07111 -0.006,22.28032 -0.62762,22.28032 -0.62164,0 -0.62762,-0.20921 -0.62762,-21.96652 z m 0,-68.7017 v -43.2833 l -12.69834,-0.10059 c -11.69054,-0.0926 -12.74278,-0.14505 -13.25836,-0.66069 -0.51976,-0.51981 -0.56718,-1.68506 -0.65929,-16.20316 l -0.0993,-15.64308 -12.29614,-0.18395 c -47.019506,-0.7034 -45.365678,-0.65859 -45.952431,-1.24511 -0.50877,-0.50856 -0.555556,-1.98745 -0.642467,-20.307393 L 82.249768,78.32636 H 57.317354 32.384936 v 80.33472 80.33473 h 67.782424 67.78243 z m 0,-79.41545 V 83.661088 h -11.61088 -11.61088 v 32.635982 32.63598 h 11.61088 11.61088 z m -26.6182,-17.704212 c 0.0558,-9.737314 0.17207,-17.772319 0.25837,-17.855567 0.0863,-0.08324 6.05256,-0.255072 13.25837,-0.381836 l 13.10146,-0.230487 V 59.298884 38.472803 H 126.99791 86.046023 v 38.598326 38.598331 l 5.883892,0.0452 c 6.544042,0.0503 39.108415,0.42444 45.322175,0.52076 l 3.97804,0.0617 z M 260.83682,81.935144 v -0.784518 h -45.8159 -45.8159 v 0.784518 0.784519 h 45.8159 45.8159 z"
     id="path6043"
     inkscape:connector-curvature="0" /><path
     style="fill:#1c5d99;fill-opacity:0;stroke:#1c5d99;stroke-width:1.18605;stroke-linecap:butt;stroke-linejoin:miter;stroke-miterlimit:4;stroke-dasharray:none;stroke-dashoffset:0;stroke-opacity:0;paint-order:normal"
     d="M 167.94979,264.41422 V 242.4477 h -62.3971 c -60.308269,0 -75.187027,-0.13019 -76.053384,-0.66547 -0.332365,-0.20535 -0.427699,-7.89757 -0.506929,-40.90251 l -0.09758,-40.6496 H 19.342795 9.7907947 v -1.72594 -1.72594 h 9.5492313 9.54923 l 0.100351,-40.61203 c 0.05519,-22.336616 0.170958,-40.679549 0.257254,-40.76207 0.0863,-0.08252 12.04812,-0.253934 26.58183,-0.380912 l 26.424924,-0.230873 0.09181,-19.4266 c 0.07368,-15.590419 0.172905,-19.476691 0.502478,-19.680261 0.832387,-0.514141 11.689903,-0.664575 47.965817,-0.664575 h 37.13607 V 24.665272 c 0,-10.146444 0.0127,-10.355649 0.62761,-10.355649 0.61631,0 0.62762,0.209205 0.62762,11.610879 v 11.610879 h 45.8159 45.8159 v -4.864018 -4.864015 h 8.78661 8.7866 v 8.943514 8.943515 h -8.7866 -8.78661 v -3.922596 -3.922594 h -45.8159 -45.8159 v 21.495816 21.495816 h 45.77219 45.77219 l 0.18383,-1.552167 c 0.25324,-2.138223 0.92598,-3.292017 2.65978,-4.56166 3.91293,-2.865406 8.87818,-2.714429 12.31372,0.374422 2.01343,1.810232 2.65959,3.511973 2.65597,6.994636 -0.003,3.128039 -0.73144,4.989587 -2.59004,6.621463 -1.96699,1.727043 -3.65789,2.315532 -6.66305,2.318985 -2.37323,0.0028 -2.85266,-0.09958 -4.34798,-0.927806 -2.62277,-1.452729 -4.12481,-3.726704 -4.12481,-6.244656 v -0.826564 h -45.8159 -45.8159 v 32.949788 32.94979 h 24.9477 24.9477 l 0.005,-10.90481 c 0.002,-6.01429 0.13308,-11.10754 0.29083,-11.35686 0.49623,-0.78427 3.98286,-0.92735 23.00458,-0.94397 l 18.43619,-0.0161 v -3.76569 -3.76569 h 8.78663 8.7866 v 8.94351 8.94352 h -8.7866 -8.78663 v -3.46683 -3.46681 l -16.23954,0.18166 c -8.93174,0.0999 -17.54576,0.26102 -19.14226,0.35803 l -2.90271,0.17637 v 20.5251 20.52511 h 19.14225 19.14226 v -3.60879 -3.60878 h 8.78663 8.7866 v 8.78661 8.78661 h -8.7866 -8.78663 v -3.48584 -3.48585 l -10.7479,0.22289 c -19.23235,0.39885 -29.96456,0.36645 -30.42346,-0.0918 -0.31554,-0.31512 -0.42859,-2.86037 -0.49831,-11.21862 l -0.0902,-10.81103 h -24.93597 -24.93596 v 44.55694 44.55693 l 12.00313,0.086 12.00314,0.086 -12.00314,0.0746 -12.00313,0.0746 v 22.28034 c 0,22.07111 -0.006,22.28032 -0.62762,22.28032 -0.62164,0 -0.62762,-0.20921 -0.62762,-21.96652 z m 0,-68.7017 v -43.2833 l -12.69834,-0.10059 c -11.69054,-0.0926 -12.74278,-0.14505 -13.25836,-0.66069 -0.51976,-0.51981 -0.56718,-1.68506 -0.65929,-16.20316 l -0.0993,-15.64308 -12.29614,-0.18395 c -47.019506,-0.7034 -45.365678,-0.65859 -45.952431,-1.24511 -0.50877,-0.50856 -0.555556,-1.98745 -0.642467,-20.307393 L 82.249768,78.32636 H 57.317354 32.384936 v 80.33472 80.33473 h 67.782424 67.78243 z m 0,-79.41545 V 83.661088 h -11.61088 -11.61088 v 32.635982 32.63598 h 11.61088 11.61088 z m -26.6182,-17.704212 c 0.0558,-9.737314 0.17207,-17.772319 0.25837,-17.855567 0.0863,-0.08324 6.05256,-0.255072 13.25837,-0.381836 l 13.10146,-0.230487 V 59.298884 38.472803 H 126.99791 86.046023 v 38.598326 38.598331 l 5.883892,0.0452 c 6.544042,0.0503 39.108415,0.42444 45.322175,0.52076 l 3.97804,0.0617 z M 260.83682,81.935144 v -0.784518 h -45.8159 -45.8159 v 0.784518 0.784519 h 45.8159 45.8159 z"
     id="path6045"
     inkscape:connector-curvature="0" /></svg>