<?xml version="1.0" encoding="UTF-8" standalone="no"?>
<!-- Created with Inkscape (http://www.inkscape.org/) -->

<svg
   width="300mm"
   height="300mm"
   viewBox="0 0 300 300.00001"
   version="1.1"
   id="svg8"
   inkscape:version="1.2 (dc2aedaf03, 2022-05-15)"
   sodipodi:docname="tree-blank-notime.svg"
   xml:space="preserve"
   xmlns:inkscape="http://www.inkscape.org/namespaces/inkscape"
   xmlns:sodipodi="http://sodipodi.sourceforge.net/DTD/sodipodi-0.dtd"
   xmlns="http://www.w3.org/2000/svg"
   xmlns:svg="http://www.w3.org/2000/svg"
   xmlns:rdf="http://www.w3.org/1999/02/22-rdf-syntax-ns#"
   xmlns:cc="http://creativecommons.org/ns#"
   xmlns:dc="http://purl.org/dc/elements/1.1/"><defs
     id="defs2"><marker
       inkscape:stockid="Arrow1Mstart"
       orient="auto"
       refY="0"
       refX="0"
       id="Arrow1Mstart"
       style="overflow:visible"
       inkscape:isstock="true"><path
         id="path1218"
         d="M 0,0 5,-5 -12.5,0 5,5 Z"
         style="fill:#000000;fill-opacity:1;fill-rule:evenodd;stroke:#000000;stroke-width:1pt;stroke-opacity:1"
         transform="matrix(0.4,0,0,0.4,4,0)" /></marker><marker
       inkscape:stockid="Arrow1Lstart"
       orient="auto"
       refY="0.0"
       refX="0.0"
       id="marker1765"
       style="overflow:visible"
       inkscape:isstock="true"><path
         id="path1763"
         d="M 0.0,0.0 L 5.0,-5.0 L -12.5,0.0 L 5.0,5.0 L 0.0,0.0 z "
         style="fill-rule:evenodd;stroke:#000000;stroke-width:1pt;stroke-opacity:1;fill:#000000;fill-opacity:1"
         transform="scale(0.8) translate(12.5,0)" /></marker><marker
       inkscape:stockid="StopS"
       orient="auto"
       refY="0.0"
       refX="0.0"
       id="StopS"
       style="overflow:visible"
       inkscape:isstock="true"><path
         id="path1042"
         d="M 0.0,5.65 L 0.0,-5.65"
         style="fill:none;fill-opacity:0.75;fill-rule:evenodd;stroke:#000000;stroke-width:1pt;stroke-opacity:1"
         transform="scale(0.2)" /></marker><marker
       inkscape:stockid="StopM"
       orient="auto"
       refY="0.0"
       refX="0.0"
       id="StopM"
       style="overflow:visible"
       inkscape:isstock="true"><path
         id="path1039"
         d="M 0.0,5.65 L 0.0,-5.65"
         style="fill:none;fill-opacity:0.75;fill-rule:evenodd;stroke:#000000;stroke-width:1pt;stroke-opacity:1"
         transform="scale(0.4)" /></marker><marker
       inkscape:stockid="Tail"
       orient="auto"
       refY="0.0"
       refX="0.0"
       id="Tail"
       style="overflow:visible"
       inkscape:isstock="true"><g
         id="g915"
         transform="scale(-1.2)"
         style="stroke:#000000;stroke-opacity:1;fill:#000000;fill-opacity:1"><path
           id="path903"
           d="M -3.8048674,-3.9585227 L 0.54352094,0"
           style="fill:#000000;fill-rule:evenodd;stroke:#000000;stroke-width:0.8;stroke-linecap:round;stroke-opacity:1;fill-opacity:1" /><path
           id="path905"
           d="M -1.2866832,-3.9585227 L 3.0617053,0"
           style="fill:#000000;fill-rule:evenodd;stroke:#000000;stroke-width:0.8;stroke-linecap:round;stroke-opacity:1;fill-opacity:1" /><path
           id="path907"
           d="M 1.3053582,-3.9585227 L 5.6537466,0"
           style="fill:#000000;fill-rule:evenodd;stroke:#000000;stroke-width:0.8;stroke-linecap:round;stroke-opacity:1;fill-opacity:1" /><path
           id="path909"
           d="M -3.8048674,4.1775838 L 0.54352094,0.21974226"
           style="fill:#000000;fill-rule:evenodd;stroke:#000000;stroke-width:0.8;stroke-linecap:round;stroke-opacity:1;fill-opacity:1" /><path
           id="path911"
           d="M -1.2866832,4.1775838 L 3.0617053,0.21974226"
           style="fill:#000000;fill-rule:evenodd;stroke:#000000;stroke-width:0.8;stroke-linecap:round;stroke-opacity:1;fill-opacity:1" /><path
           id="path913"
           d="M 1.3053582,4.1775838 L 5.6537466,0.21974226"
           style="fill:#000000;fill-rule:evenodd;stroke:#000000;stroke-width:0.8;stroke-linecap:round;stroke-opacity:1;fill-opacity:1" /></g></marker><marker
       inkscape:stockid="Arrow1Lstart"
       orient="auto"
       refY="0.0"
       refX="0.0"
       id="Arrow1Lstart"
       style="overflow:visible"
       inkscape:isstock="true"><path
         id="path867"
         d="M 0.0,0.0 L 5.0,-5.0 L -12.5,0.0 L 5.0,5.0 L 0.0,0.0 z "
         style="fill-rule:evenodd;stroke:#000000;stroke-width:1pt;stroke-opacity:1;fill:#000000;fill-opacity:1"
         transform="scale(0.8) translate(12.5,0)" /></marker><marker
       inkscape:stockid="StopL"
       orient="auto"
       refY="0.0"
       refX="0.0"
       id="StopL"
       style="overflow:visible"
       inkscape:isstock="true"><path
         id="path1036"
         d="M 0.0,5.65 L 0.0,-5.65"
         style="fill:none;fill-opacity:0.75;fill-rule:evenodd;stroke:#000000;stroke-width:1pt;stroke-opacity:1"
         transform="scale(0.8)" /></marker><clipPath
       clipPathUnits="userSpaceOnUse"
       id="clipPath4344"><rect
         style="fill:#00ff00;fill-opacity:0.41544201;stroke:none;stroke-width:0.264999;stroke-dasharray:none"
         id="rect4346"
         width="448.2951"
         height="200.26271"
         x="30.505629"
         y="54.441097" /></clipPath></defs><sodipodi:namedview
     id="base"
     pagecolor="#ffffff"
     bordercolor="#666666"
     borderopacity="1.0"
     inkscape:pageopacity="0.0"
     inkscape:pageshadow="2"
     inkscape:zoom="1"
     inkscape:cx="665.5"
     inkscape:cy="865.5"
     inkscape:document-units="mm"
     inkscape:current-layer="layer2"
     showgrid="false"
     units="mm"
     inkscape:pagecheckerboard="false"
     inkscape:window-width="1916"
     inkscape:window-height="1139"
     inkscape:window-x="0"
     inkscape:window-y="0"
     inkscape:window-maximized="1"
     inkscape:showpageshadow="0"
     inkscape:deskcolor="#d1d1d1"
     inkscape:snap-object-midpoints="true"
     inkscape:snap-center="false"
     inkscape:snap-grids="true"
     inkscape:snap-bbox="false"
     inkscape:snap-bbox-edge-midpoints="true"
     inkscape:bbox-paths="true"
     inkscape:bbox-nodes="true"
     inkscape:snap-bbox-midpoints="true"
     inkscape:snap-global="true"
     inkscape:object-nodes="true"
     inkscape:snap-others="true"
     inkscape:object-paths="true" /><metadata
     id="metadata5"><rdf:RDF><cc:Work
         rdf:about=""><dc:format>image/svg+xml</dc:format><dc:type
           rdf:resource="http://purl.org/dc/dcmitype/StillImage" /><dc:title /></cc:Work></rdf:RDF></metadata><g
     inkscape:label="Branches"
     inkscape:groupmode="layer"
     id="layer1"
     transform="translate(0,3.000061)"><flowRoot
   xml:space="preserve"
   id="flowRoot18"
   style="font-style:normal;font-variant:normal;font-weight:500;font-stretch:normal;font-size:40px;line-height:1.25;font-family:'CMU Sans Serif';-inkscape-font-specification:'CMU Sans Serif, Medium';font-variant-ligatures:normal;font-variant-caps:normal;font-variant-numeric:normal;font-feature-settings:normal;text-align:start;letter-spacing:0px;word-spacing:0px;writing-mode:lr-tb;text-anchor:start;fill:#000000;fill-opacity:1;stroke:none"><flowRegion
     id="flowRegion20"
     style="font-style:normal;font-variant:normal;font-weight:500;font-stretch:normal;font-size:40px;font-family:'CMU Sans Serif';-inkscape-font-specification:'CMU Sans Serif, Medium';font-variant-ligatures:normal;font-variant-caps:normal;font-variant-numeric:normal;font-feature-settings:normal;text-align:start;writing-mode:lr-tb;text-anchor:start"><rect
       id="rect22"
       width="1310"
       height="318"
       x="354"
       y="142"
       style="font-style:normal;font-variant:normal;font-weight:500;font-stretch:normal;font-size:40px;font-family:'CMU Sans Serif';-inkscape-font-specification:'CMU Sans Serif, Medium';font-variant-ligatures:normal;font-variant-caps:normal;font-variant-numeric:normal;font-feature-settings:normal;text-align:start;writing-mode:lr-tb;text-anchor:start" /></flowRegion><flowPara
     id="flowPara24" /></flowRoot>

<flowRoot
   xml:space="preserve"
   id="flowRoot4050"
   style="font-style:normal;font-variant:normal;font-weight:500;font-stretch:normal;font-size:48px;line-height:1.25;font-family:'CMU Sans Serif';-inkscape-font-specification:'CMU Sans Serif, Medium';font-variant-ligatures:normal;font-variant-caps:normal;font-variant-numeric:normal;font-feature-settings:normal;text-align:start;letter-spacing:0px;word-spacing:0px;writing-mode:lr-tb;text-anchor:start;fill:#000000;fill-opacity:1;stroke:none"><flowRegion
     id="flowRegion4052"><rect
       id="rect4054"
       width="528"
       height="114"
       x="716"
       y="168" /></flowRegion><flowPara
     id="flowPara4056" /></flowRoot><path
   style="fill:none;stroke:#000000;stroke-width:2;stroke-linecap:butt;stroke-linejoin:round;stroke-miterlimit:4;stroke-dasharray:none;stroke-opacity:1"
   d="m 260.94272,169.67751 h -40.21667 v 0.52917 z"
   id="path5059"
   inkscape:connector-curvature="0" /><path
   style="fill:none;stroke:#000000;stroke-width:2.30089498;stroke-linecap:butt;stroke-linejoin:round;stroke-miterlimit:4;stroke-dasharray:none;stroke-opacity:1"
   d="m 265.54675,215.04484 h -71.4375 z"
   id="path5061"
   inkscape:connector-curvature="0" /><path
   style="fill:none;stroke:#000000;stroke-width:2;stroke-linecap:butt;stroke-linejoin:round;stroke-miterlimit:4;stroke-dasharray:none;stroke-opacity:1"
   d="m 260.94272,124.43269 h -40.21667 v 0.52917 z"
   id="path5059-5"
   inkscape:connector-curvature="0" /><path
   style="fill:none;stroke:#000000;stroke-width:2.30089498;stroke-linecap:butt;stroke-linejoin:round;stroke-miterlimit:4;stroke-dasharray:none;stroke-opacity:1"
   d="m 265.54675,260.28966 h -71.4375 z"
   id="path5061-1"
   inkscape:connector-curvature="0" /><path
   style="fill:none;stroke:#000000;stroke-width:2;stroke-linecap:butt;stroke-linejoin:round;stroke-miterlimit:4;stroke-dasharray:none;stroke-opacity:1"
   d="M 220.72605,147.58427 H 143.03347 V 78.923342 h 126.64051"
   id="path5142-1"
   inkscape:connector-curvature="0"
   sodipodi:nodetypes="cccc" /><path
   style="fill:none;stroke:#000000;stroke-width:2;stroke-linecap:butt;stroke-linejoin:round;stroke-miterlimit:4;stroke-dasharray:none;stroke-opacity:1"
   d="M 142.87499,114.9666 84.137499,114.43744 V 33.678524 H 269.67397"
   id="path5180"
   inkscape:connector-curvature="0"
   sodipodi:nodetypes="cccc" /><path
   transform="translate(0,-3.000061)"
   style="fill:none;stroke:#000000;stroke-width:2;stroke-linecap:butt;stroke-linejoin:round;stroke-miterlimit:4;stroke-dasharray:none;stroke-opacity:1"
   d="m 220.72605,127.96192 v 45.24482 z"
   id="path5100"
   inkscape:connector-curvature="0" /><path
   style="fill:none;stroke:#000000;stroke-width:2;stroke-linecap:butt;stroke-linejoin:round;stroke-opacity:1;stroke-miterlimit:4;stroke-dasharray:none"
   d="m 194.10925,218.0449 v 45.24482"
   id="path5102"
   inkscape:connector-curvature="0"
   transform="translate(0,-3.000061)" /><path
   transform="translate(0,-3.000061)"
   style="fill:none;stroke:#000000;stroke-width:2;stroke-linecap:butt;stroke-linejoin:round;stroke-miterlimit:4;stroke-dasharray:none;stroke-opacity:1"
   d="M 84.387197,76.559168 H 30.691666 V 240.66731 H 194.10925"
   id="path5221"
   inkscape:connector-curvature="0"
   sodipodi:nodetypes="cccc" /><path
   transform="translate(0,-3.000061)"
   style="fill:none;stroke:#000000;stroke-width:2;stroke-linecap:butt;stroke-linejoin:round;stroke-opacity:1;stroke-miterlimit:4;stroke-dasharray:none"
   d="M 30.691666,158.61324 H 10.583333"
   id="path5238"
   inkscape:connector-curvature="0" /><path
   style="fill:#1c5d99;fill-opacity:0;stroke:#1c5d99;stroke-width:3.77952761;stroke-linecap:butt;stroke-linejoin:miter;stroke-miterlimit:4;stroke-dasharray:none;stroke-dashoffset:0;stroke-opacity:0;paint-order:normal"
   d="m 1008.5402,1026.5403 c -4.9188,-1.5084 -11.75745,-5.8007 -15.23086,-9.5596 -3.22374,-3.4887 -6.28335,-10.6061 -6.28335,-14.6166 v -3.00325 H 860.21627 c -69.74535,0 -127.65396,-0.32395 -128.6858,-0.71991 -1.66251,-0.63796 -1.87607,-5.56582 -1.87607,-43.29062 V 912.77963 H 683.9917 638.329 v -3.55814 -3.55813 h 45.64772 45.64772 l 0.31149,-42.40108 0.31149,-42.40108 127.775,-0.30183 127.77501,-0.30182 0.54595,-2.66329 c 0.30027,-1.4648 0.84511,-4.5313 1.21075,-6.81444 1.01785,-6.35557 4.68069,-11.35722 11.75887,-16.05687 8.8061,-5.84693 18.8832,-7.60816 28.1073,-4.91246 7.9657,2.32795 15.437,7.15871 19.4189,12.5558 5.9267,8.0333 6.9681,26.91988 2.0142,36.53285 -11.792,22.88259 -49.14666,23.47118 -59.57883,0.93877 -1.20806,-2.6093 -2.2082,-6.21191 -2.22253,-8.0058 l -0.0261,-3.26162 H 861.8901 736.7542 l 0.30475,80.94751 0.30474,80.94752 123.86821,0.30203 c 98.31086,0.23972 124.06315,-0.005 124.81299,-1.18605 0.51963,-0.81844 0.96468,-3.08923 0.98899,-5.0462 0.21994,-17.70138 26.64402,-30.46018 45.68252,-22.05771 7.0125,3.09492 14.2532,9.7734 16.8423,15.53447 2.765,6.15231 2.7394,25.33444 -0.041,30.96474 -5.1709,10.4701 -16.3888,17.5255 -29.1016,18.3032 -4.3395,0.2654 -9.6835,-0.067 -11.8757,-0.7397 z"
   id="path6051"
   inkscape:connector-curvature="0"
   transform="matrix(0.26458333,0,0,0.26458333,0,-3.000061)" /><path
   style="fill:#1c5d99;fill-opacity:0;stroke:#1c5d99;stroke-width:4.482687;stroke-linecap:butt;stroke-linejoin:miter;stroke-miterlimit:4;stroke-dasharray:none;stroke-dashoffset:0;stroke-opacity:0;paint-order:normal"
   d="m 1008.5402,1026.5403 c -4.9188,-1.5084 -11.75745,-5.8007 -15.23086,-9.5596 -3.22374,-3.4887 -6.28335,-10.6061 -6.28335,-14.6166 v -3.00325 H 860.21627 c -69.74535,0 -127.65396,-0.32395 -128.6858,-0.71991 -1.66251,-0.63796 -1.87607,-5.56582 -1.87607,-43.29062 V 912.77963 H 683.9917 638.329 v -3.55814 -3.55813 h 45.64772 45.64772 l 0.31149,-42.40108 0.31149,-42.40108 127.775,-0.30183 127.77501,-0.30182 0.54595,-2.66329 c 0.30027,-1.4648 0.84511,-4.5313 1.21075,-6.81444 1.01785,-6.35557 4.68069,-11.35722 11.75887,-16.05687 8.8061,-5.84693 18.8832,-7.60816 28.1073,-4.91246 7.9657,2.32795 15.437,7.15871 19.4189,12.5558 5.9267,8.0333 6.9681,26.91988 2.0142,36.53285 -11.792,22.88259 -49.14666,23.47118 -59.57883,0.93877 -1.20806,-2.6093 -2.2082,-6.21191 -2.22253,-8.0058 l -0.0261,-3.26162 H 861.8901 736.7542 l 0.30475,80.94751 0.30474,80.94752 123.86821,0.30203 c 98.31086,0.23972 124.06315,-0.005 124.81299,-1.18605 0.51963,-0.81844 0.96468,-3.08923 0.98899,-5.0462 0.21994,-17.70138 26.64402,-30.46018 45.68252,-22.05771 7.0125,3.09492 14.2532,9.7734 16.8423,15.53447 2.765,6.15231 2.7394,25.33444 -0.041,30.96474 -5.1709,10.4701 -16.3888,17.5255 -29.1016,18.3032 -4.3395,0.2654 -9.6835,-0.067 -11.8757,-0.7397 z"
   id="path6071"
   inkscape:connector-curvature="0"
   transform="matrix(0.26458333,0,0,0.26458333,0,-3.000061)" /><path
   style="fill:#1c5d99;fill-opacity:0;stroke:#1c5d99;stroke-width:3.77952761;stroke-linecap:butt;stroke-linejoin:miter;stroke-miterlimit:4;stroke-dasharray:none;stroke-dashoffset:0;stroke-opacity:0;paint-order:normal"
   d="m 1006.5866,1025.7672 c -11.55508,-4.1369 -17.84153,-11.2611 -19.25845,-21.825 l -0.61308,-4.5708 -128.23381,-0.30178 -128.23384,-0.30179 -0.31149,-42.40108 -0.31149,-42.40108 H 683.97672 638.329 v -4.15115 -4.15116 h 45.64772 45.64772 l 0.31149,-42.40108 0.31149,-42.40108 127.67048,-0.30181 127.67047,-0.30182 1.30353,-7.40747 c 1.47466,-8.37984 3.52842,-11.67749 10.70098,-17.18211 12.70322,-9.7492 29.55762,-9.48813 43.53722,0.67436 13.3197,9.68277 15.0769,37.03246 3.1686,49.31755 -13.5737,14.00323 -37.6562,14.53294 -50.39003,1.10836 -3.72354,-3.92552 -6.88267,-10.8998 -6.88267,-15.19457 v -3.0032 H 862.49135 737.95671 v 81.24403 81.24402 H 861.82566 985.6946 l 0.82155,-5.63371 c 2.24046,-15.36372 14.70715,-25.34962 31.94005,-25.58412 9.7854,-0.13317 18.8703,3.42188 25.3801,9.93165 5.3016,5.30168 7.3173,10.45293 8.0905,20.67636 1.2368,16.35388 -5.1993,28.25588 -18.4491,34.11688 -7.627,3.3738 -19.3594,3.898 -26.8911,1.2016 z"
   id="path6163"
   inkscape:connector-curvature="0"
   transform="matrix(0.26458333,0,0,0.26458333,0,-3.000061)" /><path
   style="fill:#1c5d99;fill-opacity:0;stroke:#1c5d99;stroke-width:4.482687;stroke-linecap:butt;stroke-linejoin:miter;stroke-miterlimit:4;stroke-dasharray:none;stroke-dashoffset:0;stroke-opacity:0;paint-order:normal"
   d="m 1008.5402,1026.5403 c -4.9188,-1.5084 -11.75745,-5.8007 -15.23086,-9.5596 -3.22374,-3.4887 -6.28334,-10.6061 -6.28334,-14.6166 v -3.00325 H 860.21627 c -69.74535,0 -127.65396,-0.32395 -128.6858,-0.71991 -1.66251,-0.63796 -1.87607,-5.56582 -1.87607,-43.29062 V 912.77963 H 683.9917 638.329 v -3.55814 -3.55813 h 45.64772 45.64772 l 0.31149,-42.40108 0.31149,-42.40108 127.775,-0.30183 127.77501,-0.30182 0.54595,-2.66329 c 0.30027,-1.4648 0.84512,-4.5313 1.21075,-6.81444 1.01785,-6.35557 4.68069,-11.35722 11.75887,-16.05687 8.8061,-5.84693 18.8832,-7.60816 28.1073,-4.91246 7.9657,2.32795 15.437,7.15871 19.4189,12.5558 5.9267,8.0333 6.9681,26.91988 2.0142,36.53285 -11.792,22.88259 -49.14666,23.47118 -59.57883,0.93877 -1.20806,-2.6093 -2.2082,-6.21191 -2.22253,-8.0058 l -0.026,-3.26162 H 861.8901 736.75421 l 0.30474,80.94751 0.30474,80.94752 123.86822,0.30203 c 98.31086,0.23972 124.06314,-0.005 124.81298,-1.18605 0.51963,-0.81844 0.96468,-3.08923 0.98899,-5.0462 0.21994,-17.70138 26.64402,-30.46018 45.68252,-22.05771 7.0125,3.09492 14.2532,9.7734 16.8423,15.53447 2.765,6.15231 2.7394,25.33444 -0.041,30.96474 -5.1709,10.4701 -16.3888,17.5255 -29.1016,18.3032 -4.3395,0.2654 -9.6835,-0.067 -11.8757,-0.7397 z"
   id="path6167"
   inkscape:connector-curvature="0"
   transform="matrix(0.26458333,0,0,0.26458333,0,-3.000061)" /></g><g
     inkscape:groupmode="layer"
     id="layer2"
     inkscape:label="Leaf Nodes"
     style="opacity:1"><rect
   transform="translate(0,3.0000609)"
   id="rect4170"
   width="17.4625"
   height="17.4625"
   x="260.94272"
   y="24.947273"
   style="fill:#639fab;fill-opacity:1;stroke-width:0.26458332" /><path
   transform="translate(0,3.0000609)"
   style="fill:#1c5d99;fill-opacity:1;stroke:none;stroke-width:0.52916664;stroke-opacity:1"
   d="m 265.54675,222.98239 c -3.46015,-1.61865 -4.71015,-3.8413 -4.71015,-8.37523 0,-4.38822 0.87719,-6.02001 4.28308,-7.96759 3.90903,-2.23529 9.30327,-1.05669 12.03705,2.63001 1.51964,2.04934 1.82436,7.03733 0.58896,9.64073 -1.98612,4.18546 -7.80465,6.12772 -12.19894,4.07208 z"
   id="path4176"
   inkscape:connector-curvature="0" /><rect
   transform="translate(0,3.0000609)"
   id="rect4170-8"
   width="17.4625"
   height="17.4625"
   x="260.94272"
   y="115.43691"
   style="fill:#639fab;fill-opacity:1;stroke-width:0.26458332" /><rect
   transform="translate(0,3.0000609)"
   id="rect4170-0"
   width="17.4625"
   height="17.4625"
   x="260.94272"
   y="160.68173"
   style="fill:#639fab;fill-opacity:1;stroke-width:0.26458332" /><path
   transform="translate(0,3.0000609)"
   style="fill:#1c5d99;fill-opacity:1;stroke:none;stroke-width:0.52916664;stroke-opacity:1"
   d="m 265.54675,87.247928 c -3.46015,-1.61866 -4.71015,-3.84131 -4.71015,-8.37523 0,-4.38822 0.87719,-6.02001 4.28308,-7.9676 3.90903,-2.23529 9.30327,-1.05668 12.03705,2.63002 1.51964,2.04933 1.82436,7.03732 0.58896,9.64072 -1.98612,4.18546 -7.80465,6.12773 -12.19894,4.07209 z"
   id="path4176-1"
   inkscape:connector-curvature="0" /><path
   transform="translate(0,3.0000609)"
   style="fill:#1c5d99;fill-opacity:1;stroke:none;stroke-width:0.52916664;stroke-opacity:1"
   d="m 265.54675,268.22721 c -3.46015,-1.61865 -4.71015,-3.84131 -4.71015,-8.37523 0,-4.38822 0.87719,-6.02001 4.28308,-7.9676 3.90903,-2.23529 9.30327,-1.05668 12.03705,2.63002 1.51964,2.04933 1.82436,7.03733 0.58896,9.64072 -1.98612,4.18546 -7.80465,6.12773 -12.19894,4.07209 z"
   id="path4176-0"
   inkscape:connector-curvature="0" />



</g><path
     style="fill:#1c5d99;fill-opacity:0;stroke:#1c5d99;stroke-width:5.31646633;stroke-linecap:butt;stroke-linejoin:miter;stroke-miterlimit:4;stroke-dasharray:none;stroke-dashoffset:0;stroke-opacity:0;paint-order:normal"
     d="m 1007.6213,342.18674 c -6.1857,-1.79276 -14.93706,-8.48505 -17.40493,-13.30978 -1.27162,-2.48604 -2.57908,-6.88923 -2.90545,-9.78486 l -0.59342,-5.2648 H 812.52325 638.329 v -4.14722 -4.14721 l 174.05198,-0.30045 174.05199,-0.30045 0.31153,-2.96511 c 1.14517,-10.89963 9.06941,-20.4567 20.0694,-24.20476 16.6636,-5.67786 36.48,1.94954 42.4988,16.35792 3.0309,7.25549 3.5857,19.27078 1.2595,27.2727 -4.7011,16.17133 -24.9973,25.99739 -42.9509,20.79402 z"
     id="path6019"
     inkscape:connector-curvature="0"
     transform="scale(0.26458333)" /><path
     style="fill:#1c5d99;fill-opacity:0;stroke:#1c5d99;stroke-width:5.31646633;stroke-linecap:butt;stroke-linejoin:miter;stroke-miterlimit:4;stroke-dasharray:none;stroke-dashoffset:0;stroke-opacity:0;paint-order:normal"
     d="m 1007.6213,342.18674 c -6.1857,-1.79276 -14.93706,-8.48505 -17.40493,-13.30978 -1.27162,-2.48604 -2.57908,-6.88923 -2.90545,-9.78486 l -0.59342,-5.2648 H 812.52325 638.329 v -4.14722 -4.14721 l 174.05198,-0.30045 174.05199,-0.30045 0.31153,-2.96511 c 1.14517,-10.89963 9.06941,-20.4567 20.0694,-24.20476 16.6636,-5.67786 36.48,1.94954 42.4988,16.35792 3.0309,7.25549 3.5857,19.27078 1.2595,27.2727 -4.7011,16.17133 -24.9973,25.99739 -42.9509,20.79402 z"
     id="path6021"
     inkscape:connector-curvature="0"
     transform="scale(0.26458333)" /><path
     style="fill:#1c5d99;fill-opacity:0;stroke:#1c5d99;stroke-width:5.31646633;stroke-linecap:butt;stroke-linejoin:miter;stroke-miterlimit:4;stroke-dasharray:none;stroke-dashoffset:0;stroke-opacity:0;paint-order:normal"
     d="m 1007.6213,342.18674 c -6.1857,-1.79276 -14.93706,-8.48505 -17.40493,-13.30978 -1.27162,-2.48604 -2.57908,-6.88923 -2.90545,-9.78486 l -0.59342,-5.2648 H 812.52325 638.329 v -4.14722 -4.14721 l 174.05198,-0.30045 174.05199,-0.30045 0.31153,-2.96511 c 1.14517,-10.89963 9.06941,-20.4567 20.0694,-24.20476 16.6636,-5.67786 36.48,1.94954 42.4988,16.35792 3.0309,7.25549 3.5857,19.27078 1.2595,27.2727 -4.7011,16.17133 -24.9973,25.99739 -42.9509,20.79402 z"
     id="path6023"
     inkscape:connector-curvature="0"
     transform="scale(0.26458333)" /><path
     style="fill:#1c5d99;fill-opacity:0;stroke:#1c5d99;stroke-width:5.31646633;stroke-linecap:butt;stroke-linejoin:miter;stroke-miterlimit:4;stroke-dasharray:none;stroke-dashoffset:0;stroke-opacity:0;paint-order:normal"
     d="m 1007.6213,342.18674 c -6.1857,-1.79276 -14.93706,-8.48505 -17.40493,-13.30978 -1.27162,-2.48604 -2.57908,-6.88923 -2.90545,-9.78486 l -0.59342,-5.2648 H 812.52325 638.329 v -4.14722 -4.14721 l 174.05198,-0.30045 174.05199,-0.30045 0.31153,-2.96511 c 1.14517,-10.89963 9.06941,-20.4567 20.0694,-24.20476 16.6636,-5.67786 36.48,1.94954 42.4988,16.35792 3.0309,7.25549 3.5857,19.27078 1.2595,27.2727 -4.7011,16.17133 -24.9973,25.99739 -42.9509,20.79402 z"
     id="path6025"
     inkscape:connector-curvature="0"
     transform="scale(0.26458333)" /><path
     style="fill:#1c5d99;fill-opacity:0;stroke:#1c5d99;stroke-width:5.31646633;stroke-linecap:butt;stroke-linejoin:miter;stroke-miterlimit:4;stroke-dasharray:none;stroke-dashoffset:0;stroke-opacity:0;paint-order:normal"
     d="m 1007.6213,342.18674 c -6.1857,-1.79276 -14.93706,-8.48505 -17.40493,-13.30978 -1.27162,-2.48604 -2.57908,-6.88923 -2.90545,-9.78486 l -0.59342,-5.2648 H 812.52325 638.329 v -4.14722 -4.14721 l 174.05198,-0.30045 174.05199,-0.30045 0.31153,-2.96511 c 1.14517,-10.89963 9.06941,-20.4567 20.0694,-24.20476 16.6636,-5.67786 36.48,1.94954 42.4988,16.35792 3.0309,7.25549 3.5857,19.27078 1.2595,27.2727 -4.7011,16.17133 -24.9973,25.99739 -42.9509,20.79402 z"
     id="path6027"
     inkscape:connector-curvature="0"
     transform="scale(0.26458333)" /><path
     style="fill:#1c5d99;fill-opacity:0;stroke:#1c5d99;stroke-width:5.31646633;stroke-linecap:butt;stroke-linejoin:miter;stroke-miterlimit:4;stroke-dasharray:none;stroke-dashoffset:0;stroke-opacity:0;paint-order:normal"
     d="m 1007.6213,342.18674 c -6.1857,-1.79276 -14.93706,-8.48505 -17.40493,-13.30978 -1.27162,-2.48604 -2.57908,-6.88923 -2.90545,-9.78486 l -0.59342,-5.2648 H 812.52325 638.329 v -4.14722 -4.14721 l 174.05198,-0.30045 174.05199,-0.30045 0.31153,-2.96511 c 1.14517,-10.89963 9.06941,-20.4567 20.0694,-24.20476 16.6636,-5.67786 36.48,1.94954 42.4988,16.35792 3.0309,7.25549 3.5857,19.27078 1.2595,27.2727 -4.7011,16.17133 -24.9973,25.99739 -42.9509,20.79402 z"
     id="path6029"
     inkscape:connector-curvature="0"
     transform="scale(0.26458333)" /><path
     style="fill:#1c5d99;fill-opacity:0;stroke:#1c5d99;stroke-width:5.31646633;stroke-linecap:butt;stroke-linejoin:miter;stroke-miterlimit:4;stroke-dasharray:none;stroke-dashoffset:0;stroke-opacity:0;paint-order:normal"
     d="m 1007.6213,342.18674 c -6.1857,-1.79276 -14.93706,-8.48505 -17.40493,-13.30978 -1.27162,-2.48604 -2.57908,-6.88923 -2.90545,-9.78486 l -0.59342,-5.2648 H 812.52325 638.329 v -4.14722 -4.14721 l 174.05198,-0.30045 174.05199,-0.30045 0.31153,-2.96511 c 1.14517,-10.89963 9.06941,-20.4567 20.0694,-24.20476 16.6636,-5.67786 36.48,1.94954 42.4988,16.35792 3.0309,7.25549 3.5857,19.27078 1.2595,27.2727 -4.7011,16.17133 -24.9973,25.99739 -42.9509,20.79402 z"
     id="path6031"
     inkscape:connector-curvature="0"
     transform="scale(0.26458333)" /><path
     style="fill:#1c5d99;fill-opacity:0;stroke:#1c5d99;stroke-width:5.31646633;stroke-linecap:butt;stroke-linejoin:miter;stroke-miterlimit:4;stroke-dasharray:none;stroke-dashoffset:0;stroke-opacity:0;paint-order:normal"
     d="m 1007.6213,342.18674 c -6.1857,-1.79276 -14.93706,-8.48505 -17.40493,-13.30978 -1.27162,-2.48604 -2.57908,-6.88923 -2.90545,-9.78486 l -0.59342,-5.2648 H 812.52325 638.329 v -4.14722 -4.14721 l 174.05198,-0.30045 174.05199,-0.30045 0.31153,-2.96511 c 1.14517,-10.89963 9.06941,-20.4567 20.0694,-24.20476 16.6636,-5.67786 36.48,1.94954 42.4988,16.35792 3.0309,7.25549 3.5857,19.27078 1.2595,27.2727 -4.7011,16.17133 -24.9973,25.99739 -42.9509,20.79402 z"
     id="path6033"
     inkscape:connector-curvature="0"
     transform="scale(0.26458333)" /><path
     style="fill:#1c5d99;fill-opacity:0;stroke:#1c5d99;stroke-width:3.77952761;stroke-linecap:butt;stroke-linejoin:miter;stroke-miterlimit:4;stroke-dasharray:none;stroke-dashoffset:0;stroke-opacity:0;paint-order:normal"
     d="m 1007.6213,342.18674 c -6.1857,-1.79276 -14.93706,-8.48505 -17.40493,-13.30978 -1.27162,-2.48604 -2.57908,-6.88923 -2.90545,-9.78486 l -0.59342,-5.2648 H 812.52325 638.329 v -4.14722 -4.14721 l 174.05198,-0.30045 174.05199,-0.30045 0.31153,-2.96511 c 1.14517,-10.89963 9.06941,-20.4567 20.0694,-24.20476 16.6636,-5.67786 36.48,1.94954 42.4988,16.35792 3.0309,7.25549 3.5857,19.27078 1.2595,27.2727 -4.7011,16.17133 -24.9973,25.99739 -42.9509,20.79402 z"
     id="path6035"
     inkscape:connector-curvature="0"
     transform="scale(0.26458333)" /><path
     style="fill:#1c5d99;fill-opacity:0;stroke:#1c5d99;stroke-width:4.482687;stroke-linecap:butt;stroke-linejoin:miter;stroke-miterlimit:4;stroke-dasharray:none;stroke-dashoffset:0;stroke-opacity:0;paint-order:normal"
     d="M 634.77086,999.36085 V 916.33776 H 398.9393 c -227.93676,0 -284.17144,-0.49206 -287.44586,-2.51514 -1.25618,-0.77612 -1.6165,-29.8491 -1.91595,-154.59217 L 109.20868,605.59418 H 73.106628 37.004579 v -6.52325 -6.52324 h 36.091582 36.091579 l 0.37928,-153.4943 c 0.2086,-84.42185 0.64614,-153.74947 0.9723,-154.06136 0.32616,-0.3119 45.5362,-0.95975 100.46676,-1.43967 l 99.87373,-0.87259 0.347,-73.42337 c 0.27849,-58.92442 0.6535,-73.61269 1.89913,-74.38209 3.14603,-1.94321 44.18231,-2.51178 181.28811,-2.51178 H 634.77086 V 93.223075 c 0,-38.348763 0.0479,-39.139459 2.37209,-39.139459 2.32934,0 2.37209,0.790696 2.37209,43.883636 V 141.85089 H 812.67749 985.83995 V 123.4672 105.08352 h 33.20925 33.2092 v 33.80226 33.80226 h -33.2092 -33.20925 V 157.86248 143.03693 H 812.67749 639.51504 v 81.24403 81.24403 h 172.99725 172.99725 l 0.6948,-5.86646 c 0.95712,-8.08147 3.49979,-12.44227 10.05271,-17.24092 14.78905,-10.82988 33.55535,-10.25926 46.54005,1.41514 7.6098,6.84182 10.052,13.2736 10.0383,26.43642 -0.012,11.82251 -2.7645,18.85828 -9.7891,25.026 -7.4343,6.52741 -13.8251,8.75162 -25.1832,8.76467 -8.9697,0.0107 -10.7817,-0.37635 -16.4333,-3.50667 -9.91283,-5.49063 -15.58985,-14.08518 -15.58985,-23.60185 V 313.8273 H 812.67749 639.51504 v 124.53464 124.53464 h 94.29051 94.29052 l 0.0181,-41.21503 c 0.009,-22.73117 0.50297,-41.98126 1.09919,-42.92356 1.87551,-2.9642 15.05332,-3.50494 86.94643,-3.56777 l 69.68011,-0.0609 v -14.23253 -14.23253 h 33.2093 33.2092 v 33.80226 33.80226 h -33.2092 -33.2093 V 501.16583 488.0629 l -61.37779,0.68659 c -33.75778,0.37761 -66.3147,0.98655 -72.3487,1.35318 l -10.9709,0.66659 v 77.5752 77.57522 h 72.34869 72.3487 v -13.63951 -13.63951 h 33.2093 33.2092 v 33.20924 33.20924 h -33.2092 -33.2093 V 671.8843 658.70945 l -40.62201,0.84243 c -72.68917,1.50745 -113.25186,1.38499 -114.9863,-0.34714 -1.19258,-1.19099 -1.61988,-10.81084 -1.88339,-42.40108 l -0.34084,-40.86059 h -94.24619 -94.24618 v 168.40419 168.40417 l 45.36619,0.32513 45.36619,0.32512 -45.36619,0.282 -45.36619,0.28199 v 84.20914 c 0,83.41839 -0.0223,84.20909 -2.37209,84.20909 -2.34949,0 -2.37209,-0.7907 -2.37209,-83.02305 z m 0,-259.65999 V 576.11043 l -47.9937,-0.38018 c -44.18474,-0.35003 -48.1617,-0.54821 -50.11037,-2.49708 -1.96445,-1.96463 -2.14365,-6.36875 -2.49181,-61.2403 l -0.37513,-59.12345 -46.47362,-0.69523 c -177.71151,-2.65852 -171.46082,-2.48916 -173.67847,-4.70592 -1.92291,-1.92213 -2.09974,-7.51164 -2.42822,-76.75237 l -0.35427,-74.67926 h -94.23275 -94.23276 v 303.62731 303.62732 h 256.18555 256.18555 z m 0,-300.15287 v -123.3486 h -43.88363 -43.88364 v 123.3486 123.34859 h 43.88364 43.88363 z m -100.6042,-66.91356 c 0.2109,-36.80245 0.65033,-67.17097 0.97649,-67.48561 0.32616,-0.31462 22.87583,-0.96405 50.11037,-1.44316 l 49.51734,-0.87113 V 224.12177 145.40902 H 479.99209 325.21332 V 291.29246 437.1759 l 22.23833,0.17082 c 24.73339,0.19 147.81133,1.60418 171.29643,1.96821 l 15.03509,0.23306 z m 451.67329,-62.95829 v -2.96511 H 812.67749 639.51504 v 2.96511 2.96511 h 173.16245 173.16246 z"
     id="path6037"
     inkscape:connector-curvature="0"
     transform="scale(0.26458333)" /><path
     style="fill:#1c5d99;fill-opacity:0;stroke:#1c5d99;stroke-width:4.482687;stroke-linecap:butt;stroke-linejoin:miter;stroke-miterlimit:4;stroke-dasharray:none;stroke-dashoffset:0;stroke-opacity:0;paint-order:normal"
     d="M 634.77086,999.36085 V 916.33776 H 398.9393 c -227.93676,0 -284.17144,-0.49206 -287.44586,-2.51514 -1.25618,-0.77612 -1.6165,-29.8491 -1.91595,-154.59217 L 109.20868,605.59418 H 73.106628 37.004579 v -6.52325 -6.52324 h 36.091582 36.091579 l 0.37928,-153.4943 c 0.2086,-84.42185 0.64614,-153.74947 0.9723,-154.06136 0.32616,-0.3119 45.5362,-0.95975 100.46676,-1.43967 l 99.87373,-0.87259 0.347,-73.42337 c 0.27849,-58.92442 0.6535,-73.61269 1.89913,-74.38209 3.14603,-1.94321 44.18231,-2.51178 181.28811,-2.51178 H 634.77086 V 93.223075 c 0,-38.348763 0.0479,-39.139459 2.37209,-39.139459 2.32934,0 2.37209,0.790696 2.37209,43.883636 V 141.85089 H 812.67749 985.83995 V 123.4672 105.08352 h 33.20925 33.2092 v 33.80226 33.80226 h -33.2092 -33.20925 V 157.86248 143.03693 H 812.67749 639.51504 v 81.24403 81.24403 h 172.99725 172.99725 l 0.6948,-5.86646 c 0.95712,-8.08147 3.49979,-12.44227 10.05271,-17.24092 14.78905,-10.82988 33.55535,-10.25926 46.54005,1.41514 7.6098,6.84182 10.052,13.2736 10.0383,26.43642 -0.012,11.82251 -2.7645,18.85828 -9.7891,25.026 -7.4343,6.52741 -13.8251,8.75162 -25.1832,8.76467 -8.9697,0.0107 -10.7817,-0.37635 -16.4333,-3.50667 -9.91283,-5.49063 -15.58985,-14.08518 -15.58985,-23.60185 V 313.8273 H 812.67749 639.51504 v 124.53464 124.53464 h 94.29051 94.29052 l 0.0181,-41.21503 c 0.009,-22.73117 0.50297,-41.98126 1.09919,-42.92356 1.87551,-2.9642 15.05332,-3.50494 86.94643,-3.56777 l 69.68011,-0.0609 v -14.23253 -14.23253 h 33.2093 33.2092 v 33.80226 33.80226 h -33.2092 -33.2093 V 501.16583 488.0629 l -61.37779,0.68659 c -33.75778,0.37761 -66.3147,0.98655 -72.3487,1.35318 l -10.9709,0.66659 v 77.5752 77.57522 h 72.34869 72.3487 v -13.63951 -13.63951 h 33.2093 33.2092 v 33.20924 33.20924 h -33.2092 -33.2093 V 671.8843 658.70945 l -40.62201,0.84243 c -72.68917,1.50745 -113.25186,1.38499 -114.9863,-0.34714 -1.19258,-1.19099 -1.61988,-10.81084 -1.88339,-42.40108 l -0.34084,-40.86059 h -94.24619 -94.24618 v 168.40419 168.40417 l 45.36619,0.32513 45.36619,0.32512 -45.36619,0.282 -45.36619,0.28199 v 84.20914 c 0,83.41839 -0.0223,84.20909 -2.37209,84.20909 -2.34949,0 -2.37209,-0.7907 -2.37209,-83.02305 z m 0,-259.65999 V 576.11043 l -47.9937,-0.38018 c -44.18474,-0.35003 -48.1617,-0.54821 -50.11037,-2.49708 -1.96445,-1.96463 -2.14365,-6.36875 -2.49181,-61.2403 l -0.37513,-59.12345 -46.47362,-0.69523 c -177.71151,-2.65852 -171.46082,-2.48916 -173.67847,-4.70592 -1.92291,-1.92213 -2.09974,-7.51164 -2.42822,-76.75237 l -0.35427,-74.67926 h -94.23275 -94.23276 v 303.62731 303.62732 h 256.18555 256.18555 z m 0,-300.15287 v -123.3486 h -43.88363 -43.88364 v 123.3486 123.34859 h 43.88364 43.88363 z m -100.6042,-66.91356 c 0.2109,-36.80245 0.65033,-67.17097 0.97649,-67.48561 0.32616,-0.31462 22.87583,-0.96405 50.11037,-1.44316 l 49.51734,-0.87113 V 224.12177 145.40902 H 479.99209 325.21332 V 291.29246 437.1759 l 22.23833,0.17082 c 24.73339,0.19 147.81133,1.60418 171.29643,1.96821 l 15.03509,0.23306 z m 451.67329,-62.95829 v -2.96511 H 812.67749 639.51504 v 2.96511 2.96511 h 173.16245 173.16246 z"
     id="path6039"
     inkscape:connector-curvature="0"
     transform="scale(0.26458333)" /><path
     style="fill:#1c5d99;fill-opacity:0;stroke:#1c5d99;stroke-width:4.482687;stroke-linecap:butt;stroke-linejoin:miter;stroke-miterlimit:4;stroke-dasharray:none;stroke-dashoffset:0;stroke-opacity:0;paint-order:normal"
     d="M 634.77086,999.36085 V 916.33776 H 398.9393 c -227.93676,0 -284.17144,-0.49206 -287.44586,-2.51514 -1.25618,-0.77612 -1.6165,-29.8491 -1.91595,-154.59217 L 109.20868,605.59418 H 73.106628 37.004579 v -6.52325 -6.52324 h 36.091582 36.091579 l 0.37928,-153.4943 c 0.2086,-84.42185 0.64614,-153.74947 0.9723,-154.06136 0.32616,-0.3119 45.5362,-0.95975 100.46676,-1.43967 l 99.87373,-0.87259 0.347,-73.42337 c 0.27849,-58.92442 0.6535,-73.61269 1.89913,-74.38209 3.14603,-1.94321 44.18231,-2.51178 181.28811,-2.51178 H 634.77086 V 93.223075 c 0,-38.348763 0.0479,-39.139459 2.37209,-39.139459 2.32934,0 2.37209,0.790696 2.37209,43.883636 V 141.85089 H 812.67749 985.83995 V 123.4672 105.08352 h 33.20925 33.2092 v 33.80226 33.80226 h -33.2092 -33.20925 V 157.86248 143.03693 H 812.67749 639.51504 v 81.24403 81.24403 h 172.99725 172.99725 l 0.6948,-5.86646 c 0.95712,-8.08147 3.49979,-12.44227 10.05271,-17.24092 14.78905,-10.82988 33.55535,-10.25926 46.54005,1.41514 7.6098,6.84182 10.052,13.2736 10.0383,26.43642 -0.012,11.82251 -2.7645,18.85828 -9.7891,25.026 -7.4343,6.52741 -13.8251,8.75162 -25.1832,8.76467 -8.9697,0.0107 -10.7817,-0.37635 -16.4333,-3.50667 -9.91283,-5.49063 -15.58985,-14.08518 -15.58985,-23.60185 V 313.8273 H 812.67749 639.51504 v 124.53464 124.53464 h 94.29051 94.29052 l 0.0181,-41.21503 c 0.009,-22.73117 0.50297,-41.98126 1.09919,-42.92356 1.87551,-2.9642 15.05332,-3.50494 86.94643,-3.56777 l 69.68011,-0.0609 v -14.23253 -14.23253 h 33.2093 33.2092 v 33.80226 33.80226 h -33.2092 -33.2093 V 501.16583 488.0629 l -61.37779,0.68659 c -33.75778,0.37761 -66.3147,0.98655 -72.3487,1.35318 l -10.9709,0.66659 v 77.5752 77.57522 h 72.34869 72.3487 v -13.63951 -13.63951 h 33.2093 33.2092 v 33.20924 33.20924 h -33.2092 -33.2093 V 671.8843 658.70945 l -40.62201,0.84243 c -72.68917,1.50745 -113.25186,1.38499 -114.9863,-0.34714 -1.19258,-1.19099 -1.61988,-10.81084 -1.88339,-42.40108 l -0.34084,-40.86059 h -94.24619 -94.24618 v 168.40419 168.40417 l 45.36619,0.32513 45.36619,0.32512 -45.36619,0.282 -45.36619,0.28199 v 84.20914 c 0,83.41839 -0.0223,84.20909 -2.37209,84.20909 -2.34949,0 -2.37209,-0.7907 -2.37209,-83.02305 z m 0,-259.65999 V 576.11043 l -47.9937,-0.38018 c -44.18474,-0.35003 -48.1617,-0.54821 -50.11037,-2.49708 -1.96445,-1.96463 -2.14365,-6.36875 -2.49181,-61.2403 l -0.37513,-59.12345 -46.47362,-0.69523 c -177.71151,-2.65852 -171.46082,-2.48916 -173.67847,-4.70592 -1.92291,-1.92213 -2.09974,-7.51164 -2.42822,-76.75237 l -0.35427,-74.67926 h -94.23275 -94.23276 v 303.62731 303.62732 h 256.18555 256.18555 z m 0,-300.15287 v -123.3486 h -43.88363 -43.88364 v 123.3486 123.34859 h 43.88364 43.88363 z m -100.6042,-66.91356 c 0.2109,-36.80245 0.65033,-67.17097 0.97649,-67.48561 0.32616,-0.31462 22.87583,-0.96405 50.11037,-1.44316 l 49.51734,-0.87113 V 224.12177 145.40902 H 479.99209 325.21332 V 291.29246 437.1759 l 22.23833,0.17082 c 24.73339,0.19 147.81133,1.60418 171.29643,1.96821 l 15.03509,0.23306 z m 451.67329,-62.95829 v -2.96511 H 812.67749 639.51504 v 2.96511 2.96511 h 173.16245 173.16246 z"
     id="path6041"
     inkscape:connector-curvature="0"
     transform="scale(0.26458333)" /><path
     style="fill:#1c5d99;fill-opacity:0;stroke:#1c5d99;stroke-width:4.482687;stroke-linecap:butt;stroke-linejoin:miter;stroke-miterlimit:4;stroke-dasharray:none;stroke-dashoffset:0;stroke-opacity:0;paint-order:normal"
     d="M 634.77086,999.36085 V 916.33776 H 398.9393 c -227.93676,0 -284.17144,-0.49206 -287.44586,-2.51514 -1.25618,-0.77612 -1.6165,-29.8491 -1.91595,-154.59217 L 109.20868,605.59418 H 73.106628 37.004579 v -6.52325 -6.52324 h 36.091582 36.091579 l 0.37928,-153.4943 c 0.2086,-84.42185 0.64614,-153.74947 0.9723,-154.06136 0.32616,-0.3119 45.5362,-0.95975 100.46676,-1.43967 l 99.87373,-0.87259 0.347,-73.42337 c 0.27849,-58.92442 0.6535,-73.61269 1.89913,-74.38209 3.14603,-1.94321 44.18231,-2.51178 181.28811,-2.51178 H 634.77086 V 93.223075 c 0,-38.348763 0.0479,-39.139459 2.37209,-39.139459 2.32934,0 2.37209,0.790696 2.37209,43.883636 V 141.85089 H 812.67749 985.83995 V 123.4672 105.08352 h 33.20925 33.2092 v 33.80226 33.80226 h -33.2092 -33.20925 V 157.86248 143.03693 H 812.67749 639.51504 v 81.24403 81.24403 h 172.99725 172.99725 l 0.6948,-5.86646 c 0.95712,-8.08147 3.49979,-12.44227 10.05271,-17.24092 14.78905,-10.82988 33.55535,-10.25926 46.54005,1.41514 7.6098,6.84182 10.052,13.2736 10.0383,26.43642 -0.012,11.82251 -2.7645,18.85828 -9.7891,25.026 -7.4343,6.52741 -13.8251,8.75162 -25.1832,8.76467 -8.9697,0.0107 -10.7817,-0.37635 -16.4333,-3.50667 -9.91283,-5.49063 -15.58985,-14.08518 -15.58985,-23.60185 V 313.8273 H 812.67749 639.51504 v 124.53464 124.53464 h 94.29051 94.29052 l 0.0181,-41.21503 c 0.009,-22.73117 0.50297,-41.98126 1.09919,-42.92356 1.87551,-2.9642 15.05332,-3.50494 86.94643,-3.56777 l 69.68011,-0.0609 v -14.23253 -14.23253 h 33.2093 33.2092 v 33.80226 33.80226 h -33.2092 -33.2093 V 501.16583 488.0629 l -61.37779,0.68659 c -33.75778,0.37761 -66.3147,0.98655 -72.3487,1.35318 l -10.9709,0.66659 v 77.5752 77.57522 h 72.34869 72.3487 v -13.63951 -13.63951 h 33.2093 33.2092 v 33.20924 33.20924 h -33.2092 -33.2093 V 671.8843 658.70945 l -40.62201,0.84243 c -72.68917,1.50745 -113.25186,1.38499 -114.9863,-0.34714 -1.19258,-1.19099 -1.61988,-10.81084 -1.88339,-42.40108 l -0.34084,-40.86059 h -94.24619 -94.24618 v 168.40419 168.40417 l 45.36619,0.32513 45.36619,0.32512 -45.36619,0.282 -45.36619,0.28199 v 84.20914 c 0,83.41839 -0.0223,84.20909 -2.37209,84.20909 -2.34949,0 -2.37209,-0.7907 -2.37209,-83.02305 z m 0,-259.65999 V 576.11043 l -47.9937,-0.38018 c -44.18474,-0.35003 -48.1617,-0.54821 -50.11037,-2.49708 -1.96445,-1.96463 -2.14365,-6.36875 -2.49181,-61.2403 l -0.37513,-59.12345 -46.47362,-0.69523 c -177.71151,-2.65852 -171.46082,-2.48916 -173.67847,-4.70592 -1.92291,-1.92213 -2.09974,-7.51164 -2.42822,-76.75237 l -0.35427,-74.67926 h -94.23275 -94.23276 v 303.62731 303.62732 h 256.18555 256.18555 z m 0,-300.15287 v -123.3486 h -43.88363 -43.88364 v 123.3486 123.34859 h 43.88364 43.88363 z m -100.6042,-66.91356 c 0.2109,-36.80245 0.65033,-67.17097 0.97649,-67.48561 0.32616,-0.31462 22.87583,-0.96405 50.11037,-1.44316 l 49.51734,-0.87113 V 224.12177 145.40902 H 479.99209 325.21332 V 291.29246 437.1759 l 22.23833,0.17082 c 24.73339,0.19 147.81133,1.60418 171.29643,1.96821 l 15.03509,0.23306 z m 451.67329,-62.95829 v -2.96511 H 812.67749 639.51504 v 2.96511 2.96511 h 173.16245 173.16246 z"
     id="path6043"
     inkscape:connector-curvature="0"
     transform="scale(0.26458333)" /><path
     style="fill:#1c5d99;fill-opacity:0;stroke:#1c5d99;stroke-width:4.482687;stroke-linecap:butt;stroke-linejoin:miter;stroke-miterlimit:4;stroke-dasharray:none;stroke-dashoffset:0;stroke-opacity:0;paint-order:normal"
     d="M 634.77086,999.36085 V 916.33776 H 398.9393 c -227.93676,0 -284.17144,-0.49206 -287.44586,-2.51514 -1.25618,-0.77612 -1.6165,-29.8491 -1.91595,-154.59217 L 109.20868,605.59418 H 73.106628 37.004579 v -6.52325 -6.52324 h 36.091582 36.091579 l 0.37928,-153.4943 c 0.2086,-84.42185 0.64614,-153.74947 0.9723,-154.06136 0.32616,-0.3119 45.5362,-0.95975 100.46676,-1.43967 l 99.87373,-0.87259 0.347,-73.42337 c 0.27849,-58.92442 0.6535,-73.61269 1.89913,-74.38209 3.14603,-1.94321 44.18231,-2.51178 181.28811,-2.51178 H 634.77086 V 93.223075 c 0,-38.348763 0.0479,-39.139459 2.37209,-39.139459 2.32934,0 2.37209,0.790696 2.37209,43.883636 V 141.85089 H 812.67749 985.83995 V 123.4672 105.08352 h 33.20925 33.2092 v 33.80226 33.80226 h -33.2092 -33.20925 V 157.86248 143.03693 H 812.67749 639.51504 v 81.24403 81.24403 h 172.99725 172.99725 l 0.6948,-5.86646 c 0.95712,-8.08147 3.49979,-12.44227 10.05271,-17.24092 14.78905,-10.82988 33.55535,-10.25926 46.54005,1.41514 7.6098,6.84182 10.052,13.2736 10.0383,26.43642 -0.012,11.82251 -2.7645,18.85828 -9.7891,25.026 -7.4343,6.52741 -13.8251,8.75162 -25.1832,8.76467 -8.9697,0.0107 -10.7817,-0.37635 -16.4333,-3.50667 -9.91283,-5.49063 -15.58985,-14.08518 -15.58985,-23.60185 V 313.8273 H 812.67749 639.51504 v 124.53464 124.53464 h 94.29051 94.29052 l 0.0181,-41.21503 c 0.009,-22.73117 0.50297,-41.98126 1.09919,-42.92356 1.87551,-2.9642 15.05332,-3.50494 86.94643,-3.56777 l 69.68011,-0.0609 v -14.23253 -14.23253 h 33.2093 33.2092 v 33.80226 33.80226 h -33.2092 -33.2093 V 501.16583 488.0629 l -61.37779,0.68659 c -33.75778,0.37761 -66.3147,0.98655 -72.3487,1.35318 l -10.9709,0.66659 v 77.5752 77.57522 h 72.34869 72.3487 v -13.63951 -13.63951 h 33.2093 33.2092 v 33.20924 33.20924 h -33.2092 -33.2093 V 671.8843 658.70945 l -40.62201,0.84243 c -72.68917,1.50745 -113.25186,1.38499 -114.9863,-0.34714 -1.19258,-1.19099 -1.61988,-10.81084 -1.88339,-42.40108 l -0.34084,-40.86059 h -94.24619 -94.24618 v 168.40419 168.40417 l 45.36619,0.32513 45.36619,0.32512 -45.36619,0.282 -45.36619,0.28199 v 84.20914 c 0,83.41839 -0.0223,84.20909 -2.37209,84.20909 -2.34949,0 -2.37209,-0.7907 -2.37209,-83.02305 z m 0,-259.65999 V 576.11043 l -47.9937,-0.38018 c -44.18474,-0.35003 -48.1617,-0.54821 -50.11037,-2.49708 -1.96445,-1.96463 -2.14365,-6.36875 -2.49181,-61.2403 l -0.37513,-59.12345 -46.47362,-0.69523 c -177.71151,-2.65852 -171.46082,-2.48916 -173.67847,-4.70592 -1.92291,-1.92213 -2.09974,-7.51164 -2.42822,-76.75237 l -0.35427,-74.67926 h -94.23275 -94.23276 v 303.62731 303.62732 h 256.18555 256.18555 z m 0,-300.15287 v -123.3486 h -43.88363 -43.88364 v 123.3486 123.34859 h 43.88364 43.88363 z m -100.6042,-66.91356 c 0.2109,-36.80245 0.65033,-67.17097 0.97649,-67.48561 0.32616,-0.31462 22.87583,-0.96405 50.11037,-1.44316 l 49.51734,-0.87113 V 224.12177 145.40902 H 479.99209 325.21332 V 291.29246 437.1759 l 22.23833,0.17082 c 24.73339,0.19 147.81133,1.60418 171.29643,1.96821 l 15.03509,0.23306 z m 451.67329,-62.95829 v -2.96511 H 812.67749 639.51504 v 2.96511 2.96511 h 173.16245 173.16246 z"
     id="path6045"
     inkscape:connector-curvature="0"
     transform="scale(0.26458333)" /></svg>
