<?xml version="1.0" encoding="UTF-8" standalone="no"?>
<!-- Created with Inkscape (http://www.inkscape.org/) -->

<svg
   xmlns:dc="http://purl.org/dc/elements/1.1/"
   xmlns:cc="http://creativecommons.org/ns#"
   xmlns:rdf="http://www.w3.org/1999/02/22-rdf-syntax-ns#"
   xmlns:svg="http://www.w3.org/2000/svg"
   xmlns="http://www.w3.org/2000/svg"
   xmlns:sodipodi="http://sodipodi.sourceforge.net/DTD/sodipodi-0.dtd"
   xmlns:inkscape="http://www.inkscape.org/namespaces/inkscape"
   width="500mm"
   height="300mm"
   viewBox="0 0 500 300.00001"
   version="1.1"
   id="svg8"
   inkscape:version="0.92.5 (2060ec1f9f, 2020-04-08)"
   sodipodi:docname="tree-option2.svg"
   xml:space="preserve"><defs
     id="defs2"><clipPath
       clipPathUnits="userSpaceOnUse"
       id="clipPath4344"><rect
         style="fill:#00ff00;fill-opacity:0.41544201;stroke:none;stroke-width:0.264999;stroke-dasharray:none"
         id="rect4346"
         width="448.2951"
         height="200.26271"
         x="30.505629"
         y="54.441097" /></clipPath></defs><sodipodi:namedview
     id="base"
     pagecolor="#ffffff"
     bordercolor="#666666"
     borderopacity="1.0"
     inkscape:pageopacity="0.0"
     inkscape:pageshadow="2"
     inkscape:zoom="0.75459167"
     inkscape:cx="776.81442"
     inkscape:cy="650.98977"
     inkscape:document-units="mm"
     inkscape:current-layer="layer1"
     showgrid="false"
     units="mm"
     inkscape:pagecheckerboard="false"
     inkscape:window-width="1920"
     inkscape:window-height="1136"
     inkscape:window-x="0"
     inkscape:window-y="27"
     inkscape:window-maximized="1"
     inkscape:showpageshadow="0"
     inkscape:deskcolor="#d1d1d1"
     inkscape:snap-object-midpoints="true"
     inkscape:snap-center="false"
     inkscape:snap-grids="true"
     inkscape:snap-bbox="false"
     inkscape:snap-bbox-edge-midpoints="true"
     inkscape:bbox-paths="true"
     inkscape:bbox-nodes="true"
     inkscape:snap-bbox-midpoints="true"
     inkscape:snap-global="true"
     inkscape:object-nodes="true"
     inkscape:snap-others="true"
     inkscape:object-paths="true"
     inkscape:snap-page="true" /><metadata
     id="metadata5"><rdf:RDF><cc:Work
         rdf:about=""><dc:format>image/svg+xml</dc:format><dc:type
           rdf:resource="http://purl.org/dc/dcmitype/StillImage" /><dc:title /></cc:Work></rdf:RDF></metadata><g
     inkscape:label="Branches"
     inkscape:groupmode="layer"
     id="layer1"
     transform="translate(0,3.000061)"><flowRoot
   xml:space="preserve"
   id="flowRoot18"
   style="font-style:normal;font-variant:normal;font-weight:500;font-stretch:normal;font-size:40px;line-height:1.25;font-family:'CMU Sans Serif';-inkscape-font-specification:'CMU Sans Serif, Medium';font-variant-ligatures:normal;font-variant-caps:normal;font-variant-numeric:normal;font-feature-settings:normal;text-align:start;letter-spacing:0px;word-spacing:0px;writing-mode:lr-tb;text-anchor:start;fill:#000000;fill-opacity:1;stroke:none"><flowRegion
     id="flowRegion20"
     style="font-style:normal;font-variant:normal;font-weight:500;font-stretch:normal;font-size:40px;font-family:'CMU Sans Serif';-inkscape-font-specification:'CMU Sans Serif, Medium';font-variant-ligatures:normal;font-variant-caps:normal;font-variant-numeric:normal;font-feature-settings:normal;text-align:start;writing-mode:lr-tb;text-anchor:start"><rect
       id="rect22"
       width="1310"
       height="318"
       x="354"
       y="142"
       style="font-style:normal;font-variant:normal;font-weight:500;font-stretch:normal;font-size:40px;font-family:'CMU Sans Serif';-inkscape-font-specification:'CMU Sans Serif, Medium';font-variant-ligatures:normal;font-variant-caps:normal;font-variant-numeric:normal;font-feature-settings:normal;text-align:start;writing-mode:lr-tb;text-anchor:start" /></flowRegion><flowPara
     id="flowPara24" /></flowRoot>

<flowRoot
   xml:space="preserve"
   id="flowRoot4050"
   style="font-style:normal;font-variant:normal;font-weight:500;font-stretch:normal;font-size:48px;line-height:1.25;font-family:'CMU Sans Serif';-inkscape-font-specification:'CMU Sans Serif, Medium';font-variant-ligatures:normal;font-variant-caps:normal;font-variant-numeric:normal;font-feature-settings:normal;text-align:start;letter-spacing:0px;word-spacing:0px;writing-mode:lr-tb;text-anchor:start;fill:#000000;fill-opacity:1;stroke:none"><flowRegion
     id="flowRegion4052"><rect
       id="rect4054"
       width="528"
       height="114"
       x="716"
       y="168" /></flowRegion><flowPara
     id="flowPara4056" /></flowRoot><path
   style="fill:none;stroke:#000000;stroke-width:2;stroke-linecap:butt;stroke-linejoin:round;stroke-miterlimit:4;stroke-dasharray:none;stroke-opacity:1"
   d="m 455.3227,169.67751 -129.45747,-0.31896 v 0.52917 z"
   id="path5059"
   inkscape:connector-curvature="0"
   sodipodi:nodetypes="cccc" /><path
   style="fill:none;stroke:#000000;stroke-width:2.30089498;stroke-linecap:butt;stroke-linejoin:round;stroke-miterlimit:4;stroke-dasharray:none;stroke-opacity:1"
   d="m 459.92673,215.04484 -160.6783,-0.31896 z"
   id="path5061"
   inkscape:connector-curvature="0"
   sodipodi:nodetypes="ccc" /><path
   style="fill:none;stroke:#000000;stroke-width:2;stroke-linecap:butt;stroke-linejoin:round;stroke-miterlimit:4;stroke-dasharray:none;stroke-opacity:1"
   d="m 455.3227,124.43269 -129.45747,-0.31896 v 0.52917 z"
   id="path5059-5"
   inkscape:connector-curvature="0"
   sodipodi:nodetypes="cccc" /><path
   style="fill:none;stroke:#000000;stroke-width:2.30089498;stroke-linecap:butt;stroke-linejoin:round;stroke-miterlimit:4;stroke-dasharray:none;stroke-opacity:1"
   d="M 459.92673,260.28966 299.24843,259.9707 Z"
   id="path5061-1"
   inkscape:connector-curvature="0"
   sodipodi:nodetypes="ccc" /><path
   style="fill:none;stroke:#000000;stroke-width:2;stroke-linecap:butt;stroke-linejoin:round;stroke-miterlimit:4;stroke-dasharray:none;stroke-opacity:1"
   d="M 325.86523,147.26531 H 248.17265 V 78.604384 l 215.88131,0.318958"
   id="path5142-1"
   inkscape:connector-curvature="0"
   sodipodi:nodetypes="cccc" /><path
   style="fill:none;stroke:#000000;stroke-width:2;stroke-linecap:butt;stroke-linejoin:round;stroke-miterlimit:4;stroke-dasharray:none;stroke-opacity:1"
   d="M 248.01417,114.64764 104.58559,114.13501 V 33.376093 l 359.46836,0.302431"
   id="path5180"
   inkscape:connector-curvature="0"
   sodipodi:nodetypes="cccc" /><path
   style="fill:none;stroke:#000000;stroke-width:2;stroke-linecap:butt;stroke-linejoin:round;stroke-miterlimit:4;stroke-dasharray:none;stroke-opacity:1"
   d="m 325.86523,124.6429 v 45.24482 z"
   id="path5100"
   inkscape:connector-curvature="0"
   sodipodi:nodetypes="ccc" /><path
   style="fill:none;stroke:#000000;stroke-width:2;stroke-linecap:butt;stroke-linejoin:round;stroke-miterlimit:4;stroke-dasharray:none;stroke-opacity:1"
   d="M 299.24843,214.72588 V 259.9707"
   id="path5102"
   inkscape:connector-curvature="0"
   sodipodi:nodetypes="cc" /><path
   style="fill:none;stroke:#000000;stroke-width:2;stroke-linecap:butt;stroke-linejoin:round;stroke-miterlimit:4;stroke-dasharray:none;stroke-opacity:1"
   d="M 104.83528,73.256676 H 51.139755 V 237.36482 l 248.108675,-0.0165"
   id="path5221"
   inkscape:connector-curvature="0"
   sodipodi:nodetypes="cccc" /><path
   style="fill:none;stroke:#000000;stroke-width:2;stroke-linecap:butt;stroke-linejoin:round;stroke-miterlimit:4;stroke-dasharray:none;stroke-opacity:1"
   d="M 51.139755,155.31075 H 31.031425"
   id="path5238"
   inkscape:connector-curvature="0"
   sodipodi:nodetypes="cc" /><path
   style="fill:#639fab;fill-opacity:1;stroke:#639fab;stroke-width:4.91338589;stroke-linecap:butt;stroke-linejoin:miter;stroke-miterlimit:4;stroke-dasharray:none;stroke-dashoffset:0;stroke-opacity:1;paint-order:normal"
   d="m 1216.92,997.86831 -89.4524,-0.68192 -0.3496,-42.73649 -0.3497,-42.73649 -468.1156,-0.33316 -468.11562,-0.33316 -0.3368,-154.71944 -0.33681,-154.71944 h -36.43805 -36.43805 v -3.31305 -3.31305 h 36.43805 36.43805 l 0.33681,-154.71944 0.3368,-154.71944 100.38542,-0.33964 100.38542,-0.33963 v -73.433 c 0,-40.38814 0.36197,-74.37629 0.80439,-75.52921 0.73055,-1.90381 31.48517,-2.09621 335.06079,-2.09621 183.841,0 423.8077,0.3969 533.2593,0.88201 l 199.0029,0.88202 v 3.09364 3.09365 H 929.34725 399.25924 V 290.02433 438.2918 l 63.94186,0.79597 c 35.16803,0.43777 155.62515,1.0471 267.68248,1.35404 l 203.74062,0.55809 0.34327,-67.78919 0.34327,-67.78918 206.07176,-0.41237 c 113.3394,-0.2268 231.2674,-0.008 262.0622,0.4873 l 55.9906,0.89965 v 3.15706 3.15707 H 1200.3547 941.27423 v 125.8959 125.89591 h 143.12377 143.1238 l 0.02,-42.07574 c 0.011,-23.14165 0.4957,-42.82451 1.0767,-43.73967 0.8371,-1.31842 24.8424,-1.5936 115.6052,-1.32522 l 114.5488,0.33872 v 3.97566 3.97566 l -111.6498,0.33883 -111.6498,0.33883 v 80.82337 80.82337 l 111.6498,0.33883 111.6498,0.33883 v 3.97566 3.97566 h -115.2942 -115.2941 l -0.3497,-42.73254 -0.3496,-42.73253 -146.0872,-0.33712 -146.08716,-0.33711 -0.66261,-60.96012 -0.66261,-60.96013 -269.68228,-1.11647 c -181.44528,-0.75117 -270.22428,-1.56305 -271.3388,-2.48141 -1.29011,-1.06301 -1.65652,-18.18566 -1.65652,-77.4114 v -76.04649 l -97.07237,0.3399 -97.07237,0.33991 v 306.12583 306.12583 l 464.80257,0.33317 464.80255,0.33317 0.3497,-42.74021 0.3496,-42.74022 h 165.6525 165.6526 v 3.97566 3.97566 l -162.0082,-0.53817 -162.0081,-0.53816 v 81.70264 81.70264 l 162.0081,0.33655 162.0082,0.33657 v 3.97566 3.97566 l -76.2002,0.0194 c -41.9101,0.0106 -116.4537,-0.28755 -165.6525,-0.66261 z"
   id="path1505"
   inkscape:connector-curvature="0"
   transform="matrix(0.26458333,0,0,0.26458333,0,-3.000061)" /><path
   style="fill:#639fab;fill-opacity:1;stroke:#639fab;stroke-width:3.77952761;stroke-linecap:butt;stroke-linejoin:miter;stroke-miterlimit:4;stroke-dasharray:none;stroke-dashoffset:0;stroke-opacity:1;paint-order:normal"
   d="m 1462.0857,481.89013 v -4.8526 l 55.3279,10e-4 c 30.4304,7.1e-4 88.8726,0.39653 129.8716,0.87961 l 74.5436,0.87831 v 3.09606 3.09606 h -85.9229 c -47.2577,0 -105.6999,0.39462 -129.8716,0.87694 l -43.9486,0.87694 z"
   id="path1507"
   inkscape:connector-curvature="0"
   transform="matrix(0.26458333,0,0,0.26458333,0,-3.000061)" /><path
   style="fill:#639fab;fill-opacity:1;stroke:#639fab;stroke-width:3.77952761;stroke-linecap:butt;stroke-linejoin:miter;stroke-miterlimit:4;stroke-dasharray:none;stroke-dashoffset:0;stroke-opacity:1;paint-order:normal"
   d="m 1462.0857,652.84572 v -4.85481 l 39.4253,10e-4 c 21.6839,5.8e-4 80.1261,0.39671 129.8716,0.88027 l 90.4462,0.87921 v 3.09539 3.09538 l -63.2792,0.001 c -34.8036,7.9e-4 -93.2458,0.39641 -129.8716,0.87915 l -66.5923,0.8777 z"
   id="path1511"
   inkscape:connector-curvature="0"
   transform="matrix(0.26458333,0,0,0.26458333,0,-3.000061)" /><path
   style="fill:#1c5d99;fill-opacity:1;stroke:#1c5d99;stroke-width:3.77952761;stroke-linecap:butt;stroke-linejoin:miter;stroke-miterlimit:4;stroke-dasharray:none;stroke-dashoffset:0;stroke-opacity:1;paint-order:normal"
   d="m 1738.3941,853.53274 c -9.3553,-4.3407 -16.5653,-13.95313 -16.5653,-22.08513 v -3.22678 h -129.8715 -129.8716 v -4.84912 -4.84912 l 129.04,0.94417 c 118.7543,0.8689 129.1064,0.77144 129.8716,-1.22276 0.4573,-1.1918 0.8315,-3.63277 0.8315,-5.42438 0,-11.32703 16.0951,-24.11917 30.5709,-24.29722 7.9072,-0.0973 18.2515,3.734 23.9279,8.86227 8.1871,7.39658 9.6694,11.1873 9.7255,24.87267 0.04,9.87863 -0.4611,12.88108 -2.9206,17.4824 -3.2662,6.11051 -9.1403,11.16243 -16.6063,14.28188 -6.8292,2.85344 -21.4772,2.59888 -28.1321,-0.48888 z"
   id="path1513"
   inkscape:connector-curvature="0"
   transform="matrix(0.26458333,0,0,0.26458333,0,-3.000061)" /><path
   style="fill:#1c5d99;fill-opacity:1;stroke:#1c5d99;stroke-width:3.77952761;stroke-linecap:butt;stroke-linejoin:miter;stroke-miterlimit:4;stroke-dasharray:none;stroke-dashoffset:0;stroke-opacity:1;paint-order:normal"
   d="m 1738.3941,1024.5039 c -9.8176,-4.5223 -16.5653,-13.4731 -16.5653,-21.9741 v -3.35558 h -129.8715 -129.8716 v -4.80474 -4.80474 l 128.7,0.98992 c 140.0469,1.07719 130.9797,1.51607 131.0228,-6.34196 0.049,-8.90536 8.8964,-18.62718 20.8236,-22.88155 16.5,-5.88541 37.4541,3.90863 42.143,19.69775 7.5912,25.5624 -6.5408,46.0243 -31.7325,45.9458 -6.2271,-0.019 -11.1172,-0.8442 -14.6485,-2.4708 z"
   id="path1515"
   inkscape:connector-curvature="0"
   transform="matrix(0.26458333,0,0,0.26458333,0,-3.000061)" /><path
   style="fill:#1c5d99;fill-opacity:1;stroke:#1c5d99;stroke-width:3.77952761;stroke-linecap:butt;stroke-linejoin:miter;stroke-miterlimit:4;stroke-dasharray:none;stroke-dashoffset:0;stroke-opacity:1;paint-order:normal"
   d="m 1739.0567,340.43263 c -10.705,-4.84574 -15.455,-10.8928 -17.0919,-21.7589 l -0.7986,-5.30088 -129.5402,-0.33783 -129.5403,-0.33783 v -3.3 -3.3 l 129.5239,-0.33783 129.524,-0.33783 0.9113,-6.37133 c 1.1603,-8.11172 5.5925,-13.90733 14.2316,-18.6093 16.5433,-9.00399 37.9338,-3.79344 46.5475,11.33858 2.7684,4.86328 3.2422,7.42495 3.2587,17.61771 0.017,10.54183 -0.3889,12.61956 -3.4955,17.89047 -1.9332,3.27992 -5.3845,7.33958 -7.6695,9.02147 -9.8155,7.22464 -25.122,8.98467 -35.861,4.1235 z"
   id="path1517"
   inkscape:connector-curvature="0"
   transform="matrix(0.26458333,0,0,0.26458333,0,-3.000061)" /><path
   style="fill:#639fab;fill-opacity:1;stroke:#639fab;stroke-width:3.77952761;stroke-linecap:butt;stroke-linejoin:miter;stroke-miterlimit:4;stroke-dasharray:none;stroke-dashoffset:0;stroke-opacity:1;paint-order:normal"
   d="m 1462.0857,138.44381 v -3.31305 h 129.8716 129.8715 v 3.31305 3.31305 h -129.8715 -129.8716 z"
   id="path1519"
   inkscape:connector-curvature="0"
   transform="matrix(0.26458333,0,0,0.26458333,0,-3.000061)" /></g><g
     inkscape:groupmode="layer"
     id="layer3"
     inkscape:label="Overlay" /><g
     inkscape:groupmode="layer"
     id="layer2"
     inkscape:label="Leaf Nodes"
     style="opacity:1"><rect
       id="rect4170"
       width="17.4625"
       height="17.4625"
       x="455.32269"
       y="27.947334"
       style="fill:#639fab;fill-opacity:1;stroke-width:0.26458332" /><path
       style="fill:#1c5d99;fill-opacity:1;stroke:none;stroke-width:0.52916664;stroke-opacity:1"
       d="m 459.92673,225.98245 c -3.46015,-1.61865 -4.71015,-3.8413 -4.71015,-8.37523 0,-4.38822 0.87719,-6.02001 4.28308,-7.96759 3.90903,-2.23529 9.30327,-1.05669 12.03705,2.63001 1.51964,2.04934 1.82436,7.03733 0.58896,9.64073 -1.98612,4.18546 -7.80465,6.12772 -12.19894,4.07208 z"
       id="path4176"
       inkscape:connector-curvature="0" /><rect
       id="rect4170-8"
       width="17.4625"
       height="17.4625"
       x="455.32269"
       y="118.43697"
       style="fill:#639fab;fill-opacity:1;stroke-width:0.26458332" /><rect
       id="rect4170-0"
       width="17.4625"
       height="17.4625"
       x="455.32269"
       y="163.68179"
       style="fill:#639fab;fill-opacity:1;stroke-width:0.26458332" /><path
       style="fill:#1c5d99;fill-opacity:1;stroke:none;stroke-width:0.52916664;stroke-opacity:1"
       d="m 459.92673,90.247989 c -3.46015,-1.61866 -4.71015,-3.84131 -4.71015,-8.37523 0,-4.38822 0.87719,-6.02001 4.28308,-7.9676 3.90903,-2.23529 9.30327,-1.05668 12.03705,2.63002 1.51964,2.04933 1.82436,7.03732 0.58896,9.64072 -1.98612,4.18546 -7.80465,6.12773 -12.19894,4.07209 z"
       id="path4176-1"
       inkscape:connector-curvature="0" /><path
       style="fill:#1c5d99;fill-opacity:1;stroke:none;stroke-width:0.52916664;stroke-opacity:1"
       d="m 459.92673,271.22727 c -3.46015,-1.61865 -4.71015,-3.84131 -4.71015,-8.37523 0,-4.38822 0.87719,-6.02001 4.28308,-7.9676 3.90903,-2.23529 9.30327,-1.05668 12.03705,2.63002 1.51964,2.04933 1.82436,7.03733 0.58896,9.64072 -1.98612,4.18546 -7.80465,6.12773 -12.19894,4.07209 z"
       id="path4176-0"
       inkscape:connector-curvature="0" /><path
       style="opacity:1;fill:#e8950f;fill-opacity:1;stroke:#e8950f;stroke-width:2;stroke-linecap:butt;stroke-linejoin:miter;stroke-miterlimit:4;stroke-dasharray:8,8;stroke-dashoffset:0;stroke-opacity:1"
       d="M 386.39551,0 V 300.00001"
       id="path5259"
       inkscape:connector-curvature="0"
       sodipodi:nodetypes="cc" /></g></svg>