<?xml version="1.0" encoding="UTF-8" standalone="no"?>
<!-- Created with Inkscape (http://www.inkscape.org/) -->

<svg
   width="995.5083mm"
   height="360.11652mm"
   viewBox="0 0 995.5083 360.11653"
   version="1.1"
   id="svg8"
   inkscape:version="1.2.1 (9c6d41e410, 2022-07-14)"
   sodipodi:docname="tree-likelihood.svg"
   xml:space="preserve"
   xmlns:inkscape="http://www.inkscape.org/namespaces/inkscape"
   xmlns:sodipodi="http://sodipodi.sourceforge.net/DTD/sodipodi-0.dtd"
   xmlns="http://www.w3.org/2000/svg"
   xmlns:svg="http://www.w3.org/2000/svg"
   xmlns:rdf="http://www.w3.org/1999/02/22-rdf-syntax-ns#"
   xmlns:cc="http://creativecommons.org/ns#"
   xmlns:dc="http://purl.org/dc/elements/1.1/"><defs
     id="defs2"><marker
       inkscape:stockid="Arrow1Mstart"
       orient="auto"
       refY="0"
       refX="0"
       id="Arrow1Mstart"
       style="overflow:visible"
       inkscape:isstock="true"><path
         id="path1218"
         d="M 0,0 5,-5 -12.5,0 5,5 Z"
         style="fill:#000000;fill-opacity:1;fill-rule:evenodd;stroke:#000000;stroke-width:1pt;stroke-opacity:1"
         transform="matrix(0.4,0,0,0.4,4,0)" /></marker><marker
       inkscape:stockid="Arrow1Lstart"
       orient="auto"
       refY="0"
       refX="0"
       id="marker1765"
       style="overflow:visible"
       inkscape:isstock="true"><path
         id="path1763"
         d="M 0,0 5,-5 -12.5,0 5,5 Z"
         style="fill:#000000;fill-opacity:1;fill-rule:evenodd;stroke:#000000;stroke-width:1pt;stroke-opacity:1"
         transform="matrix(0.8,0,0,0.8,10,0)" /></marker><marker
       inkscape:stockid="StopS"
       orient="auto"
       refY="0"
       refX="0"
       id="StopS"
       style="overflow:visible"
       inkscape:isstock="true"><path
         id="path1042"
         d="M 0,5.65 V -5.65"
         style="fill:none;fill-opacity:0.75;fill-rule:evenodd;stroke:#000000;stroke-width:1pt;stroke-opacity:1"
         transform="scale(0.2)" /></marker><marker
       inkscape:stockid="StopM"
       orient="auto"
       refY="0"
       refX="0"
       id="StopM"
       style="overflow:visible"
       inkscape:isstock="true"><path
         id="path1039"
         d="M 0,5.65 V -5.65"
         style="fill:none;fill-opacity:0.75;fill-rule:evenodd;stroke:#000000;stroke-width:1pt;stroke-opacity:1"
         transform="scale(0.4)" /></marker><marker
       inkscape:stockid="Tail"
       orient="auto"
       refY="0"
       refX="0"
       id="Tail"
       style="overflow:visible"
       inkscape:isstock="true"><g
         id="g915"
         transform="scale(-1.2)"
         style="fill:#000000;fill-opacity:1;stroke:#000000;stroke-opacity:1"><path
           id="path903"
           d="M -3.8048674,-3.9585227 0.54352094,0"
           style="fill:#000000;fill-opacity:1;fill-rule:evenodd;stroke:#000000;stroke-width:0.8;stroke-linecap:round;stroke-opacity:1" /><path
           id="path905"
           d="M -1.2866832,-3.9585227 3.0617053,0"
           style="fill:#000000;fill-opacity:1;fill-rule:evenodd;stroke:#000000;stroke-width:0.8;stroke-linecap:round;stroke-opacity:1" /><path
           id="path907"
           d="M 1.3053582,-3.9585227 5.6537466,0"
           style="fill:#000000;fill-opacity:1;fill-rule:evenodd;stroke:#000000;stroke-width:0.8;stroke-linecap:round;stroke-opacity:1" /><path
           id="path909"
           d="M -3.8048674,4.1775838 0.54352094,0.21974226"
           style="fill:#000000;fill-opacity:1;fill-rule:evenodd;stroke:#000000;stroke-width:0.8;stroke-linecap:round;stroke-opacity:1" /><path
           id="path911"
           d="M -1.2866832,4.1775838 3.0617053,0.21974226"
           style="fill:#000000;fill-opacity:1;fill-rule:evenodd;stroke:#000000;stroke-width:0.8;stroke-linecap:round;stroke-opacity:1" /><path
           id="path913"
           d="M 1.3053582,4.1775838 5.6537466,0.21974226"
           style="fill:#000000;fill-opacity:1;fill-rule:evenodd;stroke:#000000;stroke-width:0.8;stroke-linecap:round;stroke-opacity:1" /></g></marker><marker
       inkscape:stockid="Arrow1Lstart"
       orient="auto"
       refY="0"
       refX="0"
       id="Arrow1Lstart"
       style="overflow:visible"
       inkscape:isstock="true"><path
         id="path867"
         d="M 0,0 5,-5 -12.5,0 5,5 Z"
         style="fill:#000000;fill-opacity:1;fill-rule:evenodd;stroke:#000000;stroke-width:1pt;stroke-opacity:1"
         transform="matrix(0.8,0,0,0.8,10,0)" /></marker><marker
       inkscape:stockid="StopL"
       orient="auto"
       refY="0"
       refX="0"
       id="StopL"
       style="overflow:visible"
       inkscape:isstock="true"><path
         id="path1036"
         d="M 0,5.65 V -5.65"
         style="fill:none;fill-opacity:0.75;fill-rule:evenodd;stroke:#000000;stroke-width:1pt;stroke-opacity:1"
         transform="scale(0.8)" /></marker><clipPath
       clipPathUnits="userSpaceOnUse"
       id="clipPath4344"><rect
         style="fill:#00ff00;fill-opacity:0.415442;stroke:none;stroke-width:0.264999;stroke-dasharray:none"
         id="rect4346"
         width="448.2951"
         height="200.26271"
         x="30.505629"
         y="54.441097" /></clipPath><clipPath
       clipPathUnits="userSpaceOnUse"
       id="clipPath138"><path
         d="M 144,63.36 H 549.81818 V 506.88 H 144 Z"
         id="path136" /></clipPath><clipPath
       clipPathUnits="userSpaceOnUse"
       id="clipPath148"><path
         d="M 144,63.36 H 549.81818 V 506.88 H 144 Z"
         id="path146" /></clipPath><clipPath
       clipPathUnits="userSpaceOnUse"
       id="clipPath158"><path
         d="M 144,63.36 H 549.81818 V 506.88 H 144 Z"
         id="path156" /></clipPath><clipPath
       clipPathUnits="userSpaceOnUse"
       id="clipPath168"><path
         d="M 144,63.36 H 549.81818 V 506.88 H 144 Z"
         id="path166" /></clipPath><clipPath
       clipPathUnits="userSpaceOnUse"
       id="clipPath360"><path
         d="M 630.98182,63.36 H 1036.8 V 506.88 H 630.98182 Z"
         id="path358" /></clipPath><clipPath
       clipPathUnits="userSpaceOnUse"
       id="clipPath370"><path
         d="M 630.98182,63.36 H 1036.8 V 506.88 H 630.98182 Z"
         id="path368" /></clipPath><clipPath
       clipPathUnits="userSpaceOnUse"
       id="clipPath380"><path
         d="M 630.98182,63.36 H 1036.8 V 506.88 H 630.98182 Z"
         id="path378" /></clipPath><clipPath
       clipPathUnits="userSpaceOnUse"
       id="clipPath390"><path
         d="M 630.98182,63.36 H 1036.8 V 506.88 H 630.98182 Z"
         id="path388" /></clipPath></defs><sodipodi:namedview
     id="base"
     pagecolor="#ffffff"
     bordercolor="#666666"
     borderopacity="1.0"
     inkscape:pageopacity="0.0"
     inkscape:pageshadow="2"
     inkscape:zoom="0.37841261"
     inkscape:cx="1631.8166"
     inkscape:cy="706.90033"
     inkscape:document-units="mm"
     inkscape:current-layer="layer2"
     showgrid="false"
     units="mm"
     inkscape:pagecheckerboard="false"
     inkscape:window-width="1916"
     inkscape:window-height="1139"
     inkscape:window-x="0"
     inkscape:window-y="0"
     inkscape:window-maximized="1"
     inkscape:showpageshadow="0"
     inkscape:deskcolor="#d1d1d1"
     inkscape:snap-object-midpoints="true"
     inkscape:snap-center="false"
     inkscape:snap-grids="true"
     inkscape:snap-bbox="false"
     inkscape:snap-bbox-edge-midpoints="true"
     inkscape:bbox-paths="true"
     inkscape:bbox-nodes="true"
     inkscape:snap-bbox-midpoints="true"
     inkscape:snap-global="true"
     inkscape:object-nodes="true"
     inkscape:snap-others="true"
     inkscape:object-paths="true" /><metadata
     id="metadata5"><rdf:RDF><cc:Work
         rdf:about=""><dc:format>image/svg+xml</dc:format><dc:type
           rdf:resource="http://purl.org/dc/dcmitype/StillImage" /></cc:Work></rdf:RDF></metadata><g
     inkscape:label="Branches"
     inkscape:groupmode="layer"
     id="layer1"
     transform="translate(-9.1977697,-0.66696338)"><flowRoot
   xml:space="preserve"
   id="flowRoot18"
   style="font-style:normal;font-variant:normal;font-weight:500;font-stretch:normal;font-size:40px;line-height:1.25;font-family:'CMU Sans Serif';-inkscape-font-specification:'CMU Sans Serif, Medium';font-variant-ligatures:normal;font-variant-caps:normal;font-variant-numeric:normal;font-feature-settings:normal;text-align:start;letter-spacing:0px;word-spacing:0px;writing-mode:lr-tb;text-anchor:start;fill:#000000;fill-opacity:1;stroke:none"><flowRegion
     id="flowRegion20"
     style="font-style:normal;font-variant:normal;font-weight:500;font-stretch:normal;font-size:40px;font-family:'CMU Sans Serif';-inkscape-font-specification:'CMU Sans Serif, Medium';font-variant-ligatures:normal;font-variant-caps:normal;font-variant-numeric:normal;font-feature-settings:normal;text-align:start;writing-mode:lr-tb;text-anchor:start"><rect
       id="rect22"
       width="1310"
       height="318"
       x="354"
       y="142"
       style="font-style:normal;font-variant:normal;font-weight:500;font-stretch:normal;font-size:40px;font-family:'CMU Sans Serif';-inkscape-font-specification:'CMU Sans Serif, Medium';font-variant-ligatures:normal;font-variant-caps:normal;font-variant-numeric:normal;font-feature-settings:normal;text-align:start;writing-mode:lr-tb;text-anchor:start" /></flowRegion><flowPara
     id="flowPara24" /></flowRoot>

<flowRoot
   xml:space="preserve"
   id="flowRoot4050"
   style="font-style:normal;font-variant:normal;font-weight:500;font-stretch:normal;font-size:48px;line-height:1.25;font-family:'CMU Sans Serif';-inkscape-font-specification:'CMU Sans Serif, Medium';font-variant-ligatures:normal;font-variant-caps:normal;font-variant-numeric:normal;font-feature-settings:normal;text-align:start;letter-spacing:0px;word-spacing:0px;writing-mode:lr-tb;text-anchor:start;fill:#000000;fill-opacity:1;stroke:none"><flowRegion
     id="flowRegion4052"><rect
       id="rect4054"
       width="528"
       height="114"
       x="716"
       y="168" /></flowRegion><flowPara
     id="flowPara4056" /></flowRoot><path
   style="fill:none;stroke:#000000;stroke-width:2;stroke-linecap:butt;stroke-linejoin:round;stroke-miterlimit:4;stroke-dasharray:none;stroke-opacity:1"
   d="m 429.05403,169.63757 h -69.51086 v 0.52804 z"
   id="path5059"
   inkscape:connector-curvature="0" /><path
   style="fill:none;stroke:#000000;stroke-width:2;stroke-linecap:butt;stroke-linejoin:round;stroke-miterlimit:4;stroke-dasharray:none;stroke-opacity:1"
   d="M 437.01168,214.90762 H 313.53845 Z"
   id="path5061"
   inkscape:connector-curvature="0" /><path
   style="fill:none;stroke:#000000;stroke-width:2;stroke-linecap:butt;stroke-linejoin:round;stroke-miterlimit:4;stroke-dasharray:none;stroke-opacity:1"
   d="m 429.05403,124.48977 h -69.51086 v 0.52803 z"
   id="path5059-5"
   inkscape:connector-curvature="0" /><path
   style="fill:none;stroke:#000000;stroke-width:2;stroke-linecap:butt;stroke-linejoin:round;stroke-miterlimit:4;stroke-dasharray:none;stroke-opacity:1"
   d="M 437.01168,260.05542 H 313.53845 Z"
   id="path5061-1"
   inkscape:connector-curvature="0" /><path
   style="fill:none;stroke:#000000;stroke-width:2;stroke-linecap:butt;stroke-linejoin:round;stroke-miterlimit:4;stroke-dasharray:none;stroke-opacity:1"
   d="M 359.54317,147.5917 H 225.25861 V 79.078005 h 218.88661"
   id="path5142-1"
   inkscape:connector-curvature="0"
   sodipodi:nodetypes="cccc" /><path
   style="fill:none;stroke:#000000;stroke-width:2;stroke-linecap:butt;stroke-linejoin:round;stroke-miterlimit:4;stroke-dasharray:none;stroke-opacity:1"
   d="M 224.98469,115.04398 123.46228,114.51595 V 33.930205 H 444.1452"
   id="path5180"
   inkscape:connector-curvature="0"
   sodipodi:nodetypes="cccc" /><path
   style="fill:none;stroke:#000000;stroke-width:2;stroke-linecap:butt;stroke-linejoin:round;stroke-miterlimit:4;stroke-dasharray:none;stroke-opacity:1"
   d="m 359.54317,125.0178 v 45.1478 z"
   id="path5100"
   inkscape:connector-curvature="0" /><path
   style="fill:none;stroke:#000000;stroke-width:2;stroke-linecap:butt;stroke-linejoin:round;stroke-miterlimit:4;stroke-dasharray:none;stroke-opacity:1"
   d="m 313.53845,214.90762 v 45.1478"
   id="path5102"
   inkscape:connector-curvature="0" /><path
   style="fill:none;stroke:#000000;stroke-width:2;stroke-linecap:butt;stroke-linejoin:round;stroke-miterlimit:4;stroke-dasharray:none;stroke-opacity:1"
   d="M 123.89386,73.725273 H 31.086015 V 237.48152 H 313.53845"
   id="path5221"
   inkscape:connector-curvature="0"
   sodipodi:nodetypes="cccc" /><path
   transform="translate(0,-3.000061)"
   style="fill:none;stroke:#000000;stroke-width:2;stroke-linecap:butt;stroke-linejoin:round;stroke-miterlimit:4;stroke-dasharray:none;stroke-opacity:1"
   d="M 30.691666,158.61324 H 10.583333"
   id="path5238"
   inkscape:connector-curvature="0" /><path
   style="fill:#1c5d99;fill-opacity:0;stroke:#1c5d99;stroke-width:1.31328;stroke-linecap:butt;stroke-linejoin:miter;stroke-miterlimit:4;stroke-dasharray:none;stroke-dashoffset:0;stroke-opacity:0;paint-order:normal"
   d="m 439.252,268.35332 c -2.24941,-0.39824 -5.37678,-1.53148 -6.9652,-2.52389 -1.47424,-0.92107 -2.87343,-2.80018 -2.87343,-3.85901 v -0.79291 h -57.99113 c -31.89512,0 -58.3772,-0.0855 -58.84907,-0.19007 -0.76028,-0.16843 -0.85794,-1.46946 -0.85794,-11.42941 V 238.31868 H 290.8333 269.95137 v -0.9394 -0.9394 h 20.87508 20.87507 l 0.14245,-11.19457 0.14245,-11.19456 58.43256,-0.0797 58.43256,-0.0797 0.24967,-0.70316 c 0.13732,-0.38673 0.38648,-1.19633 0.55369,-1.79912 0.46547,-1.67797 2.14051,-2.99848 5.37742,-4.23927 4.02711,-1.54368 8.63545,-2.00867 12.8537,-1.29696 3.64278,0.61461 7.05947,1.89001 8.88043,3.31493 2.71032,2.12092 3.18657,7.10728 0.92111,9.64525 -5.39258,6.04137 -22.47518,6.19677 -27.24589,0.24785 -0.55246,-0.68889 -1.00983,-1.64004 -1.01638,-2.11366 l -0.0119,-0.86112 H 372.1877 314.96202 l 0.13937,21.37144 0.13936,21.37144 56.64595,0.0797 c 44.95837,0.0633 56.7351,-10e-4 57.07801,-0.31313 0.23763,-0.21609 0.44115,-0.81561 0.45227,-1.33228 0.10058,-4.67345 12.18453,-8.04198 20.89099,-5.82359 3.20688,0.81711 6.51811,2.58033 7.70213,4.10135 1.26445,1.62431 1.25275,6.6887 -0.0188,8.17518 -2.3647,2.76428 -7.49474,4.62702 -13.30841,4.83234 -1.98448,0.0701 -4.42834,-0.0177 -5.43085,-0.19529 z"
   id="path6051"
   inkscape:connector-curvature="0" /><path
   style="fill:#1c5d99;fill-opacity:0;stroke:#1c5d99;stroke-width:1.55761;stroke-linecap:butt;stroke-linejoin:miter;stroke-miterlimit:4;stroke-dasharray:none;stroke-dashoffset:0;stroke-opacity:0;paint-order:normal"
   d="m 439.252,268.35332 c -2.24941,-0.39824 -5.37678,-1.53148 -6.9652,-2.52389 -1.47424,-0.92107 -2.87343,-2.80018 -2.87343,-3.85901 v -0.79291 h -57.99113 c -31.89512,0 -58.3772,-0.0855 -58.84907,-0.19007 -0.76028,-0.16843 -0.85794,-1.46946 -0.85794,-11.42941 V 238.31868 H 290.8333 269.95137 v -0.9394 -0.9394 h 20.87508 20.87507 l 0.14245,-11.19457 0.14245,-11.19456 58.43256,-0.0797 58.43256,-0.0797 0.24967,-0.70316 c 0.13732,-0.38673 0.38648,-1.19633 0.55369,-1.79912 0.46547,-1.67797 2.14051,-2.99848 5.37742,-4.23927 4.02711,-1.54368 8.63545,-2.00867 12.8537,-1.29696 3.64278,0.61461 7.05947,1.89001 8.88043,3.31493 2.71032,2.12092 3.18657,7.10728 0.92111,9.64525 -5.39258,6.04137 -22.47518,6.19677 -27.24589,0.24785 -0.55246,-0.68889 -1.00983,-1.64004 -1.01638,-2.11366 l -0.0119,-0.86112 H 372.1877 314.96202 l 0.13937,21.37144 0.13936,21.37144 56.64595,0.0797 c 44.95837,0.0633 56.7351,-10e-4 57.07801,-0.31313 0.23763,-0.21609 0.44115,-0.81561 0.45227,-1.33228 0.10058,-4.67345 12.18453,-8.04198 20.89099,-5.82359 3.20688,0.81711 6.51811,2.58033 7.70213,4.10135 1.26445,1.62431 1.25275,6.6887 -0.0188,8.17518 -2.3647,2.76428 -7.49474,4.62702 -13.30841,4.83234 -1.98448,0.0701 -4.42834,-0.0177 -5.43085,-0.19529 z"
   id="path6071"
   inkscape:connector-curvature="0" /><path
   style="fill:#1c5d99;fill-opacity:0;stroke:#1c5d99;stroke-width:1.31328;stroke-linecap:butt;stroke-linejoin:miter;stroke-miterlimit:4;stroke-dasharray:none;stroke-dashoffset:0;stroke-opacity:0;paint-order:normal"
   d="m 438.3586,268.14921 c -5.28423,-1.09221 -8.15908,-2.97311 -8.80705,-5.76215 l -0.28036,-1.20676 -58.64238,-0.0797 -58.64239,-0.0797 -0.14245,-11.19456 -0.14245,-11.19456 h -20.87507 -20.87508 v -1.09597 -1.09597 h 20.87508 20.87507 l 0.14245,-11.19457 0.14245,-11.19456 58.38476,-0.0797 58.38476,-0.0797 0.59611,-1.95569 c 0.67438,-2.21241 1.61358,-3.08304 4.89365,-4.53635 5.80929,-2.57395 13.51694,-2.50502 19.90993,0.17804 6.09121,2.55641 6.89479,9.77716 1.44902,13.02062 -6.20736,3.69708 -17.22049,3.83693 -23.04377,0.29263 -1.70281,-1.0364 -3.1475,-2.87772 -3.1475,-4.01161 v -0.7929 h -56.95072 -56.95072 v 21.44973 21.44972 h 56.64629 56.64629 l 0.3757,-1.48739 c 1.02458,-4.05627 6.7257,-6.69271 14.60645,-6.75462 4.47494,-0.0352 8.62954,0.90343 11.60652,2.62212 2.42447,1.39972 3.34627,2.75974 3.69986,5.45889 0.5656,4.31768 -2.37769,7.46 -8.43693,9.0074 -3.48789,0.89073 -8.85321,1.02913 -12.29752,0.31724 z"
   id="path6163"
   inkscape:connector-curvature="0" /><path
   style="fill:#1c5d99;fill-opacity:0;stroke:#1c5d99;stroke-width:1.55761;stroke-linecap:butt;stroke-linejoin:miter;stroke-miterlimit:4;stroke-dasharray:none;stroke-dashoffset:0;stroke-opacity:0;paint-order:normal"
   d="m 439.252,268.35332 c -2.24941,-0.39824 -5.37678,-1.53148 -6.9652,-2.52389 -1.47424,-0.92107 -2.87342,-2.80018 -2.87342,-3.85901 v -0.79291 h -57.99114 c -31.89512,0 -58.3772,-0.0855 -58.84907,-0.19007 -0.76028,-0.16843 -0.85794,-1.46946 -0.85794,-11.42941 V 238.31868 H 290.8333 269.95137 v -0.9394 -0.9394 h 20.87508 20.87507 l 0.14245,-11.19457 0.14245,-11.19456 58.43256,-0.0797 58.43256,-0.0797 0.24967,-0.70316 c 0.13732,-0.38673 0.38648,-1.19633 0.55369,-1.79912 0.46547,-1.67797 2.14051,-2.99848 5.37742,-4.23927 4.02711,-1.54368 8.63545,-2.00867 12.8537,-1.29696 3.64278,0.61461 7.05947,1.89001 8.88043,3.31493 2.71032,2.12092 3.18657,7.10728 0.92111,9.64525 -5.39258,6.04137 -22.47518,6.19677 -27.24589,0.24785 -0.55246,-0.68889 -1.00983,-1.64004 -1.01638,-2.11366 l -0.0119,-0.86112 h -57.2257 -57.22567 l 0.13936,21.37144 0.13936,21.37144 56.64595,0.0797 c 44.95837,0.0633 56.7351,-10e-4 57.07801,-0.31313 0.23763,-0.21609 0.44115,-0.81561 0.45227,-1.33228 0.10058,-4.67345 12.18453,-8.04198 20.89099,-5.82359 3.20688,0.81711 6.51811,2.58033 7.70213,4.10135 1.26445,1.62431 1.25275,6.6887 -0.0188,8.17518 -2.3647,2.76428 -7.49474,4.62702 -13.30841,4.83234 -1.98448,0.0701 -4.42834,-0.0177 -5.43085,-0.19529 z"
   id="path6167"
   inkscape:connector-curvature="0" /></g><g
     inkscape:groupmode="layer"
     id="layer2"
     inkscape:label="Leaf Nodes"
     style="opacity:1"
     transform="translate(-9.1977697,-3.6670243)"><rect
   id="rect4170"
   width="17.4625"
   height="17.4625"
   x="429.26639"
   y="27.947334"
   style="fill:#d55e00;fill-opacity:1;stroke-width:0.264583" /><path
   style="fill:#0072b2;fill-opacity:1;stroke:none;stroke-width:0.529167;stroke-opacity:1"
   d="m 433.87041,225.98245 c -3.46015,-1.61865 -4.71015,-3.8413 -4.71015,-8.37523 0,-4.38822 0.87719,-6.02001 4.28308,-7.96759 3.90903,-2.23529 9.30327,-1.05669 12.03705,2.63001 1.51964,2.04934 1.82436,7.03733 0.58896,9.64073 -1.98612,4.18546 -7.80465,6.12772 -12.19894,4.07208 z"
   id="path4176"
   inkscape:connector-curvature="0" /><rect
   id="rect4170-8"
   width="17.4625"
   height="17.4625"
   x="429.26639"
   y="118.43697"
   style="fill:#d55e00;fill-opacity:1;stroke-width:0.264583" /><rect
   id="rect4170-0"
   width="17.4625"
   height="17.4625"
   x="429.26639"
   y="163.68179"
   style="fill:#d55e00;fill-opacity:1;stroke-width:0.264583" /><path
   style="fill:#0072b2;fill-opacity:1;stroke:none;stroke-width:0.529167;stroke-opacity:1"
   d="m 433.87041,90.247989 c -3.46015,-1.61866 -4.71015,-3.84131 -4.71015,-8.37523 0,-4.38822 0.87719,-6.02001 4.28308,-7.9676 3.90903,-2.23529 9.30327,-1.05668 12.03705,2.63002 1.51964,2.04933 1.82436,7.03732 0.58896,9.64072 -1.98612,4.18546 -7.80465,6.12773 -12.19894,4.07209 z"
   id="path4176-1"
   inkscape:connector-curvature="0" /><path
   style="fill:#0072b2;fill-opacity:1;stroke:none;stroke-width:0.529167;stroke-opacity:1"
   d="m 433.87041,271.22727 c -3.46015,-1.61865 -4.71015,-3.84131 -4.71015,-8.37523 0,-4.38822 0.87719,-6.02001 4.28308,-7.9676 3.90903,-2.23529 9.30327,-1.05668 12.03705,2.63002 1.51964,2.04933 1.82436,7.03733 0.58896,9.64072 -1.98612,4.18546 -7.80465,6.12773 -12.19894,4.07209 z"
   id="path4176-0"
   inkscape:connector-curvature="0" />





<path
   style="fill:none;stroke:#000000;stroke-width:2;stroke-dasharray:none;stroke-opacity:1"
   d="M 446.83502,340.15907 H 30.086014 l 1e-6,-32.78765"
   id="path5408"
   sodipodi:nodetypes="cc" /><path
   style="fill:none;stroke:#000000;stroke-width:2;stroke-dasharray:none;stroke-opacity:1"
   d="M 122.46228,341.15906 V 307.37143"
   id="path5481" /><path
   style="fill:none;stroke:#000000;stroke-width:2;stroke-dasharray:none;stroke-opacity:1"
   d="M 224.25861,341.15906 V 307.37143"
   id="path5483" /><path
   style="fill:none;stroke:#000000;stroke-width:2;stroke-dasharray:none;stroke-opacity:1"
   d="M 313.53844,341.15906 V 307.37143"
   id="path5485" /><path
   style="fill:none;stroke:#000000;stroke-width:2;stroke-dasharray:none;stroke-opacity:1"
   d="M 358.54317,341.15906 V 307.37143"
   id="path5487" /><path
   style="fill:none;stroke:#000000;stroke-width:2;stroke-dasharray:none;stroke-opacity:1"
   d="M 446.83502,341.15906 V 307.37143"
   id="path5491" /><text
   xml:space="preserve"
   style="font-size:7.7611px;font-family:sans-serif;-inkscape-font-specification:'sans-serif, Normal';fill:none;stroke:#000000;stroke-width:2;stroke-dasharray:none;stroke-opacity:1"
   x="72.09227"
   y="360.73553"
   id="text5623"><tspan
     sodipodi:role="line"
     id="tspan5621"
     style="font-style:normal;font-variant:normal;font-weight:normal;font-stretch:normal;font-size:12.7px;font-family:sans-serif;-inkscape-font-specification:'sans-serif, Normal';font-variant-ligatures:normal;font-variant-caps:normal;font-variant-numeric:normal;font-variant-east-asian:normal;fill:#000000;fill-opacity:1;stroke:none;stroke-width:2"
     x="72.09227"
     y="360.73553">Divide tree into segments where coalescence events occur</tspan></text><g
   id="g10"
   inkscape:label="Page 1"
   transform="matrix(0.4390138,0,0,-0.53099578,-274.92696,103.14325)"><g
     id="g364"
     transform="matrix(2.7539092,0,0,2.7539092,43.802453,-639.63063)"
     style="stroke-width:2.83465;stroke-dasharray:none"><g
       id="g366"
       clip-path="url(#clipPath370)"
       style="stroke-width:2.83465;stroke-dasharray:none"><path
         d="m 649.4281,286.12299 2.21577,-20.72149 2.21577,-18.70837 2.21577,-16.88039 2.21577,-15.2215 2.21577,-13.71693 2.21577,-12.35317 2.21577,-11.11778 2.21576,-9.99936 2.21577,-8.98747 2.21577,-8.07254 2.21577,-7.24579 2.21577,-6.49924 2.21577,-5.82551 2.21577,-5.21794 2.21577,-4.67036 2.21577,-4.17722 2.21577,-3.73339 2.21577,-3.33422 2.21577,-2.97548 2.21577,-2.6533 2.58506,-2.73223 2.58507,-2.385569 2.58506,-2.08062 2.58507,-1.812641 2.95436,-1.785271 2.95435,-1.520759 3.32366,-1.440819 3.32365,-1.198561 3.69295,-1.094504 4.06225,-0.966689 4.43154,-0.826508 5.17012,-0.729327 5.90872,-0.600458 7.01661,-0.482758 8.86308,-0.37366 11.81743,-0.258663 18.09545,-0.149373 40.25315,-0.05134 192.40263,-0.0018 v 0"
         style="fill:none;stroke:#56b4e9;stroke-width:2.83465;stroke-linecap:square;stroke-linejoin:round;stroke-miterlimit:10;stroke-dasharray:none;stroke-opacity:1"
         id="path372" /></g></g></g><path
   style="fill:#56b4e9;fill-opacity:1;stroke:#56b4e9;stroke-width:1;stroke-dasharray:4, 4;stroke-dashoffset:0;stroke-opacity:1"
   d="M 358.48481,307.37143 359.24953,173.4377"
   id="path9943"
   sodipodi:nodetypes="cc" /><path
   style="fill:#56b4e9;fill-opacity:1;stroke:#56b4e9;stroke-width:1;stroke-dasharray:4, 4;stroke-dashoffset:0;stroke-opacity:1"
   d="M 446.83502,307.37143 446.72887,178.91128"
   id="path9945" /><text
   xml:space="preserve"
   style="font-style:normal;font-variant:normal;font-weight:normal;font-stretch:normal;font-size:12.7px;font-family:sans-serif;-inkscape-font-specification:'sans-serif, Normal';font-variant-ligatures:normal;font-variant-caps:normal;font-variant-numeric:normal;font-variant-east-asian:normal;fill:#000000;fill-opacity:1;stroke:none;stroke-width:1;stroke-dasharray:4, 4;stroke-dashoffset:0;stroke-opacity:1"
   x="570.28259"
   y="362.22778"
   id="text10555"><tspan
     sodipodi:role="line"
     id="tspan10553"
     style="fill:#000000;fill-opacity:1;stroke:none;stroke-width:1"
     x="570.28259"
     y="362.22778">The likelihood of each event contributes to the tree likelihood</tspan></text><rect
   style="fill:none;fill-opacity:1;stroke:#010304;stroke-width:0.307015;stroke-dasharray:none;stroke-dashoffset:0;stroke-opacity:1"
   id="rect10713"
   width="504.3168"
   height="337.18503"
   x="500.23575"
   y="3.8205318" /></g><path
     style="fill:#1c5d99;fill-opacity:0;stroke:#1c5d99;stroke-width:1.84732;stroke-linecap:butt;stroke-linejoin:miter;stroke-miterlimit:4;stroke-dasharray:none;stroke-dashoffset:0;stroke-opacity:0;paint-order:normal"
     d="m 429.63401,87.006076 c -2.82877,-0.473317 -6.83085,-2.240189 -7.95943,-3.513995 -0.5815,-0.656354 -1.17943,-1.818866 -1.32868,-2.583359 l -0.27138,-1.389991 h -79.66045 -79.66048 v -1.094932 -1.09493 l 79.5954,-0.07932 79.59542,-0.07932 0.14242,-0.782836 c 0.52369,-2.877676 4.14751,-5.400895 9.17789,-6.390444 7.62041,-1.499046 16.6826,0.51471 19.43506,4.318753 1.38604,1.915565 1.63976,5.087793 0.57597,7.200429 -2.14984,4.269489 -11.43147,6.863726 -19.64179,5.489953 z"
     id="path6019"
     inkscape:connector-curvature="0" /><path
     style="fill:#1c5d99;fill-opacity:0;stroke:#1c5d99;stroke-width:1.84732;stroke-linecap:butt;stroke-linejoin:miter;stroke-miterlimit:4;stroke-dasharray:none;stroke-dashoffset:0;stroke-opacity:0;paint-order:normal"
     d="m 429.63401,87.006076 c -2.82877,-0.473317 -6.83085,-2.240189 -7.95943,-3.513995 -0.5815,-0.656354 -1.17943,-1.818866 -1.32868,-2.583359 l -0.27138,-1.389991 h -79.66045 -79.66048 v -1.094932 -1.09493 l 79.5954,-0.07932 79.59542,-0.07932 0.14242,-0.782836 c 0.52369,-2.877676 4.14751,-5.400895 9.17789,-6.390444 7.62041,-1.499046 16.6826,0.51471 19.43506,4.318753 1.38604,1.915565 1.63976,5.087793 0.57597,7.200429 -2.14984,4.269489 -11.43147,6.863726 -19.64179,5.489953 z"
     id="path6021"
     inkscape:connector-curvature="0" /><path
     style="fill:#1c5d99;fill-opacity:0;stroke:#1c5d99;stroke-width:1.84732;stroke-linecap:butt;stroke-linejoin:miter;stroke-miterlimit:4;stroke-dasharray:none;stroke-dashoffset:0;stroke-opacity:0;paint-order:normal"
     d="m 429.63401,87.006076 c -2.82877,-0.473317 -6.83085,-2.240189 -7.95943,-3.513995 -0.5815,-0.656354 -1.17943,-1.818866 -1.32868,-2.583359 l -0.27138,-1.389991 h -79.66045 -79.66048 v -1.094932 -1.09493 l 79.5954,-0.07932 79.59542,-0.07932 0.14242,-0.782836 c 0.52369,-2.877676 4.14751,-5.400895 9.17789,-6.390444 7.62041,-1.499046 16.6826,0.51471 19.43506,4.318753 1.38604,1.915565 1.63976,5.087793 0.57597,7.200429 -2.14984,4.269489 -11.43147,6.863726 -19.64179,5.489953 z"
     id="path6023"
     inkscape:connector-curvature="0" /><path
     style="fill:#1c5d99;fill-opacity:0;stroke:#1c5d99;stroke-width:1.84732;stroke-linecap:butt;stroke-linejoin:miter;stroke-miterlimit:4;stroke-dasharray:none;stroke-dashoffset:0;stroke-opacity:0;paint-order:normal"
     d="m 429.63401,87.006076 c -2.82877,-0.473317 -6.83085,-2.240189 -7.95943,-3.513995 -0.5815,-0.656354 -1.17943,-1.818866 -1.32868,-2.583359 l -0.27138,-1.389991 h -79.66045 -79.66048 v -1.094932 -1.09493 l 79.5954,-0.07932 79.59542,-0.07932 0.14242,-0.782836 c 0.52369,-2.877676 4.14751,-5.400895 9.17789,-6.390444 7.62041,-1.499046 16.6826,0.51471 19.43506,4.318753 1.38604,1.915565 1.63976,5.087793 0.57597,7.200429 -2.14984,4.269489 -11.43147,6.863726 -19.64179,5.489953 z"
     id="path6025"
     inkscape:connector-curvature="0" /><path
     style="fill:#1c5d99;fill-opacity:0;stroke:#1c5d99;stroke-width:1.84732;stroke-linecap:butt;stroke-linejoin:miter;stroke-miterlimit:4;stroke-dasharray:none;stroke-dashoffset:0;stroke-opacity:0;paint-order:normal"
     d="m 429.63401,87.006076 c -2.82877,-0.473317 -6.83085,-2.240189 -7.95943,-3.513995 -0.5815,-0.656354 -1.17943,-1.818866 -1.32868,-2.583359 l -0.27138,-1.389991 h -79.66045 -79.66048 v -1.094932 -1.09493 l 79.5954,-0.07932 79.59542,-0.07932 0.14242,-0.782836 c 0.52369,-2.877676 4.14751,-5.400895 9.17789,-6.390444 7.62041,-1.499046 16.6826,0.51471 19.43506,4.318753 1.38604,1.915565 1.63976,5.087793 0.57597,7.200429 -2.14984,4.269489 -11.43147,6.863726 -19.64179,5.489953 z"
     id="path6027"
     inkscape:connector-curvature="0" /><path
     style="fill:#1c5d99;fill-opacity:0;stroke:#1c5d99;stroke-width:1.84732;stroke-linecap:butt;stroke-linejoin:miter;stroke-miterlimit:4;stroke-dasharray:none;stroke-dashoffset:0;stroke-opacity:0;paint-order:normal"
     d="m 429.63401,87.006076 c -2.82877,-0.473317 -6.83085,-2.240189 -7.95943,-3.513995 -0.5815,-0.656354 -1.17943,-1.818866 -1.32868,-2.583359 l -0.27138,-1.389991 h -79.66045 -79.66048 v -1.094932 -1.09493 l 79.5954,-0.07932 79.59542,-0.07932 0.14242,-0.782836 c 0.52369,-2.877676 4.14751,-5.400895 9.17789,-6.390444 7.62041,-1.499046 16.6826,0.51471 19.43506,4.318753 1.38604,1.915565 1.63976,5.087793 0.57597,7.200429 -2.14984,4.269489 -11.43147,6.863726 -19.64179,5.489953 z"
     id="path6029"
     inkscape:connector-curvature="0" /><path
     style="fill:#1c5d99;fill-opacity:0;stroke:#1c5d99;stroke-width:1.84732;stroke-linecap:butt;stroke-linejoin:miter;stroke-miterlimit:4;stroke-dasharray:none;stroke-dashoffset:0;stroke-opacity:0;paint-order:normal"
     d="m 429.63401,87.006076 c -2.82877,-0.473317 -6.83085,-2.240189 -7.95943,-3.513995 -0.5815,-0.656354 -1.17943,-1.818866 -1.32868,-2.583359 l -0.27138,-1.389991 h -79.66045 -79.66048 v -1.094932 -1.09493 l 79.5954,-0.07932 79.59542,-0.07932 0.14242,-0.782836 c 0.52369,-2.877676 4.14751,-5.400895 9.17789,-6.390444 7.62041,-1.499046 16.6826,0.51471 19.43506,4.318753 1.38604,1.915565 1.63976,5.087793 0.57597,7.200429 -2.14984,4.269489 -11.43147,6.863726 -19.64179,5.489953 z"
     id="path6031"
     inkscape:connector-curvature="0" /><path
     style="fill:#1c5d99;fill-opacity:0;stroke:#1c5d99;stroke-width:1.84732;stroke-linecap:butt;stroke-linejoin:miter;stroke-miterlimit:4;stroke-dasharray:none;stroke-dashoffset:0;stroke-opacity:0;paint-order:normal"
     d="m 429.63401,87.006076 c -2.82877,-0.473317 -6.83085,-2.240189 -7.95943,-3.513995 -0.5815,-0.656354 -1.17943,-1.818866 -1.32868,-2.583359 l -0.27138,-1.389991 h -79.66045 -79.66048 v -1.094932 -1.09493 l 79.5954,-0.07932 79.59542,-0.07932 0.14242,-0.782836 c 0.52369,-2.877676 4.14751,-5.400895 9.17789,-6.390444 7.62041,-1.499046 16.6826,0.51471 19.43506,4.318753 1.38604,1.915565 1.63976,5.087793 0.57597,7.200429 -2.14984,4.269489 -11.43147,6.863726 -19.64179,5.489953 z"
     id="path6033"
     inkscape:connector-curvature="0" /><path
     style="fill:#1c5d99;fill-opacity:0;stroke:#1c5d99;stroke-width:1.31328;stroke-linecap:butt;stroke-linejoin:miter;stroke-miterlimit:4;stroke-dasharray:none;stroke-dashoffset:0;stroke-opacity:0;paint-order:normal"
     d="m 429.63401,87.006076 c -2.82877,-0.473317 -6.83085,-2.240189 -7.95943,-3.513995 -0.5815,-0.656354 -1.17943,-1.818866 -1.32868,-2.583359 l -0.27138,-1.389991 h -79.66045 -79.66048 v -1.094932 -1.09493 l 79.5954,-0.07932 79.59542,-0.07932 0.14242,-0.782836 c 0.52369,-2.877676 4.14751,-5.400895 9.17789,-6.390444 7.62041,-1.499046 16.6826,0.51471 19.43506,4.318753 1.38604,1.915565 1.63976,5.087793 0.57597,7.200429 -2.14984,4.269489 -11.43147,6.863726 -19.64179,5.489953 z"
     id="path6035"
     inkscape:connector-curvature="0" /><path
     style="fill:#1c5d99;fill-opacity:0;stroke:#1c5d99;stroke-width:1.18605;stroke-linecap:butt;stroke-linejoin:miter;stroke-miterlimit:4;stroke-dasharray:none;stroke-dashoffset:0;stroke-opacity:0;paint-order:normal"
     d="m 158.75202,260.7472 v -21.96652 h -62.3971 c -60.308269,0 -75.187027,-0.13019 -76.053384,-0.66547 -0.332365,-0.20535 -0.427699,-7.89757 -0.506929,-40.90251 l -0.09758,-40.6496 H 10.145025 0.59302503 v -1.72594 -1.72594 h 9.54923097 9.54923 l 0.100351,-40.61203 c 0.05519,-22.33662 0.170958,-40.679553 0.257254,-40.762074 0.0863,-0.08252 12.04812,-0.253934 26.58183,-0.380912 l 26.424924,-0.230873 0.09181,-19.4266 C 73.221335,36.108312 73.32056,32.22204 73.650133,32.01847 74.48252,31.504329 85.340036,31.353895 121.61595,31.353895 h 37.13607 V 20.998248 c 0,-10.146444 0.0127,-10.355649 0.62761,-10.355649 0.61631,0 0.62762,0.209205 0.62762,11.610879 v 11.610879 h 45.8159 45.8159 v -4.864018 -4.864015 h 8.78661 8.7866 v 8.943514 8.943515 h -8.7866 -8.78661 v -3.922596 -3.922594 h -45.8159 -45.8159 v 21.495816 21.495816 h 45.77219 45.77219 l 0.18383,-1.552167 c 0.25324,-2.138223 0.92598,-3.292017 2.65978,-4.56166 3.91293,-2.865406 8.87818,-2.714429 12.31372,0.374422 2.01343,1.810232 2.65959,3.511973 2.65597,6.994636 -0.003,3.128039 -0.73144,4.989587 -2.59004,6.621463 -1.96699,1.727043 -3.65789,2.315532 -6.66305,2.318985 -2.37323,0.0028 -2.85266,-0.09958 -4.34798,-0.927806 -2.62277,-1.452729 -4.12481,-3.726704 -4.12481,-6.244656 v -0.826564 h -45.8159 -45.8159 v 32.949792 32.94979 h 24.9477 24.9477 l 0.005,-10.90481 c 0.002,-6.01429 0.13308,-11.10754 0.29083,-11.35686 0.49623,-0.78427 3.98286,-0.92735 23.00458,-0.94397 l 18.43619,-0.0161 v -3.76569 -3.76569 h 8.78663 8.7866 v 8.94351 8.94352 h -8.7866 -8.78663 v -3.46683 -3.46681 l -16.23954,0.18166 c -8.93174,0.0999 -17.54576,0.26102 -19.14226,0.35803 l -2.90271,0.17637 v 20.5251 20.52511 h 19.14225 19.14226 v -3.60879 -3.60878 h 8.78663 8.7866 v 8.78661 8.78661 h -8.7866 -8.78663 v -3.48584 -3.48585 l -10.7479,0.22289 c -19.23235,0.39885 -29.96456,0.36645 -30.42346,-0.0918 -0.31554,-0.31512 -0.42859,-2.86037 -0.49831,-11.21862 l -0.0902,-10.81103 h -24.93597 -24.93596 v 44.55694 44.55693 l 12.00313,0.086 12.00314,0.086 -12.00314,0.0746 -12.00313,0.0746 v 22.28034 c 0,22.07111 -0.006,22.28032 -0.62762,22.28032 -0.62164,0 -0.62762,-0.20921 -0.62762,-21.96652 z m 0,-68.7017 v -43.2833 l -12.69834,-0.10059 c -11.69054,-0.0926 -12.74278,-0.14505 -13.25836,-0.66069 -0.51976,-0.51981 -0.56718,-1.68506 -0.65929,-16.20316 l -0.0993,-15.64308 -12.29614,-0.18395 c -47.019506,-0.7034 -45.365678,-0.65859 -45.952431,-1.24511 -0.50877,-0.50856 -0.555556,-1.98745 -0.642467,-20.307397 L 73.051998,74.659336 H 48.119584 23.187166 v 80.334724 80.33473 h 67.782424 67.78243 z m 0,-79.41545 V 79.994064 h -11.61088 -11.61088 v 32.635986 32.63598 h 11.61088 11.61088 z m -26.6182,-17.704216 c 0.0558,-9.737314 0.17207,-17.772319 0.25837,-17.855567 0.0863,-0.08324 6.05256,-0.255072 13.25837,-0.381836 l 13.10146,-0.230487 V 55.63186 34.805779 H 117.80014 76.848253 v 38.598326 38.598335 l 5.883892,0.0452 c 6.544042,0.0503 39.108415,0.42444 45.322175,0.52076 l 3.97804,0.0617 z M 251.63905,78.26812 v -0.784518 h -45.8159 -45.8159 v 0.784518 0.784519 h 45.8159 45.8159 z"
     id="path6037"
     inkscape:connector-curvature="0" /><path
     style="fill:#1c5d99;fill-opacity:0;stroke:#1c5d99;stroke-width:1.18605;stroke-linecap:butt;stroke-linejoin:miter;stroke-miterlimit:4;stroke-dasharray:none;stroke-dashoffset:0;stroke-opacity:0;paint-order:normal"
     d="m 158.75202,260.7472 v -21.96652 h -62.3971 c -60.308269,0 -75.187027,-0.13019 -76.053384,-0.66547 -0.332365,-0.20535 -0.427699,-7.89757 -0.506929,-40.90251 l -0.09758,-40.6496 H 10.145025 0.59302503 v -1.72594 -1.72594 h 9.54923097 9.54923 l 0.100351,-40.61203 c 0.05519,-22.33662 0.170958,-40.679553 0.257254,-40.762074 0.0863,-0.08252 12.04812,-0.253934 26.58183,-0.380912 l 26.424924,-0.230873 0.09181,-19.4266 C 73.221335,36.108312 73.32056,32.22204 73.650133,32.01847 74.48252,31.504329 85.340036,31.353895 121.61595,31.353895 h 37.13607 V 20.998248 c 0,-10.146444 0.0127,-10.355649 0.62761,-10.355649 0.61631,0 0.62762,0.209205 0.62762,11.610879 v 11.610879 h 45.8159 45.8159 v -4.864018 -4.864015 h 8.78661 8.7866 v 8.943514 8.943515 h -8.7866 -8.78661 v -3.922596 -3.922594 h -45.8159 -45.8159 v 21.495816 21.495816 h 45.77219 45.77219 l 0.18383,-1.552167 c 0.25324,-2.138223 0.92598,-3.292017 2.65978,-4.56166 3.91293,-2.865406 8.87818,-2.714429 12.31372,0.374422 2.01343,1.810232 2.65959,3.511973 2.65597,6.994636 -0.003,3.128039 -0.73144,4.989587 -2.59004,6.621463 -1.96699,1.727043 -3.65789,2.315532 -6.66305,2.318985 -2.37323,0.0028 -2.85266,-0.09958 -4.34798,-0.927806 -2.62277,-1.452729 -4.12481,-3.726704 -4.12481,-6.244656 v -0.826564 h -45.8159 -45.8159 v 32.949792 32.94979 h 24.9477 24.9477 l 0.005,-10.90481 c 0.002,-6.01429 0.13308,-11.10754 0.29083,-11.35686 0.49623,-0.78427 3.98286,-0.92735 23.00458,-0.94397 l 18.43619,-0.0161 v -3.76569 -3.76569 h 8.78663 8.7866 v 8.94351 8.94352 h -8.7866 -8.78663 v -3.46683 -3.46681 l -16.23954,0.18166 c -8.93174,0.0999 -17.54576,0.26102 -19.14226,0.35803 l -2.90271,0.17637 v 20.5251 20.52511 h 19.14225 19.14226 v -3.60879 -3.60878 h 8.78663 8.7866 v 8.78661 8.78661 h -8.7866 -8.78663 v -3.48584 -3.48585 l -10.7479,0.22289 c -19.23235,0.39885 -29.96456,0.36645 -30.42346,-0.0918 -0.31554,-0.31512 -0.42859,-2.86037 -0.49831,-11.21862 l -0.0902,-10.81103 h -24.93597 -24.93596 v 44.55694 44.55693 l 12.00313,0.086 12.00314,0.086 -12.00314,0.0746 -12.00313,0.0746 v 22.28034 c 0,22.07111 -0.006,22.28032 -0.62762,22.28032 -0.62164,0 -0.62762,-0.20921 -0.62762,-21.96652 z m 0,-68.7017 v -43.2833 l -12.69834,-0.10059 c -11.69054,-0.0926 -12.74278,-0.14505 -13.25836,-0.66069 -0.51976,-0.51981 -0.56718,-1.68506 -0.65929,-16.20316 l -0.0993,-15.64308 -12.29614,-0.18395 c -47.019506,-0.7034 -45.365678,-0.65859 -45.952431,-1.24511 -0.50877,-0.50856 -0.555556,-1.98745 -0.642467,-20.307397 L 73.051998,74.659336 H 48.119584 23.187166 v 80.334724 80.33473 h 67.782424 67.78243 z m 0,-79.41545 V 79.994064 h -11.61088 -11.61088 v 32.635986 32.63598 h 11.61088 11.61088 z m -26.6182,-17.704216 c 0.0558,-9.737314 0.17207,-17.772319 0.25837,-17.855567 0.0863,-0.08324 6.05256,-0.255072 13.25837,-0.381836 l 13.10146,-0.230487 V 55.63186 34.805779 H 117.80014 76.848253 v 38.598326 38.598335 l 5.883892,0.0452 c 6.544042,0.0503 39.108415,0.42444 45.322175,0.52076 l 3.97804,0.0617 z M 251.63905,78.26812 v -0.784518 h -45.8159 -45.8159 v 0.784518 0.784519 h 45.8159 45.8159 z"
     id="path6039"
     inkscape:connector-curvature="0" /><path
     style="fill:#1c5d99;fill-opacity:0;stroke:#1c5d99;stroke-width:1.18605;stroke-linecap:butt;stroke-linejoin:miter;stroke-miterlimit:4;stroke-dasharray:none;stroke-dashoffset:0;stroke-opacity:0;paint-order:normal"
     d="m 158.75202,260.7472 v -21.96652 h -62.3971 c -60.308269,0 -75.187027,-0.13019 -76.053384,-0.66547 -0.332365,-0.20535 -0.427699,-7.89757 -0.506929,-40.90251 l -0.09758,-40.6496 H 10.145025 0.59302503 v -1.72594 -1.72594 h 9.54923097 9.54923 l 0.100351,-40.61203 c 0.05519,-22.33662 0.170958,-40.679553 0.257254,-40.762074 0.0863,-0.08252 12.04812,-0.253934 26.58183,-0.380912 l 26.424924,-0.230873 0.09181,-19.4266 C 73.221335,36.108312 73.32056,32.22204 73.650133,32.01847 74.48252,31.504329 85.340036,31.353895 121.61595,31.353895 h 37.13607 V 20.998248 c 0,-10.146444 0.0127,-10.355649 0.62761,-10.355649 0.61631,0 0.62762,0.209205 0.62762,11.610879 v 11.610879 h 45.8159 45.8159 v -4.864018 -4.864015 h 8.78661 8.7866 v 8.943514 8.943515 h -8.7866 -8.78661 v -3.922596 -3.922594 h -45.8159 -45.8159 v 21.495816 21.495816 h 45.77219 45.77219 l 0.18383,-1.552167 c 0.25324,-2.138223 0.92598,-3.292017 2.65978,-4.56166 3.91293,-2.865406 8.87818,-2.714429 12.31372,0.374422 2.01343,1.810232 2.65959,3.511973 2.65597,6.994636 -0.003,3.128039 -0.73144,4.989587 -2.59004,6.621463 -1.96699,1.727043 -3.65789,2.315532 -6.66305,2.318985 -2.37323,0.0028 -2.85266,-0.09958 -4.34798,-0.927806 -2.62277,-1.452729 -4.12481,-3.726704 -4.12481,-6.244656 v -0.826564 h -45.8159 -45.8159 v 32.949792 32.94979 h 24.9477 24.9477 l 0.005,-10.90481 c 0.002,-6.01429 0.13308,-11.10754 0.29083,-11.35686 0.49623,-0.78427 3.98286,-0.92735 23.00458,-0.94397 l 18.43619,-0.0161 v -3.76569 -3.76569 h 8.78663 8.7866 v 8.94351 8.94352 h -8.7866 -8.78663 v -3.46683 -3.46681 l -16.23954,0.18166 c -8.93174,0.0999 -17.54576,0.26102 -19.14226,0.35803 l -2.90271,0.17637 v 20.5251 20.52511 h 19.14225 19.14226 v -3.60879 -3.60878 h 8.78663 8.7866 v 8.78661 8.78661 h -8.7866 -8.78663 v -3.48584 -3.48585 l -10.7479,0.22289 c -19.23235,0.39885 -29.96456,0.36645 -30.42346,-0.0918 -0.31554,-0.31512 -0.42859,-2.86037 -0.49831,-11.21862 l -0.0902,-10.81103 h -24.93597 -24.93596 v 44.55694 44.55693 l 12.00313,0.086 12.00314,0.086 -12.00314,0.0746 -12.00313,0.0746 v 22.28034 c 0,22.07111 -0.006,22.28032 -0.62762,22.28032 -0.62164,0 -0.62762,-0.20921 -0.62762,-21.96652 z m 0,-68.7017 v -43.2833 l -12.69834,-0.10059 c -11.69054,-0.0926 -12.74278,-0.14505 -13.25836,-0.66069 -0.51976,-0.51981 -0.56718,-1.68506 -0.65929,-16.20316 l -0.0993,-15.64308 -12.29614,-0.18395 c -47.019506,-0.7034 -45.365678,-0.65859 -45.952431,-1.24511 -0.50877,-0.50856 -0.555556,-1.98745 -0.642467,-20.307397 L 73.051998,74.659336 H 48.119584 23.187166 v 80.334724 80.33473 h 67.782424 67.78243 z m 0,-79.41545 V 79.994064 h -11.61088 -11.61088 v 32.635986 32.63598 h 11.61088 11.61088 z m -26.6182,-17.704216 c 0.0558,-9.737314 0.17207,-17.772319 0.25837,-17.855567 0.0863,-0.08324 6.05256,-0.255072 13.25837,-0.381836 l 13.10146,-0.230487 V 55.63186 34.805779 H 117.80014 76.848253 v 38.598326 38.598335 l 5.883892,0.0452 c 6.544042,0.0503 39.108415,0.42444 45.322175,0.52076 l 3.97804,0.0617 z M 251.63905,78.26812 v -0.784518 h -45.8159 -45.8159 v 0.784518 0.784519 h 45.8159 45.8159 z"
     id="path6041"
     inkscape:connector-curvature="0" /><path
     style="fill:#1c5d99;fill-opacity:0;stroke:#1c5d99;stroke-width:1.18605;stroke-linecap:butt;stroke-linejoin:miter;stroke-miterlimit:4;stroke-dasharray:none;stroke-dashoffset:0;stroke-opacity:0;paint-order:normal"
     d="m 158.75202,260.7472 v -21.96652 h -62.3971 c -60.308269,0 -75.187027,-0.13019 -76.053384,-0.66547 -0.332365,-0.20535 -0.427699,-7.89757 -0.506929,-40.90251 l -0.09758,-40.6496 H 10.145025 0.59302503 v -1.72594 -1.72594 h 9.54923097 9.54923 l 0.100351,-40.61203 c 0.05519,-22.33662 0.170958,-40.679553 0.257254,-40.762074 0.0863,-0.08252 12.04812,-0.253934 26.58183,-0.380912 l 26.424924,-0.230873 0.09181,-19.4266 C 73.221335,36.108312 73.32056,32.22204 73.650133,32.01847 74.48252,31.504329 85.340036,31.353895 121.61595,31.353895 h 37.13607 V 20.998248 c 0,-10.146444 0.0127,-10.355649 0.62761,-10.355649 0.61631,0 0.62762,0.209205 0.62762,11.610879 v 11.610879 h 45.8159 45.8159 v -4.864018 -4.864015 h 8.78661 8.7866 v 8.943514 8.943515 h -8.7866 -8.78661 v -3.922596 -3.922594 h -45.8159 -45.8159 v 21.495816 21.495816 h 45.77219 45.77219 l 0.18383,-1.552167 c 0.25324,-2.138223 0.92598,-3.292017 2.65978,-4.56166 3.91293,-2.865406 8.87818,-2.714429 12.31372,0.374422 2.01343,1.810232 2.65959,3.511973 2.65597,6.994636 -0.003,3.128039 -0.73144,4.989587 -2.59004,6.621463 -1.96699,1.727043 -3.65789,2.315532 -6.66305,2.318985 -2.37323,0.0028 -2.85266,-0.09958 -4.34798,-0.927806 -2.62277,-1.452729 -4.12481,-3.726704 -4.12481,-6.244656 v -0.826564 h -45.8159 -45.8159 v 32.949792 32.94979 h 24.9477 24.9477 l 0.005,-10.90481 c 0.002,-6.01429 0.13308,-11.10754 0.29083,-11.35686 0.49623,-0.78427 3.98286,-0.92735 23.00458,-0.94397 l 18.43619,-0.0161 v -3.76569 -3.76569 h 8.78663 8.7866 v 8.94351 8.94352 h -8.7866 -8.78663 v -3.46683 -3.46681 l -16.23954,0.18166 c -8.93174,0.0999 -17.54576,0.26102 -19.14226,0.35803 l -2.90271,0.17637 v 20.5251 20.52511 h 19.14225 19.14226 v -3.60879 -3.60878 h 8.78663 8.7866 v 8.78661 8.78661 h -8.7866 -8.78663 v -3.48584 -3.48585 l -10.7479,0.22289 c -19.23235,0.39885 -29.96456,0.36645 -30.42346,-0.0918 -0.31554,-0.31512 -0.42859,-2.86037 -0.49831,-11.21862 l -0.0902,-10.81103 h -24.93597 -24.93596 v 44.55694 44.55693 l 12.00313,0.086 12.00314,0.086 -12.00314,0.0746 -12.00313,0.0746 v 22.28034 c 0,22.07111 -0.006,22.28032 -0.62762,22.28032 -0.62164,0 -0.62762,-0.20921 -0.62762,-21.96652 z m 0,-68.7017 v -43.2833 l -12.69834,-0.10059 c -11.69054,-0.0926 -12.74278,-0.14505 -13.25836,-0.66069 -0.51976,-0.51981 -0.56718,-1.68506 -0.65929,-16.20316 l -0.0993,-15.64308 -12.29614,-0.18395 c -47.019506,-0.7034 -45.365678,-0.65859 -45.952431,-1.24511 -0.50877,-0.50856 -0.555556,-1.98745 -0.642467,-20.307397 L 73.051998,74.659336 H 48.119584 23.187166 v 80.334724 80.33473 h 67.782424 67.78243 z m 0,-79.41545 V 79.994064 h -11.61088 -11.61088 v 32.635986 32.63598 h 11.61088 11.61088 z m -26.6182,-17.704216 c 0.0558,-9.737314 0.17207,-17.772319 0.25837,-17.855567 0.0863,-0.08324 6.05256,-0.255072 13.25837,-0.381836 l 13.10146,-0.230487 V 55.63186 34.805779 H 117.80014 76.848253 v 38.598326 38.598335 l 5.883892,0.0452 c 6.544042,0.0503 39.108415,0.42444 45.322175,0.52076 l 3.97804,0.0617 z M 251.63905,78.26812 v -0.784518 h -45.8159 -45.8159 v 0.784518 0.784519 h 45.8159 45.8159 z"
     id="path6043"
     inkscape:connector-curvature="0" /><path
     style="fill:#1c5d99;fill-opacity:0;stroke:#1c5d99;stroke-width:1.18605;stroke-linecap:butt;stroke-linejoin:miter;stroke-miterlimit:4;stroke-dasharray:none;stroke-dashoffset:0;stroke-opacity:0;paint-order:normal"
     d="m 158.75202,260.7472 v -21.96652 h -62.3971 c -60.308269,0 -75.187027,-0.13019 -76.053384,-0.66547 -0.332365,-0.20535 -0.427699,-7.89757 -0.506929,-40.90251 l -0.09758,-40.6496 H 10.145025 0.59302503 v -1.72594 -1.72594 h 9.54923097 9.54923 l 0.100351,-40.61203 c 0.05519,-22.33662 0.170958,-40.679553 0.257254,-40.762074 0.0863,-0.08252 12.04812,-0.253934 26.58183,-0.380912 l 26.424924,-0.230873 0.09181,-19.4266 C 73.221335,36.108312 73.32056,32.22204 73.650133,32.01847 74.48252,31.504329 85.340036,31.353895 121.61595,31.353895 h 37.13607 V 20.998248 c 0,-10.146444 0.0127,-10.355649 0.62761,-10.355649 0.61631,0 0.62762,0.209205 0.62762,11.610879 v 11.610879 h 45.8159 45.8159 v -4.864018 -4.864015 h 8.78661 8.7866 v 8.943514 8.943515 h -8.7866 -8.78661 v -3.922596 -3.922594 h -45.8159 -45.8159 v 21.495816 21.495816 h 45.77219 45.77219 l 0.18383,-1.552167 c 0.25324,-2.138223 0.92598,-3.292017 2.65978,-4.56166 3.91293,-2.865406 8.87818,-2.714429 12.31372,0.374422 2.01343,1.810232 2.65959,3.511973 2.65597,6.994636 -0.003,3.128039 -0.73144,4.989587 -2.59004,6.621463 -1.96699,1.727043 -3.65789,2.315532 -6.66305,2.318985 -2.37323,0.0028 -2.85266,-0.09958 -4.34798,-0.927806 -2.62277,-1.452729 -4.12481,-3.726704 -4.12481,-6.244656 v -0.826564 h -45.8159 -45.8159 v 32.949792 32.94979 h 24.9477 24.9477 l 0.005,-10.90481 c 0.002,-6.01429 0.13308,-11.10754 0.29083,-11.35686 0.49623,-0.78427 3.98286,-0.92735 23.00458,-0.94397 l 18.43619,-0.0161 v -3.76569 -3.76569 h 8.78663 8.7866 v 8.94351 8.94352 h -8.7866 -8.78663 v -3.46683 -3.46681 l -16.23954,0.18166 c -8.93174,0.0999 -17.54576,0.26102 -19.14226,0.35803 l -2.90271,0.17637 v 20.5251 20.52511 h 19.14225 19.14226 v -3.60879 -3.60878 h 8.78663 8.7866 v 8.78661 8.78661 h -8.7866 -8.78663 v -3.48584 -3.48585 l -10.7479,0.22289 c -19.23235,0.39885 -29.96456,0.36645 -30.42346,-0.0918 -0.31554,-0.31512 -0.42859,-2.86037 -0.49831,-11.21862 l -0.0902,-10.81103 h -24.93597 -24.93596 v 44.55694 44.55693 l 12.00313,0.086 12.00314,0.086 -12.00314,0.0746 -12.00313,0.0746 v 22.28034 c 0,22.07111 -0.006,22.28032 -0.62762,22.28032 -0.62164,0 -0.62762,-0.20921 -0.62762,-21.96652 z m 0,-68.7017 v -43.2833 l -12.69834,-0.10059 c -11.69054,-0.0926 -12.74278,-0.14505 -13.25836,-0.66069 -0.51976,-0.51981 -0.56718,-1.68506 -0.65929,-16.20316 l -0.0993,-15.64308 -12.29614,-0.18395 c -47.019506,-0.7034 -45.365678,-0.65859 -45.952431,-1.24511 -0.50877,-0.50856 -0.555556,-1.98745 -0.642467,-20.307397 L 73.051998,74.659336 H 48.119584 23.187166 v 80.334724 80.33473 h 67.782424 67.78243 z m 0,-79.41545 V 79.994064 h -11.61088 -11.61088 v 32.635986 32.63598 h 11.61088 11.61088 z m -26.6182,-17.704216 c 0.0558,-9.737314 0.17207,-17.772319 0.25837,-17.855567 0.0863,-0.08324 6.05256,-0.255072 13.25837,-0.381836 l 13.10146,-0.230487 V 55.63186 34.805779 H 117.80014 76.848253 v 38.598326 38.598335 l 5.883892,0.0452 c 6.544042,0.0503 39.108415,0.42444 45.322175,0.52076 l 3.97804,0.0617 z M 251.63905,78.26812 v -0.784518 h -45.8159 -45.8159 v 0.784518 0.784519 h 45.8159 45.8159 z"
     id="path6045"
     inkscape:connector-curvature="0" /></svg>
