<?xml version="1.0" encoding="UTF-8" standalone="no"?>
<!-- Created with Inkscape (http://www.inkscape.org/) -->

<svg
   xmlns:dc="http://purl.org/dc/elements/1.1/"
   xmlns:cc="http://creativecommons.org/ns#"
   xmlns:rdf="http://www.w3.org/1999/02/22-rdf-syntax-ns#"
   xmlns:svg="http://www.w3.org/2000/svg"
   xmlns="http://www.w3.org/2000/svg"
   xmlns:sodipodi="http://sodipodi.sourceforge.net/DTD/sodipodi-0.dtd"
   xmlns:inkscape="http://www.inkscape.org/namespaces/inkscape"
   width="500mm"
   height="300mm"
   viewBox="0 0 500 300.00001"
   version="1.1"
   id="svg8"
   inkscape:version="0.92.5 (2060ec1f9f, 2020-04-08)"
   sodipodi:docname="tree-option1.svg"
   xml:space="preserve"><defs
     id="defs2"><clipPath
       clipPathUnits="userSpaceOnUse"
       id="clipPath4344"><rect
         style="fill:#00ff00;fill-opacity:0.41544201;stroke:none;stroke-width:0.264999;stroke-dasharray:none"
         id="rect4346"
         width="448.2951"
         height="200.26271"
         x="30.505629"
         y="54.441097" /></clipPath></defs><sodipodi:namedview
     id="base"
     pagecolor="#ffffff"
     bordercolor="#666666"
     borderopacity="1.0"
     inkscape:pageopacity="0.0"
     inkscape:pageshadow="2"
     inkscape:zoom="0.53357689"
     inkscape:cx="699.95166"
     inkscape:cy="619.93794"
     inkscape:document-units="mm"
     inkscape:current-layer="g2219"
     showgrid="false"
     units="mm"
     inkscape:pagecheckerboard="false"
     inkscape:window-width="1920"
     inkscape:window-height="1136"
     inkscape:window-x="0"
     inkscape:window-y="27"
     inkscape:window-maximized="1"
     inkscape:showpageshadow="0"
     inkscape:deskcolor="#d1d1d1"
     inkscape:snap-object-midpoints="true"
     inkscape:snap-center="false"
     inkscape:snap-grids="true"
     inkscape:snap-bbox="false"
     inkscape:snap-bbox-edge-midpoints="true"
     inkscape:bbox-paths="true"
     inkscape:bbox-nodes="true"
     inkscape:snap-bbox-midpoints="true"
     inkscape:snap-global="true"
     inkscape:object-nodes="true"
     inkscape:snap-others="true"
     inkscape:object-paths="true"
     inkscape:snap-page="true" /><metadata
     id="metadata5"><rdf:RDF><cc:Work
         rdf:about=""><dc:format>image/svg+xml</dc:format><dc:type
           rdf:resource="http://purl.org/dc/dcmitype/StillImage" /><dc:title /></cc:Work></rdf:RDF></metadata><g
     inkscape:label="Branches"
     inkscape:groupmode="layer"
     id="layer1"
     transform="translate(0,3.000061)"><flowRoot
   xml:space="preserve"
   id="flowRoot18"
   style="font-style:normal;font-variant:normal;font-weight:500;font-stretch:normal;font-size:40px;line-height:1.25;font-family:'CMU Sans Serif';-inkscape-font-specification:'CMU Sans Serif, Medium';font-variant-ligatures:normal;font-variant-caps:normal;font-variant-numeric:normal;font-feature-settings:normal;text-align:start;letter-spacing:0px;word-spacing:0px;writing-mode:lr-tb;text-anchor:start;fill:#000000;fill-opacity:1;stroke:none"><flowRegion
     id="flowRegion20"
     style="font-style:normal;font-variant:normal;font-weight:500;font-stretch:normal;font-size:40px;font-family:'CMU Sans Serif';-inkscape-font-specification:'CMU Sans Serif, Medium';font-variant-ligatures:normal;font-variant-caps:normal;font-variant-numeric:normal;font-feature-settings:normal;text-align:start;writing-mode:lr-tb;text-anchor:start"><rect
       id="rect22"
       width="1310"
       height="318"
       x="354"
       y="142"
       style="font-style:normal;font-variant:normal;font-weight:500;font-stretch:normal;font-size:40px;font-family:'CMU Sans Serif';-inkscape-font-specification:'CMU Sans Serif, Medium';font-variant-ligatures:normal;font-variant-caps:normal;font-variant-numeric:normal;font-feature-settings:normal;text-align:start;writing-mode:lr-tb;text-anchor:start" /></flowRegion><flowPara
     id="flowPara24" /></flowRoot>

<flowRoot
   xml:space="preserve"
   id="flowRoot4050"
   style="font-style:normal;font-variant:normal;font-weight:500;font-stretch:normal;font-size:48px;line-height:1.25;font-family:'CMU Sans Serif';-inkscape-font-specification:'CMU Sans Serif, Medium';font-variant-ligatures:normal;font-variant-caps:normal;font-variant-numeric:normal;font-feature-settings:normal;text-align:start;letter-spacing:0px;word-spacing:0px;writing-mode:lr-tb;text-anchor:start;fill:#000000;fill-opacity:1;stroke:none"><flowRegion
     id="flowRegion4052"><rect
       id="rect4054"
       width="528"
       height="114"
       x="716"
       y="168" /></flowRegion><flowPara
     id="flowPara4056" /></flowRoot><path
   style="fill:none;stroke:#000000;stroke-width:2;stroke-linecap:butt;stroke-linejoin:round;stroke-miterlimit:4;stroke-dasharray:none;stroke-opacity:1"
   d="m 455.3227,169.67751 -129.45747,-0.31896 v 0.52917 z"
   id="path5059"
   inkscape:connector-curvature="0"
   sodipodi:nodetypes="cccc" /><path
   style="fill:none;stroke:#000000;stroke-width:2.30089498;stroke-linecap:butt;stroke-linejoin:round;stroke-miterlimit:4;stroke-dasharray:none;stroke-opacity:1"
   d="m 459.92673,215.04484 -160.6783,-0.31896 z"
   id="path5061"
   inkscape:connector-curvature="0"
   sodipodi:nodetypes="ccc" /><path
   style="fill:none;stroke:#000000;stroke-width:2;stroke-linecap:butt;stroke-linejoin:round;stroke-miterlimit:4;stroke-dasharray:none;stroke-opacity:1"
   d="m 455.3227,124.43269 -129.45747,-0.31896 v 0.52917 z"
   id="path5059-5"
   inkscape:connector-curvature="0"
   sodipodi:nodetypes="cccc" /><path
   style="fill:none;stroke:#000000;stroke-width:2.30089498;stroke-linecap:butt;stroke-linejoin:round;stroke-miterlimit:4;stroke-dasharray:none;stroke-opacity:1"
   d="M 459.92673,260.28966 299.24843,259.9707 Z"
   id="path5061-1"
   inkscape:connector-curvature="0"
   sodipodi:nodetypes="ccc" /><path
   style="fill:none;stroke:#000000;stroke-width:2;stroke-linecap:butt;stroke-linejoin:round;stroke-miterlimit:4;stroke-dasharray:none;stroke-opacity:1"
   d="M 325.86523,147.26531 H 248.17265 V 78.604384 l 215.88131,0.318958"
   id="path5142-1"
   inkscape:connector-curvature="0"
   sodipodi:nodetypes="cccc" /><path
   style="fill:none;stroke:#000000;stroke-width:2;stroke-linecap:butt;stroke-linejoin:round;stroke-miterlimit:4;stroke-dasharray:none;stroke-opacity:1"
   d="M 248.01417,114.64764 104.58559,114.13501 V 33.376093 l 359.46836,0.302431"
   id="path5180"
   inkscape:connector-curvature="0"
   sodipodi:nodetypes="cccc" /><path
   style="fill:none;stroke:#000000;stroke-width:2;stroke-linecap:butt;stroke-linejoin:round;stroke-miterlimit:4;stroke-dasharray:none;stroke-opacity:1"
   d="m 325.86523,124.6429 v 45.24482 z"
   id="path5100"
   inkscape:connector-curvature="0"
   sodipodi:nodetypes="ccc" /><path
   style="fill:none;stroke:#000000;stroke-width:2;stroke-linecap:butt;stroke-linejoin:round;stroke-miterlimit:4;stroke-dasharray:none;stroke-opacity:1"
   d="M 299.24843,214.72588 V 259.9707"
   id="path5102"
   inkscape:connector-curvature="0"
   sodipodi:nodetypes="cc" /><path
   style="fill:none;stroke:#000000;stroke-width:2;stroke-linecap:butt;stroke-linejoin:round;stroke-miterlimit:4;stroke-dasharray:none;stroke-opacity:1"
   d="M 104.83528,73.256676 H 51.139755 V 237.36482 l 248.108675,-0.0165"
   id="path5221"
   inkscape:connector-curvature="0"
   sodipodi:nodetypes="cccc" /><path
   style="fill:none;stroke:#000000;stroke-width:2;stroke-linecap:butt;stroke-linejoin:round;stroke-miterlimit:4;stroke-dasharray:none;stroke-opacity:1"
   d="M 51.139755,155.31075 H 31.031425"
   id="path5238"
   inkscape:connector-curvature="0"
   sodipodi:nodetypes="cc" /></g><g
     inkscape:label="Overlay"
     id="g2219"
     inkscape:groupmode="layer"
     style="display:inline;opacity:0.95"><path
       transform="scale(0.26458333)"
       inkscape:connector-curvature="0"
       id="path2211"
       d="m 1737.0386,1023.6893 c -9.1735,-4.7783 -15.6889,-14.1548 -15.7325,-22.641 -0.01,-1.0284 -84.4004,-1.67624 -295.7476,-2.27032 -176.4239,-0.49593 -296.2308,-1.3218 -296.9561,-2.04707 -0.693,-0.69305 -1.1481,-19.23133 -1.0585,-43.11848 l 0.1573,-41.90273 h -33.8436 -33.8437 v -3.31305 -3.31305 h 33.8437 33.8436 l -0.1573,-41.90274 c -0.1,-26.64725 0.3299,-42.38983 1.1807,-43.24067 0.8959,-0.89589 99.0098,-1.14805 296.9561,-0.76322 l 295.618,0.57471 0.01,-3.38544 c 0.016,-7.44694 2.7645,-13.20621 8.8635,-18.57482 11.4873,-10.11151 26.8343,-11.81501 40.3195,-4.47544 12.0551,6.56123 15.7245,13.55067 15.738,29.97784 0.012,14.81991 -5.3317,23.66458 -17.8831,29.59825 -13.3067,6.29077 -32.162,2.91558 -40.7537,-7.29516 -3.135,-3.72565 -6.2633,-11.44165 -6.2842,-15.49968 -0.01,-1.5072 -583.46,-3.95751 -585.8822,-2.46051 -0.6928,0.42815 -1.1982,34.54588 -1.1982,80.87973 0,62.94911 0.3553,80.25131 1.6565,80.66187 0.9111,0.28748 133.0024,0.78834 293.5362,1.11302 l 291.8797,0.59033 v -3.31998 c 0,-16.19764 17.8319,-29.85429 36.1489,-27.68491 8.6879,1.02894 19.2574,7.13843 24.0538,13.90372 3.3676,4.74991 3.958,6.94454 4.4645,16.59325 0.6824,13.00115 -0.8945,18.94125 -6.8194,25.68935 -9.5251,10.8485 -29.1116,14.3959 -42.1079,7.6262 z"
       style="opacity:1;fill:#0072b2;fill-opacity:1;stroke:#0072b2;stroke-width:3.77952761;stroke-linecap:butt;stroke-linejoin:miter;stroke-miterlimit:4;stroke-dasharray:none;stroke-dashoffset:0;stroke-opacity:1;paint-order:normal" /><path
       transform="scale(0.26458333)"
       inkscape:connector-curvature="0"
       id="path2213"
       d="m 1228.847,655.41229 c -0.3915,-1.02034 -0.8201,-20.2526 -0.9523,-42.73835 l -0.2404,-40.88318 -83.8202,-0.34119 -83.8202,-0.34119 v -3.30316 -3.30317 h 84.1334 84.1334 l 0.3494,-43.40096 0.3494,-43.40095 146.4368,-0.41488 c 80.5403,-0.22818 191.3121,-0.007 246.1596,0.4915 l 99.7228,0.90637 v 2.93391 2.93391 l -151.2946,0.88156 c -83.2121,0.48486 -192.6421,0.88156 -243.1779,0.88156 h -91.8832 v 80.83842 80.83842 l 152.7316,10e-4 c 84.0024,6e-4 193.4324,0.39672 243.1779,0.88028 l 90.4462,0.87921 v 2.87681 2.87678 l -127.4404,0.88121 c -70.0923,0.48464 -180.7337,0.88119 -245.8699,0.88119 -100.2841,0 -118.5386,-0.28425 -119.1414,-1.85516 z"
       style="opacity:1;fill:#d55e00;fill-opacity:1;stroke:#d55e00;stroke-width:3.77952761;stroke-linecap:butt;stroke-linejoin:miter;stroke-miterlimit:4;stroke-dasharray:none;stroke-dashoffset:0;stroke-opacity:1;paint-order:normal" /><path
       transform="scale(0.26458333)"
       inkscape:connector-curvature="0"
       id="path2215"
       d="m 1737.4927,339.77421 c -10.4096,-5.18733 -16.1609,-13.74408 -16.1866,-24.08222 l -0.01,-2.98175 h -330.6424 -330.6424 v -4.1522 -4.15221 l 330.4517,0.98993 330.4517,0.98992 0.8999,-6.78379 c 2.2445,-16.92015 22.9797,-27.75658 42.3413,-22.12801 9.4427,2.74506 18.4793,10.93354 20.605,18.67111 2.1211,7.72082 1.8144,22.45456 -0.5871,28.20349 -6.8934,16.50221 -29.52,23.97876 -46.6837,15.42573 z"
       style="opacity:1;fill:#0072b2;fill-opacity:1;stroke:#0072b2;stroke-width:3.77952761;stroke-linecap:butt;stroke-linejoin:miter;stroke-miterlimit:4;stroke-dasharray:none;stroke-dashoffset:0;stroke-opacity:1;paint-order:normal" /><path
       transform="scale(0.26458333)"
       inkscape:connector-curvature="0"
       id="path2217"
       d="m 1060.2572,138.1125 0.4194,-3.64435 66.5923,0.006 c 36.6257,0.004 185.2657,0.15263 330.3111,0.33131 l 263.7187,0.32488 v 3.31305 3.31305 h -330.7304 -330.7304 z"
       style="opacity:1;fill:#d55e00;fill-opacity:1;stroke:#d55e00;stroke-width:3.77952761;stroke-linecap:butt;stroke-linejoin:miter;stroke-miterlimit:4;stroke-dasharray:none;stroke-dashoffset:0;stroke-opacity:1;paint-order:normal" /><path
       style="fill:#d55e00;fill-opacity:1;stroke:#d55e00;stroke-width:3.77952761;stroke-linecap:butt;stroke-linejoin:miter;stroke-miterlimit:4;stroke-dasharray:none;stroke-dashoffset:0;stroke-opacity:1;paint-order:normal"
       d="m 190.49291,910.82621 c -0.48592,-0.4859 -0.88348,-70.25874 -0.88348,-155.05074 V 601.60821 h -35.78095 -35.78094 v -3.31305 -3.31305 h 35.77545 35.77544 l 0.3368,-154.71944 0.33681,-154.71944 100.38541,-0.33964 100.38542,-0.33963 v -74.04173 c 0,-60.6725 0.3242,-74.31078 1.79546,-75.53183 1.32125,-1.09653 89.26413,-1.4019 332.96154,-1.15618 l 331.16603,0.33393 0.4194,3.64435 0.4193,3.64436 H 728.39939 398.99419 V 290.02433 438.2918 l 63.94187,0.79597 c 35.16802,0.43777 155.62515,1.0471 267.68248,1.35404 l 203.74061,0.55809 0.34327,-67.78919 0.34328,-67.78918 61.29142,-0.34454 61.29138,-0.34453 v 3.98888 3.9889 h -58.31635 -58.31641 l 0.33803,125.5646 0.33803,125.5646 57.97837,0.34523 57.97833,0.34523 v 3.31236 3.31235 l -61.29138,-0.34453 -61.29142,-0.34454 -0.34442,-61.0976 -0.34441,-61.0976 -270.00047,-0.97697 c -182.13126,-0.65902 -270.53958,-1.42183 -271.657,-2.34391 -1.29009,-1.06459 -1.65653,-18.18707 -1.65653,-77.40485 V 291.50672 H 294.30181 197.56075 V 598.29516 905.0836 h 430.0339 430.03385 v 3.31305 3.31305 H 624.50247 c -238.21935,0 -433.52365,-0.39757 -434.00956,-0.88349 z"
       id="path2228"
       inkscape:connector-curvature="0"
       transform="scale(0.26458333)" /></g><g
     inkscape:groupmode="layer"
     id="layer2"
     inkscape:label="Leaf Nodes"
     style="opacity:1"><rect
       id="rect4170"
       width="17.4625"
       height="17.4625"
       x="455.32269"
       y="27.947334"
       style="fill:#d55e00;fill-opacity:1;stroke-width:1;stroke-miterlimit:4;stroke-dasharray:none" /><path
       style="fill:#0072b2;fill-opacity:1;stroke:none;stroke-width:0.52916664;stroke-opacity:1"
       d="m 459.92673,225.98245 c -3.46015,-1.61865 -4.71015,-3.8413 -4.71015,-8.37523 0,-4.38822 0.87719,-6.02001 4.28308,-7.96759 3.90903,-2.23529 9.30327,-1.05669 12.03705,2.63001 1.51964,2.04934 1.82436,7.03733 0.58896,9.64073 -1.98612,4.18546 -7.80465,6.12772 -12.19894,4.07208 z"
       id="path4176"
       inkscape:connector-curvature="0" /><rect
       id="rect4170-8"
       width="17.4625"
       height="17.4625"
       x="455.32269"
       y="118.43697"
       style="fill:#d55e00;fill-opacity:1;stroke-width:1;stroke-miterlimit:4;stroke-dasharray:none" /><rect
       id="rect4170-0"
       width="17.4625"
       height="17.4625"
       x="455.32269"
       y="163.68179"
       style="fill:#d55e00;fill-opacity:1;stroke-width:1;stroke-miterlimit:4;stroke-dasharray:none" /><path
       style="fill:#0072b2;fill-opacity:1;stroke:none;stroke-width:0.52916664;stroke-opacity:1"
       d="m 459.92673,90.247989 c -3.46015,-1.61866 -4.71015,-3.84131 -4.71015,-8.37523 0,-4.38822 0.87719,-6.02001 4.28308,-7.9676 3.90903,-2.23529 9.30327,-1.05668 12.03705,2.63002 1.51964,2.04933 1.82436,7.03732 0.58896,9.64072 -1.98612,4.18546 -7.80465,6.12773 -12.19894,4.07209 z"
       id="path4176-1"
       inkscape:connector-curvature="0" /><path
       style="fill:#0072b2;fill-opacity:1;stroke:none;stroke-width:0.52916664;stroke-opacity:1"
       d="m 459.92673,271.22727 c -3.46015,-1.61865 -4.71015,-3.84131 -4.71015,-8.37523 0,-4.38822 0.87719,-6.02001 4.28308,-7.9676 3.90903,-2.23529 9.30327,-1.05668 12.03705,2.63002 1.51964,2.04933 1.82436,7.03733 0.58896,9.64072 -1.98612,4.18546 -7.80465,6.12773 -12.19894,4.07209 z"
       id="path4176-0"
       inkscape:connector-curvature="0" /><path
       style="opacity:1;fill:#e8950f;fill-opacity:1;stroke:#000000;stroke-width:2.00000006;stroke-linecap:butt;stroke-linejoin:miter;stroke-miterlimit:4;stroke-dasharray:8.00000022, 8.00000022000000044;stroke-dashoffset:0;stroke-opacity:1"
       d="M 280.15428,0 V 300.00001"
       id="path5259"
       inkscape:connector-curvature="0"
       sodipodi:nodetypes="cc" /></g></svg>