<?xml version="1.0" encoding="UTF-8" standalone="no"?>
<!-- Created with Inkscape (http://www.inkscape.org/) -->

<svg
   xmlns:dc="http://purl.org/dc/elements/1.1/"
   xmlns:cc="http://creativecommons.org/ns#"
   xmlns:rdf="http://www.w3.org/1999/02/22-rdf-syntax-ns#"
   xmlns:svg="http://www.w3.org/2000/svg"
   xmlns="http://www.w3.org/2000/svg"
   xmlns:sodipodi="http://sodipodi.sourceforge.net/DTD/sodipodi-0.dtd"
   xmlns:inkscape="http://www.inkscape.org/namespaces/inkscape"
   width="500mm"
   height="300mm"
   viewBox="0 0 500 300.00001"
   version="1.1"
   id="svg8"
   inkscape:version="0.92.5 (2060ec1f9f, 2020-04-08)"
   sodipodi:docname="tree-option3.svg"
   xml:space="preserve"><defs
     id="defs2"><clipPath
       clipPathUnits="userSpaceOnUse"
       id="clipPath4344"><rect
         style="fill:#00ff00;fill-opacity:0.41544201;stroke:none;stroke-width:0.264999;stroke-dasharray:none"
         id="rect4346"
         width="448.2951"
         height="200.26271"
         x="30.505629"
         y="54.441097" /></clipPath></defs><sodipodi:namedview
     id="base"
     pagecolor="#ffffff"
     bordercolor="#666666"
     borderopacity="1.0"
     inkscape:pageopacity="0.0"
     inkscape:pageshadow="2"
     inkscape:zoom="0.53357689"
     inkscape:cx="654.91301"
     inkscape:cy="703.99858"
     inkscape:document-units="mm"
     inkscape:current-layer="layer4"
     showgrid="false"
     units="mm"
     inkscape:pagecheckerboard="false"
     inkscape:window-width="1920"
     inkscape:window-height="1136"
     inkscape:window-x="0"
     inkscape:window-y="27"
     inkscape:window-maximized="1"
     inkscape:showpageshadow="0"
     inkscape:deskcolor="#d1d1d1"
     inkscape:snap-object-midpoints="true"
     inkscape:snap-center="false"
     inkscape:snap-grids="true"
     inkscape:snap-bbox="false"
     inkscape:snap-bbox-edge-midpoints="true"
     inkscape:bbox-paths="true"
     inkscape:bbox-nodes="true"
     inkscape:snap-bbox-midpoints="true"
     inkscape:snap-global="true"
     inkscape:object-nodes="true"
     inkscape:snap-others="true"
     inkscape:object-paths="true"
     inkscape:snap-page="true" /><metadata
     id="metadata5"><rdf:RDF><cc:Work
         rdf:about=""><dc:format>image/svg+xml</dc:format><dc:type
           rdf:resource="http://purl.org/dc/dcmitype/StillImage" /><dc:title /></cc:Work></rdf:RDF></metadata><g
     inkscape:label="Branches"
     inkscape:groupmode="layer"
     id="layer1"
     transform="translate(0,3.000061)"><flowRoot
   xml:space="preserve"
   id="flowRoot18"
   style="font-style:normal;font-variant:normal;font-weight:500;font-stretch:normal;font-size:40px;line-height:1.25;font-family:'CMU Sans Serif';-inkscape-font-specification:'CMU Sans Serif, Medium';font-variant-ligatures:normal;font-variant-caps:normal;font-variant-numeric:normal;font-feature-settings:normal;text-align:start;letter-spacing:0px;word-spacing:0px;writing-mode:lr-tb;text-anchor:start;fill:#000000;fill-opacity:1;stroke:none"><flowRegion
     id="flowRegion20"
     style="font-style:normal;font-variant:normal;font-weight:500;font-stretch:normal;font-size:40px;font-family:'CMU Sans Serif';-inkscape-font-specification:'CMU Sans Serif, Medium';font-variant-ligatures:normal;font-variant-caps:normal;font-variant-numeric:normal;font-feature-settings:normal;text-align:start;writing-mode:lr-tb;text-anchor:start"><rect
       id="rect22"
       width="1310"
       height="318"
       x="354"
       y="142"
       style="font-style:normal;font-variant:normal;font-weight:500;font-stretch:normal;font-size:40px;font-family:'CMU Sans Serif';-inkscape-font-specification:'CMU Sans Serif, Medium';font-variant-ligatures:normal;font-variant-caps:normal;font-variant-numeric:normal;font-feature-settings:normal;text-align:start;writing-mode:lr-tb;text-anchor:start" /></flowRegion><flowPara
     id="flowPara24" /></flowRoot>

<flowRoot
   xml:space="preserve"
   id="flowRoot4050"
   style="font-style:normal;font-variant:normal;font-weight:500;font-stretch:normal;font-size:48px;line-height:1.25;font-family:'CMU Sans Serif';-inkscape-font-specification:'CMU Sans Serif, Medium';font-variant-ligatures:normal;font-variant-caps:normal;font-variant-numeric:normal;font-feature-settings:normal;text-align:start;letter-spacing:0px;word-spacing:0px;writing-mode:lr-tb;text-anchor:start;fill:#000000;fill-opacity:1;stroke:none"><flowRegion
     id="flowRegion4052"><rect
       id="rect4054"
       width="528"
       height="114"
       x="716"
       y="168" /></flowRegion><flowPara
     id="flowPara4056" /></flowRoot><path
   style="fill:none;stroke:#000000;stroke-width:2;stroke-linecap:butt;stroke-linejoin:round;stroke-miterlimit:4;stroke-dasharray:none;stroke-opacity:1"
   d="m 455.3227,169.67751 -129.45747,-0.31896 v 0.52917 z"
   id="path5059"
   inkscape:connector-curvature="0"
   sodipodi:nodetypes="cccc" /><path
   style="fill:none;stroke:#000000;stroke-width:2.30089498;stroke-linecap:butt;stroke-linejoin:round;stroke-miterlimit:4;stroke-dasharray:none;stroke-opacity:1"
   d="m 459.92673,215.04484 -160.6783,-0.31896 z"
   id="path5061"
   inkscape:connector-curvature="0"
   sodipodi:nodetypes="ccc" /><path
   style="fill:none;stroke:#000000;stroke-width:2;stroke-linecap:butt;stroke-linejoin:round;stroke-miterlimit:4;stroke-dasharray:none;stroke-opacity:1"
   d="m 455.3227,124.43269 -129.45747,-0.31896 v 0.52917 z"
   id="path5059-5"
   inkscape:connector-curvature="0"
   sodipodi:nodetypes="cccc" /><path
   style="fill:none;stroke:#000000;stroke-width:2.30089498;stroke-linecap:butt;stroke-linejoin:round;stroke-miterlimit:4;stroke-dasharray:none;stroke-opacity:1"
   d="M 459.92673,260.28966 299.24843,259.9707 Z"
   id="path5061-1"
   inkscape:connector-curvature="0"
   sodipodi:nodetypes="ccc" /><path
   style="fill:none;stroke:#000000;stroke-width:2;stroke-linecap:butt;stroke-linejoin:round;stroke-miterlimit:4;stroke-dasharray:none;stroke-opacity:1"
   d="M 325.86523,147.26531 H 248.17265 V 78.604384 l 215.88131,0.318958"
   id="path5142-1"
   inkscape:connector-curvature="0"
   sodipodi:nodetypes="cccc" /><path
   style="fill:none;stroke:#000000;stroke-width:2;stroke-linecap:butt;stroke-linejoin:round;stroke-miterlimit:4;stroke-dasharray:none;stroke-opacity:1"
   d="M 248.01417,114.64764 104.58559,114.13501 V 33.376093 l 359.46836,0.302431"
   id="path5180"
   inkscape:connector-curvature="0"
   sodipodi:nodetypes="cccc" /><path
   style="fill:none;stroke:#000000;stroke-width:2;stroke-linecap:butt;stroke-linejoin:round;stroke-miterlimit:4;stroke-dasharray:none;stroke-opacity:1"
   d="m 325.86523,124.6429 v 45.24482 z"
   id="path5100"
   inkscape:connector-curvature="0"
   sodipodi:nodetypes="ccc" /><path
   style="fill:none;stroke:#000000;stroke-width:2;stroke-linecap:butt;stroke-linejoin:round;stroke-miterlimit:4;stroke-dasharray:none;stroke-opacity:1"
   d="M 299.24843,214.72588 V 259.9707"
   id="path5102"
   inkscape:connector-curvature="0"
   sodipodi:nodetypes="cc" /><path
   style="fill:none;stroke:#000000;stroke-width:2;stroke-linecap:butt;stroke-linejoin:round;stroke-miterlimit:4;stroke-dasharray:none;stroke-opacity:1"
   d="M 104.83528,73.256676 H 51.139755 V 237.36482 l 248.108675,-0.0165"
   id="path5221"
   inkscape:connector-curvature="0"
   sodipodi:nodetypes="cccc" /><path
   style="fill:none;stroke:#000000;stroke-width:2;stroke-linecap:butt;stroke-linejoin:round;stroke-miterlimit:4;stroke-dasharray:none;stroke-opacity:1"
   d="M 51.139755,155.31075 H 31.031425"
   id="path5238"
   inkscape:connector-curvature="0"
   sodipodi:nodetypes="cc" /></g><g
     inkscape:groupmode="layer"
     id="layer4"
     inkscape:label="Overlay"><path
       style="opacity:1;fill:#d55e00;fill-opacity:1;stroke:#d55e00;stroke-width:1;stroke-linecap:butt;stroke-linejoin:miter;stroke-miterlimit:4;stroke-dasharray:none;stroke-dashoffset:0;stroke-opacity:1;paint-order:normal"
       d="m 50.487465,241.51294 c -0.41378,-0.26155 -0.480646,-5.23296 -0.55264,-41.10398 l -0.0819,-40.80645 h -9.41075 -9.41075 v -0.94142 -0.94142 h 9.41423 9.41422 v -40.50181 c 0,-27.318805 0.10574,-40.699366 0.32485,-41.108782 0.31723,-0.592754 0.94628,-0.606986 26.8282,-0.606986 h 26.503355 l 0.0808,-19.848325 0.0808,-19.848327 17.02406,-0.08115 191.07349,-0.08115 v 1.101029 1.101029 H 121.56486 105.40377 v 39.179891 39.179901 l 2.40091,0.20295 c 1.32049,0.11162 8.59298,0.20295 16.16109,0.20295 h 98.41929 v 1.09567 1.09568 l -101.05555,-0.17425 c -9.01805,-0.0958 -16.71418,-0.23855 -17.10251,-0.31714 l -0.70607,-0.14288 V 97.933353 77.698745 H 77.788715 52.056505 v 80.962345 80.96234 h 42.83472 l 127.493835,0 v 1.09833 1.09832 l -128.042995,-0.005 c -26.79136,-0.003 -43.56392,-0.1186 -43.8546,-0.30234 z"
       id="path2125"
       inkscape:connector-curvature="0"
       sodipodi:nodetypes="cscccccccscsccccccccccccsccccccccccccccccccc" /><path
       style="opacity:1;fill:#d55e00;fill-opacity:1;stroke:#d55e00;stroke-width:1;stroke-linecap:butt;stroke-linejoin:miter;stroke-miterlimit:4;stroke-dasharray:none;stroke-dashoffset:0;stroke-opacity:1;paint-order:normal"
       d="m 312.40299,36.589959 v -0.941422 h 71.54812 71.54812 v 0.941422 0.941422 h -71.54812 -71.54812 z"
       id="path2127"
       inkscape:connector-curvature="0" /><path
       style="opacity:1;fill:#0072b2;fill-opacity:1;stroke:#0072b2;stroke-width:1;stroke-linecap:butt;stroke-linejoin:miter;stroke-miterlimit:4;stroke-dasharray:none;stroke-dashoffset:0;stroke-opacity:1;paint-order:normal"
       d="m 461.46156,271.67213 c -3.5675,-1.17997 -5.95152,-3.86321 -5.96058,-6.70875 -0.002,-0.51958 -91.10789,-0.54916 -122.96616,-0.54916 -25.77057,0 -33.75991,-0.0884 -34.04812,-0.37657 -0.27866,-0.27866 -0.76771,-3.26596 -0.37657,-11.45397 v -11.07741 h -37.5 -38.55833 v -0.94142 -0.94142 h 38.55437 37.49604 l 0.0824,-11.21862 0.0824,-11.21862 33.89121,-0.1569 123.18407,-0.15691 0.19966,-1.63583 c 0.27005,-2.21255 1.07503,-3.4756 3.11027,-4.88019 2.39934,-1.65588 4.86917,-2.10086 7.5756,-1.36486 4.05582,1.10298 6.08507,3.51833 6.43194,7.65575 0.26291,3.13619 -0.28231,5.06096 -1.96324,6.93057 -3.1696,3.52534 -8.47664,4.08312 -12.32501,1.29539 -1.61253,-1.16811 -2.47482,-2.5214 -2.74204,-4.30337 l -0.20153,-1.3439 H 333.22092 300.30676 v 21.49726 21.49726 l 32.87133,-0.0799 122.1642,-0.0799 0.19895,-1.63 c 0.335,-2.74466 1.92523,-4.58044 5.13578,-5.9288 1.84261,-0.77386 4.95427,-0.69636 6.97084,0.17361 2.33019,1.00525 4.31038,3.21342 4.75946,5.30737 1.10995,5.17547 -0.49646,9.10051 -4.49353,10.97935 -1.63904,0.77044 -5.11349,1.15273 -6.45226,0.70993 z"
       id="path2131"
       inkscape:connector-curvature="0"
       sodipodi:nodetypes="ccscscccccccccccscccccccccccccscccccc" /><path
       style="opacity:1;fill:#e69f00;fill-opacity:0;stroke:#000000;stroke-width:1;stroke-linecap:butt;stroke-linejoin:miter;stroke-miterlimit:4;stroke-dasharray:none;stroke-dashoffset:0;stroke-opacity:1;paint-order:normal"
       d="m 325.22593,173.99874 c -0.20162,-0.12477 -0.33291,-4.22346 -0.36187,-11.29707 l -0.0455,-11.10125 -38.75523,-0.15691 -38.75523,-0.1569 -0.0813,-16.23954 -0.0813,-16.23954 h -11.92186 -11.92186 l -1.9e-4,-1.01987 -1.9e-4,-1.01988 11.92488,0.0958 11.92487,0.0958 V 99.2503 c 0,-14.518846 0.0766,-17.772607 0.42534,-18.062014 0.31263,-0.259466 17.21208,-0.297949 63.78138,-0.27378 l 152.64546,0.07922 v 0.941422 0.941422 L 311.87395,82.95579 249.034,83.03501 v 33.26283 33.26283 h 37.98357 37.98358 l -0.0416,-11.33923 c -0.0337,-9.17719 0.0387,-11.39011 0.3794,-11.60607 0.23156,-0.14677 9.49398,-0.26901 20.58315,-0.27165 l 109.45154,-0.005 v 1.09833 1.09832 l -95.48711,2.7e-4 c -3.40873,2.2e-4 -12.23456,0.0938 -19.61297,0.208 l -13.41527,0.2076 v 21.44472 21.44472 h 19.61297 108.90238 v 0.90395 0.90395 l -106.78418,0.20021 c -9.62273,0.018 -18.74406,0.23289 -20.27097,0.27283 -1.52691,0.0399 -2.91859,-0.0155 -3.09262,-0.12321 z"
       id="path2137"
       inkscape:connector-curvature="0"
       sodipodi:nodetypes="cccccccccccccscsccccccccccccccccccccccccsccc" /></g><g
     inkscape:groupmode="layer"
     id="layer2"
     inkscape:label="Leaf Nodes"
     style="opacity:1"><rect
       id="rect4170"
       width="17.4625"
       height="17.4625"
       x="455.32269"
       y="27.947334"
       style="fill:#d55e00;fill-opacity:1;stroke-width:0.26458332" /><path
       style="fill:#0072b2;fill-opacity:1;stroke:none;stroke-width:0.52916664;stroke-opacity:1"
       d="m 459.92673,225.98245 c -3.46015,-1.61865 -4.71015,-3.8413 -4.71015,-8.37523 0,-4.38822 0.87719,-6.02001 4.28308,-7.96759 3.90903,-2.23529 9.30327,-1.05669 12.03705,2.63001 1.51964,2.04934 1.82436,7.03733 0.58896,9.64073 -1.98612,4.18546 -7.80465,6.12772 -12.19894,4.07208 z"
       id="path4176"
       inkscape:connector-curvature="0" /><rect
       id="rect4170-8"
       width="17.4625"
       height="17.4625"
       x="455.32269"
       y="118.43697"
       style="fill:#d55e00;fill-opacity:1;stroke-width:0.26458332" /><rect
       id="rect4170-0"
       width="17.4625"
       height="17.4625"
       x="455.32269"
       y="163.68179"
       style="fill:#d55e00;fill-opacity:1;stroke-width:0.26458332" /><path
       style="fill:#0072b2;fill-opacity:1;stroke:none;stroke-width:0.52916664;stroke-opacity:1"
       d="m 459.92673,90.247989 c -3.46015,-1.61866 -4.71015,-3.84131 -4.71015,-8.37523 0,-4.38822 0.87719,-6.02001 4.28308,-7.9676 3.90903,-2.23529 9.30327,-1.05668 12.03705,2.63002 1.51964,2.04933 1.82436,7.03732 0.58896,9.64072 -1.98612,4.18546 -7.80465,6.12773 -12.19894,4.07209 z"
       id="path4176-1"
       inkscape:connector-curvature="0" /><path
       style="fill:#0072b2;fill-opacity:1;stroke:none;stroke-width:0.52916664;stroke-opacity:1"
       d="m 459.92673,271.22727 c -3.46015,-1.61865 -4.71015,-3.84131 -4.71015,-8.37523 0,-4.38822 0.87719,-6.02001 4.28308,-7.9676 3.90903,-2.23529 9.30327,-1.05668 12.03705,2.63002 1.51964,2.04933 1.82436,7.03733 0.58896,9.64072 -1.98612,4.18546 -7.80465,6.12773 -12.19894,4.07209 z"
       id="path4176-0"
       inkscape:connector-curvature="0" /><path
       style="fill:#e8950f;fill-opacity:1;stroke:#000000;stroke-width:2;stroke-linecap:butt;stroke-linejoin:miter;stroke-miterlimit:4;stroke-dasharray:8, 8;stroke-dashoffset:0;stroke-opacity:1"
       d="M 222.38506,0 V 300"
       id="path5259"
       inkscape:connector-curvature="0"
       sodipodi:nodetypes="cc" /></g></svg>